<svg id="レイヤー_1" data-name="レイヤー 1" xmlns="http://www.w3.org/2000/svg" xmlns:xlink="http://www.w3.org/1999/xlink" viewBox="0 0 1600 900"><defs><style>.cls-1{fill:none;}.cls-2{clip-path:url(#clip-path);}.cls-3{opacity:0.1;}.cls-4{fill:#fff;}.cls-5{clip-path:url(#clip-path-2);}</style><clipPath id="clip-path"><rect class="cls-1" x="-1650" width="1600" height="900"/></clipPath><clipPath id="clip-path-2"><rect class="cls-1" width="1600" height="900"/></clipPath></defs><title>bg-topcover</title><g class="cls-2"><g class="cls-3"><path class="cls-4" d="M304,70H-596a24,24,0,0,0-24,24V694a24,24,0,0,0,24,24h348.86L-266,850H-26L-44.86,718H304a24,24,0,0,0,24-24V94A24,24,0,0,0,304,70ZM292,598H-584V106H292Z"/></g></g><g class="cls-5"><g class="cls-3"><path class="cls-4" d="M452,802V370a24,24,0,0,0-24-24H-220a24,24,0,0,0-24,24V802H-346v24a24,24,0,0,0,24,24H530a24,24,0,0,0,24-24V802Zm-30-30H-214V376H422Z"/><path class="cls-4" d="M1954,70H1054a24,24,0,0,0-24,24V694a24,24,0,0,0,24,24h348.86L1384,850h240l-18.86-132H1954a24,24,0,0,0,24-24V94A24,24,0,0,0,1954,70Zm-12,528H1066V106h876Z"/><path class="cls-4" d="M878,406H710a24,24,0,0,0-24,24V826a24,24,0,0,0,24,24H878a24,24,0,0,0,24-24V430A24,24,0,0,0,878,406Zm0,408a12,12,0,0,1-12,12H722a12,12,0,0,1-12-12V442a12,12,0,0,1,12-12h18v12a12,12,0,0,0,12,12h84a12,12,0,0,0,12-12V430h18a12,12,0,0,1,12,12Z"/><path class="cls-4" d="M836,778H752a12,12,0,0,0,0,24h84a12,12,0,0,0,0-24Z"/></g></g></svg>