<svg xmlns="http://www.w3.org/2000/svg" viewBox="0 0 530 100"><path fill="none" d="M0 0h530v100H0z"/><path d="M95.116 17.409c.535 1.005.854 1.908.954 2.712s.151 1.976.151 3.516v55.741c0 4.62-1.273 7.331-3.817 8.135-1.272.401-2.879.603-4.82.603-1.943 0-3.482-.166-4.62-.502-1.14-.334-2.009-.736-2.611-1.205-.603-.468-1.072-1.138-1.406-2.009-.336-1.138-.502-2.878-.502-5.223V45.531c-1.675 2.076-4.118 5.373-7.332 9.893s-5.257 7.349-6.126 8.486a682.803 682.803 0 0 1-1.809 2.36c-.335.437-1.154 1.039-2.46 1.809a8.154 8.154 0 0 1-4.219 1.154c-1.506 0-2.88-.352-4.117-1.055-1.24-.703-2.127-1.389-2.662-2.059l-.804-1.104c-1.34-1.673-3.984-5.238-7.934-10.696-3.952-5.457-6.094-8.387-6.428-8.788v33.847c0 1.541-.051 2.695-.151 3.465-.101.771-.419 1.624-.954 2.561-1.004 1.809-3.615 2.712-7.834 2.712-4.085 0-6.628-.903-7.633-2.712-.536-.937-.854-1.808-.954-2.611-.101-.803-.15-2.009-.15-3.615V23.435c0-1.54.05-2.694.15-3.465.101-.77.418-1.657.954-2.662 1.005-1.74 3.616-2.611 7.834-2.611 1.808 0 3.364.219 4.67.653 1.306.437 2.16.888 2.562 1.355l.603.603 22.799 29.93C67.831 32.172 75.432 22.23 79.248 17.409c1.138-1.808 3.832-2.712 8.085-2.712 4.251 0 6.845.904 7.783 2.712zm75.326-.101c.668-1.07 1.64-1.808 2.912-2.209 1.271-.402 2.862-.603 4.771-.603s3.431.168 4.57.502c1.138.336 2.009.737 2.611 1.205.603.469 1.037 1.172 1.306 2.109.401 1.139.603 2.879.603 5.223v30.331c0 8.838-2.746 16.873-8.235 24.104-2.68 3.415-6.127 6.177-10.346 8.286-4.218 2.108-8.888 3.163-14.01 3.163-5.123 0-9.777-1.071-13.961-3.214-4.186-2.142-7.583-4.954-10.194-8.437-5.423-7.097-8.135-15.131-8.135-24.104v-30.23c0-1.607.05-2.795.15-3.565.101-.77.418-1.657.954-2.662.535-1.004 1.439-1.707 2.712-2.108 1.271-.402 2.979-.603 5.122-.603s3.85.2 5.122.603c1.271.401 2.143 1.104 2.611 2.108.804 1.541 1.205 3.65 1.205 6.328v30.13c0 4.085 1.005 7.969 3.014 11.65 1.004 1.876 2.511 3.382 4.52 4.52 2.009 1.14 4.384 1.708 7.131 1.708 4.887 0 8.537-1.809 10.947-5.424s3.615-7.8 3.615-12.555V22.833c.001-2.612.334-4.453 1.005-5.525zm41.981 60.563c-1.742-2.143-2.611-4.067-2.611-5.775 0-1.707 1.439-3.967 4.318-6.779 1.673-1.606 3.448-2.41 5.323-2.41 1.874 0 4.485 1.675 7.834 5.021.938 1.14 2.275 2.228 4.018 3.265 1.74 1.039 3.348 1.557 4.821 1.557 6.227 0 9.34-2.544 9.34-7.633 0-1.54-.854-2.828-2.561-3.867-1.708-1.037-3.834-1.79-6.378-2.26-2.546-.468-5.29-1.221-8.235-2.26a54.15 54.15 0 0 1-8.236-3.666c-2.545-1.406-4.67-3.631-6.377-6.679-1.708-3.046-2.562-6.712-2.562-10.998 0-5.891 2.192-11.03 6.578-15.416 4.385-4.385 10.361-6.579 17.928-6.579 4.018 0 7.684.52 10.998 1.557 3.314 1.039 5.607 2.094 6.88 3.164l2.511 1.908c2.074 1.943 3.113 3.583 3.113 4.922 0 1.34-.804 3.181-2.41 5.523-2.277 3.349-4.62 5.021-7.03 5.021-1.406 0-3.148-.668-5.223-2.009-.201-.133-.587-.468-1.155-1.004a15.649 15.649 0 0 0-1.557-1.306c-1.406-.869-3.198-1.306-5.373-1.306-2.177 0-3.984.52-5.424 1.557-1.44 1.039-2.159 2.478-2.159 4.318 0 1.843.854 3.332 2.561 4.47 1.708 1.14 3.833 1.908 6.378 2.31 2.544.402 5.323 1.022 8.336 1.858 3.014.838 5.791 1.858 8.336 3.063 2.544 1.205 4.671 3.299 6.378 6.277 1.707 2.979 2.562 6.646 2.562 10.997 0 4.354-.871 8.186-2.611 11.5-1.742 3.314-4.018 5.875-6.83 7.684-5.423 3.55-11.216 5.322-17.375 5.322-3.148 0-6.127-.386-8.938-1.154-2.812-.77-5.09-1.724-6.83-2.862-3.55-2.143-6.025-4.219-7.432-6.228l-.906-1.103zM334.05 17.308c.668-1.07 1.64-1.808 2.912-2.209 1.271-.402 2.862-.603 4.771-.603s3.431.168 4.57.502c1.138.336 2.009.737 2.611 1.205.603.469 1.037 1.172 1.306 2.109.401 1.139.603 2.879.603 5.223v30.331c0 8.838-2.746 16.873-8.235 24.104-2.68 3.415-6.127 6.177-10.346 8.286-4.218 2.108-8.888 3.163-14.01 3.163-5.123 0-9.777-1.071-13.961-3.214-4.186-2.142-7.583-4.954-10.194-8.437-5.423-7.097-8.135-15.131-8.135-24.104v-30.23c0-1.607.05-2.795.15-3.565.101-.77.418-1.657.954-2.662.535-1.004 1.439-1.707 2.712-2.108 1.271-.402 2.979-.603 5.122-.603s3.85.2 5.122.603c1.271.401 2.143 1.104 2.611 2.108.804 1.541 1.205 3.65 1.205 6.328v30.13c0 4.085 1.005 7.969 3.014 11.65 1.004 1.876 2.511 3.382 4.52 4.52 2.009 1.14 4.384 1.708 7.131 1.708 4.887 0 8.537-1.809 10.947-5.424s3.615-7.8 3.615-12.555V22.833c0-2.612.334-4.453 1.005-5.525zm95.311 31.437c3.95 4.688 5.926 9.943 5.926 15.769-.135 6.695-2.428 12.303-6.88 16.822-4.454 4.52-9.86 6.779-16.221 6.779h-26.414c-4.688 0-7.432-1.271-8.235-3.816-.402-1.138-.603-2.878-.603-5.223V23.334c0-1.607.05-2.777.15-3.516.101-.735.418-1.606.954-2.611.937-1.808 3.548-2.711 7.834-2.711h25.31c6.159 0 11.314 2.144 15.467 6.428 4.352 4.353 6.528 9.575 6.528 15.668.001 4.419-1.272 8.471-3.816 12.153zM417.51 63.508c0-1.606-.185-2.878-.552-3.816-.369-.937-.989-1.607-1.858-2.009-1.34-.535-3.214-.804-5.624-.804-2.411 0-4.219-.468-5.424-1.406-1.205-.937-1.808-2.862-1.808-5.774 0-2.913.618-4.837 1.857-5.775 1.238-.937 3.298-1.406 6.177-1.406 2.678 0 4.284-.702 4.821-2.108.201-.736.302-1.941.302-3.616 0-1.673-.553-2.845-1.657-3.515-1.105-.669-2.763-1.005-4.972-1.005H394.71v38.065h16.472c4.219-.001 6.328-2.277 6.328-6.831zm56.896-38.014c-.502.972-1.391 1.657-2.662 2.059-1.272.402-2.962.604-5.071.604s-3.801-.201-5.072-.604c-1.272-.401-2.159-1.104-2.661-2.108-.503-1.005-.804-1.892-.904-2.662-.101-.769-.15-1.924-.15-3.465 0-1.539.05-2.694.15-3.465.101-.769.385-1.623.854-2.562.938-1.808 3.549-2.711 7.834-2.711 4.219 0 6.763.903 7.633 2.711.535 1.005.854 1.893.954 2.662.101.771.151 1.926.151 3.465 0 1.541-.051 2.696-.151 3.465-.101.77-.403 1.641-.905 2.611zm-16.521 18.631c0-1.539.05-2.694.15-3.465.101-.77.385-1.657.854-2.662.938-1.74 3.549-2.611 7.834-2.611 3.214 0 5.489.57 6.83 1.708 1.138.938 1.74 2.377 1.808 4.318.065.67.101 1.642.101 2.913v35.151c0 1.541-.051 2.696-.151 3.466-.1.771-.419 1.657-.954 2.661-.87 1.742-3.449 2.611-7.733 2.611-4.218 0-6.796-.904-7.733-2.712-.469-1.004-.753-1.874-.854-2.611-.101-.735-.15-1.908-.15-3.515V44.125zm54.182-18.631c-.502.972-1.391 1.657-2.662 2.059-1.272.402-2.962.604-5.071.604s-3.801-.201-5.072-.604c-1.272-.401-2.159-1.104-2.661-2.108-.503-1.005-.804-1.892-.904-2.662-.101-.769-.15-1.924-.15-3.465 0-1.539.05-2.694.15-3.465.101-.769.385-1.623.854-2.562.938-1.808 3.549-2.711 7.834-2.711 4.219 0 6.763.903 7.633 2.711.535 1.005.854 1.893.954 2.662.101.771.151 1.926.151 3.465 0 1.541-.051 2.696-.151 3.465-.101.77-.403 1.641-.905 2.611zm-16.521 18.631c0-1.539.05-2.694.15-3.465.101-.77.385-1.657.854-2.662.938-1.74 3.549-2.611 7.834-2.611 3.214 0 5.489.57 6.83 1.708 1.138.938 1.74 2.377 1.808 4.318.065.67.101 1.642.101 2.913v35.151c0 1.541-.051 2.696-.151 3.466-.1.771-.419 1.657-.954 2.661-.87 1.742-3.449 2.611-7.733 2.611-4.218 0-6.796-.904-7.733-2.712-.469-1.004-.753-1.874-.854-2.611-.101-.735-.15-1.908-.15-3.515V44.125z" fill="#FFF"/></svg>