<svg viewBox="0 0 972 326" xmlns="http://www.w3.org/2000/svg"><g fill="#06b6d4"><path d="m59.48 157.09c-7.95 0-15.69-.89-23.23-2.67s-14.09-4.45-19.67-8.01c-2.73-1.78-4.39-3.97-4.98-6.59-.6-2.61-.39-5.07.62-7.39 1.01-2.31 2.61-3.92 4.81-4.81 2.19-.89 4.72-.45 7.56 1.33 5.22 3.09 10.74 5.34 16.55 6.76s11.93 2.14 18.33 2.14c9.37 0 16.2-1.57 20.47-4.72 4.27-3.14 6.41-7.21 6.41-12.19 0-4.15-1.51-7.42-4.54-9.79s-8.22-4.33-15.57-5.87l-19.58-4.09c-22.31-4.74-33.46-16.2-33.46-34.35 0-7.83 2.07-14.65 6.23-20.47 4.15-5.81 9.91-10.32 17.27-13.53 7.36-3.2 15.84-4.81 25.45-4.81 7.12 0 13.88.89 20.29 2.67s12.16 4.39 17.27 7.83c2.37 1.66 3.8 3.71 4.27 6.14s.18 4.69-.89 6.76c-1.07 2.08-2.76 3.5-5.07 4.27s-5.01.27-8.1-1.51c-4.39-2.49-8.84-4.27-13.35-5.34s-9.38-1.6-14.6-1.6c-8.19 0-14.6 1.72-19.22 5.16-4.63 3.44-6.94 7.95-6.94 13.53 0 4.27 1.42 7.68 4.27 10.24 2.85 2.55 7.71 4.54 14.6 5.96l19.4 4.09c11.75 2.49 20.5 6.41 26.25 11.75s8.63 12.46 8.63 21.36c0 7.48-2.02 14.06-6.05 19.76-4.04 5.7-9.76 10.12-17.18 13.26s-16.17 4.72-26.25 4.72z"/><path d="m137.44 50.47c-4.16 0-7.39-1.04-9.7-3.12s-3.47-4.95-3.47-8.63 1.16-6.7 3.47-8.72 5.55-3.03 9.7-3.03c8.78 0 13.17 3.92 13.17 11.75s-4.39 11.75-13.17 11.75zm0 106.09c-3.56 0-6.29-1.07-8.19-3.2-1.9-2.14-2.85-5.1-2.85-8.9v-65.33c0-8.07 3.68-12.1 11.04-12.1s11.21 4.04 11.21 12.1v65.33c0 3.8-.95 6.76-2.85 8.9s-4.69 3.2-8.37 3.2z"/><path d="m183.18 156.73c-7.36 0-11.04-3.8-11.04-11.39v-67.28c0-7.48 3.62-11.21 10.86-11.21s10.86 3.74 10.86 11.21v3.56c2.61-4.74 6.23-8.46 10.86-11.12s9.97-4 16.02-4c13.05 0 21.6 5.7 25.63 17.09 2.73-5.34 6.64-9.52 11.75-12.55 5.1-3.03 10.92-4.54 17.44-4.54 19.58 0 29.37 11.93 29.37 35.78v43.08c0 7.6-3.74 11.39-11.21 11.39s-11.04-3.8-11.04-11.39v-42.19c0-6.64-1.1-11.51-3.29-14.6-2.2-3.08-5.9-4.63-11.12-4.63-5.82 0-10.39 2.05-13.71 6.14s-4.98 9.76-4.98 17v38.27c0 7.6-3.68 11.39-11.04 11.39s-11.21-3.8-11.21-11.39v-42.19c0-6.64-1.1-11.51-3.29-14.6-2.2-3.08-5.85-4.63-10.95-4.63-5.82 0-10.39 2.05-13.71 6.14s-4.98 9.76-4.98 17v38.27c0 7.6-3.74 11.39-11.21 11.39z"/><path d="m338.93 188.77c-7.36 0-11.04-3.74-11.04-11.21v-99.5c0-7.48 3.62-11.21 10.86-11.21s11.04 3.74 11.04 11.21v3.74c2.49-4.63 6.23-8.34 11.21-11.12 4.98-2.79 10.68-4.18 17.09-4.18 7.59 0 14.27 1.84 20.02 5.52s10.23 8.87 13.44 15.58c3.2 6.71 4.81 14.75 4.81 24.12s-1.6 17.3-4.81 24.12c-3.2 6.83-7.65 12.08-13.35 15.75-5.7 3.68-12.4 5.52-20.11 5.52-6.17 0-11.72-1.33-16.64-4-4.93-2.67-8.69-6.26-11.3-10.77v35.24c0 7.48-3.74 11.21-11.21 11.21zm32.93-48.59c6.64 0 11.98-2.4 16.02-7.21 4.03-4.81 6.05-11.9 6.05-21.27s-2.02-16.58-6.05-21.27c-4.04-4.69-9.38-7.03-16.02-7.03s-11.99 2.34-16.02 7.03c-4.04 4.69-6.05 11.78-6.05 21.27s2.02 16.47 6.05 21.27c4.03 4.81 9.37 7.21 16.02 7.21z"/><path d="m464.42 157.09c-19.82 0-29.73-11.09-29.73-33.29v-84.19c0-7.48 3.68-11.21 11.04-11.21s11.21 3.74 11.21 11.21v83.13c0 10.68 4.45 16.02 13.35 16.02.95 0 1.84-.03 2.67-.09s1.66-.15 2.49-.27c1.66-.24 2.79.21 3.38 1.33.59 1.13.89 3.41.89 6.85 0 2.97-.6 5.28-1.78 6.94-1.19 1.66-3.15 2.67-5.87 3.03-2.49.36-5.05.53-7.65.53z"/><path d="m533.48 157.09c-9.85 0-18.33-1.84-25.45-5.52s-12.61-8.9-16.47-15.66-5.78-14.77-5.78-24.03 1.87-16.91 5.61-23.67 8.9-12.07 15.49-15.93c6.59-3.85 14.09-5.79 22.52-5.79 12.34 0 22.1 3.92 29.28 11.75s10.77 18.51 10.77 32.04c0 4.39-2.85 6.59-8.54 6.59h-53.76c1.66 15.55 10.56 23.32 26.7 23.32 3.08 0 6.56-.38 10.41-1.16 3.85-.77 7.5-2.11 10.95-4 3.08-1.78 5.7-2.34 7.83-1.69 2.14.65 3.65 1.93 4.54 3.83s1.01 4 .36 6.32c-.65 2.31-2.34 4.3-5.07 5.96-4.16 2.61-8.93 4.54-14.33 5.79s-10.41 1.87-15.04 1.87zm-3.2-75.47c-6.53 0-11.81 2.02-15.84 6.05-4.04 4.04-6.47 9.5-7.3 16.38h43.79c-.48-7.24-2.46-12.79-5.96-16.64s-8.4-5.79-14.69-5.79z"/><path d="m695.82 157.09c-13.06 0-24.24-2.64-33.55-7.92-9.32-5.28-16.47-12.75-21.45-22.43-4.98-9.67-7.48-21.09-7.48-34.26s2.49-24.56 7.48-34.18c4.98-9.61 12.13-17.06 21.45-22.34 9.31-5.28 20.5-7.92 33.55-7.92 6.52 0 12.93.83 19.22 2.49s11.81 4.04 16.55 7.12c3.08 2.02 4.92 4.42 5.52 7.21.59 2.79.24 5.34-1.07 7.65s-3.27 3.86-5.87 4.63c-2.61.77-5.52.09-8.72-2.05-3.68-2.37-7.65-4.09-11.93-5.16-4.27-1.07-8.6-1.6-12.99-1.6-12.7 0-22.37 3.83-29.01 11.48-6.65 7.65-9.97 18.54-9.97 32.66s3.32 25.04 9.97 32.75c6.64 7.71 16.31 11.57 29.01 11.57 4.51 0 8.96-.56 13.35-1.69s8.54-2.88 12.46-5.25c3.2-2.02 6.05-2.67 8.54-1.96s4.36 2.17 5.61 4.36c1.25 2.2 1.63 4.6 1.16 7.21-.48 2.61-2.08 4.93-4.81 6.94-4.75 3.44-10.41 6.08-17 7.92s-13.26 2.76-20.03 2.76z"/><path d="m799.06 157.09c-7.95 0-15.69-.89-23.23-2.67s-14.09-4.45-19.67-8.01c-2.73-1.78-4.39-3.97-4.98-6.59-.6-2.61-.39-5.07.62-7.39 1.01-2.31 2.61-3.92 4.81-4.81 2.19-.89 4.72-.45 7.57 1.33 5.22 3.09 10.74 5.34 16.55 6.76s11.93 2.14 18.33 2.14c9.37 0 16.2-1.57 20.47-4.72 4.27-3.14 6.41-7.21 6.41-12.19 0-4.15-1.51-7.42-4.54-9.79s-8.22-4.33-15.58-5.87l-19.58-4.09c-22.31-4.74-33.46-16.2-33.46-34.35 0-7.83 2.08-14.65 6.23-20.47 4.15-5.81 9.91-10.32 17.27-13.53 7.36-3.2 15.84-4.81 25.45-4.81 7.12 0 13.88.89 20.29 2.67s12.16 4.39 17.27 7.83c2.37 1.66 3.8 3.71 4.27 6.14s.18 4.69-.89 6.76c-1.07 2.08-2.76 3.5-5.07 4.27s-5.01.27-8.1-1.51c-4.39-2.49-8.84-4.27-13.35-5.34s-9.38-1.6-14.6-1.6c-8.19 0-14.6 1.72-19.22 5.16-4.63 3.44-6.94 7.95-6.94 13.53 0 4.27 1.42 7.68 4.27 10.24 2.85 2.55 7.71 4.54 14.6 5.96l19.4 4.09c11.75 2.49 20.5 6.41 26.25 11.75s8.63 12.46 8.63 21.36c0 7.48-2.02 14.06-6.05 19.76-4.04 5.7-9.76 10.12-17.18 13.26s-16.17 4.72-26.25 4.72z"/><path d="m911.38 157.09c-7.95 0-15.69-.89-23.23-2.67s-14.09-4.45-19.67-8.01c-2.73-1.78-4.39-3.97-4.98-6.59-.6-2.61-.39-5.07.62-7.39 1.01-2.31 2.61-3.92 4.81-4.81 2.19-.89 4.72-.45 7.57 1.33 5.22 3.09 10.74 5.34 16.55 6.76s11.93 2.14 18.33 2.14c9.37 0 16.2-1.57 20.47-4.72 4.27-3.14 6.41-7.21 6.41-12.19 0-4.15-1.51-7.42-4.54-9.79s-8.22-4.33-15.58-5.87l-19.58-4.09c-22.31-4.74-33.46-16.2-33.46-34.35 0-7.83 2.08-14.65 6.23-20.47 4.15-5.81 9.91-10.32 17.27-13.53 7.36-3.2 15.84-4.81 25.45-4.81 7.12 0 13.88.89 20.29 2.67s12.16 4.39 17.27 7.83c2.37 1.66 3.8 3.71 4.27 6.14s.18 4.69-.89 6.76c-1.07 2.08-2.76 3.5-5.07 4.27s-5.01.27-8.1-1.51c-4.39-2.49-8.84-4.27-13.35-5.34s-9.38-1.6-14.6-1.6c-8.19 0-14.6 1.72-19.22 5.16-4.63 3.44-6.94 7.95-6.94 13.53 0 4.27 1.42 7.68 4.27 10.24 2.85 2.55 7.71 4.54 14.6 5.96l19.4 4.09c11.75 2.49 20.5 6.41 26.25 11.75s8.63 12.46 8.63 21.36c0 7.48-2.02 14.06-6.05 19.76-4.04 5.7-9.76 10.12-17.18 13.26s-16.17 4.72-26.25 4.72z"/><path d="m19.39 304.13c-5.19 0-7.79-2.67-7.79-8.02v-68.09c0-5.35 2.67-8.02 8.02-8.02h41.18c4.09 0 6.14 1.97 6.14 5.9s-2.05 6.14-6.14 6.14h-34.1v23.48h31.62c4.09 0 6.14 1.97 6.14 5.9s-2.05 6.14-6.14 6.14h-31.62v28.56c0 5.35-2.44 8.02-7.32 8.02z"/><path d="m82.87 304.13c-5.04 0-7.55-2.52-7.55-7.55v-44.6c0-4.96 2.4-7.43 7.2-7.43s7.2 2.48 7.2 7.43v3.66c2.83-6.76 8.89-10.54 18.17-11.33 3.38-.39 5.27 1.53 5.66 5.78.39 4.17-1.65 6.49-6.14 6.96l-2.6.24c-9.68.94-14.51 5.9-14.51 14.87v24.43c0 5.04-2.48 7.55-7.43 7.55z"/><path d="m139.99 304.37c-4.17 0-7.89-.81-11.15-2.42-3.27-1.61-5.82-3.79-7.67-6.55-1.85-2.75-2.77-5.86-2.77-9.32 0-4.25 1.1-7.61 3.3-10.09s5.78-4.27 10.74-5.37 11.6-1.65 19.94-1.65h4.13v-2.48c0-3.93-.87-6.76-2.6-8.5-1.73-1.73-4.64-2.6-8.73-2.6-2.28 0-4.74.28-7.38.83s-5.41 1.5-8.32 2.83c-1.89.87-3.46.96-4.72.29s-2.11-1.73-2.54-3.19c-.43-1.45-.35-2.93.24-4.42s1.79-2.6 3.6-3.3c3.62-1.49 7.1-2.56 10.44-3.19s6.39-.94 9.15-.94c8.42 0 14.67 1.95 18.76 5.84s6.14 9.93 6.14 18.11v28.32c0 5.04-2.28 7.55-6.84 7.55s-6.96-2.52-6.96-7.55v-2.6c-1.34 3.23-3.46 5.76-6.37 7.61s-6.37 2.77-10.38 2.77zm3.07-10.15c3.85 0 7.06-1.34 9.62-4.01s3.83-6.06 3.83-10.15v-2.6h-4.01c-7.4 0-12.53.57-15.4 1.71s-4.31 3.21-4.31 6.19c0 2.6.9 4.72 2.71 6.37s4.33 2.48 7.55 2.48z"/><path d="m193.09 304.13c-4.88 0-7.32-2.52-7.32-7.55v-44.6c0-4.96 2.4-7.43 7.2-7.43s7.2 2.48 7.2 7.43v2.36c1.73-3.15 4.13-5.61 7.2-7.38s6.61-2.66 10.62-2.66c8.65 0 14.32 3.78 16.99 11.33 1.81-3.54 4.4-6.31 7.79-8.32 3.38-2.01 7.24-3.01 11.56-3.01 12.98 0 19.47 7.91 19.47 23.72v28.56c0 5.04-2.48 7.55-7.43 7.55s-7.32-2.52-7.32-7.55v-27.97c0-4.4-.73-7.63-2.18-9.68-1.46-2.04-3.91-3.07-7.38-3.07-3.86 0-6.88 1.36-9.09 4.07-2.2 2.71-3.3 6.47-3.3 11.27v25.37c0 5.04-2.44 7.55-7.32 7.55s-7.43-2.52-7.43-7.55v-27.97c0-4.4-.73-7.63-2.18-9.68-1.46-2.04-3.88-3.07-7.26-3.07-3.85 0-6.88 1.36-9.09 4.07-2.2 2.71-3.3 6.47-3.3 11.27v25.37c0 5.04-2.48 7.55-7.43 7.55z"/><path d="m317.46 304.37c-6.53 0-12.15-1.22-16.87-3.66s-8.36-5.9-10.92-10.38-3.83-9.79-3.83-15.93 1.24-11.21 3.72-15.69 5.9-8 10.27-10.56 9.34-3.83 14.93-3.83c8.18 0 14.65 2.6 19.41 7.79s7.14 12.27 7.14 21.24c0 2.91-1.89 4.37-5.66 4.37h-35.64c1.1 10.31 7 15.46 17.7 15.46 2.04 0 4.35-.25 6.9-.77 2.56-.51 4.97-1.4 7.26-2.66 2.04-1.18 3.78-1.55 5.19-1.12 1.42.43 2.42 1.28 3.01 2.54s.67 2.66.24 4.19-1.55 2.85-3.36 3.95c-2.75 1.73-5.92 3.01-9.5 3.83-3.58.83-6.9 1.24-9.97 1.24zm-2.12-50.03c-4.33 0-7.83 1.34-10.5 4.01-2.68 2.67-4.29 6.29-4.84 10.86h29.03c-.31-4.8-1.63-8.48-3.95-11.03-2.32-2.56-5.57-3.83-9.74-3.83z"/><path d="m374.33 304.13c-4.09 0-6.92-2.04-8.5-6.14l-17.11-43.66c-1.02-2.75-.96-5.07.18-6.96s3.17-2.83 6.08-2.83c1.73 0 3.15.41 4.25 1.24s2.04 2.38 2.83 4.66l12.98 35.52 13.33-36.46c1.26-3.3 3.5-4.96 6.73-4.96s5.55 1.65 6.73 4.96l13.33 36.82 13.1-36.23c.79-2.12 1.79-3.58 3.01-4.37s2.58-1.18 4.07-1.18c2.83 0 4.68 1 5.55 3.01.86 2.01.79 4.27-.24 6.79l-16.99 43.66c-1.65 4.09-4.48 6.14-8.5 6.14s-7-2.04-8.5-6.14l-12.04-31.98-11.8 31.86c-1.5 4.17-4.33 6.25-8.5 6.25z"/><path d="m477.82 304.37c-5.98 0-11.17-1.22-15.58-3.66s-7.83-5.92-10.27-10.44-3.66-9.85-3.66-15.99 1.22-11.45 3.66-15.93 5.86-7.95 10.27-10.38c4.4-2.44 9.6-3.66 15.58-3.66s11.17 1.22 15.58 3.66c4.4 2.44 7.83 5.9 10.27 10.38s3.66 9.79 3.66 15.93-1.22 11.47-3.66 15.99-5.86 8.01-10.27 10.44c-4.41 2.44-9.6 3.66-15.58 3.66zm0-11.21c4.4 0 7.94-1.59 10.62-4.78 2.67-3.19 4.01-7.89 4.01-14.1s-1.34-10.99-4.01-14.1c-2.68-3.11-6.22-4.66-10.62-4.66s-7.95 1.55-10.62 4.66c-2.68 3.11-4.01 7.81-4.01 14.1s1.34 10.92 4.01 14.1c2.67 3.19 6.21 4.78 10.62 4.78z"/><path d="m527.02 304.13c-5.04 0-7.55-2.52-7.55-7.55v-44.6c0-4.96 2.4-7.43 7.2-7.43s7.2 2.48 7.2 7.43v3.66c2.83-6.76 8.89-10.54 18.17-11.33 3.38-.39 5.27 1.53 5.66 5.78.39 4.17-1.65 6.49-6.14 6.96l-2.6.24c-9.68.94-14.51 5.9-14.51 14.87v24.43c0 5.04-2.48 7.55-7.43 7.55z"/><path d="m573.04 304.13c-4.88 0-7.32-2.52-7.32-7.55v-70.09c0-4.96 2.44-7.43 7.32-7.43s7.43 2.48 7.43 7.43v43.54h.24l19.47-20.53c1.57-1.57 2.95-2.79 4.13-3.66s2.79-1.3 4.84-1.3 3.6.53 4.66 1.59 1.59 2.34 1.59 3.83-.71 2.99-2.12 4.48l-17.7 18.64 19.71 21.24c1.42 1.5 2.06 3.01 1.95 4.54-.12 1.53-.77 2.79-1.95 3.78-1.18.98-2.68 1.48-4.48 1.48-2.2 0-3.95-.43-5.25-1.3s-2.73-2.16-4.31-3.89l-20.53-21.48h-.24v19.12c0 5.04-2.48 7.55-7.43 7.55z"/><path d="m672.28 304.13c-4.96 0-7.43-2.52-7.43-7.55v-40h-5.43c-3.93 0-5.9-1.85-5.9-5.55s1.97-5.55 5.9-5.55h5.43v-.12c0-8.1 2.04-14.18 6.14-18.23 4.09-4.05 9.99-6.43 17.7-7.14l4.01-.35c2.04-.16 3.54.28 4.48 1.3s1.43 2.26 1.48 3.72c.04 1.46-.34 2.75-1.12 3.89-.79 1.14-1.93 1.79-3.42 1.95l-1.65.12c-4.48.32-7.75 1.46-9.79 3.42-2.05 1.97-3.07 4.96-3.07 8.97v2.48h10.03c3.93 0 5.9 1.85 5.9 5.55s-1.97 5.55-5.9 5.55h-10.03v40c0 5.04-2.44 7.55-7.32 7.55z"/><path d="m728.69 304.37c-5.98 0-11.17-1.22-15.58-3.66s-7.83-5.92-10.27-10.44-3.66-9.85-3.66-15.99 1.22-11.45 3.66-15.93 5.86-7.95 10.27-10.38c4.4-2.44 9.6-3.66 15.58-3.66s11.17 1.22 15.57 3.66c4.41 2.44 7.83 5.9 10.27 10.38s3.66 9.79 3.66 15.93-1.22 11.47-3.66 15.99-5.86 8.01-10.27 10.44c-4.41 2.44-9.6 3.66-15.57 3.66zm0-11.21c4.4 0 7.94-1.59 10.62-4.78 2.67-3.19 4.01-7.89 4.01-14.1s-1.34-10.99-4.01-14.1c-2.68-3.11-6.21-4.66-10.62-4.66s-7.95 1.55-10.62 4.66c-2.68 3.11-4.01 7.81-4.01 14.1s1.34 10.92 4.01 14.1c2.67 3.19 6.21 4.78 10.62 4.78z"/><path d="m777.89 304.13c-5.04 0-7.55-2.52-7.55-7.55v-44.6c0-4.96 2.4-7.43 7.2-7.43s7.2 2.48 7.2 7.43v3.66c2.83-6.76 8.89-10.54 18.17-11.33 3.38-.39 5.27 1.53 5.66 5.78.39 4.17-1.65 6.49-6.14 6.96l-2.6.24c-9.68.94-14.51 5.9-14.51 14.87v24.43c0 5.04-2.48 7.55-7.43 7.55z"/><path d="m846.33 304.01c-2.2.08-3.93-.51-5.19-1.77s-1.89-2.87-1.89-4.84c0-1.49.45-2.81 1.36-3.95.9-1.14 2.22-1.75 3.95-1.83l3.54-.24c7-.47 10.5-4.33 10.5-11.56v-53.1c0-5.11 2.52-7.67 7.55-7.67s7.55 2.56 7.55 7.67v52.98c0 7.4-1.97 13.14-5.9 17.23s-9.76 6.37-17.46 6.84z"/><path d="m899.31 304.13c-5.04 0-7.55-2.6-7.55-7.79v-68.68c0-5.11 2.56-7.67 7.67-7.67h28.44c9.12 0 16.17 2.28 21.12 6.84 4.96 4.56 7.43 10.93 7.43 19.12s-2.48 14.57-7.43 19.18c-4.96 4.6-12 6.9-21.12 6.9h-21v24.31c0 5.19-2.52 7.79-7.55 7.79zm7.55-44.01h18.64c10.86 0 16.28-4.72 16.28-14.16s-5.43-14.04-16.28-14.04h-18.64z"/></g></svg>