<svg id="レイヤー_1" data-name="レイヤー 1" xmlns="http://www.w3.org/2000/svg" viewBox="0 0 528 418"><defs><style>.cls-1,.cls-4{fill:#fff;}.cls-1{stroke:#edeff0;stroke-linejoin:round;stroke-width:10px;}.cls-2{fill:#1cb4c7;}.cls-3{fill:#498dc9;}.cls-5{fill:#efd252;}.cls-6{fill:#0ea1b3;}.cls-7{fill:#fdd9d2;}.cls-11,.cls-8{fill:none;}.cls-8{stroke:#498dc9;stroke-miterlimit:10;stroke-width:7px;}.cls-9{fill:#f5f5f5;}.cls-10{fill:#e0e0e0;}</style></defs><title>illust-about-1</title><path class="cls-1" d="M476,108H415V73a8,8,0,0,0-8-8H344.5V30a8,8,0,0,0-8-8h-154a8,8,0,0,0-8,8V61h-89a8,8,0,0,0-8,8v36H54a8,8,0,0,0-8,8v39a8,8,0,0,0,8,8H86v32H64.07a8,8,0,0,0-8,8v39a8,8,0,0,0,8,8H116v31a8,8,0,0,0,8,8h84a8,8,0,0,0,8-8V239a8,8,0,0,0-8-8H156.07V203H178a8,8,0,0,0,8-8V156a8,8,0,0,0-8-8H146V116h93.5a8,8,0,0,0,8-8V77H295v35a8,8,0,0,0,8,8h51v28H344a8,8,0,0,0-8,8v39a8,8,0,0,0,8,8h35v29H320a8,8,0,0,0-8,8v39a8,8,0,0,0,8,8H434a8,8,0,0,0,8-8V246h29a8,8,0,0,0,8-8V199a8,8,0,0,0-8-8H456V163h20a8,8,0,0,0,8-8V116A8,8,0,0,0,476,108Z"/><path class="cls-2" d="M344.49,250.86a2.37,2.37,0,0,1,.64,1.72v14.06a2.4,2.4,0,0,1-.64,1.73,2.31,2.31,0,0,1-1.73.66,2.34,2.34,0,0,1-1.72-.65,2.37,2.37,0,0,1-.64-1.74v-5.26h-7.56v5.26a2.36,2.36,0,0,1-.65,1.73,2.29,2.29,0,0,1-1.72.66,2.22,2.22,0,0,1-2.36-2.39V252.58a2.37,2.37,0,1,1,4.73,0v5h7.56v-5a2.37,2.37,0,0,1,.64-1.72,2.64,2.64,0,0,1,3.45,0Z"/><path class="cls-2" d="M359.67,265.19a2,2,0,0,1,.38,1.24,1.73,1.73,0,0,1-1,1.6,10,10,0,0,1-2.11.75,9.49,9.49,0,0,1-2.25.3,8.22,8.22,0,0,1-3.75-.81,5.88,5.88,0,0,1-2.47-2.34,7.1,7.1,0,0,1-.87-3.57,7.22,7.22,0,0,1,.83-3.48,5.85,5.85,0,0,1,2.31-2.39,6.6,6.6,0,0,1,3.35-.86,6.2,6.2,0,0,1,3.18.79,5.35,5.35,0,0,1,2.11,2.23,7.3,7.3,0,0,1,.75,3.39,1.43,1.43,0,0,1-.27.93,1,1,0,0,1-.81.33h-6.93a2.84,2.84,0,0,0,.81,1.81,2.77,2.77,0,0,0,1.87.56,4.61,4.61,0,0,0,1.21-.15,11.77,11.77,0,0,0,1.23-.41l.78-.27a2.28,2.28,0,0,1,.69-.12A1.24,1.24,0,0,1,359.67,265.19Zm-6.95-5.82a2.85,2.85,0,0,0-.66,1.72h4.13c-.11-1.54-.77-2.31-2-2.31A1.94,1.94,0,0,0,352.72,259.37Z"/><path class="cls-2" d="M372.67,257.06a6,6,0,0,1,1.43,4.35v5.49a2,2,0,0,1-.59,1.56,2.26,2.26,0,0,1-1.64.57,2.17,2.17,0,0,1-1.51-.53,2,2,0,0,1-.65-1.42,2.82,2.82,0,0,1-1.23,1.47,3.85,3.85,0,0,1-2.08.53,5.3,5.3,0,0,1-2.41-.54,4.27,4.27,0,0,1-1.7-1.5,3.89,3.89,0,0,1-.61-2.16,3.26,3.26,0,0,1,.72-2.22,4.29,4.29,0,0,1,2.3-1.2,19.81,19.81,0,0,1,4.25-.37h.71v-.31a1.8,1.8,0,0,0-.42-1.33,2,2,0,0,0-1.42-.4,10.36,10.36,0,0,0-3.15.73,3.19,3.19,0,0,1-1,.21,1.3,1.3,0,0,1-1-.47,1.85,1.85,0,0,1-.4-1.24,1.68,1.68,0,0,1,.24-.94,2.1,2.1,0,0,1,.76-.66,9.19,9.19,0,0,1,2.31-.76,13.63,13.63,0,0,1,2.73-.29A6.06,6.06,0,0,1,372.67,257.06Zm-3.61,8.22a2.47,2.47,0,0,0,.6-1.72v-.31h-.42a6.72,6.72,0,0,0-2.39.3,1,1,0,0,0-.71,1,1.4,1.4,0,0,0,.38,1,1.33,1.33,0,0,0,1,.39A2,2,0,0,0,369.06,265.28Z"/><path class="cls-2" d="M389.74,250.81a1.93,1.93,0,0,1,.67,1.51v14.55a2,2,0,0,1-.63,1.58,2.73,2.73,0,0,1-3.27.07,2,2,0,0,1-.69-1.41,3.74,3.74,0,0,1-1.62,1.44,5.11,5.11,0,0,1-2.35.53,5.28,5.28,0,0,1-3-.85,5.76,5.76,0,0,1-2-2.41,8.15,8.15,0,0,1-.74-3.54,8,8,0,0,1,.73-3.51,5.34,5.34,0,0,1,2-2.32,5.42,5.42,0,0,1,3-.82,5.21,5.21,0,0,1,2.27.5,4.06,4.06,0,0,1,1.62,1.34v-5.23a1.88,1.88,0,0,1,.61-1.47,2.42,2.42,0,0,1,1.67-.55A2.51,2.51,0,0,1,389.74,250.81Zm-4.58,13.94a3.85,3.85,0,0,0,.66-2.42,3.75,3.75,0,0,0-.66-2.38,2.55,2.55,0,0,0-3.76,0,3.62,3.62,0,0,0-.65,2.34,3.89,3.89,0,0,0,.67,2.44,2.19,2.19,0,0,0,1.85.87A2.26,2.26,0,0,0,385.16,264.75Z"/><path class="cls-2" d="M393.6,253.23a2.09,2.09,0,0,1-.69-1.64,2,2,0,0,1,.69-1.63,3.19,3.19,0,0,1,3.75,0,2,2,0,0,1,.71,1.63,2.1,2.1,0,0,1-.7,1.64,3.16,3.16,0,0,1-3.76,0Zm.21,15.26a2,2,0,0,1-.67-1.62v-9a2,2,0,0,1,.67-1.62,2.85,2.85,0,0,1,3.34,0,2,2,0,0,1,.67,1.62v9a2,2,0,0,1-.67,1.62,2.85,2.85,0,0,1-3.34,0Z"/><path class="cls-2" d="M412.66,257a6.55,6.55,0,0,1,1.13,4.19v5.67a2,2,0,0,1-.63,1.58,2.46,2.46,0,0,1-1.71.58,2.43,2.43,0,0,1-1.7-.58,2,2,0,0,1-.64-1.58v-5.46a2.77,2.77,0,0,0-.4-1.68,1.45,1.45,0,0,0-1.22-.53,2.18,2.18,0,0,0-1.67.67,2.57,2.57,0,0,0-.62,1.8v5.2a2,2,0,0,1-.63,1.58,2.46,2.46,0,0,1-1.71.58,2.43,2.43,0,0,1-1.7-.58,2,2,0,0,1-.63-1.58v-9.08a1.91,1.91,0,0,1,.65-1.51,2.44,2.44,0,0,1,1.71-.6,2.25,2.25,0,0,1,1.59.56,1.87,1.87,0,0,1,.59,1.44,4.38,4.38,0,0,1,1.76-1.52,5.38,5.38,0,0,1,2.39-.53A4.18,4.18,0,0,1,412.66,257Z"/><path class="cls-2" d="M429.58,256.28a2,2,0,0,1,.63,1.56v9.45a6.06,6.06,0,0,1-1.93,4.86,8.46,8.46,0,0,1-5.66,1.66,14.08,14.08,0,0,1-2.74-.26,7.63,7.63,0,0,1-2.18-.77,2,2,0,0,1-.74-.68,1.62,1.62,0,0,1-.28-.94,2,2,0,0,1,.38-1.24,1.21,1.21,0,0,1,1-.47,6.84,6.84,0,0,1,1.71.39c.54.18,1,.31,1.45.41a6.12,6.12,0,0,0,1.28.14,3.42,3.42,0,0,0,2.35-.67,2.68,2.68,0,0,0,.75-2.11v-1a3.9,3.9,0,0,1-1.65,1.38,5.41,5.41,0,0,1-2.34.51,5.64,5.64,0,0,1-3-.79,5.31,5.31,0,0,1-2.05-2.24,8.09,8.09,0,0,1,0-6.76,5.41,5.41,0,0,1,2.05-2.28,5.64,5.64,0,0,1,3-.8,5.35,5.35,0,0,1,2.37.53,4,4,0,0,1,1.65,1.44,1.9,1.9,0,0,1,.67-1.4,2.41,2.41,0,0,1,1.62-.52A2.33,2.33,0,0,1,429.58,256.28Zm-4.65,8a3.16,3.16,0,0,0,.68-2.16,3.27,3.27,0,0,0-.68-2.18,2.44,2.44,0,0,0-1.92-.79,2.37,2.37,0,0,0-1.89.78,3.19,3.19,0,0,0-.68,2.19,3.09,3.09,0,0,0,.69,2.14A2.4,2.4,0,0,0,423,265,2.48,2.48,0,0,0,424.93,264.25Z"/><path class="cls-2" d="M212,57.14a1.74,1.74,0,0,1-.7,1.4,2.47,2.47,0,0,1-1.62.57,2.54,2.54,0,0,1-1.18-.29,2.59,2.59,0,0,1-.94-.87l-3.42-5a2.55,2.55,0,0,0-.77-.77,1.79,1.79,0,0,0-1-.25h-1.71v4.7a2.37,2.37,0,0,1-.63,1.74,2.31,2.31,0,0,1-1.73.65,2.36,2.36,0,0,1-1.75-.65,2.33,2.33,0,0,1-.64-1.74V42.58a2.27,2.27,0,0,1,.57-1.65,2.24,2.24,0,0,1,1.66-.58h6.59a7.6,7.6,0,0,1,5.06,1.46A5.26,5.26,0,0,1,211.56,46a5.52,5.52,0,0,1-1.15,3.55,5.63,5.63,0,0,1-3.26,2,3.53,3.53,0,0,1,1.51.58,5.32,5.32,0,0,1,1.27,1.34l1.63,2.34A2.41,2.41,0,0,1,212,57.14Zm-5.69-9.33a1.86,1.86,0,0,0,.69-1.63,2,2,0,0,0-.69-1.67,4,4,0,0,0-2.3-.51h-3.36v4.31h3.36A4.08,4.08,0,0,0,206.35,47.81Z"/><path class="cls-2" d="M225.73,55.19a1.89,1.89,0,0,1,.38,1.24,1.74,1.74,0,0,1-1,1.6,10.05,10.05,0,0,1-2.12.75,9.42,9.42,0,0,1-2.24.3,8.23,8.23,0,0,1-3.76-.81,5.88,5.88,0,0,1-2.47-2.34,7.82,7.82,0,0,1,0-7,5.93,5.93,0,0,1,2.32-2.39,6.57,6.57,0,0,1,3.34-.86,6.2,6.2,0,0,1,3.18.79,5.37,5.37,0,0,1,2.12,2.23,7.3,7.3,0,0,1,.75,3.39,1.43,1.43,0,0,1-.28.93,1,1,0,0,1-.8.33h-6.94a2.9,2.9,0,0,0,.82,1.81,2.74,2.74,0,0,0,1.86.56,4.56,4.56,0,0,0,1.21-.15,11.88,11.88,0,0,0,1.24-.41l.77-.27a2.39,2.39,0,0,1,.7-.12A1.21,1.21,0,0,1,225.73,55.19Zm-6.94-5.82a2.85,2.85,0,0,0-.66,1.72h4.12c-.1-1.54-.77-2.31-2-2.31A1.91,1.91,0,0,0,218.79,49.37Z"/><path class="cls-2" d="M230.42,58.82a7,7,0,0,1-2.13-.84,1.36,1.36,0,0,1-.57-.63,2.33,2.33,0,0,1-.21-1,1.75,1.75,0,0,1,.38-1.17,1.17,1.17,0,0,1,1-.46,2.86,2.86,0,0,1,.73.09,6.3,6.3,0,0,1,.84.3,13.82,13.82,0,0,0,1.49.45,6.71,6.71,0,0,0,1.64.16,2.59,2.59,0,0,0,1.11-.2.6.6,0,0,0,.41-.56.54.54,0,0,0-.19-.45,2.1,2.1,0,0,0-.76-.3c-.36-.1-1-.23-1.86-.41a7.36,7.36,0,0,1-3.38-1.35,3.23,3.23,0,0,1-1-2.56,3.45,3.45,0,0,1,.75-2.18,4.94,4.94,0,0,1,2.06-1.53,7.63,7.63,0,0,1,2.94-.55,9.29,9.29,0,0,1,2.3.29,7.34,7.34,0,0,1,2,.81,1.65,1.65,0,0,1,.82,1.53,1.93,1.93,0,0,1-.4,1.23,1.18,1.18,0,0,1-1,.5,4,4,0,0,1-1.63-.45,9.83,9.83,0,0,0-1.11-.43,4.36,4.36,0,0,0-1.15-.14,2.18,2.18,0,0,0-1,.19.62.62,0,0,0-.37.57.74.74,0,0,0,.51.66,10.81,10.81,0,0,0,2,.52,7.72,7.72,0,0,1,3.6,1.35,3.28,3.28,0,0,1,1.05,2.62,3.58,3.58,0,0,1-1.59,3.06,7.18,7.18,0,0,1-4.27,1.14A14.69,14.69,0,0,1,230.42,58.82Z"/><path class="cls-2" d="M252.66,55.19a2,2,0,0,1,.38,1.24,1.73,1.73,0,0,1-1,1.6,10,10,0,0,1-2.11.75,9.49,9.49,0,0,1-2.25.3,8.19,8.19,0,0,1-3.75-.81,5.88,5.88,0,0,1-2.47-2.34,7.1,7.1,0,0,1-.87-3.57,7.22,7.22,0,0,1,.83-3.48,5.85,5.85,0,0,1,2.31-2.39,6.58,6.58,0,0,1,3.35-.86,6.2,6.2,0,0,1,3.18.79,5.35,5.35,0,0,1,2.11,2.23,7.3,7.3,0,0,1,.75,3.39,1.38,1.38,0,0,1-.28.93,1,1,0,0,1-.8.33h-6.93a2.84,2.84,0,0,0,.81,1.81,2.77,2.77,0,0,0,1.87.56,4.61,4.61,0,0,0,1.21-.15,11.77,11.77,0,0,0,1.23-.41l.78-.27a2.28,2.28,0,0,1,.69-.12A1.24,1.24,0,0,1,252.66,55.19Zm-6.95-5.82a2.85,2.85,0,0,0-.66,1.72h4.13c-.11-1.54-.77-2.31-2-2.31A1.94,1.94,0,0,0,245.71,49.37Z"/><path class="cls-2" d="M264.62,57.27a1.49,1.49,0,0,1-.71,1.36,3.39,3.39,0,0,1-2,.37l-.74,0a5.4,5.4,0,0,1-3.58-1.43A4.73,4.73,0,0,1,256.35,54V49.39h-.76c-1.41,0-2.11-.58-2.11-1.74s.7-1.7,2.11-1.7h.76V44.24a2.06,2.06,0,0,1,.63-1.59,2.76,2.76,0,0,1,3.41,0,2.06,2.06,0,0,1,.63,1.59V46h1.45c1.4,0,2.1.57,2.1,1.7s-.7,1.74-2.1,1.74H261v5a1.24,1.24,0,0,0,.3.84,1.11,1.11,0,0,0,.78.37l.76,0C264,55.76,264.62,56.29,264.62,57.27Z"/><path class="cls-2" d="M277.59,58a8,8,0,0,1-3.24-3.31,11.67,11.67,0,0,1,0-10.06,8,8,0,0,1,3.24-3.31,10.73,10.73,0,0,1,10.72.61,1.9,1.9,0,0,1,.65.68,2,2,0,0,1,.2.94,2.13,2.13,0,0,1-.46,1.38,1.4,1.4,0,0,1-1.12.57,2,2,0,0,1-.71-.12,5.25,5.25,0,0,1-.74-.38,7.45,7.45,0,0,0-1.73-.79,5.88,5.88,0,0,0-1.68-.24,4.21,4.21,0,0,0-3.48,1.41,6.7,6.7,0,0,0-1.14,4.27,6.72,6.72,0,0,0,1.14,4.29,4.21,4.21,0,0,0,3.48,1.41,4.84,4.84,0,0,0,1.52-.25c.49-.17,1.13-.43,1.89-.78.37-.19.64-.32.82-.39a1.65,1.65,0,0,1,.63-.11,1.4,1.4,0,0,1,1.12.57,2.17,2.17,0,0,1,.46,1.38,2,2,0,0,1-.2.93,2,2,0,0,1-.65.7,10,10,0,0,1-5.85,1.76A9.88,9.88,0,0,1,277.59,58Z"/><path class="cls-2" d="M294.55,58.65a8.84,8.84,0,0,1-2.95-1.28,2.1,2.1,0,0,1-.64-.71,1.87,1.87,0,0,1-.2-.94,2.13,2.13,0,0,1,.47-1.37,1.4,1.4,0,0,1,1.1-.58,2.08,2.08,0,0,1,.66.11,4.33,4.33,0,0,1,.79.39,8.53,8.53,0,0,0,2.14.87,9.81,9.81,0,0,0,2.4.26,4.74,4.74,0,0,0,2.35-.46,1.44,1.44,0,0,0,.8-1.35,1.25,1.25,0,0,0-.74-1,10.59,10.59,0,0,0-2.85-.85,17.16,17.16,0,0,1-4.08-1.31,4.89,4.89,0,0,1-2.06-1.8,5.35,5.35,0,0,1,.41-5.56,6.66,6.66,0,0,1,2.74-2.14,9.57,9.57,0,0,1,3.93-.77,12.71,12.71,0,0,1,3.42.42A8.61,8.61,0,0,1,305,41.85a2.23,2.23,0,0,1,.67.72,2.06,2.06,0,0,1,.2.93,2.18,2.18,0,0,1-.46,1.37,1.38,1.38,0,0,1-1.09.58,2.2,2.2,0,0,1-.64-.09,5.08,5.08,0,0,1-.81-.41l-.75-.41a5.92,5.92,0,0,0-1.44-.52,7.3,7.3,0,0,0-1.8-.2,4.06,4.06,0,0,0-2.16.51,1.54,1.54,0,0,0-.81,1.35,1.17,1.17,0,0,0,.29.82,3,3,0,0,0,1.08.62,15.82,15.82,0,0,0,2.33.61,15.62,15.62,0,0,1,4,1.33,5.12,5.12,0,0,1,2.05,1.8,4.7,4.7,0,0,1,.6,2.42,5,5,0,0,1-1,3,6.15,6.15,0,0,1-2.72,2.05,10.4,10.4,0,0,1-4.06.73A16,16,0,0,1,294.55,58.65Z"/><path class="cls-2" d="M312,58.65A8.84,8.84,0,0,1,309,57.37a2.1,2.1,0,0,1-.64-.71,2,2,0,0,1-.2-.94,2.13,2.13,0,0,1,.47-1.37,1.43,1.43,0,0,1,1.11-.58,2.06,2.06,0,0,1,.65.11,4.33,4.33,0,0,1,.79.39,8.53,8.53,0,0,0,2.14.87,9.81,9.81,0,0,0,2.4.26,4.81,4.81,0,0,0,2.36-.46,1.46,1.46,0,0,0,.8-1.35,1.24,1.24,0,0,0-.75-1,10.59,10.59,0,0,0-2.85-.85,16.91,16.91,0,0,1-4.07-1.31,4.92,4.92,0,0,1-2.07-1.8,5.35,5.35,0,0,1,.41-5.56,6.69,6.69,0,0,1,2.75-2.14,9.49,9.49,0,0,1,3.92-.77,12.71,12.71,0,0,1,3.42.42,8.41,8.41,0,0,1,2.73,1.31,2.23,2.23,0,0,1,.67.72,2.06,2.06,0,0,1,.2.93,2.18,2.18,0,0,1-.46,1.37,1.38,1.38,0,0,1-1.09.58,2.08,2.08,0,0,1-.63-.09,4.71,4.71,0,0,1-.82-.41l-.75-.41a5.92,5.92,0,0,0-1.44-.52,7.3,7.3,0,0,0-1.8-.2,4.06,4.06,0,0,0-2.16.51,1.54,1.54,0,0,0-.81,1.35,1.17,1.17,0,0,0,.29.82,3,3,0,0,0,1.08.62,15.67,15.67,0,0,0,2.34.61,15.53,15.53,0,0,1,4,1.33,5.12,5.12,0,0,1,2.05,1.8,4.7,4.7,0,0,1,.6,2.42,5,5,0,0,1-1,3A6.15,6.15,0,0,1,320,58.38a10.36,10.36,0,0,1-4.06.73A16,16,0,0,1,312,58.65Z"/><path class="cls-2" d="M328.13,92.92A4.69,4.69,0,0,1,329,95.8a4.55,4.55,0,0,1-.8,2.67,5.23,5.23,0,0,1-2.29,1.77,8.86,8.86,0,0,1-3.48.63h-7a2,2,0,0,1-2.23-2.23V84.58a2.23,2.23,0,0,1,.58-1.65,2.2,2.2,0,0,1,1.65-.58h6.73a7.53,7.53,0,0,1,4.63,1.3,4.17,4.17,0,0,1,1.72,3.51,4.28,4.28,0,0,1-.76,2.51,4.43,4.43,0,0,1-2.13,1.59A4.74,4.74,0,0,1,328.13,92.92Zm-10.22-3.29h3.44a3.7,3.7,0,0,0,2-.42,1.5,1.5,0,0,0,.63-1.34,1.62,1.62,0,0,0-.63-1.42,3.5,3.5,0,0,0-2-.45h-3.44Zm6,7.13a2.17,2.17,0,0,0,0-3,3.5,3.5,0,0,0-2.06-.46h-3.92v3.94h3.92A3.5,3.5,0,0,0,323.89,96.76Z"/><path class="cls-2" d="M343.55,88.26a2,2,0,0,1,.63,1.58v9.09a2,2,0,0,1-.66,1.51,2.48,2.48,0,0,1-1.71.59,2.33,2.33,0,0,1-1.55-.51,1.84,1.84,0,0,1-.63-1.38,4.05,4.05,0,0,1-1.53,1.44,4.51,4.51,0,0,1-2.14.5,4.68,4.68,0,0,1-3.71-1.38A6.24,6.24,0,0,1,331,95.51V89.84a2,2,0,0,1,.64-1.58,2.43,2.43,0,0,1,1.7-.58,2.46,2.46,0,0,1,1.71.58,2,2,0,0,1,.63,1.58v5.78c0,1.26.54,1.89,1.63,1.89a2,2,0,0,0,1.55-.68,2.64,2.64,0,0,0,.6-1.79v-5.2a2,2,0,0,1,.63-1.58,2.81,2.81,0,0,1,3.42,0Z"/><path class="cls-2" d="M356.31,99.27a1.47,1.47,0,0,1-.71,1.36,3.39,3.39,0,0,1-2,.37l-.73,0a5.43,5.43,0,0,1-3.59-1.43A4.77,4.77,0,0,1,348,96V91.39h-.76q-2.1,0-2.1-1.74c0-1.13.7-1.7,2.1-1.7H348V86.24a2.06,2.06,0,0,1,.63-1.59,2.76,2.76,0,0,1,3.41,0,2.06,2.06,0,0,1,.63,1.59V88h1.45c1.4,0,2.1.57,2.1,1.7s-.7,1.74-2.1,1.74h-1.45v5a1.24,1.24,0,0,0,.31.84,1.07,1.07,0,0,0,.77.37l.76,0C355.73,97.76,356.31,98.29,356.31,99.27Z"/><path class="cls-2" d="M367,99.27a1.47,1.47,0,0,1-.71,1.36,3.39,3.39,0,0,1-2,.37l-.73,0a5.41,5.41,0,0,1-3.59-1.43A4.73,4.73,0,0,1,358.68,96V91.39h-.76c-1.41,0-2.11-.58-2.11-1.74s.7-1.7,2.11-1.7h.76V86.24a2.06,2.06,0,0,1,.63-1.59,2.76,2.76,0,0,1,3.41,0,2.06,2.06,0,0,1,.63,1.59V88h1.45c1.4,0,2.1.57,2.1,1.7s-.7,1.74-2.1,1.74h-1.45v5a1.2,1.2,0,0,0,.31.84,1.07,1.07,0,0,0,.77.37l.76,0C366.37,97.76,367,98.29,367,99.27Z"/><path class="cls-2" d="M371,100.25a5.91,5.91,0,0,1-2.5-2.35,7.66,7.66,0,0,1,0-7.13A5.88,5.88,0,0,1,371,88.45a9,9,0,0,1,7.51,0,5.85,5.85,0,0,1,2.48,2.32,7.66,7.66,0,0,1,0,7.13,5.92,5.92,0,0,1-2.48,2.35,8.89,8.89,0,0,1-7.5,0Zm6.24-5.92c0-2.17-.83-3.26-2.5-3.26s-2.49,1.09-2.49,3.26.83,3.26,2.49,3.26S377.2,96.5,377.2,94.33Z"/><path class="cls-2" d="M396.08,89a6.55,6.55,0,0,1,1.13,4.19v5.67a2,2,0,0,1-.63,1.58,2.8,2.8,0,0,1-3.41,0,2,2,0,0,1-.63-1.58V93.41a2.76,2.76,0,0,0-.41-1.68,1.45,1.45,0,0,0-1.22-.53,2.18,2.18,0,0,0-1.67.67,2.57,2.57,0,0,0-.62,1.8v5.2a2,2,0,0,1-.63,1.58,2.8,2.8,0,0,1-3.41,0,2,2,0,0,1-.63-1.58V89.79a1.94,1.94,0,0,1,.65-1.51,2.44,2.44,0,0,1,1.71-.6,2.22,2.22,0,0,1,1.59.56,1.87,1.87,0,0,1,.59,1.44,4.45,4.45,0,0,1,1.76-1.52,5.41,5.41,0,0,1,2.39-.53A4.18,4.18,0,0,1,396.08,89Z"/><path class="cls-2" d="M105.58,184.37a2.32,2.32,0,0,1-.65-1.73V168.58a2.27,2.27,0,0,1,.57-1.65,2.24,2.24,0,0,1,1.66-.58H116a2.68,2.68,0,0,1,1.74.46,1.79,1.79,0,0,1,.55,1.46,1.72,1.72,0,0,1-.56,1.42,2.78,2.78,0,0,1-1.73.44h-6.3v3.42h5.78a2.67,2.67,0,0,1,1.72.47,1.78,1.78,0,0,1,.57,1.45,1.67,1.67,0,0,1-.57,1.41,2.74,2.74,0,0,1-1.72.45h-5.78v5.31a2.43,2.43,0,0,1-4.1,1.73Z"/><path class="cls-2" d="M122.56,184.25a6,6,0,0,1-2.49-2.35,7.66,7.66,0,0,1,0-7.13,5.85,5.85,0,0,1,2.48-2.32,9,9,0,0,1,7.51,0,5.88,5.88,0,0,1,2.49,2.32,7.66,7.66,0,0,1,0,7.13,6,6,0,0,1-2.49,2.35,8.07,8.07,0,0,1-3.75.83A8.16,8.16,0,0,1,122.56,184.25Zm6.24-5.92c0-2.17-.83-3.26-2.49-3.26s-2.5,1.09-2.5,3.26.83,3.26,2.5,3.26S128.8,180.5,128.8,178.33Z"/><path class="cls-2" d="M145.17,172.09a1.86,1.86,0,0,1,.52,1.43,2.09,2.09,0,0,1-.48,1.53,3,3,0,0,1-1.75.6l-.79.08a2.78,2.78,0,0,0-1.88.83,2.75,2.75,0,0,0-.56,1.82v4.49a2,2,0,0,1-.67,1.62,2.85,2.85,0,0,1-3.34,0,2,2,0,0,1-.67-1.62v-9.08a1.9,1.9,0,0,1,.67-1.55,2.47,2.47,0,0,1,1.62-.56,2.25,2.25,0,0,1,1.56.53,1.84,1.84,0,0,1,.59,1.47v.5a3.51,3.51,0,0,1,1.38-1.79,4,4,0,0,1,2-.68l.37,0A1.8,1.8,0,0,1,145.17,172.09Z"/><path class="cls-2" d="M166.34,172.91c.77.84,1.15,2.28,1.15,4.29v5.67a2,2,0,0,1-.67,1.62,2.84,2.84,0,0,1-3.33,0,2,2,0,0,1-.67-1.62v-5.78a2.22,2.22,0,0,0-.37-1.47,1.34,1.34,0,0,0-1.08-.42,1.83,1.83,0,0,0-1.47.66,2.77,2.77,0,0,0-.55,1.81v5.2a2,2,0,0,1-.66,1.62,2.85,2.85,0,0,1-3.34,0,2,2,0,0,1-.67-1.62v-5.78a2.28,2.28,0,0,0-.37-1.47,1.37,1.37,0,0,0-1.08-.42,1.79,1.79,0,0,0-1.46.66,2.77,2.77,0,0,0-.54,1.81v5.2a2,2,0,0,1-.66,1.62,2.85,2.85,0,0,1-3.34,0,2,2,0,0,1-.67-1.62v-9.08a1.87,1.87,0,0,1,.69-1.57,2.67,2.67,0,0,1,1.67-.54,2.43,2.43,0,0,1,1.54.49,1.72,1.72,0,0,1,.64,1.41,4.39,4.39,0,0,1,3.94-2,3.66,3.66,0,0,1,3.76,2.29,4.78,4.78,0,0,1,1.76-1.67,5,5,0,0,1,2.49-.62A4.22,4.22,0,0,1,166.34,172.91Z"/><path class="cls-2" d="M84.3,227.29a2.28,2.28,0,0,1-.58-1.68v-14a2.22,2.22,0,0,1,2.39-2.36,2.44,2.44,0,0,1,1.79.64,2.31,2.31,0,0,1,.66,1.72V224h6c1.52,0,2.28.65,2.28,2a1.81,1.81,0,0,1-.56,1.47,2.67,2.67,0,0,1-1.72.47H86A2.24,2.24,0,0,1,84.3,227.29Z"/><path class="cls-2" d="M98.89,212.23a2.09,2.09,0,0,1-.69-1.64,2,2,0,0,1,.69-1.63,3.19,3.19,0,0,1,3.75,0,2,2,0,0,1,.71,1.63,2.1,2.1,0,0,1-.7,1.64,3.16,3.16,0,0,1-3.76,0Zm.21,15.26a2,2,0,0,1-.67-1.62v-9a2,2,0,0,1,.67-1.62,2.85,2.85,0,0,1,3.34,0,2,2,0,0,1,.67,1.62v9a2,2,0,0,1-.67,1.62,2.85,2.85,0,0,1-3.34,0Z"/><path class="cls-2" d="M107.94,227.82a7,7,0,0,1-2.13-.84,1.36,1.36,0,0,1-.57-.63,2.33,2.33,0,0,1-.21-1,1.75,1.75,0,0,1,.38-1.17,1.17,1.17,0,0,1,1-.46,2.86,2.86,0,0,1,.73.09,6.3,6.3,0,0,1,.84.3,13.82,13.82,0,0,0,1.49.45,6.71,6.71,0,0,0,1.64.16,2.59,2.59,0,0,0,1.11-.2.6.6,0,0,0,.41-.56.52.52,0,0,0-.2-.45,2,2,0,0,0-.74-.3c-.37-.1-1-.23-1.87-.41a7.26,7.26,0,0,1-3.37-1.35,3.2,3.2,0,0,1-1-2.56,3.45,3.45,0,0,1,.75-2.18,4.94,4.94,0,0,1,2.06-1.53,7.63,7.63,0,0,1,2.94-.55,9.29,9.29,0,0,1,2.3.29,7.34,7.34,0,0,1,2,.81,1.65,1.65,0,0,1,.82,1.53,1.93,1.93,0,0,1-.4,1.23,1.16,1.16,0,0,1-1,.5,3.91,3.91,0,0,1-1.63-.45,9.83,9.83,0,0,0-1.11-.43A4.36,4.36,0,0,0,111,218a2.18,2.18,0,0,0-1,.19.62.62,0,0,0-.37.57.74.74,0,0,0,.51.66,10.81,10.81,0,0,0,2,.52,7.72,7.72,0,0,1,3.6,1.35,3.28,3.28,0,0,1,1,2.62,3.58,3.58,0,0,1-1.59,3.06,7.18,7.18,0,0,1-4.27,1.14A14.69,14.69,0,0,1,107.94,227.82Z"/><path class="cls-2" d="M128.09,226.27a1.49,1.49,0,0,1-.71,1.36,3.41,3.41,0,0,1-2,.37l-.74-.05a5.4,5.4,0,0,1-3.58-1.43,4.74,4.74,0,0,1-1.23-3.48v-4.65h-.76q-2.1,0-2.1-1.74c0-1.13.7-1.7,2.1-1.7h.76v-1.71a2,2,0,0,1,.64-1.59,2.39,2.39,0,0,1,1.7-.59,2.42,2.42,0,0,1,1.71.59,2.06,2.06,0,0,1,.63,1.59V215h1.44c1.41,0,2.11.57,2.11,1.7s-.7,1.74-2.11,1.74h-1.44v5a1.24,1.24,0,0,0,.3.84,1.08,1.08,0,0,0,.78.37l.76.05C127.5,224.76,128.09,225.29,128.09,226.27Z"/><path class="cls-2" d="M155.39,257.9a1.72,1.72,0,0,1,.51,1.3v4.57a7.81,7.81,0,0,1-.2,2,2,2,0,0,1-.71,1.09,4.59,4.59,0,0,1-1.53.68,15.53,15.53,0,0,1-2.28.41,19.43,19.43,0,0,1-2.32.15,11.22,11.22,0,0,1-5.24-1.15,7.92,7.92,0,0,1-3.4-3.28A10.34,10.34,0,0,1,139,258.6a10.22,10.22,0,0,1,1.18-5,8.1,8.1,0,0,1,3.36-3.3,10.72,10.72,0,0,1,5.1-1.15,11.5,11.5,0,0,1,3.29.43,9.17,9.17,0,0,1,2.72,1.33,1.76,1.76,0,0,1,.84,1.62,2.12,2.12,0,0,1-.45,1.38,1.31,1.31,0,0,1-1.07.57,1.94,1.94,0,0,1-.72-.12,4.63,4.63,0,0,1-.78-.41,9,9,0,0,0-1.83-.76,6.74,6.74,0,0,0-1.85-.24,4.67,4.67,0,0,0-3.71,1.4,6.3,6.3,0,0,0-1.23,4.28,6.48,6.48,0,0,0,1.28,4.4,5,5,0,0,0,3.9,1.43,12.24,12.24,0,0,0,2.49-.26v-3.44h-1.89a1.93,1.93,0,0,1-1.34-.44,1.82,1.82,0,0,1,0-2.44,1.93,1.93,0,0,1,1.34-.43H154A2,2,0,0,1,155.39,257.9Z"/><path class="cls-2" d="M168.35,255.09a1.86,1.86,0,0,1,.53,1.43,2.1,2.1,0,0,1-.49,1.53,3,3,0,0,1-1.75.6l-.79.08a2.73,2.73,0,0,0-1.87.83,2.7,2.7,0,0,0-.57,1.82v4.49a2,2,0,0,1-.67,1.62,2.58,2.58,0,0,1-1.67.54,2.55,2.55,0,0,1-1.66-.54,2,2,0,0,1-.67-1.62v-9.08a1.87,1.87,0,0,1,.67-1.55,2.43,2.43,0,0,1,1.61-.56,2.25,2.25,0,0,1,1.56.53,1.84,1.84,0,0,1,.59,1.47v.5a3.61,3.61,0,0,1,1.38-1.79,4,4,0,0,1,2-.68l.37,0A1.79,1.79,0,0,1,168.35,255.09Z"/><path class="cls-2" d="M170.2,252.23a2.09,2.09,0,0,1-.69-1.64,2,2,0,0,1,.69-1.63,3.17,3.17,0,0,1,3.74,0,2,2,0,0,1,.71,1.63,2.09,2.09,0,0,1-.69,1.64,3.16,3.16,0,0,1-3.76,0Zm.21,15.26a2,2,0,0,1-.67-1.62v-9a2,2,0,0,1,.67-1.62,2.85,2.85,0,0,1,3.34,0,2,2,0,0,1,.67,1.62v9a2,2,0,0,1-.67,1.62,2.85,2.85,0,0,1-3.34,0Z"/><path class="cls-2" d="M190.14,249.81a2,2,0,0,1,.67,1.51v14.55a2,2,0,0,1-.63,1.58,2.73,2.73,0,0,1-3.27.07,2,2,0,0,1-.7-1.41,3.77,3.77,0,0,1-1.61,1.44,5.13,5.13,0,0,1-2.35.53,5.26,5.26,0,0,1-3-.85,5.7,5.7,0,0,1-2-2.41,8.93,8.93,0,0,1,0-7.05,5.34,5.34,0,0,1,5-3.14,5.21,5.21,0,0,1,2.27.5,4,4,0,0,1,1.61,1.34v-5.23a1.89,1.89,0,0,1,.62-1.47,2.4,2.4,0,0,1,1.67-.55A2.53,2.53,0,0,1,190.14,249.81Zm-4.59,13.94a3.85,3.85,0,0,0,.66-2.42,3.75,3.75,0,0,0-.66-2.38,2.54,2.54,0,0,0-3.75,0,3.62,3.62,0,0,0-.66,2.34,4,4,0,0,0,.67,2.44,2.47,2.47,0,0,0,3.74,0Z"/><path class="cls-2" d="M376.73,144.29a2.2,2.2,0,0,1-.58-1.65V128.58a2.23,2.23,0,0,1,.58-1.65,2.2,2.2,0,0,1,1.65-.58h5.31a11.57,11.57,0,0,1,5.29,1.12,7.89,7.89,0,0,1,3.4,3.19,9.79,9.79,0,0,1,1.19,4.94,10.18,10.18,0,0,1-1.17,5,7.76,7.76,0,0,1-3.39,3.19,11.94,11.94,0,0,1-5.32,1.1h-5.31A2.2,2.2,0,0,1,376.73,144.29Zm6.62-3.31a5.62,5.62,0,0,0,4.06-1.32,6.77,6.77,0,0,0,0-8.11,5.66,5.66,0,0,0-4.06-1.31H381V141Z"/><path class="cls-2" d="M396.6,129.23a2.07,2.07,0,0,1-.7-1.64,2,2,0,0,1,.7-1.63,3.17,3.17,0,0,1,3.74,0,2,2,0,0,1,.71,1.63,2.09,2.09,0,0,1-.69,1.64,2.77,2.77,0,0,1-1.88.62A2.73,2.73,0,0,1,396.6,129.23Zm.21,15.26a2,2,0,0,1-.67-1.62v-9a2,2,0,0,1,.67-1.62,2.85,2.85,0,0,1,3.34,0,2,2,0,0,1,.66,1.62v9a2,2,0,0,1-.66,1.62,2.85,2.85,0,0,1-3.34,0Z"/><path class="cls-2" d="M405.65,144.82a6.78,6.78,0,0,1-2.13-.84,1.33,1.33,0,0,1-.58-.63,2.33,2.33,0,0,1-.21-1,1.81,1.81,0,0,1,.38-1.17,1.2,1.2,0,0,1,1-.46,2.94,2.94,0,0,1,.74.09,6.84,6.84,0,0,1,.84.3,13.72,13.72,0,0,0,1.48.45,6.82,6.82,0,0,0,1.64.16,2.61,2.61,0,0,0,1.12-.2.62.62,0,0,0,.41-.56.55.55,0,0,0-.2-.45,2,2,0,0,0-.75-.3c-.37-.1-1-.23-1.86-.41a7.31,7.31,0,0,1-3.38-1.35,3.24,3.24,0,0,1-1-2.56,3.45,3.45,0,0,1,.75-2.18,5,5,0,0,1,2.06-1.53,7.71,7.71,0,0,1,2.95-.55,9.21,9.21,0,0,1,2.29.29,7.28,7.28,0,0,1,2,.81,1.65,1.65,0,0,1,.81,1.53,1.93,1.93,0,0,1-.39,1.23,1.18,1.18,0,0,1-1,.5,3.91,3.91,0,0,1-1.63-.45,9.91,9.91,0,0,0-1.12-.43,4.23,4.23,0,0,0-1.14-.14,2.25,2.25,0,0,0-1,.19.63.63,0,0,0-.36.57.74.74,0,0,0,.51.66,10.87,10.87,0,0,0,2,.52,7.72,7.72,0,0,1,3.6,1.35,3.28,3.28,0,0,1,1.05,2.62,3.58,3.58,0,0,1-1.59,3.06,7.15,7.15,0,0,1-4.26,1.14A14.55,14.55,0,0,1,405.65,144.82Z"/><path class="cls-2" d="M427.91,132.49a5.57,5.57,0,0,1,2,2.4,8.29,8.29,0,0,1,.72,3.54,8.06,8.06,0,0,1-.72,3.51,5.27,5.27,0,0,1-5,3.14,5.21,5.21,0,0,1-2.27-.5,4,4,0,0,1-1.61-1.34v4.47a1.86,1.86,0,0,1-.63,1.47,2.43,2.43,0,0,1-1.66.55,2.5,2.5,0,0,1-1.73-.59,2,2,0,0,1-.66-1.51V133.84a2.06,2.06,0,0,1,.62-1.56,2.29,2.29,0,0,1,1.67-.6,2.4,2.4,0,0,1,1.61.53,2,2,0,0,1,.7,1.39,3.77,3.77,0,0,1,1.61-1.44,5.5,5.5,0,0,1,5.31.33Zm-2.52,8.28a3.68,3.68,0,0,0,.64-2.34,4,4,0,0,0-.65-2.45,2.47,2.47,0,0,0-3.74,0,3.89,3.89,0,0,0-.65,2.41,3.79,3.79,0,0,0,.65,2.38,2.29,2.29,0,0,0,1.9.83A2.21,2.21,0,0,0,425.39,140.77Z"/><path class="cls-2" d="M433.48,144.49a2,2,0,0,1-.67-1.62V128.4a2,2,0,0,1,.67-1.63,2.8,2.8,0,0,1,3.33,0,2,2,0,0,1,.67,1.63v14.47a2,2,0,0,1-.67,1.62,2.84,2.84,0,0,1-3.33,0Z"/><path class="cls-2" d="M450.63,133.06a6,6,0,0,1,1.43,4.35v5.49a2,2,0,0,1-.59,1.56,2.26,2.26,0,0,1-1.64.57,2.19,2.19,0,0,1-1.51-.53,1.92,1.92,0,0,1-.64-1.42,2.89,2.89,0,0,1-1.24,1.47,3.84,3.84,0,0,1-2.07.53,5.32,5.32,0,0,1-2.42-.54,4.27,4.27,0,0,1-1.7-1.5,3.89,3.89,0,0,1-.61-2.16,3.26,3.26,0,0,1,.72-2.22,4.29,4.29,0,0,1,2.3-1.2,19.81,19.81,0,0,1,4.25-.37h.71v-.31a1.8,1.8,0,0,0-.42-1.33,2,2,0,0,0-1.42-.4,10.42,10.42,0,0,0-3.15.73,3.19,3.19,0,0,1-1,.21,1.3,1.3,0,0,1-1.05-.47,1.85,1.85,0,0,1-.4-1.24,1.68,1.68,0,0,1,.24-.94,2.1,2.1,0,0,1,.76-.66,9.19,9.19,0,0,1,2.31-.76,13.63,13.63,0,0,1,2.73-.29A6,6,0,0,1,450.63,133.06ZM447,141.28a2.47,2.47,0,0,0,.6-1.72v-.31h-.42a6.76,6.76,0,0,0-2.39.3,1,1,0,0,0-.71,1,1.4,1.4,0,0,0,.38,1,1.34,1.34,0,0,0,1,.39A2,2,0,0,0,447,141.28Z"/><path class="cls-2" d="M464.12,132a2,2,0,0,1,1.1-.32,2.3,2.3,0,0,1,1.55.58,1.74,1.74,0,0,1,.68,1.39,1.92,1.92,0,0,1-.21.87l-7,13.95a2.27,2.27,0,0,1-.82,1,2.13,2.13,0,0,1-1.12.31,2.36,2.36,0,0,1-1.54-.56,1.77,1.77,0,0,1-.67-1.38,2,2,0,0,1,.24-.92l1.71-3.44-4.47-8.93a2.15,2.15,0,0,1-.21-.84,1.78,1.78,0,0,1,.74-1.43,2.54,2.54,0,0,1,1.65-.6A2.2,2.2,0,0,1,457,132a2.15,2.15,0,0,1,.83,1l2.78,6,2.76-6A2.1,2.1,0,0,1,464.12,132Z"/><path class="cls-2" d="M408.49,227.65a8.9,8.9,0,0,1-3-1.28,2.1,2.1,0,0,1-.64-.71,2,2,0,0,1-.2-.94,2.13,2.13,0,0,1,.47-1.37,1.43,1.43,0,0,1,1.11-.58,2,2,0,0,1,.65.11,4,4,0,0,1,.79.39,8.53,8.53,0,0,0,2.14.87,9.84,9.84,0,0,0,2.41.26,4.79,4.79,0,0,0,2.35-.46,1.46,1.46,0,0,0,.8-1.35,1.24,1.24,0,0,0-.75-1,10.59,10.59,0,0,0-2.85-.85,17.06,17.06,0,0,1-4.07-1.31,4.82,4.82,0,0,1-2.06-1.8,5,5,0,0,1-.59-2.51,5.08,5.08,0,0,1,1-3.05,6.69,6.69,0,0,1,2.75-2.14,9.51,9.51,0,0,1,3.93-.77,12.68,12.68,0,0,1,3.41.42,8.41,8.41,0,0,1,2.73,1.31,2.12,2.12,0,0,1,.67.72,2.06,2.06,0,0,1,.2.93,2.12,2.12,0,0,1-.46,1.37,1.38,1.38,0,0,1-1.09.58,2.08,2.08,0,0,1-.63-.09,5.08,5.08,0,0,1-.82-.41l-.74-.41a6.16,6.16,0,0,0-1.45-.52,7.3,7.3,0,0,0-1.8-.2,4,4,0,0,0-2.15.51,1.53,1.53,0,0,0-.82,1.35,1.17,1.17,0,0,0,.29.82,3,3,0,0,0,1.08.62,16,16,0,0,0,2.34.61,15.53,15.53,0,0,1,4,1.33,5.05,5.05,0,0,1,2,1.8,4.6,4.6,0,0,1,.61,2.42,5.06,5.06,0,0,1-1,3.05,6.21,6.21,0,0,1-2.72,2,10.43,10.43,0,0,1-4.06.73A16,16,0,0,1,408.49,227.65Z"/><path class="cls-2" d="M423,212.23a2.09,2.09,0,0,1-.69-1.64A2,2,0,0,1,423,209a3.19,3.19,0,0,1,3.75,0,2,2,0,0,1,.71,1.63,2.1,2.1,0,0,1-.7,1.64,3.16,3.16,0,0,1-3.76,0Zm.21,15.26a2,2,0,0,1-.67-1.62v-9a2,2,0,0,1,.67-1.62,2.85,2.85,0,0,1,3.34,0,2,2,0,0,1,.67,1.62v9a2,2,0,0,1-.67,1.62,2.85,2.85,0,0,1-3.34,0Z"/><path class="cls-2" d="M441.83,226.14c0,1.15-.7,1.73-2.1,1.73h-8.27a2,2,0,0,1-1.5-.58,1.91,1.91,0,0,1-.58-1.39,2.34,2.34,0,0,1,.66-1.6l5.52-5.91h-4.23c-1.41,0-2.11-.58-2.11-1.74s.7-1.7,2.11-1.7h8a2,2,0,0,1,1.49.57,1.89,1.89,0,0,1,.58,1.4,2.31,2.31,0,0,1-.66,1.57l-5.54,5.94h4.57Q441.83,224.43,441.83,226.14Z"/><path class="cls-2" d="M455.06,224.19a2,2,0,0,1,.38,1.24,1.74,1.74,0,0,1-1,1.6,10.05,10.05,0,0,1-2.12.75,9.43,9.43,0,0,1-2.25.3,8.22,8.22,0,0,1-3.75-.81,5.88,5.88,0,0,1-2.47-2.34,7.1,7.1,0,0,1-.87-3.57,7.22,7.22,0,0,1,.83-3.48,5.85,5.85,0,0,1,2.31-2.39,6.6,6.6,0,0,1,3.35-.86,6.2,6.2,0,0,1,3.18.79,5.29,5.29,0,0,1,2.11,2.23,7.3,7.3,0,0,1,.75,3.39,1.43,1.43,0,0,1-.27.93,1,1,0,0,1-.8.33h-6.94a2.89,2.89,0,0,0,.81,1.81,2.78,2.78,0,0,0,1.87.56,4.61,4.61,0,0,0,1.21-.15,11,11,0,0,0,1.23-.41c.27-.1.52-.19.78-.27a2.28,2.28,0,0,1,.69-.12A1.23,1.23,0,0,1,455.06,224.19Zm-6.95-5.82a2.78,2.78,0,0,0-.65,1.72h4.12c-.11-1.54-.77-2.31-2-2.31A1.94,1.94,0,0,0,448.11,218.37Z"/><path class="cls-2" d="M370.05,184.36a2.3,2.3,0,0,1-.67-1.72V170.27h-3.7a2.6,2.6,0,0,1-1.72-.49,2.21,2.21,0,0,1,0-3,2.66,2.66,0,0,1,1.72-.47H378a2.66,2.66,0,0,1,1.72.47,2.21,2.21,0,0,1,0,3,2.6,2.6,0,0,1-1.72.49h-3.7v12.37a2.3,2.3,0,0,1-.67,1.72,2.78,2.78,0,0,1-3.55,0Z"/><path class="cls-2" d="M391.93,173.06a5.91,5.91,0,0,1,1.43,4.35v5.49a2,2,0,0,1-.59,1.56,2.26,2.26,0,0,1-1.64.57,2.19,2.19,0,0,1-1.51-.53,2,2,0,0,1-.64-1.42,2.89,2.89,0,0,1-1.24,1.47,3.82,3.82,0,0,1-2.07.53,5.32,5.32,0,0,1-2.42-.54,4.18,4.18,0,0,1-1.69-1.5,3.82,3.82,0,0,1-.62-2.16,3.26,3.26,0,0,1,.72-2.22,4.29,4.29,0,0,1,2.3-1.2,19.81,19.81,0,0,1,4.25-.37h.71v-.31a1.8,1.8,0,0,0-.42-1.33,2,2,0,0,0-1.41-.4,10.47,10.47,0,0,0-3.16.73,3.19,3.19,0,0,1-1,.21,1.3,1.3,0,0,1-1.05-.47,1.9,1.9,0,0,1-.4-1.24,1.68,1.68,0,0,1,.24-.94,2.1,2.1,0,0,1,.76-.66,9.47,9.47,0,0,1,2.31-.76,13.65,13.65,0,0,1,2.74-.29A6,6,0,0,1,391.93,173.06Zm-3.61,8.22a2.47,2.47,0,0,0,.6-1.72v-.31h-.42a6.76,6.76,0,0,0-2.39.3,1,1,0,0,0-.71,1,1.36,1.36,0,0,0,.39,1,1.3,1.3,0,0,0,1,.39A2,2,0,0,0,388.32,181.28Z"/><path class="cls-2" d="M407.52,172.45a5.39,5.39,0,0,1,2,2.32,8.09,8.09,0,0,1,.72,3.51,8.29,8.29,0,0,1-.72,3.54,5.6,5.6,0,0,1-2,2.41,5.26,5.26,0,0,1-3,.85,5.13,5.13,0,0,1-2.35-.53,3.66,3.66,0,0,1-1.61-1.44,2,2,0,0,1-.7,1.41,2.45,2.45,0,0,1-1.61.51,2.31,2.31,0,0,1-1.67-.59,2.09,2.09,0,0,1-.62-1.57V168.32a2,2,0,0,1,.66-1.51,2.49,2.49,0,0,1,1.73-.59,2.43,2.43,0,0,1,1.66.55,1.86,1.86,0,0,1,.63,1.47v5.23a4,4,0,0,1,1.61-1.34,5.21,5.21,0,0,1,2.27-.5A5.39,5.39,0,0,1,407.52,172.45ZM405,180.73a3.93,3.93,0,0,0,.66-2.45,3.68,3.68,0,0,0-.64-2.34,2.24,2.24,0,0,0-1.86-.82,2.28,2.28,0,0,0-1.89.83,3.81,3.81,0,0,0-.65,2.38,3.92,3.92,0,0,0,.65,2.42,2.24,2.24,0,0,0,1.87.84A2.2,2.2,0,0,0,405,180.73Z"/><path class="cls-2" d="M413.08,184.49a2,2,0,0,1-.67-1.62V168.4a2,2,0,0,1,.67-1.63,2.8,2.8,0,0,1,3.33,0,2,2,0,0,1,.67,1.63v14.47a2,2,0,0,1-.67,1.62,2.84,2.84,0,0,1-3.33,0Z"/><path class="cls-2" d="M431.28,181.19a2,2,0,0,1,.38,1.24,1.74,1.74,0,0,1-1,1.6,10.05,10.05,0,0,1-2.12.75,9.42,9.42,0,0,1-2.24.3,8.23,8.23,0,0,1-3.76-.81,5.88,5.88,0,0,1-2.47-2.34,7.1,7.1,0,0,1-.87-3.57,7.22,7.22,0,0,1,.83-3.48,5.85,5.85,0,0,1,2.31-2.39,6.6,6.6,0,0,1,3.35-.86,6.2,6.2,0,0,1,3.18.79,5.29,5.29,0,0,1,2.11,2.23,7.3,7.3,0,0,1,.75,3.39,1.43,1.43,0,0,1-.27.93,1,1,0,0,1-.8.33H423.7a2.84,2.84,0,0,0,.82,1.81,2.74,2.74,0,0,0,1.86.56,4.61,4.61,0,0,0,1.21-.15,11,11,0,0,0,1.23-.41c.27-.1.52-.19.78-.27a2.28,2.28,0,0,1,.69-.12A1.21,1.21,0,0,1,431.28,181.19Zm-6.95-5.82a2.84,2.84,0,0,0-.65,1.72h4.12c-.11-1.54-.77-2.31-2-2.31A1.94,1.94,0,0,0,424.33,175.37Z"/><path class="cls-2" d="M74.67,143.36a2.26,2.26,0,0,1-.67-1.72V129.27H70.3a2.6,2.6,0,0,1-1.72-.49,2.21,2.21,0,0,1,0-3,2.66,2.66,0,0,1,1.72-.47H82.59a2.67,2.67,0,0,1,1.72.47,2.21,2.21,0,0,1,0,3,2.61,2.61,0,0,1-1.72.49h-3.7v12.37a2.3,2.3,0,0,1-.67,1.72,2.78,2.78,0,0,1-3.55,0Z"/><path class="cls-2" d="M97.6,140.19a1.89,1.89,0,0,1,.38,1.24,1.74,1.74,0,0,1-1,1.6,10.05,10.05,0,0,1-2.12.75,9.42,9.42,0,0,1-2.24.3,8.23,8.23,0,0,1-3.76-.81,5.88,5.88,0,0,1-2.47-2.34,7.09,7.09,0,0,1-.86-3.57,7.21,7.21,0,0,1,.82-3.48,5.91,5.91,0,0,1,2.31-2.39,6.6,6.6,0,0,1,3.35-.86,6.2,6.2,0,0,1,3.18.79,5.37,5.37,0,0,1,2.12,2.23A7.3,7.3,0,0,1,98,137a1.43,1.43,0,0,1-.28.93,1,1,0,0,1-.8.33H90a2.9,2.9,0,0,0,.82,1.81,2.74,2.74,0,0,0,1.86.56,4.61,4.61,0,0,0,1.21-.15,11.88,11.88,0,0,0,1.24-.41l.77-.27a2.34,2.34,0,0,1,.7-.12A1.21,1.21,0,0,1,97.6,140.19Zm-6.95-5.82a2.9,2.9,0,0,0-.65,1.72h4.12c-.1-1.54-.77-2.31-2-2.31A1.94,1.94,0,0,0,90.65,134.37Z"/><path class="cls-2" d="M112.72,142a2,2,0,0,1-.63,1.44,2,2,0,0,1-1.47.63,2.06,2.06,0,0,1-1.55-.71l-3.08-3.2-3,3.2a2.08,2.08,0,0,1-1.55.71,2,2,0,0,1-1.47-.63A2,2,0,0,1,99.3,142a2.06,2.06,0,0,1,.65-1.5l3.26-3.26-3-2.94a2.07,2.07,0,0,1-.65-1.49,2,2,0,0,1,.62-1.48,2,2,0,0,1,1.45-.63,2,2,0,0,1,1.55.74l2.81,2.86,2.84-2.86a2.12,2.12,0,0,1,1.55-.71,2,2,0,0,1,1.46.62,2,2,0,0,1,.62,1.43,2.13,2.13,0,0,1-.66,1.52l-3,2.94,3.26,3.26A2.07,2.07,0,0,1,112.72,142Z"/><path class="cls-2" d="M124,142.27a1.49,1.49,0,0,1-.71,1.36,3.41,3.41,0,0,1-2,.37l-.74-.05a5.43,5.43,0,0,1-3.59-1.43,4.77,4.77,0,0,1-1.22-3.48v-4.65H115q-2.1,0-2.1-1.74c0-1.13.7-1.7,2.1-1.7h.76v-1.71a2.06,2.06,0,0,1,.63-1.59,2.77,2.77,0,0,1,3.42,0,2.06,2.06,0,0,1,.63,1.59V131h1.44c1.4,0,2.1.57,2.1,1.7s-.7,1.74-2.1,1.74h-1.44v5a1.24,1.24,0,0,0,.3.84,1.08,1.08,0,0,0,.78.37l.76.05C123.4,140.76,124,141.29,124,142.27Z"/><path class="cls-2" d="M121.88,82.14a2.11,2.11,0,0,1,1.19-.36,2,2,0,0,1,1.38.51,1.7,1.7,0,0,1,.59,1.36,3,3,0,0,1-.19,1L120,97.67a1.9,1.9,0,0,1-.87,1,2.73,2.73,0,0,1-1.41.38,2.66,2.66,0,0,1-1.39-.38,1.92,1.92,0,0,1-.86-1l-3.12-8.9-3.27,8.9a2,2,0,0,1-.88,1,2.7,2.7,0,0,1-2.76,0,1.9,1.9,0,0,1-.87-1L99.74,84.61a2.77,2.77,0,0,1-.16-.91,1.71,1.71,0,0,1,.63-1.4,2.35,2.35,0,0,1,2.71-.17,1.9,1.9,0,0,1,.81,1L107,92.63l3.48-9.46a2,2,0,0,1,.78-1,2.08,2.08,0,0,1,1.18-.36,2,2,0,0,1,2,1.42l3.26,9.65,3.43-9.68A2,2,0,0,1,121.88,82.14Z"/><path class="cls-2" d="M139.27,81.81a2,2,0,0,1,1.43.61,1.91,1.91,0,0,1,.64,1.4,2,2,0,0,1-.53,1.32l-5,5.83v5.86a2.13,2.13,0,0,1-.61,1.62,2.23,2.23,0,0,1-1.58.56,2.27,2.27,0,0,1-1.6-.56,2.07,2.07,0,0,1-.63-1.62V91l-5-5.83a2,2,0,0,1-.55-1.34,1.89,1.89,0,0,1,.62-1.39,2,2,0,0,1,1.42-.6,1.87,1.87,0,0,1,1.46.72l4.25,5,4.25-5A1.87,1.87,0,0,1,139.27,81.81Z"/><path class="cls-2" d="M145.69,98.67A8.21,8.21,0,0,1,143,97.5a2.08,2.08,0,0,1-.59-.65,1.8,1.8,0,0,1-.18-.86,1.91,1.91,0,0,1,.44-1.25,1.26,1.26,0,0,1,1-.53,2,2,0,0,1,.6.1,3,3,0,0,1,.72.36,7.82,7.82,0,0,0,2,.79,9.21,9.21,0,0,0,2.2.24,4.38,4.38,0,0,0,2.14-.42,1.34,1.34,0,0,0,.74-1.23,1.12,1.12,0,0,0-.69-1,9.13,9.13,0,0,0-2.6-.78,15.31,15.31,0,0,1-3.72-1.2,4.4,4.4,0,0,1-1.89-1.65,4.54,4.54,0,0,1-.54-2.29,4.59,4.59,0,0,1,.92-2.78,6,6,0,0,1,2.5-2,8.81,8.81,0,0,1,3.59-.71,11.38,11.38,0,0,1,3.12.39,7.61,7.61,0,0,1,2.5,1.2,2,2,0,0,1,.61.66,1.81,1.81,0,0,1,.18.85,2,2,0,0,1-.42,1.25,1.25,1.25,0,0,1-1,.53,1.75,1.75,0,0,1-.57-.09,3.57,3.57,0,0,1-.75-.37l-.68-.37a5.67,5.67,0,0,0-1.32-.48,7,7,0,0,0-1.64-.18,3.57,3.57,0,0,0-2,.47,1.4,1.4,0,0,0-.75,1.23,1.06,1.06,0,0,0,.27.75,2.57,2.57,0,0,0,1,.56,14.58,14.58,0,0,0,2.14.56,14.18,14.18,0,0,1,3.62,1.22,4.58,4.58,0,0,1,1.87,1.64,4.24,4.24,0,0,1,.55,2.21,4.59,4.59,0,0,1-.88,2.79A5.65,5.65,0,0,1,153,98.43a9.62,9.62,0,0,1-3.7.66A14.44,14.44,0,0,1,145.69,98.67Z"/><path class="cls-2" d="M159.42,98.43a2.19,2.19,0,0,1-.59-1.6V84a2.12,2.12,0,0,1,.59-1.57,2.15,2.15,0,0,1,1.59-.59,2.26,2.26,0,0,1,1.64.59,2.09,2.09,0,0,1,.6,1.57V96.83a2.16,2.16,0,0,1-.6,1.6A2.25,2.25,0,0,1,161,99,2.15,2.15,0,0,1,159.42,98.43Z"/><path class="cls-2" d="M187.81,82.14a2.11,2.11,0,0,1,1.19-.36,2,2,0,0,1,1.38.51,1.7,1.7,0,0,1,.59,1.36,3.36,3.36,0,0,1-.19,1L186,97.67a1.9,1.9,0,0,1-.87,1,2.76,2.76,0,0,1-1.41.38,2.66,2.66,0,0,1-1.39-.38,1.88,1.88,0,0,1-.86-1l-3.13-8.9L175,97.67a2,2,0,0,1-.89,1,2.58,2.58,0,0,1-1.36.38,2.67,2.67,0,0,1-1.4-.38,1.92,1.92,0,0,1-.86-1l-4.85-13.06a2.8,2.8,0,0,1-.17-.91,1.69,1.69,0,0,1,.64-1.4,2.23,2.23,0,0,1,1.48-.52,2.34,2.34,0,0,1,1.23.35,1.9,1.9,0,0,1,.81,1l3.28,9.46,3.48-9.46a2,2,0,0,1,.78-1,2.11,2.11,0,0,1,1.19-.36,2.08,2.08,0,0,1,1.18.36,2,2,0,0,1,.76,1.06l3.27,9.65L187,83.17A2,2,0,0,1,187.81,82.14Z"/><path class="cls-2" d="M205.2,81.81a2,2,0,0,1,1.43.61,1.9,1.9,0,0,1,.63,1.4,2,2,0,0,1-.53,1.32l-5,5.83v5.86a2.1,2.1,0,0,1-.61,1.62,2.21,2.21,0,0,1-1.57.56,2.29,2.29,0,0,1-1.61-.56,2.1,2.1,0,0,1-.62-1.62V91l-5-5.83a2,2,0,0,1-.56-1.34,1.86,1.86,0,0,1,.63-1.39,2,2,0,0,1,1.41-.6,1.9,1.9,0,0,1,1.47.72l4.25,5,4.24-5A1.9,1.9,0,0,1,205.2,81.81Z"/><path class="cls-2" d="M223.33,89.76A1.57,1.57,0,0,1,223.8,91v4.18a7.07,7.07,0,0,1-.18,1.83,1.85,1.85,0,0,1-.65,1,4.1,4.1,0,0,1-1.4.62,14.65,14.65,0,0,1-2.08.37,18.21,18.21,0,0,1-2.12.14,10.29,10.29,0,0,1-4.79-1,7.21,7.21,0,0,1-3.11-3,10.42,10.42,0,0,1,0-9.24,7.36,7.36,0,0,1,3.07-3,9.86,9.86,0,0,1,4.66-1.06,10.7,10.7,0,0,1,3,.4,8.28,8.28,0,0,1,2.48,1.21,1.74,1.74,0,0,1,.59.63,1.8,1.8,0,0,1,.18.86,1.91,1.91,0,0,1-.41,1.26,1.23,1.23,0,0,1-1,.52,1.82,1.82,0,0,1-.66-.11,5.55,5.55,0,0,1-.71-.37,7.87,7.87,0,0,0-1.67-.7,6.46,6.46,0,0,0-1.69-.22A4.26,4.26,0,0,0,214,86.49a5.76,5.76,0,0,0-1.12,3.91,5.94,5.94,0,0,0,1.16,4,4.56,4.56,0,0,0,3.57,1.31,10.9,10.9,0,0,0,2.28-.24V92.34h-1.73a1.74,1.74,0,0,1-1.22-.39,1.65,1.65,0,0,1,0-2.24,1.74,1.74,0,0,1,1.22-.39h4A1.77,1.77,0,0,1,223.33,89.76Z"/><path class="cls-3" d="M222.11,282.72s-20.56-26.49-.75-61.34c11.36-20,35.67-27.75,50.14-25.95,14.91,1.84,46.1,1.9,51.34,49.38C329.45,304.63,239.91,304.88,222.11,282.72Z"/><path class="cls-4" d="M248.64,223.6s4.63,29.08,13.38,23.49,19.19-25.63,19.19-25.63Z"/><path class="cls-3" d="M201.83,218.86c-29-24.92-24.36-65.36,3-91.84,18.48-17.87,38.93-25.19,53-50.75,1.68-5,4.9-1.07,6.9,1C280,96,298.28,110.74,319.14,124.87,358,155,353.83,207,323.41,221S230.82,243.78,201.83,218.86Z"/><path class="cls-4" d="M274.92,227c-19.8,0-44.06,1.1-59-13.86s-18.68-38.77,3-51c15.76-8.87,27.35-9.33,49.59-6.84S319,168.5,317.12,199.36C315.78,221.33,296.76,226.7,274.92,227Z"/><path class="cls-5" d="M256.41,145.05c-4.56-.15-9.89-.83-11.63-5.43-2.51-6.65,6.57-7.73,9.54-7.42,5.77.6,10.29.4,11.52,5.34C267.33,143.54,260.62,144.4,256.41,145.05Z"/><path class="cls-6" d="M232,183c-1-4-3.11-15.62,2.57-16.26,6.77-.76,7.67,10.55,7.91,14.75S244.27,191.74,239,192C235.62,192.13,232.9,186,232,183Z"/><path class="cls-6" d="M271.15,183.31c-.52-4.24-.68-16.43,5.2-16.13,7,.36,7,12,6.54,16.19s-1.16,10.71-6.35,10.08C273.16,193.05,271.52,186.38,271.15,183.31Z"/><path class="cls-7" d="M255.54,201.83a30.23,30.23,0,0,1-9,8.39c3,5.94,12.32,12.07,17.51,9.39s5.94-5.78,6.16-10.14C265.13,206.91,260.41,204.45,255.54,201.83Z"/><path class="cls-3" d="M277.18,211.35a9.1,9.1,0,0,1-4.36,1c-6.5,0-11.49-2.69-16.85-6.41-1.77,4.87-8.16,6.07-11.42,6.48-5,.63-11.61-7.42-12-8-2.06-3.55-1-4.09.83-5.12s3.48.14,5.15,2.22c.1.12,2.8,4.36,5.47,4.05s6.8-3.32,8.21-6.68a2.1,2.1,0,0,1,2.3-1.2c1.16.27,1-.38,3.38,1.83.2.19,9.17,8,14,6.26,2.93-1,9-4.19,10.63-8.94.42-1.23,2.91-1.72,4.22-.74a3.73,3.73,0,0,1,1.19,4.39C285.17,205.31,282,209.1,277.18,211.35Z"/><path class="cls-8" d="M248.69,209.35c2.7,5.13,2,10.61,8.2,11.24s13.45-6,14.66-10.83"/><path class="cls-9" d="M351,388c0,12.7-38.95,21-87,21s-87-8.3-87-21,38.95-19,87-19S351,375.3,351,388Z"/><ellipse class="cls-10" cx="264" cy="386" rx="55" ry="12.01"/><circle class="cls-11" cx="264" cy="316.5" r="76"/><circle class="cls-2" cx="264" cy="316.5" r="76"/><path class="cls-4" d="M308,322.13l-.87-2.52a126.5,126.5,0,0,0-7.48-18.28c-4.71-9.28-11.55-17.67-17.48-22.17l-.33-.26-.36-.23c-5-3.3-11.1-4.63-17.45-4.65s-12.47,1.35-17.45,4.65l-.36.23-.33.26c-5.93,4.5-12.77,12.89-17.48,22.17a126.5,126.5,0,0,0-7.48,18.28c-.3.87-.59,1.71-.86,2.52a24.2,24.2,0,0,0,1.11,19.7c3.45,6.34,10.71,9.45,18.08,9.37.34,0,.68,0,1,0h2.31V319.46c.06-6.26,2.91-4.66,9.21-.87a24.41,24.41,0,0,0,24.46,0c6.3-3.79,9.15-5.39,9.21.87v31.72h2.31c.34,0,.68,0,1,0,7.37.08,14.63-3,18.09-9.37A24.27,24.27,0,0,0,308,322.13Z"/><path class="cls-4" d="M229.75,232.11s18.05,44.28,5.43,48.1-24.12,5.79-30.79-36S229.75,232.11,229.75,232.11Z"/><path class="cls-3" d="M207.18,221.48c3.51-1.88,8.57-.76,15,3.32a63,63,0,0,1,8.39,6.4,1.25,1.25,0,0,1,.31.44c.05.14,5.8,14.32,8.54,27.24a1.25,1.25,0,0,1-1.52,1.47c-9.75-2.39-19.29-.76-26.88,4.57-.4.28-.8.58-1.19.89a1.25,1.25,0,0,1-1.12.2,1.19,1.19,0,0,1-.82-.8,133.41,133.41,0,0,1-4.76-20.84C201.11,231.5,202.42,224,207.18,221.48Z"/><path class="cls-4" d="M314.07,231.78s-42.3-22.29-47.34-10.1-8.12,23.42,32.85,34.16S314.07,231.78,314.07,231.78Z"/><path class="cls-3" d="M294.68,221.72a204.25,204.25,0,0,1,20,9,1.39,1.39,0,0,1,.41.35c1.29,1.69,11.41,16.72,6.38,24.27-3,4.48-9.57,5.05-22.17,1.75A154,154,0,0,1,283.12,252a1.24,1.24,0,0,1-.76-.86.84.84,0,0,1,0-.27,1.21,1.21,0,0,1,.31-.85A43.44,43.44,0,0,0,293,222.84a1.25,1.25,0,0,1,.56-1A1.22,1.22,0,0,1,294.68,221.72Z"/></svg>