<svg id="レイヤー_1" data-name="レイヤー 1" xmlns="http://www.w3.org/2000/svg" viewBox="0 0 528 418"><defs><style>.cls-3{fill:#edeff0}.cls-4{fill:#d1d7da}.cls-6{fill:#e8b92e}.cls-8{fill:#92bf5d}.cls-9{fill:#fff}.cls-10{fill:#498dc9}.cls-15{fill:#e7ae27}.cls-16{fill:#83b351}</style></defs><path d="M479 399.5c0 6.35-63.13 10.5-141 10.5s-141-4.15-141-10.5 63.13-9.5 141-9.5 141 3.15 141 9.5z" fill="#eee"/><path d="M457 398.17c0 4.13-49.25 6.83-110 6.83s-110-2.7-110-6.83S286.25 392 347 392s110 2.05 110 6.17zm-295 1.33c0 6.35-27.09 10.5-60.5 10.5S41 405.85 41 399.5s27.09-9.5 60.5-9.5 60.5 3.15 60.5 9.5z" fill="#e0e0e0"/><rect class="cls-3" x="20" y="10" width="294" height="336" rx="12" ry="12"/><path class="cls-4" d="M32 10h270a12 12 0 0 1 12 12v28H20V22a12 12 0 0 1 12-12z"/><circle cx="40" cy="30" r="8" fill="#e65d53"/><circle class="cls-6" cx="64" cy="30" r="8"/><circle cx="88" cy="30" r="8" fill="#5ead61"/><path class="cls-6" d="M40 70h74v30H40z"/><path class="cls-8" d="M40 110h254v108H40z"/><path class="cls-4" d="M178 230h116v68H178zm-138 0h116v10H40zm0 20h116v10H40zm0 20h116v10H40zm0 20h116v10H40zm0 20h100v10H40zM220 70h74v30h-74z"/><path class="cls-3" d="M191.14 169.23l-.47-1.38a70.34 70.34 0 0 0-4.11-10 37.34 37.34 0 0 0-9.6-12.17l-.18-.15-.2-.12a19.21 19.21 0 0 0-19.16 0l-.2.12-.18.15a37.34 37.34 0 0 0-9.6 12.17 70.34 70.34 0 0 0-4.11 10l-.47 1.38a13.32 13.32 0 0 0 .61 10.81c1.9 3.49 5.88 5.19 9.93 5.15h1.83v-17.43c0-3.44 1.6-2.56 5.06-.48a13.36 13.36 0 0 0 13.42 0c3.46-2.08 5-3 5.06.48v17.42h1.83c4.05 0 8-1.66 9.93-5.15a13.32 13.32 0 0 0 .61-10.8zM87.62 87.3l-.21-.61a30.69 30.69 0 0 0-1.8-4.41 16.37 16.37 0 0 0-4.23-5.36l-.08-.06-.08-.06a8.51 8.51 0 0 0-8.44 0l-.08.06-.08.06a16.37 16.37 0 0 0-4.23 5.36 30.69 30.69 0 0 0-1.8 4.41l-.21.61a5.85 5.85 0 0 0 .27 4.76A4.79 4.79 0 0 0 71 94.32h.8v-7.67c0-1.51.7-1.12 2.23-.21a5.87 5.87 0 0 0 5.9 0c1.53-.91 2.22-1.3 2.23.21v7.67H83a4.78 4.78 0 0 0 4.37-2.26 5.85 5.85 0 0 0 .25-4.76zm180 0l-.21-.61a30.69 30.69 0 0 0-1.8-4.41 16.37 16.37 0 0 0-4.23-5.36l-.08-.06-.08-.06a8.51 8.51 0 0 0-8.44 0l-.08.06-.08.06a16.37 16.37 0 0 0-4.23 5.36 30.69 30.69 0 0 0-1.8 4.41l-.21.61a5.85 5.85 0 0 0 .27 4.76 4.79 4.79 0 0 0 4.35 2.26h.8v-7.67c0-1.51.7-1.12 2.23-.21a5.87 5.87 0 0 0 5.9 0c1.53-.91 2.22-1.3 2.23.21v7.67h.8a4.78 4.78 0 0 0 4.37-2.26 5.85 5.85 0 0 0 .29-4.76zm-21 179l-.21-.61a30.69 30.69 0 0 0-1.8-4.41 16.37 16.37 0 0 0-4.23-5.36l-.08-.06-.08-.06a8.51 8.51 0 0 0-8.44 0l-.08.06-.08.06a16.37 16.37 0 0 0-4.23 5.36 30.69 30.69 0 0 0-1.8 4.41l-.21.61a5.85 5.85 0 0 0 .27 4.76 4.79 4.79 0 0 0 4.37 2.26h.8v-7.67c0-1.51.7-1.12 2.23-.21a5.87 5.87 0 0 0 5.9 0c1.53-.91 2.22-1.3 2.23.21v7.67h.8a4.78 4.78 0 0 0 4.37-2.26 5.85 5.85 0 0 0 .27-4.76z"/><rect class="cls-3" x="330" y="10" width="174" height="336" rx="12" ry="12"/><path class="cls-4" d="M342 10h150a12 12 0 0 1 12 12v28H330V22a12 12 0 0 1 12-12z"/><path class="cls-6" d="M348 70h138v30H348z"/><path class="cls-8" d="M348 110h138v108H348z"/><path class="cls-4" d="M348 230h138v10H348zm0 20h138v10H348zm0 20h138v10H348zm0 20h138v10H348zm0 20h118.97v10H348z"/><path class="cls-3" d="M427.62 166.3l-.21-.61a30.69 30.69 0 0 0-1.8-4.41 16.37 16.37 0 0 0-4.23-5.36l-.08-.06-.08-.06a8.51 8.51 0 0 0-8.44 0l-.08.06-.08.06a16.37 16.37 0 0 0-4.23 5.36 30.69 30.69 0 0 0-1.8 4.41l-.21.61a5.85 5.85 0 0 0 .27 4.76 4.79 4.79 0 0 0 4.37 2.26h.8v-7.67c0-1.51.7-1.12 2.23-.21a5.87 5.87 0 0 0 5.9 0c1.53-.91 2.22-1.3 2.23.21v7.67h.8a4.78 4.78 0 0 0 4.37-2.26 5.85 5.85 0 0 0 .27-4.76zm0-79l-.21-.61a30.69 30.69 0 0 0-1.8-4.41 16.37 16.37 0 0 0-4.23-5.36l-.08-.06-.08-.06a8.51 8.51 0 0 0-8.44 0l-.08.06-.08.06a16.37 16.37 0 0 0-4.23 5.36 30.69 30.69 0 0 0-1.8 4.41l-.21.61a5.85 5.85 0 0 0 .27 4.76 4.79 4.79 0 0 0 4.35 2.26h.8v-7.67c0-1.51.7-1.12 2.23-.21a5.87 5.87 0 0 0 5.9 0c1.53-.91 2.22-1.3 2.23.21v7.67h.8a4.78 4.78 0 0 0 4.37-2.26 5.85 5.85 0 0 0 .29-4.76z"/><rect class="cls-3" x="343" y="22" width="148" height="16" rx="2" ry="2"/><path class="cls-9" d="M122 380.19s29.39 5.94 22.55 14.72-19.55 6.09-37.33-4.82 14.78-9.9 14.78-9.9zm-28.85 1.49s14.24 20.91-15.64 21.32-16.64-25.11 15.64-21.32zm42.02-26.9s29.22-10.8 25.5-18.55-7.82-14.13-30.86 1.06 5.36 17.49 5.36 17.49z"/><path class="cls-10" d="M131.71 377.12s10.72-19-5.39-39.6c-9.23-11.79-25.64-14.47-34.8-11.93-9.43 2.62-26.94 5.26-25.78 36.36 1.47 39.18 56.62 31.16 65.97 15.17z"/><path class="cls-9" d="M58.69 350.28s-18.49 25.07-11.13 29.51 14.3 7.51 25.22-17.79-14.09-11.72-14.09-11.72zm54.04-9.94s-.2 19.18-6.38 16.42-14.82-14.68-14.82-14.68z"/><path class="cls-10" d="M120.13 348.61c.64 2.51 3.4 4.45 8.21 5.77a41.85 41.85 0 0 0 6.76 1.21.7.7 0 0 0 .35 0 121.64 121.64 0 0 0 16.85-7.87.83.83 0 0 0 .4-.68.82.82 0 0 0-.36-.7 21.17 21.17 0 0 1-9.63-14.92c0-.33-.07-.65-.1-1a.8.8 0 0 0-.39-.63.86.86 0 0 0-.52-.11.81.81 0 0 0-.22.07 87.94 87.94 0 0 0-12.12 6.88c-7.08 4.65-10.1 8.58-9.23 11.98zm-69.82 13.18a132.64 132.64 0 0 1 7.73-12 .82.82 0 0 1 .26-.23c1.22-.66 12-6.37 16.35-2.39 2.6 2.37 2.23 7.31-1.13 15.1a101.59 101.59 0 0 1-4.84 9.91.83.83 0 0 1-.63.41h-.18a.79.79 0 0 1-.52-.28A28.17 28.17 0 0 0 50.87 363a.82.82 0 0 1-.59-.46.81.81 0 0 1 .03-.75z"/><path class="cls-10" d="M144.82 332.18c5.46-6.48 16.23-35.61-8.27-54.2-16.54-12.55-25.48-9.4-40.07-31 0 0-1.12-4.09-4.12 1.26 0 0-10.93 18-36.87 34.73-37.14 26.79-10.67 66.83 7.28 68.43 35.49 6.35 76.59-12.75 82.05-19.22z"/><path class="cls-9" d="M105.37 344s24.81-4.28 31.13-14.72 4.57-26.65-6.45-31.48c-8-3.51-18.53-2.85-32.69.12s-33.86 13.14-27.59 35.67c4.98 17.9 24.39 11.61 35.6 10.41z"/><path d="M106 289.46s7.3-.49 8.09-4c1.15-5.05-5.9-4.55-7.72-4.22-3.52.62-7.34.82-7.75 4-.52 3.92 4.6 4.23 7.38 4.22z" fill="#efd252"/><path d="M124.19 312.77s.54-10.43-3.16-10.1c-4.41.39-4.12 6.74-3.73 10s1.18 6.61 3.67 6.13c1.63-.3 2.86-3.25 3.22-6.03zm-25.13 4.46s.58-11.37-3.45-11c-4.8.43-4.49 7.35-4.06 10.92s1.28 7.21 4 6.68c1.78-.35 3.11-3.57 3.51-6.6z" fill="#0ea1b3"/><path class="cls-10" d="M98.39 336.47a11.54 11.54 0 0 0 3.32 0c4.59-.69 7.86-3.93 9.58-6.13 3.37 2.44 6.4 3.24 9 2.4 4-1.3 5.16-5.94 5.21-6.13a2.15 2.15 0 0 0-4.18-1c0 .07-.68 2.53-2.36 3.06s-3.92-.6-6.74-3a2.14 2.14 0 0 0-3.28.56c0 .05-3.08 5.33-7.92 6.05-3 .43-6.14-.94-9.45-4.07a2.17 2.17 0 0 0-3 .07 2.13 2.13 0 0 0 .08 3c3.21 3.02 6.48 4.77 9.74 5.19z"/><path d="M407 290.66S504 238 457 91" stroke="#e8b92e" fill="none" stroke-linecap="round" stroke-miterlimit="10" stroke-width="8"/><path d="M237 356.82S158 356 167 203" stroke="#92bf5d" fill="none" stroke-linecap="round" stroke-miterlimit="10" stroke-width="8"/><rect class="cls-9" x="200" y="266" width="278" height="53" rx="7" ry="7"/><path class="cls-15" d="M471 267a6 6 0 0 1 6 6v39a6 6 0 0 1-6 6H207a6 6 0 0 1-6-6v-39a6 6 0 0 1 6-6h264m0-2H207a8 8 0 0 0-8 8v39a8 8 0 0 0 8 8h264a8 8 0 0 0 8-8v-39a8 8 0 0 0-8-8z"/><path class="cls-15" d="M218.75 300.29a2.55 2.55 0 0 1 1.82-4.36 2.42 2.42 0 0 1 1.8.74 2.64 2.64 0 0 1 0 3.62 2.42 2.42 0 0 1-1.8.74 2.45 2.45 0 0 1-1.82-.74zm7.25-15.06a2.1 2.1 0 0 1-.7-1.64 2.05 2.05 0 0 1 .7-1.59 3.17 3.17 0 0 1 3.74 0 2 2 0 0 1 .71 1.63 2.09 2.09 0 0 1-.69 1.64 3.16 3.16 0 0 1-3.76 0zm.21 15.26a2 2 0 0 1-.67-1.62v-9a2 2 0 0 1 .67-1.62 2.85 2.85 0 0 1 3.34 0 2 2 0 0 1 .67 1.62v9a2 2 0 0 1-.67 1.62 2.85 2.85 0 0 1-3.34 0zm8.79.33a6.78 6.78 0 0 1-2.13-.84 1.38 1.38 0 0 1-.58-.63 2.33 2.33 0 0 1-.21-1 1.81 1.81 0 0 1 .38-1.17 1.2 1.2 0 0 1 1-.46 2.89 2.89 0 0 1 .74.09 6.3 6.3 0 0 1 .84.3 13.72 13.72 0 0 0 1.48.45 6.82 6.82 0 0 0 1.64.16 2.61 2.61 0 0 0 1.12-.2.62.62 0 0 0 .41-.56.55.55 0 0 0-.2-.45 2 2 0 0 0-.75-.3c-.37-.1-1-.23-1.86-.41a7.31 7.31 0 0 1-3.38-1.35 3.24 3.24 0 0 1-1-2.56 3.45 3.45 0 0 1 .75-2.18 5 5 0 0 1 2.06-1.53 7.71 7.71 0 0 1 2.95-.55 9.29 9.29 0 0 1 2.3.29 7.34 7.34 0 0 1 2 .81 1.65 1.65 0 0 1 .81 1.53 1.93 1.93 0 0 1-.39 1.23 1.18 1.18 0 0 1-1 .5 3.91 3.91 0 0 1-1.63-.45 9.23 9.23 0 0 0-1.12-.43A4.23 4.23 0 0 0 238 291a2.18 2.18 0 0 0-1 .19.62.62 0 0 0-.37.57.74.74 0 0 0 .51.66 10.81 10.81 0 0 0 2 .52 7.72 7.72 0 0 1 3.59 1.35 3.28 3.28 0 0 1 1.05 2.62 3.59 3.59 0 0 1-1.58 3.06 7.2 7.2 0 0 1-4.27 1.14 14.55 14.55 0 0 1-2.93-.29zm10.6-7.02c0-1.2.73-1.81 2.19-1.81h4.93a2.48 2.48 0 0 1 1.65.47 1.73 1.73 0 0 1 .53 1.34 1.78 1.78 0 0 1-.53 1.36 2.43 2.43 0 0 1-1.65.48h-4.93c-1.46 0-2.19-.64-2.19-1.84zm31.66-4.89c.77.84 1.15 2.28 1.15 4.29v5.67a2 2 0 0 1-.67 1.62 2.84 2.84 0 0 1-3.33 0 2 2 0 0 1-.67-1.62v-5.78a2.28 2.28 0 0 0-.37-1.47 1.37 1.37 0 0 0-1.08-.42 1.83 1.83 0 0 0-1.47.66 2.72 2.72 0 0 0-.55 1.81v5.2a2 2 0 0 1-.66 1.62 2.57 2.57 0 0 1-1.68.54 2.59 2.59 0 0 1-1.67-.54 2 2 0 0 1-.67-1.62v-5.78a2.29 2.29 0 0 0-.36-1.47 1.37 1.37 0 0 0-1.08-.42 1.79 1.79 0 0 0-1.46.66 2.77 2.77 0 0 0-.54 1.81v5.2a2 2 0 0 1-.67 1.62 2.84 2.84 0 0 1-3.33 0 2 2 0 0 1-.67-1.62v-9.08a1.87 1.87 0 0 1 .69-1.57 2.65 2.65 0 0 1 1.67-.54 2.45 2.45 0 0 1 1.54.49 1.75 1.75 0 0 1 .64 1.41 4.39 4.39 0 0 1 3.94-1.95 3.67 3.67 0 0 1 3.76 2.29 4.78 4.78 0 0 1 1.76-1.67 5 5 0 0 1 2.49-.62 4.22 4.22 0 0 1 3.29 1.28zm6.55 11.34a5.91 5.91 0 0 1-2.5-2.35 7.66 7.66 0 0 1 0-7.13 5.88 5.88 0 0 1 2.49-2.32 9 9 0 0 1 7.51 0 5.85 5.85 0 0 1 2.48 2.32 7.66 7.66 0 0 1 0 7.13 5.92 5.92 0 0 1-2.48 2.35 8.89 8.89 0 0 1-7.5 0zm6.24-5.92c0-2.17-.83-3.26-2.5-3.26s-2.49 1.09-2.49 3.26.83 3.26 2.49 3.26 2.5-1.09 2.5-3.26zm18.28-5.88a5.39 5.39 0 0 1 2 2.32 8.09 8.09 0 0 1 .72 3.51 8.29 8.29 0 0 1-.72 3.54 5.66 5.66 0 0 1-2 2.41 5.28 5.28 0 0 1-3 .85 5.11 5.11 0 0 1-2.35-.53 3.66 3.66 0 0 1-1.61-1.44 2 2 0 0 1-.7 1.41 2.46 2.46 0 0 1-1.62.51 2.31 2.31 0 0 1-1.66-.59 2.06 2.06 0 0 1-.62-1.57v-14.55a2 2 0 0 1 .66-1.51 2.49 2.49 0 0 1 1.73-.59 2.4 2.4 0 0 1 1.65.55 1.86 1.86 0 0 1 .63 1.47v5.23a4.06 4.06 0 0 1 1.62-1.34 5.21 5.21 0 0 1 2.27-.5 5.39 5.39 0 0 1 3 .82zm-2.55 8.28a3.93 3.93 0 0 0 .66-2.45 3.68 3.68 0 0 0-.65-2.34 2.21 2.21 0 0 0-1.85-.82 2.28 2.28 0 0 0-1.89.83 3.75 3.75 0 0 0-.65 2.38 3.85 3.85 0 0 0 .65 2.42 2.47 2.47 0 0 0 3.73 0zm7.89-11.5a2.09 2.09 0 0 1-.69-1.64 2 2 0 0 1 .69-1.63 3.19 3.19 0 0 1 3.75 0 2 2 0 0 1 .71 1.63 2.07 2.07 0 0 1-.7 1.64 2.73 2.73 0 0 1-1.88.62 2.77 2.77 0 0 1-1.88-.62zm.22 15.26a2 2 0 0 1-.67-1.62v-9a2 2 0 0 1 .67-1.62 2.55 2.55 0 0 1 1.66-.54 2.58 2.58 0 0 1 1.67.54 2 2 0 0 1 .67 1.62v9a2 2 0 0 1-.67 1.62 2.58 2.58 0 0 1-1.67.54 2.55 2.55 0 0 1-1.66-.54zm7.38 0a2 2 0 0 1-.67-1.62V284.4a2 2 0 0 1 .67-1.63 2.8 2.8 0 0 1 3.33 0 2 2 0 0 1 .67 1.63v14.47a2 2 0 0 1-.67 1.62 2.84 2.84 0 0 1-3.33 0zm18.2-3.3a2 2 0 0 1 .38 1.24 1.74 1.74 0 0 1-1 1.6 10.05 10.05 0 0 1-2.12.75 9.43 9.43 0 0 1-2.25.3 8.22 8.22 0 0 1-3.75-.81 5.88 5.88 0 0 1-2.47-2.34 7.1 7.1 0 0 1-.87-3.57 7.22 7.22 0 0 1 .83-3.48 5.85 5.85 0 0 1 2.31-2.39 6.6 6.6 0 0 1 3.35-.86 6.2 6.2 0 0 1 3.18.79 5.29 5.29 0 0 1 2.11 2.23 7.3 7.3 0 0 1 .75 3.39 1.43 1.43 0 0 1-.27.93 1 1 0 0 1-.8.33h-6.94a2.84 2.84 0 0 0 .82 1.81 2.74 2.74 0 0 0 1.86.56 4.61 4.61 0 0 0 1.21-.15 11 11 0 0 0 1.23-.41l.78-.27a2.28 2.28 0 0 1 .69-.12 1.23 1.23 0 0 1 .97.47zm-7-5.82a2.78 2.78 0 0 0-.65 1.72H336c-.11-1.54-.77-2.31-2-2.31a1.94 1.94 0 0 0-1.48.59zm9.4 2.43c0-1.2.73-1.81 2.18-1.81H349a2.45 2.45 0 0 1 1.64.47 1.7 1.7 0 0 1 .54 1.34 1.75 1.75 0 0 1-.54 1.36 2.4 2.4 0 0 1-1.64.48h-4.94c-1.46 0-2.19-.64-2.19-1.84zm14.65 6.45a5.91 5.91 0 0 1-2.5-2.35 7.66 7.66 0 0 1 0-7.13 5.85 5.85 0 0 1 2.48-2.32 9 9 0 0 1 7.52 0 5.91 5.91 0 0 1 2.48 2.32 7.66 7.66 0 0 1 0 7.13 6 6 0 0 1-2.48 2.35 8.89 8.89 0 0 1-7.5 0zm6.23-5.92c0-2.17-.83-3.26-2.49-3.26s-2.5 1.09-2.5 3.26.83 3.26 2.5 3.26 2.49-1.09 2.49-3.26zm18.89-5.33a6.55 6.55 0 0 1 1.13 4.19v5.67a2 2 0 0 1-.63 1.58 2.81 2.81 0 0 1-3.42 0 2 2 0 0 1-.63-1.58v-5.46a2.77 2.77 0 0 0-.4-1.68 1.45 1.45 0 0 0-1.22-.53 2.17 2.17 0 0 0-1.67.67 2.57 2.57 0 0 0-.62 1.8v5.2a2 2 0 0 1-.63 1.58 2.81 2.81 0 0 1-3.42 0 2 2 0 0 1-.63-1.58v-9.08a1.92 1.92 0 0 1 .66-1.51 2.44 2.44 0 0 1 1.71-.6 2.25 2.25 0 0 1 1.59.56 1.87 1.87 0 0 1 .59 1.44 4.38 4.38 0 0 1 1.76-1.52 5.38 5.38 0 0 1 2.39-.53 4.18 4.18 0 0 1 3.44 1.38zm4.43 11.49a2 2 0 0 1-.67-1.62V284.4a2 2 0 0 1 .67-1.63 2.8 2.8 0 0 1 3.33 0 2 2 0 0 1 .67 1.63v14.47a2 2 0 0 1-.67 1.62 2.84 2.84 0 0 1-3.33 0zM402.21 288a2 2 0 0 1 1.1-.32 2.32 2.32 0 0 1 1.55.58 1.74 1.74 0 0 1 .68 1.39 1.92 1.92 0 0 1-.21.87l-7 13.95a2.22 2.22 0 0 1-.83 1 2.07 2.07 0 0 1-1.11.31 2.36 2.36 0 0 1-1.54-.56 1.77 1.77 0 0 1-.67-1.38 2 2 0 0 1 .24-.92l1.71-3.44-4.47-8.93a2.15 2.15 0 0 1-.21-.84 1.78 1.78 0 0 1 .74-1.43 2.54 2.54 0 0 1 1.65-.6 2.2 2.2 0 0 1 1.17.33 2.15 2.15 0 0 1 .83 1l2.78 6 2.76-6a2 2 0 0 1 .83-1.01zm4.62 5.8c0-1.2.73-1.81 2.18-1.81H414a2.47 2.47 0 0 1 1.64.47 1.7 1.7 0 0 1 .54 1.34 1.75 1.75 0 0 1-.54 1.36 2.41 2.41 0 0 1-1.64.48h-5c-1.44 0-2.17-.64-2.17-1.84zm18.06-7.52a2.16 2.16 0 0 0-.38 1.35v.37H426c1.4 0 2.1.57 2.1 1.7s-.7 1.74-2.1 1.74h-1.44v7.43a2 2 0 0 1-.67 1.63 2.81 2.81 0 0 1-3.34 0 2 2 0 0 1-.67-1.63v-7.43h-.76q-2.1 0-2.1-1.74c0-1.13.7-1.7 2.1-1.7h.76a5.51 5.51 0 0 1 1.51-4 6.07 6.07 0 0 1 4-1.61l.69-.05a4 4 0 0 1 .55 0 2.53 2.53 0 0 1 1.63.42 1.5 1.5 0 0 1 .5 1.21 1.57 1.57 0 0 1-.48 1.22 2 2 0 0 1-1.28.48l-.69.06a1.72 1.72 0 0 0-1.42.55zm16.56 1.98a2 2 0 0 1 .63 1.58v9.09a2 2 0 0 1-.66 1.51 2.44 2.44 0 0 1-1.7.59 2.32 2.32 0 0 1-1.55-.51 1.77 1.77 0 0 1-.63-1.38 4.15 4.15 0 0 1-1.54 1.44 4.51 4.51 0 0 1-2.14.5 4.68 4.68 0 0 1-3.71-1.38 6.24 6.24 0 0 1-1.2-4.19v-5.67a2 2 0 0 1 .63-1.58 2.8 2.8 0 0 1 3.41 0 2 2 0 0 1 .63 1.58v5.78c0 1.26.54 1.89 1.63 1.89a2 2 0 0 0 1.55-.68 2.64 2.64 0 0 0 .6-1.79v-5.2a2 2 0 0 1 .64-1.58 2.43 2.43 0 0 1 1.7-.58 2.46 2.46 0 0 1 1.71.58zm4.03 12.23a2 2 0 0 1-.67-1.62V284.4a2 2 0 0 1 .67-1.63 2.81 2.81 0 0 1 3.34 0 2 2 0 0 1 .67 1.63v14.47a2 2 0 0 1-.67 1.62 2.85 2.85 0 0 1-3.34 0zm7.38 0a2 2 0 0 1-.67-1.62V284.4a2 2 0 0 1 .67-1.63 2.81 2.81 0 0 1 3.34 0 2 2 0 0 1 .67 1.63v14.47a2 2 0 0 1-.67 1.62 2.85 2.85 0 0 1-3.34 0z"/><rect class="cls-9" x="238" y="330" width="218" height="53" rx="7" ry="7"/><path class="cls-16" d="M449 331a6 6 0 0 1 6 6v39a6 6 0 0 1-6 6H245a6 6 0 0 1-6-6v-39a6 6 0 0 1 6-6h204m0-2H245a8 8 0 0 0-8 8v39a8 8 0 0 0 8 8h204a8 8 0 0 0 8-8v-39a8 8 0 0 0-8-8z"/><path class="cls-16" d="M256.75 364.29a2.55 2.55 0 0 1 1.82-4.36 2.42 2.42 0 0 1 1.8.74 2.64 2.64 0 0 1 0 3.62 2.42 2.42 0 0 1-1.8.74 2.45 2.45 0 0 1-1.82-.74zm7.25-15.06a2.1 2.1 0 0 1-.7-1.64 2.05 2.05 0 0 1 .7-1.59 3.17 3.17 0 0 1 3.74 0 2 2 0 0 1 .71 1.63 2.09 2.09 0 0 1-.69 1.64 3.16 3.16 0 0 1-3.76 0zm.21 15.26a2 2 0 0 1-.67-1.62v-9a2 2 0 0 1 .67-1.62 2.85 2.85 0 0 1 3.34 0 2 2 0 0 1 .67 1.62v9a2 2 0 0 1-.67 1.62 2.85 2.85 0 0 1-3.34 0zm8.79.33a6.78 6.78 0 0 1-2.13-.84 1.38 1.38 0 0 1-.58-.63 2.33 2.33 0 0 1-.21-1 1.81 1.81 0 0 1 .38-1.17 1.2 1.2 0 0 1 1-.46 2.89 2.89 0 0 1 .74.09 6.3 6.3 0 0 1 .84.3 13.72 13.72 0 0 0 1.48.45 6.82 6.82 0 0 0 1.64.16 2.61 2.61 0 0 0 1.12-.2.62.62 0 0 0 .41-.56.55.55 0 0 0-.2-.45 2 2 0 0 0-.75-.3c-.37-.1-1-.23-1.86-.41a7.31 7.31 0 0 1-3.38-1.35 3.24 3.24 0 0 1-1-2.56 3.45 3.45 0 0 1 .75-2.18 5 5 0 0 1 2.06-1.53 7.71 7.71 0 0 1 2.95-.55 9.29 9.29 0 0 1 2.3.29 7.34 7.34 0 0 1 2 .81 1.65 1.65 0 0 1 .81 1.53 1.93 1.93 0 0 1-.39 1.23 1.18 1.18 0 0 1-1 .5 3.91 3.91 0 0 1-1.63-.45 9.23 9.23 0 0 0-1.12-.43A4.23 4.23 0 0 0 276 355a2.18 2.18 0 0 0-1 .19.62.62 0 0 0-.37.57.74.74 0 0 0 .51.66 10.81 10.81 0 0 0 2 .52 7.72 7.72 0 0 1 3.59 1.35 3.28 3.28 0 0 1 1 2.62 3.59 3.59 0 0 1-1.58 3.06 7.2 7.2 0 0 1-4.27 1.14 14.55 14.55 0 0 1-2.88-.29zm10.6-7.02c0-1.2.73-1.81 2.19-1.81h4.93a2.48 2.48 0 0 1 1.65.47 1.73 1.73 0 0 1 .53 1.34 1.78 1.78 0 0 1-.53 1.36 2.43 2.43 0 0 1-1.65.48h-4.93c-1.46 0-2.19-.64-2.19-1.84zm24.89-10.99a1.93 1.93 0 0 1 .67 1.51v14.55a2 2 0 0 1-.63 1.58 2.73 2.73 0 0 1-3.27.07 2 2 0 0 1-.69-1.41 3.74 3.74 0 0 1-1.62 1.44 5.11 5.11 0 0 1-2.35.53 5.28 5.28 0 0 1-3-.85 5.76 5.76 0 0 1-2-2.41 8.15 8.15 0 0 1-.74-3.54 8 8 0 0 1 .73-3.51 5.34 5.34 0 0 1 2-2.32 5.42 5.42 0 0 1 3-.82 5.21 5.21 0 0 1 2.27.5 4.06 4.06 0 0 1 1.62 1.34v-5.23a1.88 1.88 0 0 1 .61-1.47 2.42 2.42 0 0 1 1.67-.55 2.51 2.51 0 0 1 1.73.59zm-4.58 13.94a3.85 3.85 0 0 0 .66-2.42 3.75 3.75 0 0 0-.66-2.38 2.55 2.55 0 0 0-3.76 0 3.62 3.62 0 0 0-.65 2.34 3.89 3.89 0 0 0 .67 2.44 2.19 2.19 0 0 0 1.85.87 2.26 2.26 0 0 0 1.89-.85zm19.48.44a2 2 0 0 1 .38 1.24 1.73 1.73 0 0 1-1 1.6 10 10 0 0 1-2.11.75 9.49 9.49 0 0 1-2.25.3 8.19 8.19 0 0 1-3.75-.81 5.82 5.82 0 0 1-2.47-2.34 7.1 7.1 0 0 1-.87-3.57 7.22 7.22 0 0 1 .83-3.48 5.85 5.85 0 0 1 2.31-2.39 6.58 6.58 0 0 1 3.35-.86 6.2 6.2 0 0 1 3.18.79 5.35 5.35 0 0 1 2.11 2.23 7.3 7.3 0 0 1 .75 3.39 1.38 1.38 0 0 1-.28.93 1 1 0 0 1-.8.33h-6.93a2.84 2.84 0 0 0 .81 1.81 2.75 2.75 0 0 0 1.87.56 4.66 4.66 0 0 0 1.21-.15 12.6 12.6 0 0 0 1.23-.41l.78-.27a2.28 2.28 0 0 1 .69-.12 1.24 1.24 0 0 1 .96.47zm-6.95-5.82a2.85 2.85 0 0 0-.66 1.72h4.13c-.11-1.54-.78-2.31-2-2.31a1.94 1.94 0 0 0-1.47.59zm11.63 9.45A6.81 6.81 0 0 1 326 364a1.33 1.33 0 0 1-.58-.63 2.33 2.33 0 0 1-.21-1 1.81 1.81 0 0 1 .38-1.17 1.17 1.17 0 0 1 1-.46 2.81 2.81 0 0 1 .73.09 6.3 6.3 0 0 1 .84.3 13.82 13.82 0 0 0 1.49.45 6.82 6.82 0 0 0 1.64.16 2.67 2.67 0 0 0 1.12-.2.61.61 0 0 0 .4-.56.54.54 0 0 0-.19-.45 2 2 0 0 0-.75-.3c-.37-.1-1-.23-1.87-.41a7.26 7.26 0 0 1-3.37-1.35 3.24 3.24 0 0 1-1-2.56 3.45 3.45 0 0 1 .75-2.18 5 5 0 0 1 2.06-1.53 7.7 7.7 0 0 1 2.94-.55 9.23 9.23 0 0 1 2.3.29 7.09 7.09 0 0 1 2 .81 1.64 1.64 0 0 1 .82 1.53 1.93 1.93 0 0 1-.39 1.23 1.19 1.19 0 0 1-1 .5 4 4 0 0 1-1.63-.45 9.83 9.83 0 0 0-1.11-.43 4.34 4.34 0 0 0-1.14-.14 2.25 2.25 0 0 0-1 .19.64.64 0 0 0-.37.57.73.73 0 0 0 .52.66 10.87 10.87 0 0 0 2 .52 7.72 7.72 0 0 1 3.6 1.35 3.28 3.28 0 0 1 1 2.62 3.58 3.58 0 0 1-1.59 3.06 7.18 7.18 0 0 1-4.27 1.14 14.69 14.69 0 0 1-3.05-.28zm24.33-2.05a2.26 2.26 0 0 1-.62 1.55 1.93 1.93 0 0 1-1.48.68 2.22 2.22 0 0 1-1.47-.66l-5.34-5.06v3.54a2 2 0 0 1-.67 1.63 2.8 2.8 0 0 1-3.33 0 2 2 0 0 1-.67-1.63V348.4a2 2 0 0 1 .67-1.63 2.8 2.8 0 0 1 3.33 0 2 2 0 0 1 .67 1.63v8.9l4.86-4.93a2.06 2.06 0 0 1 1.53-.69 2 2 0 0 1 1.48.65 2 2 0 0 1 .64 1.46 2 2 0 0 1-.68 1.49l-2.86 2.84 3.25 3.13a2 2 0 0 1 .69 1.52zm11.06.5a1.49 1.49 0 0 1-.71 1.36 3.44 3.44 0 0 1-2 .37H360a5.43 5.43 0 0 1-3.59-1.43 4.77 4.77 0 0 1-1.22-3.48v-4.65h-.76q-2.1 0-2.1-1.74c0-1.13.7-1.7 2.1-1.7h.76v-1.71a2.06 2.06 0 0 1 .63-1.59 2.77 2.77 0 0 1 3.42 0 2.06 2.06 0 0 1 .63 1.59V352h1.44c1.4 0 2.1.57 2.1 1.7s-.7 1.74-2.1 1.74h-1.44v5a1.24 1.24 0 0 0 .3.84 1.07 1.07 0 0 0 .77.37l.77.05c1.16.06 1.75.59 1.75 1.57zm4 .98a5.89 5.89 0 0 1-2.46-2.35 7.66 7.66 0 0 1 0-7.13 5.8 5.8 0 0 1 2.48-2.32 9 9 0 0 1 7.51 0 5.8 5.8 0 0 1 2.48 2.32 7.66 7.66 0 0 1 0 7.13 5.86 5.86 0 0 1-2.48 2.35 8.89 8.89 0 0 1-7.5 0zm6.24-5.92c0-2.17-.83-3.26-2.49-3.26s-2.5 1.09-2.5 3.26.83 3.26 2.5 3.26 2.49-1.09 2.49-3.26zm18.3-5.84a5.57 5.57 0 0 1 2 2.4 8.29 8.29 0 0 1 .72 3.54 8.06 8.06 0 0 1-.72 3.51 5.27 5.27 0 0 1-5 3.14 5.21 5.21 0 0 1-2.27-.5 4 4 0 0 1-1.61-1.34v4.47a1.86 1.86 0 0 1-.63 1.47 2.43 2.43 0 0 1-1.66.55 2.49 2.49 0 0 1-1.73-.59 2 2 0 0 1-.66-1.51v-13.79a2.06 2.06 0 0 1 .62-1.56 2.29 2.29 0 0 1 1.67-.6 2.4 2.4 0 0 1 1.61.53 2 2 0 0 1 .7 1.39 3.77 3.77 0 0 1 1.61-1.44 5.5 5.5 0 0 1 5.31.33zm-2.52 8.28a3.68 3.68 0 0 0 .64-2.34 4 4 0 0 0-.66-2.45 2.19 2.19 0 0 0-1.86-.86 2.24 2.24 0 0 0-1.87.85 3.89 3.89 0 0 0-.65 2.41 3.79 3.79 0 0 0 .65 2.38 2.29 2.29 0 0 0 1.9.83 2.21 2.21 0 0 0 1.82-.82zm7.23-2.97c0-1.2.73-1.81 2.18-1.81h4.94a2.47 2.47 0 0 1 1.64.47 1.7 1.7 0 0 1 .54 1.34 1.75 1.75 0 0 1-.54 1.36 2.41 2.41 0 0 1-1.64.48h-4.94c-1.45 0-2.18-.64-2.18-1.84zm24.43 5.2a2 2 0 0 1-.63 1.44 2 2 0 0 1-1.47.63 2.06 2.06 0 0 1-1.55-.71l-3.08-3.2-3 3.2a2.08 2.08 0 0 1-1.55.71 2 2 0 0 1-1.47-.63 2 2 0 0 1-.63-1.44 2.06 2.06 0 0 1 .65-1.5l3.26-3.26-3-2.94a2.07 2.07 0 0 1-.65-1.49 2 2 0 0 1 .62-1.48 2 2 0 0 1 1.45-.63 2 2 0 0 1 1.55.74l2.81 2.86 2.84-2.86a2.12 2.12 0 0 1 1.55-.71 2 2 0 0 1 1.46.62 2 2 0 0 1 .62 1.43 2.13 2.13 0 0 1-.66 1.52l-3 2.94 3.26 3.26a2.07 2.07 0 0 1 .62 1.5zm14.42 0a2 2 0 0 1-.63 1.44 2 2 0 0 1-1.47.63 2.06 2.06 0 0 1-1.55-.71l-3.08-3.2-3 3.2a2.08 2.08 0 0 1-1.55.71 2 2 0 0 1-1.47-.63 2 2 0 0 1-.63-1.44 2.1 2.1 0 0 1 .65-1.5l3.26-3.26-3-2.94a2 2 0 0 1 0-3 2 2 0 0 1 1.45-.63 2 2 0 0 1 1.55.74l2.81 2.86 2.84-2.86a2.12 2.12 0 0 1 1.55-.71 2 2 0 0 1 1.46.62 2 2 0 0 1 .62 1.43 2.13 2.13 0 0 1-.66 1.52l-3 2.94 3.25 3.26a2.07 2.07 0 0 1 .6 1.53zm2.53 1.49a2 2 0 0 1-.67-1.62V348.4a2 2 0 0 1 .67-1.63 2.81 2.81 0 0 1 3.34 0 2 2 0 0 1 .67 1.63v14.47a2 2 0 0 1-.67 1.62 2.85 2.85 0 0 1-3.34 0z"/></svg>