<svg id="レイヤー_1" data-name="レイヤー 1" xmlns="http://www.w3.org/2000/svg" xmlns:xlink="http://www.w3.org/1999/xlink" viewBox="0 0 528 418"><defs><style>.cls-1{fill:none;}.cls-2{clip-path:url(#clip-path);}.cls-3{opacity:0.1;}.cls-4{fill:#fff;}.cls-5{fill:#edeff0;}.cls-6{fill:#d1d7da;}.cls-7{fill:#596c75;}.cls-8{fill:#e65d53;}.cls-9{fill:#e8b92e;}.cls-10{fill:#5ead61;}.cls-11{fill:#667b85;}.cls-12{fill:#498dc9;}.cls-13{fill:#efd252;}.cls-14{fill:#0ea1b3;}.cls-15{fill:#1cb4c7;}</style><clipPath id="clip-path"><rect class="cls-1" x="-1650" width="1600" height="900"/></clipPath></defs><title>illust-topcover</title><g class="cls-2"><g class="cls-3"><path class="cls-4" d="M304,70H-596a24,24,0,0,0-24,24V694a24,24,0,0,0,24,24h348.86L-266,850H-26L-44.86,718H304a24,24,0,0,0,24-24V94A24,24,0,0,0,304,70ZM292,598H-584V106H292Z"/></g></g><rect class="cls-5" width="528" height="336" rx="12" ry="12"/><path class="cls-6" d="M12,0H516a12,12,0,0,1,12,12V40a0,0,0,0,1,0,0H0a0,0,0,0,1,0,0V12A12,12,0,0,1,12,0Z"/><path class="cls-7" d="M294,40H528a0,0,0,0,1,0,0V324a12,12,0,0,1-12,12H294a0,0,0,0,1,0,0V40A0,0,0,0,1,294,40Z"/><circle class="cls-8" cx="20" cy="20" r="8"/><circle class="cls-9" cx="44" cy="20" r="8"/><circle class="cls-10" cx="68" cy="20" r="8"/><rect class="cls-6" x="20" y="60" width="74" height="30"/><rect class="cls-6" x="20" y="100" width="254" height="108"/><rect class="cls-6" x="158" y="220" width="116" height="68"/><rect class="cls-6" x="20" y="220" width="116" height="10"/><rect class="cls-6" x="20" y="240" width="116" height="10"/><rect class="cls-6" x="20" y="260" width="116" height="10"/><rect class="cls-6" x="20" y="280" width="116" height="10"/><rect class="cls-6" x="20" y="300" width="100" height="10"/><rect class="cls-6" x="200" y="60" width="74" height="30"/><path class="cls-11" d="M323,66.4h16v16H323Z"/><path class="cls-11" d="M342.31,66.4h16v16h-16Z"/><path class="cls-11" d="M361.61,66.4h16v16h-16Z"/><path class="cls-11" d="M380.92,66.4h16v16h-16Z"/><path class="cls-11" d="M343,103h16v16H343Z"/><path class="cls-11" d="M362.31,103h16v16h-16Z"/><path class="cls-11" d="M381.61,103h16v16h-16Z"/><path class="cls-11" d="M400.92,103h16v16h-16Z"/><path class="cls-11" d="M420.22,103h16v16h-16Z"/><path class="cls-11" d="M439.53,103h16v16h-16Z"/><path class="cls-11" d="M323,139.59h16v16H323Z"/><path class="cls-11" d="M342.31,139.59h16v16h-16Z"/><path class="cls-11" d="M361.61,139.59h16v16h-16Z"/><path class="cls-11" d="M380.92,139.59h16v16h-16Z"/><path class="cls-11" d="M400.22,139.59h16v16h-16Z"/><path class="cls-11" d="M419.53,139.59h16v16h-16Z"/><path class="cls-11" d="M438.84,139.59h16v16h-16Z"/><path class="cls-11" d="M458.14,139.59h16v16h-16Z"/><path class="cls-11" d="M477.45,139.59h16v16h-16Z"/><path class="cls-11" d="M323,176.19h16v16H323Z"/><path class="cls-11" d="M342.31,176.19h16v16h-16Z"/><path class="cls-11" d="M361.61,176.19h16v16h-16Z"/><path class="cls-11" d="M380.92,176.19h16v16h-16Z"/><path class="cls-11" d="M400.22,176.19h16v16h-16Z"/><path class="cls-11" d="M419.53,176.19h16v16h-16Z"/><path class="cls-11" d="M438.84,176.19h16v16h-16Z"/><path class="cls-11" d="M458.14,176.19h16v16h-16Z"/><path class="cls-11" d="M343,212.79h16v16H343Z"/><path class="cls-11" d="M362.31,212.79h16v16h-16Z"/><path class="cls-11" d="M381.61,212.79h16v16h-16Z"/><path class="cls-11" d="M400.92,212.79h16v16h-16Z"/><path class="cls-11" d="M420.22,212.79h16v16h-16Z"/><path class="cls-11" d="M439.53,212.79h16v16h-16Z"/><path class="cls-11" d="M363,249.39h16v16H363Z"/><path class="cls-11" d="M382.31,249.39h16v16h-16Z"/><path class="cls-11" d="M401.61,249.39h16v16h-16Z"/><path class="cls-11" d="M420.92,249.39h16v16h-16Z"/><path class="cls-11" d="M440.22,249.39h16v16h-16Z"/><path class="cls-11" d="M459.53,249.39h16v16h-16Z"/><path class="cls-11" d="M323,286h16v16H323Z"/><path class="cls-11" d="M342.31,286h16v16h-16Z"/><path class="cls-11" d="M361.61,286h16v16h-16Z"/><path class="cls-11" d="M380.92,286h16v16h-16Z"/><path class="cls-11" d="M400.22,286h16v16h-16Z"/><path class="cls-11" d="M419.53,286h16v16h-16Z"/><path class="cls-5" d="M171.14,159.23l-.47-1.38a70.34,70.34,0,0,0-4.11-10,37.34,37.34,0,0,0-9.6-12.17l-.18-.15-.2-.12a19.21,19.21,0,0,0-19.16,0l-.2.12-.18.15a37.34,37.34,0,0,0-9.6,12.17,70.34,70.34,0,0,0-4.11,10l-.47,1.38a13.32,13.32,0,0,0,.61,10.81c1.9,3.49,5.88,5.19,9.93,5.15h1.83V157.76c0-3.44,1.6-2.56,5.06-.48a13.36,13.36,0,0,0,13.42,0c3.46-2.08,5-3,5.06.48v17.42h1.83c4.05,0,8-1.66,9.93-5.15A13.32,13.32,0,0,0,171.14,159.23Z"/><path class="cls-5" d="M67.62,77.3l-.21-.61a30.69,30.69,0,0,0-1.8-4.41,16.37,16.37,0,0,0-4.23-5.36l-.08-.06-.08-.06a8.51,8.51,0,0,0-8.44,0l-.08.06-.08.06a16.37,16.37,0,0,0-4.23,5.36,30.69,30.69,0,0,0-1.8,4.41l-.21.61a5.85,5.85,0,0,0,.27,4.76A4.79,4.79,0,0,0,51,84.32h.8V76.65c0-1.51.7-1.12,2.23-.21a5.87,5.87,0,0,0,5.9,0c1.53-.91,2.22-1.3,2.23.21v7.67H63a4.78,4.78,0,0,0,4.37-2.26A5.85,5.85,0,0,0,67.62,77.3Z"/><path class="cls-5" d="M247.62,77.3l-.21-.61a30.69,30.69,0,0,0-1.8-4.41,16.37,16.37,0,0,0-4.23-5.36l-.08-.06-.08-.06a8.51,8.51,0,0,0-8.44,0l-.08.06-.08.06a16.37,16.37,0,0,0-4.23,5.36,30.69,30.69,0,0,0-1.8,4.41l-.21.61a5.85,5.85,0,0,0,.27,4.76A4.79,4.79,0,0,0,231,84.32h.8V76.65c0-1.51.7-1.12,2.23-.21a5.87,5.87,0,0,0,5.9,0c1.53-.91,2.22-1.3,2.23.21v7.67h.8a4.78,4.78,0,0,0,4.37-2.26A5.85,5.85,0,0,0,247.62,77.3Z"/><path class="cls-11" d="M504.62,77.3l-.21-.61a30.69,30.69,0,0,0-1.8-4.41,16.37,16.37,0,0,0-4.23-5.36l-.08-.06-.08-.06a8.51,8.51,0,0,0-8.44,0l-.08.06-.08.06a16.37,16.37,0,0,0-4.23,5.36,30.69,30.69,0,0,0-1.8,4.41l-.21.61a5.85,5.85,0,0,0,.27,4.76A4.79,4.79,0,0,0,488,84.32h.8V76.65c0-1.51.7-1.12,2.23-.21a5.87,5.87,0,0,0,5.9,0c1.53-.91,2.22-1.3,2.23.21v7.67h.8a4.78,4.78,0,0,0,4.37-2.26A5.85,5.85,0,0,0,504.62,77.3Z"/><path class="cls-5" d="M226.62,256.3l-.21-.61a30.69,30.69,0,0,0-1.8-4.41,16.37,16.37,0,0,0-4.23-5.36l-.08-.06-.08-.06a8.51,8.51,0,0,0-8.44,0l-.08.06-.08.06a16.37,16.37,0,0,0-4.23,5.36,30.69,30.69,0,0,0-1.8,4.41l-.21.61a5.85,5.85,0,0,0,.27,4.76,4.79,4.79,0,0,0,4.37,2.26h.8v-7.67c0-1.51.7-1.12,2.23-.21a5.87,5.87,0,0,0,5.9,0c1.53-.91,2.22-1.3,2.23.21v7.67h.8a4.78,4.78,0,0,0,4.37-2.26A5.85,5.85,0,0,0,226.62,256.3Z"/><path class="cls-4" d="M314.4,381.16s-47.46,9.6-36.41,23.77,31.54,9.79,60.2-7.78S314.4,381.16,314.4,381.16Z"/><path class="cls-4" d="M360.91,383.58s-23,33.76,25.25,34.41S413,377.46,360.91,383.58Z"/><path class="cls-4" d="M291.44,312.81s-47.18,17.45-41.18,30,12.64,22.82,49.84-1.71S291.44,312.81,291.44,312.81Z"/><path class="cls-12" d="M298.65,376.22s-17.31-30.75,8.7-64c14.9-19,41.4-23.36,56.18-19.26,15.23,4.22,43.51,8.49,41.63,58.7C402.79,415,313.74,402,298.65,376.22Z"/><path class="cls-4" d="M416.55,332.87s29.86,40.48,18,47.65-23.09,12.14-40.71-28.79S416.55,332.87,416.55,332.87Z"/><path class="cls-4" d="M329.29,316.83s.33,31,10.3,26.51,23.93-23.71,23.93-23.71Z"/><path class="cls-12" d="M315.73,322.78c-1-4.06-5.5-7.19-13.26-9.31a65.85,65.85,0,0,0-10.92-2,1.33,1.33,0,0,0-.56.07c-.15.06-15.24,5.67-27.21,12.72a1.3,1.3,0,0,0-.64,1.09,1.33,1.33,0,0,0,.58,1.13c8.78,5.87,14.3,14.43,15.55,24.1.07.52.11,1,.15,1.56a1.33,1.33,0,0,0,.64,1,1.3,1.3,0,0,0,.84.17,1.21,1.21,0,0,0,.36-.1,140.64,140.64,0,0,0,19.56-11.12C312.26,334.61,317.14,328.27,315.73,322.78Z"/><path class="cls-12" d="M430.08,351.46A213.3,213.3,0,0,0,417.6,332.1a1.24,1.24,0,0,0-.42-.37c-2-1.08-19.35-10.28-26.4-3.86-4.2,3.82-3.6,11.79,1.82,24.38a165,165,0,0,0,7.82,16,1.31,1.31,0,0,0,1,.66h.29a1.3,1.3,0,0,0,.83-.45,45.61,45.61,0,0,1,26.62-15.06,1.32,1.32,0,0,0,.94-.73A1.3,1.3,0,0,0,430.08,351.46Z"/><path class="cls-12" d="M277.48,303.64c-8.82-10.45-26.22-57.49,13.35-87.51C317.53,195.87,332,201,355.53,166c0,0,1.81-6.61,6.66,2,0,0,17.64,29,59.53,56.07C481.69,267.39,439,332,410,334.63,352.65,344.94,286.29,314.1,277.48,303.64Z"/><path class="cls-4" d="M341.18,322.73s-40.06-6.91-50.27-23.77-7.38-43,10.41-50.83c12.92-5.67,29.93-4.6,52.78.2s54.68,21.22,44.56,57.6C390.62,334.83,359.28,324.66,341.18,322.73Z"/><path class="cls-13" d="M340.19,234.67s-11.78-.79-13.07-6.42c-1.86-8.16,9.53-7.35,12.47-6.83,5.69,1,11.85,1.33,12.52,6.5C352.92,234.19,344.64,234.68,340.19,234.67Z"/><path class="cls-14" d="M310.78,272.31s-.86-16.85,5.11-16.31c7.12.63,6.65,10.88,6,16.18s-1.9,10.68-5.93,9.89C313.35,281.56,311.36,276.8,310.78,272.31Z"/><path class="cls-14" d="M351.37,279.51s-.94-18.35,5.56-17.77c7.76.69,7.25,11.85,6.57,17.62S361.43,291,357,290.15C354.17,289.59,352,284.4,351.37,279.51Z"/><path class="cls-12" d="M352.45,310.58a19.25,19.25,0,0,1-5.36-.06c-7.41-1.11-12.69-6.35-15.48-9.89-5.44,3.93-10.33,5.24-14.57,3.87-6.51-2.09-8.32-9.58-8.4-9.9a3.47,3.47,0,0,1,6.75-1.59c0,.1,1.1,4.08,3.82,4.94,2.46.77,6.32-1,10.87-4.92a3.48,3.48,0,0,1,5.31.92c0,.08,5,8.61,12.78,9.76,4.77.7,9.91-1.51,15.26-6.57a3.46,3.46,0,1,1,4.78,5C363,307.07,357.71,309.9,352.45,310.58Z"/><circle class="cls-1" cx="197" cy="342" r="76"/><circle class="cls-15" cx="197" cy="342" r="72"/><path class="cls-4" d="M197,274a68,68,0,1,1-68,68,68.07,68.07,0,0,1,68-68m0-8a76,76,0,1,0,76,76,76,76,0,0,0-76-76Z"/><path class="cls-4" d="M241,347.63l-.87-2.52a126.5,126.5,0,0,0-7.48-18.28c-4.71-9.28-11.55-17.67-17.48-22.17l-.33-.26-.36-.23c-5-3.3-11.1-4.63-17.45-4.65s-12.47,1.35-17.45,4.65l-.36.23-.33.26c-5.93,4.5-12.77,12.89-17.48,22.17a126.5,126.5,0,0,0-7.48,18.28c-.3.87-.59,1.71-.86,2.52a24.2,24.2,0,0,0,1.11,19.7c3.45,6.34,10.71,9.45,18.08,9.37.34,0,.68,0,1,0h2.31V345c.06-6.26,2.91-4.66,9.21-.87a24.41,24.41,0,0,0,24.46,0c6.3-3.79,9.15-5.39,9.21.87v31.72h2.31c.34,0,.68,0,1,0,7.37.08,14.63-3,18.09-9.37A24.27,24.27,0,0,0,241,347.63Z"/></svg>