<svg id="レイヤー_1" data-name="レイヤー 1" xmlns="http://www.w3.org/2000/svg" viewBox="0 0 528 418"><defs><style>.cls-4{fill:#fff}.cls-2{fill:#1cb4c7}.cls-3{fill:#498dc9}</style></defs><path d="M476 108h-61V73a8 8 0 0 0-8-8h-62.5V30a8 8 0 0 0-8-8h-154a8 8 0 0 0-8 8v31h-89a8 8 0 0 0-8 8v36H54a8 8 0 0 0-8 8v39a8 8 0 0 0 8 8h32v32H64.07a8 8 0 0 0-8 8v39a8 8 0 0 0 8 8H116v31a8 8 0 0 0 8 8h84a8 8 0 0 0 8-8v-39a8 8 0 0 0-8-8h-51.93v-28H178a8 8 0 0 0 8-8v-39a8 8 0 0 0-8-8h-32v-32h93.5a8 8 0 0 0 8-8V77H295v35a8 8 0 0 0 8 8h51v28h-10a8 8 0 0 0-8 8v39a8 8 0 0 0 8 8h35v29h-59a8 8 0 0 0-8 8v39a8 8 0 0 0 8 8h114a8 8 0 0 0 8-8v-33h29a8 8 0 0 0 8-8v-39a8 8 0 0 0-8-8h-15v-28h20a8 8 0 0 0 8-8v-39a8 8 0 0 0-8-8z" stroke="#edeff0" stroke-linejoin="round" stroke-width="10" fill="#fff"/><path class="cls-2" d="M344.49 250.86a2.37 2.37 0 0 1 .64 1.72v14.06a2.4 2.4 0 0 1-.64 1.73 2.31 2.31 0 0 1-1.73.66 2.34 2.34 0 0 1-1.72-.65 2.37 2.37 0 0 1-.64-1.74v-5.26h-7.56v5.26a2.36 2.36 0 0 1-.65 1.73 2.29 2.29 0 0 1-1.72.66 2.22 2.22 0 0 1-2.36-2.39v-14.06a2.37 2.37 0 1 1 4.73 0v5h7.56v-5a2.37 2.37 0 0 1 .64-1.72 2.64 2.64 0 0 1 3.45 0zm15.18 14.33a2 2 0 0 1 .38 1.24 1.73 1.73 0 0 1-1 1.6 10 10 0 0 1-2.11.75 9.49 9.49 0 0 1-2.25.3 8.22 8.22 0 0 1-3.75-.81 5.88 5.88 0 0 1-2.47-2.34 7.1 7.1 0 0 1-.87-3.57 7.22 7.22 0 0 1 .83-3.48 5.85 5.85 0 0 1 2.31-2.39 6.6 6.6 0 0 1 3.35-.86 6.2 6.2 0 0 1 3.18.79 5.35 5.35 0 0 1 2.11 2.23 7.3 7.3 0 0 1 .75 3.39 1.43 1.43 0 0 1-.27.93 1 1 0 0 1-.81.33h-6.93a2.84 2.84 0 0 0 .81 1.81 2.77 2.77 0 0 0 1.87.56 4.61 4.61 0 0 0 1.21-.15 11.77 11.77 0 0 0 1.23-.41l.78-.27a2.28 2.28 0 0 1 .69-.12 1.24 1.24 0 0 1 .96.47zm-6.95-5.82a2.85 2.85 0 0 0-.66 1.72h4.13c-.11-1.54-.77-2.31-2-2.31a1.94 1.94 0 0 0-1.47.59zm19.95-2.31a6 6 0 0 1 1.43 4.35v5.49a2 2 0 0 1-.59 1.56 2.26 2.26 0 0 1-1.64.57 2.17 2.17 0 0 1-1.51-.53 2 2 0 0 1-.65-1.42 2.82 2.82 0 0 1-1.23 1.47 3.85 3.85 0 0 1-2.08.53 5.3 5.3 0 0 1-2.41-.54 4.27 4.27 0 0 1-1.7-1.5 3.89 3.89 0 0 1-.61-2.16 3.26 3.26 0 0 1 .72-2.22 4.29 4.29 0 0 1 2.3-1.2 19.81 19.81 0 0 1 4.25-.37h.71v-.31a1.8 1.8 0 0 0-.42-1.33 2 2 0 0 0-1.42-.4 10.36 10.36 0 0 0-3.15.73 3.19 3.19 0 0 1-1 .21 1.3 1.3 0 0 1-1-.47 1.85 1.85 0 0 1-.4-1.24 1.68 1.68 0 0 1 .24-.94 2.1 2.1 0 0 1 .76-.66 9.19 9.19 0 0 1 2.31-.76 13.63 13.63 0 0 1 2.73-.29 6.06 6.06 0 0 1 4.36 1.43zm-3.61 8.22a2.47 2.47 0 0 0 .6-1.72v-.31h-.42a6.72 6.72 0 0 0-2.39.3 1 1 0 0 0-.71 1 1.4 1.4 0 0 0 .38 1 1.33 1.33 0 0 0 1 .39 2 2 0 0 0 1.54-.66zm20.68-14.47a1.93 1.93 0 0 1 .67 1.51v14.55a2 2 0 0 1-.63 1.58 2.73 2.73 0 0 1-3.27.07 2 2 0 0 1-.69-1.41 3.74 3.74 0 0 1-1.62 1.44 5.11 5.11 0 0 1-2.35.53 5.28 5.28 0 0 1-3-.85 5.76 5.76 0 0 1-2-2.41 8.15 8.15 0 0 1-.74-3.54 8 8 0 0 1 .73-3.51 5.34 5.34 0 0 1 2-2.32 5.42 5.42 0 0 1 3-.82 5.21 5.21 0 0 1 2.27.5 4.06 4.06 0 0 1 1.62 1.34v-5.23a1.88 1.88 0 0 1 .61-1.47 2.42 2.42 0 0 1 1.67-.55 2.51 2.51 0 0 1 1.73.59zm-4.58 13.94a3.85 3.85 0 0 0 .66-2.42 3.75 3.75 0 0 0-.66-2.38 2.55 2.55 0 0 0-3.76 0 3.62 3.62 0 0 0-.65 2.34 3.89 3.89 0 0 0 .67 2.44 2.19 2.19 0 0 0 1.85.87 2.26 2.26 0 0 0 1.89-.85zm8.44-11.52a2.09 2.09 0 0 1-.69-1.64 2 2 0 0 1 .69-1.63 3.19 3.19 0 0 1 3.75 0 2 2 0 0 1 .71 1.63 2.1 2.1 0 0 1-.7 1.64 3.16 3.16 0 0 1-3.76 0zm.21 15.26a2 2 0 0 1-.67-1.62v-9a2 2 0 0 1 .67-1.62 2.85 2.85 0 0 1 3.34 0 2 2 0 0 1 .67 1.62v9a2 2 0 0 1-.67 1.62 2.85 2.85 0 0 1-3.34 0zM412.66 257a6.55 6.55 0 0 1 1.13 4.19v5.67a2 2 0 0 1-.63 1.58 2.46 2.46 0 0 1-1.71.58 2.43 2.43 0 0 1-1.7-.58 2 2 0 0 1-.64-1.58v-5.46a2.77 2.77 0 0 0-.4-1.68 1.45 1.45 0 0 0-1.22-.53 2.18 2.18 0 0 0-1.67.67 2.57 2.57 0 0 0-.62 1.8v5.2a2 2 0 0 1-.63 1.58 2.46 2.46 0 0 1-1.71.58 2.43 2.43 0 0 1-1.7-.58 2 2 0 0 1-.63-1.58v-9.08a1.91 1.91 0 0 1 .65-1.51 2.44 2.44 0 0 1 1.71-.6 2.25 2.25 0 0 1 1.59.56 1.87 1.87 0 0 1 .59 1.44 4.38 4.38 0 0 1 1.76-1.52 5.38 5.38 0 0 1 2.39-.53 4.18 4.18 0 0 1 3.44 1.38zm16.92-.72a2 2 0 0 1 .63 1.56v9.45a6.06 6.06 0 0 1-1.93 4.86 8.46 8.46 0 0 1-5.66 1.66 14.08 14.08 0 0 1-2.74-.26 7.63 7.63 0 0 1-2.18-.77 2 2 0 0 1-.74-.68 1.62 1.62 0 0 1-.28-.94 2 2 0 0 1 .38-1.24 1.21 1.21 0 0 1 1-.47 6.84 6.84 0 0 1 1.71.39c.54.18 1 .31 1.45.41a6.12 6.12 0 0 0 1.28.14 3.42 3.42 0 0 0 2.35-.67 2.68 2.68 0 0 0 .75-2.11v-1a3.9 3.9 0 0 1-1.65 1.38 5.41 5.41 0 0 1-2.34.51 5.64 5.64 0 0 1-3-.79 5.31 5.31 0 0 1-2.05-2.24 8.09 8.09 0 0 1 0-6.76 5.41 5.41 0 0 1 2.05-2.28 5.64 5.64 0 0 1 3-.8 5.35 5.35 0 0 1 2.37.53 4 4 0 0 1 1.65 1.44 1.9 1.9 0 0 1 .67-1.4 2.41 2.41 0 0 1 1.62-.52 2.33 2.33 0 0 1 1.66.6zm-4.65 8a3.16 3.16 0 0 0 .68-2.16 3.27 3.27 0 0 0-.68-2.18 2.44 2.44 0 0 0-1.92-.79 2.37 2.37 0 0 0-1.89.78 3.19 3.19 0 0 0-.68 2.19 3.09 3.09 0 0 0 .69 2.14 2.4 2.4 0 0 0 1.87.74 2.48 2.48 0 0 0 1.93-.75zM212 57.14a1.74 1.74 0 0 1-.7 1.4 2.47 2.47 0 0 1-1.62.57 2.54 2.54 0 0 1-1.18-.29 2.59 2.59 0 0 1-.94-.87l-3.42-5a2.55 2.55 0 0 0-.77-.77 1.79 1.79 0 0 0-1-.25h-1.71v4.7a2.37 2.37 0 0 1-.63 1.74 2.31 2.31 0 0 1-1.73.65 2.36 2.36 0 0 1-1.75-.65 2.33 2.33 0 0 1-.64-1.74V42.58a2.27 2.27 0 0 1 .57-1.65 2.24 2.24 0 0 1 1.66-.58h6.59a7.6 7.6 0 0 1 5.06 1.46 5.26 5.26 0 0 1 1.77 4.19 5.52 5.52 0 0 1-1.15 3.55 5.63 5.63 0 0 1-3.26 2 3.53 3.53 0 0 1 1.51.58 5.32 5.32 0 0 1 1.27 1.34l1.63 2.34a2.41 2.41 0 0 1 .44 1.33zm-5.69-9.33a1.86 1.86 0 0 0 .69-1.63 2 2 0 0 0-.69-1.67 4 4 0 0 0-2.3-.51h-3.36v4.31h3.36a4.08 4.08 0 0 0 2.34-.5zm19.42 7.38a1.89 1.89 0 0 1 .38 1.24 1.74 1.74 0 0 1-1 1.6 10.05 10.05 0 0 1-2.12.75 9.42 9.42 0 0 1-2.24.3 8.23 8.23 0 0 1-3.76-.81 5.88 5.88 0 0 1-2.47-2.34 7.82 7.82 0 0 1 0-7 5.93 5.93 0 0 1 2.32-2.39 6.57 6.57 0 0 1 3.34-.86 6.2 6.2 0 0 1 3.18.79 5.37 5.37 0 0 1 2.12 2.23 7.3 7.3 0 0 1 .75 3.39 1.43 1.43 0 0 1-.28.93 1 1 0 0 1-.8.33h-6.94a2.9 2.9 0 0 0 .82 1.81 2.74 2.74 0 0 0 1.86.56 4.56 4.56 0 0 0 1.21-.15 11.88 11.88 0 0 0 1.24-.41l.77-.27a2.39 2.39 0 0 1 .7-.12 1.21 1.21 0 0 1 .92.42zm-6.94-5.82a2.85 2.85 0 0 0-.66 1.72h4.12c-.1-1.54-.77-2.31-2-2.31a1.91 1.91 0 0 0-1.46.59zm11.63 9.45a7 7 0 0 1-2.13-.84 1.36 1.36 0 0 1-.57-.63 2.33 2.33 0 0 1-.21-1 1.75 1.75 0 0 1 .38-1.17 1.17 1.17 0 0 1 1-.46 2.86 2.86 0 0 1 .73.09 6.3 6.3 0 0 1 .84.3 13.82 13.82 0 0 0 1.49.45 6.71 6.71 0 0 0 1.64.16 2.59 2.59 0 0 0 1.11-.2.6.6 0 0 0 .41-.56.54.54 0 0 0-.19-.45 2.1 2.1 0 0 0-.76-.3c-.36-.1-1-.23-1.86-.41a7.36 7.36 0 0 1-3.38-1.35 3.23 3.23 0 0 1-1-2.56 3.45 3.45 0 0 1 .75-2.18 4.94 4.94 0 0 1 2.06-1.53 7.63 7.63 0 0 1 2.94-.55 9.29 9.29 0 0 1 2.3.29 7.34 7.34 0 0 1 2 .81 1.65 1.65 0 0 1 .82 1.53 1.93 1.93 0 0 1-.4 1.23 1.18 1.18 0 0 1-1 .5 4 4 0 0 1-1.63-.45 9.83 9.83 0 0 0-1.11-.43 4.36 4.36 0 0 0-1.15-.14 2.18 2.18 0 0 0-1 .19.62.62 0 0 0-.37.57.74.74 0 0 0 .51.66 10.81 10.81 0 0 0 2 .52 7.72 7.72 0 0 1 3.6 1.35 3.28 3.28 0 0 1 1.05 2.62 3.58 3.58 0 0 1-1.59 3.06 7.18 7.18 0 0 1-4.27 1.14 14.69 14.69 0 0 1-3.01-.26zm22.24-3.63a2 2 0 0 1 .38 1.24 1.73 1.73 0 0 1-1 1.6 10 10 0 0 1-2.11.75 9.49 9.49 0 0 1-2.25.3 8.19 8.19 0 0 1-3.75-.81 5.88 5.88 0 0 1-2.47-2.34 7.1 7.1 0 0 1-.87-3.57 7.22 7.22 0 0 1 .83-3.48 5.85 5.85 0 0 1 2.31-2.39 6.58 6.58 0 0 1 3.35-.86 6.2 6.2 0 0 1 3.18.79 5.35 5.35 0 0 1 2.11 2.23 7.3 7.3 0 0 1 .75 3.39 1.38 1.38 0 0 1-.28.93 1 1 0 0 1-.8.33h-6.93a2.84 2.84 0 0 0 .81 1.81 2.77 2.77 0 0 0 1.87.56 4.61 4.61 0 0 0 1.21-.15 11.77 11.77 0 0 0 1.23-.41l.78-.27a2.28 2.28 0 0 1 .69-.12 1.24 1.24 0 0 1 .96.47zm-6.95-5.82a2.85 2.85 0 0 0-.66 1.72h4.13c-.11-1.54-.77-2.31-2-2.31a1.94 1.94 0 0 0-1.47.59zm18.91 7.9a1.49 1.49 0 0 1-.71 1.36 3.39 3.39 0 0 1-2 .37h-.74a5.4 5.4 0 0 1-3.58-1.43 4.73 4.73 0 0 1-1.24-3.57v-4.61h-.76c-1.41 0-2.11-.58-2.11-1.74s.7-1.7 2.11-1.7h.76v-1.71a2.06 2.06 0 0 1 .63-1.59 2.76 2.76 0 0 1 3.41 0 2.06 2.06 0 0 1 .63 1.59V46h1.45c1.4 0 2.1.57 2.1 1.7s-.7 1.74-2.1 1.74H261v5a1.24 1.24 0 0 0 .3.84 1.11 1.11 0 0 0 .78.37h.76c1.16.11 1.78.64 1.78 1.62zm12.97.73a8 8 0 0 1-3.24-3.31 11.67 11.67 0 0 1 0-10.06 8 8 0 0 1 3.24-3.31 10.73 10.73 0 0 1 10.72.61 1.9 1.9 0 0 1 .65.68 2 2 0 0 1 .2.94 2.13 2.13 0 0 1-.46 1.38 1.4 1.4 0 0 1-1.12.57 2 2 0 0 1-.71-.12 5.25 5.25 0 0 1-.74-.38 7.45 7.45 0 0 0-1.73-.79 5.88 5.88 0 0 0-1.68-.24 4.21 4.21 0 0 0-3.48 1.41 6.7 6.7 0 0 0-1.14 4.27 6.72 6.72 0 0 0 1.14 4.29 4.21 4.21 0 0 0 3.48 1.41 4.84 4.84 0 0 0 1.52-.25c.49-.17 1.13-.43 1.89-.78.37-.19.64-.32.82-.39a1.65 1.65 0 0 1 .63-.11 1.4 1.4 0 0 1 1.12.57 2.17 2.17 0 0 1 .46 1.38 2 2 0 0 1-.2.93 2 2 0 0 1-.65.7 10 10 0 0 1-5.85 1.76 9.88 9.88 0 0 1-4.87-1.16zm16.96.65a8.84 8.84 0 0 1-2.95-1.28 2.1 2.1 0 0 1-.64-.71 1.87 1.87 0 0 1-.2-.94 2.13 2.13 0 0 1 .47-1.37 1.4 1.4 0 0 1 1.1-.58 2.08 2.08 0 0 1 .66.11 4.33 4.33 0 0 1 .79.39 8.53 8.53 0 0 0 2.14.87 9.81 9.81 0 0 0 2.4.26 4.74 4.74 0 0 0 2.35-.46 1.44 1.44 0 0 0 .8-1.35 1.25 1.25 0 0 0-.74-1 10.59 10.59 0 0 0-2.85-.85 17.16 17.16 0 0 1-4.08-1.31 4.89 4.89 0 0 1-2.06-1.8 5.35 5.35 0 0 1 .41-5.56 6.66 6.66 0 0 1 2.74-2.14 9.57 9.57 0 0 1 3.93-.77 12.71 12.71 0 0 1 3.42.42 8.61 8.61 0 0 1 2.76 1.27 2.23 2.23 0 0 1 .67.72 2.06 2.06 0 0 1 .2.93 2.18 2.18 0 0 1-.46 1.37 1.38 1.38 0 0 1-1.09.58 2.2 2.2 0 0 1-.64-.09 5.08 5.08 0 0 1-.81-.41l-.75-.41a5.92 5.92 0 0 0-1.44-.52 7.3 7.3 0 0 0-1.8-.2 4.06 4.06 0 0 0-2.16.51 1.54 1.54 0 0 0-.81 1.35 1.17 1.17 0 0 0 .29.82 3 3 0 0 0 1.08.62 15.82 15.82 0 0 0 2.33.61 15.62 15.62 0 0 1 4 1.33 5.12 5.12 0 0 1 2.05 1.8 4.7 4.7 0 0 1 .6 2.42 5 5 0 0 1-1 3 6.15 6.15 0 0 1-2.72 2.05 10.4 10.4 0 0 1-4.06.73 16 16 0 0 1-3.93-.41zm17.45 0a8.84 8.84 0 0 1-3-1.28 2.1 2.1 0 0 1-.64-.71 2 2 0 0 1-.2-.94 2.13 2.13 0 0 1 .47-1.37 1.43 1.43 0 0 1 1.11-.58 2.06 2.06 0 0 1 .65.11 4.33 4.33 0 0 1 .79.39 8.53 8.53 0 0 0 2.14.87 9.81 9.81 0 0 0 2.4.26 4.81 4.81 0 0 0 2.36-.46 1.46 1.46 0 0 0 .8-1.35 1.24 1.24 0 0 0-.75-1 10.59 10.59 0 0 0-2.85-.85 16.91 16.91 0 0 1-4.07-1.31 4.92 4.92 0 0 1-2.07-1.8 5.35 5.35 0 0 1 .41-5.56 6.69 6.69 0 0 1 2.75-2.14 9.49 9.49 0 0 1 3.92-.77 12.71 12.71 0 0 1 3.42.42 8.41 8.41 0 0 1 2.73 1.31 2.23 2.23 0 0 1 .67.72 2.06 2.06 0 0 1 .2.93 2.18 2.18 0 0 1-.46 1.37 1.38 1.38 0 0 1-1.09.58 2.08 2.08 0 0 1-.63-.09 4.71 4.71 0 0 1-.82-.41l-.75-.41a5.92 5.92 0 0 0-1.44-.52 7.3 7.3 0 0 0-1.8-.2 4.06 4.06 0 0 0-2.16.51 1.54 1.54 0 0 0-.81 1.35 1.17 1.17 0 0 0 .29.82 3 3 0 0 0 1.08.62 15.67 15.67 0 0 0 2.34.61 15.53 15.53 0 0 1 4 1.33 5.12 5.12 0 0 1 2.05 1.8 4.7 4.7 0 0 1 .6 2.42 5 5 0 0 1-1 3 6.15 6.15 0 0 1-2.64 2.06 10.36 10.36 0 0 1-4.06.73 16 16 0 0 1-3.94-.46zm16.13 34.27a4.69 4.69 0 0 1 .87 2.88 4.55 4.55 0 0 1-.8 2.67 5.23 5.23 0 0 1-2.29 1.77 8.86 8.86 0 0 1-3.48.63h-7a2 2 0 0 1-2.23-2.23V84.58a2.23 2.23 0 0 1 .58-1.65 2.2 2.2 0 0 1 1.65-.58h6.73a7.53 7.53 0 0 1 4.63 1.3 4.17 4.17 0 0 1 1.72 3.51 4.28 4.28 0 0 1-.76 2.51 4.43 4.43 0 0 1-2.13 1.59 4.74 4.74 0 0 1 2.51 1.66zm-10.22-3.29h3.44a3.7 3.7 0 0 0 2-.42 1.5 1.5 0 0 0 .63-1.34 1.62 1.62 0 0 0-.63-1.42 3.5 3.5 0 0 0-2-.45h-3.44zm6 7.13a2.17 2.17 0 0 0 0-3 3.5 3.5 0 0 0-2.06-.46h-3.92v3.94h3.92a3.5 3.5 0 0 0 2.04-.48zm19.64-8.5a2 2 0 0 1 .63 1.58v9.09a2 2 0 0 1-.66 1.51 2.48 2.48 0 0 1-1.71.59 2.33 2.33 0 0 1-1.55-.51 1.84 1.84 0 0 1-.63-1.38 4.05 4.05 0 0 1-1.53 1.44 4.51 4.51 0 0 1-2.14.5 4.68 4.68 0 0 1-3.71-1.38 6.24 6.24 0 0 1-1.25-4.19v-5.67a2 2 0 0 1 .64-1.58 2.43 2.43 0 0 1 1.7-.58 2.46 2.46 0 0 1 1.71.58 2 2 0 0 1 .63 1.58v5.78c0 1.26.54 1.89 1.63 1.89a2 2 0 0 0 1.55-.68 2.64 2.64 0 0 0 .6-1.79v-5.2a2 2 0 0 1 .63-1.58 2.81 2.81 0 0 1 3.42 0zm12.76 11.01a1.47 1.47 0 0 1-.71 1.36 3.39 3.39 0 0 1-2 .37h-.73a5.43 5.43 0 0 1-3.59-1.43A4.77 4.77 0 0 1 348 96v-4.61h-.76q-2.1 0-2.1-1.74c0-1.13.7-1.7 2.1-1.7h.76v-1.71a2.06 2.06 0 0 1 .63-1.59 2.76 2.76 0 0 1 3.41 0 2.06 2.06 0 0 1 .63 1.59V88h1.45c1.4 0 2.1.57 2.1 1.7s-.7 1.74-2.1 1.74h-1.45v5a1.24 1.24 0 0 0 .31.84 1.07 1.07 0 0 0 .77.37h.76c1.22.11 1.8.64 1.8 1.62z"/><path class="cls-2" d="M367 99.27a1.47 1.47 0 0 1-.71 1.36 3.39 3.39 0 0 1-2 .37h-.73a5.41 5.41 0 0 1-3.59-1.43 4.73 4.73 0 0 1-1.29-3.57v-4.61h-.76c-1.41 0-2.11-.58-2.11-1.74s.7-1.7 2.11-1.7h.76v-1.71a2.06 2.06 0 0 1 .63-1.59 2.76 2.76 0 0 1 3.41 0 2.06 2.06 0 0 1 .63 1.59V88h1.45c1.4 0 2.1.57 2.1 1.7s-.7 1.74-2.1 1.74h-1.45v5a1.2 1.2 0 0 0 .31.84 1.07 1.07 0 0 0 .77.37h.76c1.18.11 1.81.64 1.81 1.62zm4 .98a5.91 5.91 0 0 1-2.5-2.35 7.66 7.66 0 0 1 0-7.13 5.88 5.88 0 0 1 2.5-2.32 9 9 0 0 1 7.51 0 5.85 5.85 0 0 1 2.48 2.32 7.66 7.66 0 0 1 0 7.13 5.92 5.92 0 0 1-2.48 2.35 8.89 8.89 0 0 1-7.5 0zm6.24-5.92c0-2.17-.83-3.26-2.5-3.26s-2.49 1.09-2.49 3.26.83 3.26 2.49 3.26 2.46-1.09 2.46-3.26zM396.08 89a6.55 6.55 0 0 1 1.13 4.19v5.67a2 2 0 0 1-.63 1.58 2.8 2.8 0 0 1-3.41 0 2 2 0 0 1-.63-1.58v-5.45a2.76 2.76 0 0 0-.41-1.68 1.45 1.45 0 0 0-1.22-.53 2.18 2.18 0 0 0-1.67.67 2.57 2.57 0 0 0-.62 1.8v5.2a2 2 0 0 1-.63 1.58 2.8 2.8 0 0 1-3.41 0 2 2 0 0 1-.63-1.58v-9.08a1.94 1.94 0 0 1 .65-1.51 2.44 2.44 0 0 1 1.71-.6 2.22 2.22 0 0 1 1.59.56 1.87 1.87 0 0 1 .59 1.44 4.45 4.45 0 0 1 1.76-1.52 5.41 5.41 0 0 1 2.39-.53 4.18 4.18 0 0 1 3.44 1.37zm-290.5 95.37a2.32 2.32 0 0 1-.65-1.73v-14.06a2.27 2.27 0 0 1 .57-1.65 2.24 2.24 0 0 1 1.66-.58H116a2.68 2.68 0 0 1 1.74.46 1.79 1.79 0 0 1 .55 1.46 1.72 1.72 0 0 1-.56 1.42 2.78 2.78 0 0 1-1.73.44h-6.3v3.42h5.78a2.67 2.67 0 0 1 1.72.47 1.78 1.78 0 0 1 .57 1.45 1.67 1.67 0 0 1-.57 1.41 2.74 2.74 0 0 1-1.72.45h-5.78v5.31a2.43 2.43 0 0 1-4.1 1.73zm16.98-.12a6 6 0 0 1-2.49-2.35 7.66 7.66 0 0 1 0-7.13 5.85 5.85 0 0 1 2.48-2.32 9 9 0 0 1 7.51 0 5.88 5.88 0 0 1 2.49 2.32 7.66 7.66 0 0 1 0 7.13 6 6 0 0 1-2.49 2.35 8.07 8.07 0 0 1-3.75.83 8.16 8.16 0 0 1-3.75-.83zm6.24-5.92c0-2.17-.83-3.26-2.49-3.26s-2.5 1.09-2.5 3.26.83 3.26 2.5 3.26 2.49-1.09 2.49-3.26zm16.37-6.24a1.86 1.86 0 0 1 .52 1.43 2.09 2.09 0 0 1-.48 1.53 3 3 0 0 1-1.75.6l-.79.08a2.78 2.78 0 0 0-1.88.83 2.75 2.75 0 0 0-.56 1.82v4.49a2 2 0 0 1-.67 1.62 2.85 2.85 0 0 1-3.34 0 2 2 0 0 1-.67-1.62v-9.08a1.9 1.9 0 0 1 .67-1.55 2.47 2.47 0 0 1 1.62-.56 2.25 2.25 0 0 1 1.56.53 1.84 1.84 0 0 1 .59 1.47v.5a3.51 3.51 0 0 1 1.38-1.79 4 4 0 0 1 2-.68h.37a1.8 1.8 0 0 1 1.43.38zm21.17.82c.77.84 1.15 2.28 1.15 4.29v5.67a2 2 0 0 1-.67 1.62 2.84 2.84 0 0 1-3.33 0 2 2 0 0 1-.67-1.62v-5.78a2.22 2.22 0 0 0-.37-1.47 1.34 1.34 0 0 0-1.08-.42 1.83 1.83 0 0 0-1.47.66 2.77 2.77 0 0 0-.55 1.81v5.2a2 2 0 0 1-.66 1.62 2.85 2.85 0 0 1-3.34 0 2 2 0 0 1-.67-1.62v-5.78a2.28 2.28 0 0 0-.37-1.47 1.37 1.37 0 0 0-1.08-.42 1.79 1.79 0 0 0-1.46.66 2.77 2.77 0 0 0-.54 1.81v5.2a2 2 0 0 1-.66 1.62 2.85 2.85 0 0 1-3.34 0 2 2 0 0 1-.67-1.62v-9.08a1.87 1.87 0 0 1 .69-1.57 2.67 2.67 0 0 1 1.67-.54 2.43 2.43 0 0 1 1.54.49 1.72 1.72 0 0 1 .64 1.41 4.39 4.39 0 0 1 3.94-2 3.66 3.66 0 0 1 3.76 2.29 4.78 4.78 0 0 1 1.76-1.67 5 5 0 0 1 2.49-.62 4.22 4.22 0 0 1 3.29 1.33zM84.3 227.29a2.28 2.28 0 0 1-.58-1.68v-14a2.22 2.22 0 0 1 2.39-2.36 2.44 2.44 0 0 1 1.79.64 2.31 2.31 0 0 1 .66 1.72V224h6c1.52 0 2.28.65 2.28 2a1.81 1.81 0 0 1-.56 1.47 2.67 2.67 0 0 1-1.72.47H86a2.24 2.24 0 0 1-1.7-.65zm14.59-15.06a2.09 2.09 0 0 1-.69-1.64 2 2 0 0 1 .69-1.63 3.19 3.19 0 0 1 3.75 0 2 2 0 0 1 .71 1.63 2.1 2.1 0 0 1-.7 1.64 3.16 3.16 0 0 1-3.76 0zm.21 15.26a2 2 0 0 1-.67-1.62v-9a2 2 0 0 1 .67-1.62 2.85 2.85 0 0 1 3.34 0 2 2 0 0 1 .67 1.62v9a2 2 0 0 1-.67 1.62 2.85 2.85 0 0 1-3.34 0zm8.84.33a7 7 0 0 1-2.13-.84 1.36 1.36 0 0 1-.57-.63 2.33 2.33 0 0 1-.21-1 1.75 1.75 0 0 1 .38-1.17 1.17 1.17 0 0 1 1-.46 2.86 2.86 0 0 1 .73.09 6.3 6.3 0 0 1 .84.3 13.82 13.82 0 0 0 1.49.45 6.71 6.71 0 0 0 1.64.16 2.59 2.59 0 0 0 1.11-.2.6.6 0 0 0 .41-.56.52.52 0 0 0-.2-.45 2 2 0 0 0-.74-.3c-.37-.1-1-.23-1.87-.41a7.26 7.26 0 0 1-3.37-1.35 3.2 3.2 0 0 1-1-2.56 3.45 3.45 0 0 1 .75-2.18 4.94 4.94 0 0 1 2.06-1.53 7.63 7.63 0 0 1 2.94-.55 9.29 9.29 0 0 1 2.3.29 7.34 7.34 0 0 1 2 .81 1.65 1.65 0 0 1 .82 1.53 1.93 1.93 0 0 1-.4 1.23 1.16 1.16 0 0 1-1 .5 3.91 3.91 0 0 1-1.63-.45 9.83 9.83 0 0 0-1.11-.43A4.36 4.36 0 0 0 111 218a2.18 2.18 0 0 0-1 .19.62.62 0 0 0-.37.57.74.74 0 0 0 .51.66 10.81 10.81 0 0 0 2 .52 7.72 7.72 0 0 1 3.6 1.35 3.28 3.28 0 0 1 1 2.62 3.58 3.58 0 0 1-1.59 3.06 7.18 7.18 0 0 1-4.27 1.14 14.69 14.69 0 0 1-2.94-.29zm20.15-1.55a1.49 1.49 0 0 1-.71 1.36 3.41 3.41 0 0 1-2 .37l-.74-.05a5.4 5.4 0 0 1-3.58-1.43 4.74 4.74 0 0 1-1.23-3.48v-4.65h-.76q-2.1 0-2.1-1.74c0-1.13.7-1.7 2.1-1.7h.76v-1.71a2 2 0 0 1 .64-1.59 2.39 2.39 0 0 1 1.7-.59 2.42 2.42 0 0 1 1.71.59 2.06 2.06 0 0 1 .63 1.59V215h1.44c1.41 0 2.11.57 2.11 1.7s-.7 1.74-2.11 1.74h-1.44v5a1.24 1.24 0 0 0 .3.84 1.08 1.08 0 0 0 .78.37l.76.05c1.15.06 1.74.59 1.74 1.57zm27.3 31.63a1.72 1.72 0 0 1 .51 1.3v4.57a7.81 7.81 0 0 1-.2 2 2 2 0 0 1-.71 1.09 4.59 4.59 0 0 1-1.53.68 15.53 15.53 0 0 1-2.28.41 19.43 19.43 0 0 1-2.32.15 11.22 11.22 0 0 1-5.24-1.15 7.92 7.92 0 0 1-3.4-3.28 10.34 10.34 0 0 1-1.22-5.07 10.22 10.22 0 0 1 1.18-5 8.1 8.1 0 0 1 3.36-3.3 10.72 10.72 0 0 1 5.1-1.15 11.5 11.5 0 0 1 3.29.43 9.17 9.17 0 0 1 2.72 1.33 1.76 1.76 0 0 1 .84 1.62 2.12 2.12 0 0 1-.45 1.38 1.31 1.31 0 0 1-1.07.57 1.94 1.94 0 0 1-.72-.12 4.63 4.63 0 0 1-.78-.41 9 9 0 0 0-1.83-.76 6.74 6.74 0 0 0-1.85-.24 4.67 4.67 0 0 0-3.71 1.4 6.3 6.3 0 0 0-1.23 4.28 6.48 6.48 0 0 0 1.28 4.4 5 5 0 0 0 3.9 1.43 12.24 12.24 0 0 0 2.49-.26v-3.44h-1.89a1.93 1.93 0 0 1-1.34-.44 1.82 1.82 0 0 1 0-2.44 1.93 1.93 0 0 1 1.34-.43H154a2 2 0 0 1 1.39.45zm12.96-2.81a1.86 1.86 0 0 1 .53 1.43 2.1 2.1 0 0 1-.49 1.53 3 3 0 0 1-1.75.6l-.79.08a2.73 2.73 0 0 0-1.87.83 2.7 2.7 0 0 0-.57 1.82v4.49a2 2 0 0 1-.67 1.62 2.58 2.58 0 0 1-1.67.54 2.55 2.55 0 0 1-1.66-.54 2 2 0 0 1-.67-1.62v-9.08a1.87 1.87 0 0 1 .67-1.55 2.43 2.43 0 0 1 1.61-.56 2.25 2.25 0 0 1 1.56.53 1.84 1.84 0 0 1 .59 1.47v.5a3.61 3.61 0 0 1 1.38-1.79 4 4 0 0 1 2-.68h.37a1.79 1.79 0 0 1 1.43.38zm1.85-2.86a2.09 2.09 0 0 1-.69-1.64 2 2 0 0 1 .69-1.63 3.17 3.17 0 0 1 3.74 0 2 2 0 0 1 .71 1.63 2.09 2.09 0 0 1-.69 1.64 3.16 3.16 0 0 1-3.76 0zm.21 15.26a2 2 0 0 1-.67-1.62v-9a2 2 0 0 1 .67-1.62 2.85 2.85 0 0 1 3.34 0 2 2 0 0 1 .67 1.62v9a2 2 0 0 1-.67 1.62 2.85 2.85 0 0 1-3.34 0zm19.73-17.68a2 2 0 0 1 .67 1.51v14.55a2 2 0 0 1-.63 1.58 2.73 2.73 0 0 1-3.27.07 2 2 0 0 1-.7-1.41 3.77 3.77 0 0 1-1.61 1.44 5.13 5.13 0 0 1-2.35.53 5.26 5.26 0 0 1-3-.85 5.7 5.7 0 0 1-2-2.41 8.93 8.93 0 0 1 0-7.05 5.34 5.34 0 0 1 5-3.14 5.21 5.21 0 0 1 2.27.5 4 4 0 0 1 1.61 1.34v-5.23a1.89 1.89 0 0 1 .62-1.47 2.4 2.4 0 0 1 1.67-.55 2.53 2.53 0 0 1 1.72.59zm-4.59 13.94a3.85 3.85 0 0 0 .66-2.42 3.75 3.75 0 0 0-.66-2.38 2.54 2.54 0 0 0-3.75 0 3.62 3.62 0 0 0-.66 2.34 4 4 0 0 0 .67 2.44 2.47 2.47 0 0 0 3.74 0zm191.18-119.46a2.2 2.2 0 0 1-.58-1.65v-14.06a2.23 2.23 0 0 1 .58-1.65 2.2 2.2 0 0 1 1.65-.58h5.31a11.57 11.57 0 0 1 5.29 1.12 7.89 7.89 0 0 1 3.4 3.19 9.79 9.79 0 0 1 1.19 4.94 10.18 10.18 0 0 1-1.17 5 7.76 7.76 0 0 1-3.39 3.19 11.94 11.94 0 0 1-5.32 1.1h-5.31a2.2 2.2 0 0 1-1.65-.6zm6.62-3.31a5.62 5.62 0 0 0 4.06-1.32 6.77 6.77 0 0 0 0-8.11 5.66 5.66 0 0 0-4.06-1.31H381V141zm13.25-11.75a2.07 2.07 0 0 1-.7-1.64 2 2 0 0 1 .7-1.63 3.17 3.17 0 0 1 3.74 0 2 2 0 0 1 .71 1.63 2.09 2.09 0 0 1-.69 1.64 2.77 2.77 0 0 1-1.88.62 2.73 2.73 0 0 1-1.88-.62zm.21 15.26a2 2 0 0 1-.67-1.62v-9a2 2 0 0 1 .67-1.62 2.85 2.85 0 0 1 3.34 0 2 2 0 0 1 .66 1.62v9a2 2 0 0 1-.66 1.62 2.85 2.85 0 0 1-3.34 0zm8.84.33a6.78 6.78 0 0 1-2.13-.84 1.33 1.33 0 0 1-.58-.63 2.33 2.33 0 0 1-.21-1 1.81 1.81 0 0 1 .38-1.17 1.2 1.2 0 0 1 1-.46 2.94 2.94 0 0 1 .74.09 6.84 6.84 0 0 1 .84.3 13.72 13.72 0 0 0 1.48.45 6.82 6.82 0 0 0 1.64.16 2.61 2.61 0 0 0 1.12-.2.62.62 0 0 0 .41-.56.55.55 0 0 0-.2-.45 2 2 0 0 0-.75-.3c-.37-.1-1-.23-1.86-.41a7.31 7.31 0 0 1-3.38-1.35 3.24 3.24 0 0 1-1-2.56 3.45 3.45 0 0 1 .75-2.18 5 5 0 0 1 2.06-1.53 7.71 7.71 0 0 1 2.95-.55 9.21 9.21 0 0 1 2.29.29 7.28 7.28 0 0 1 2 .81 1.65 1.65 0 0 1 .81 1.53 1.93 1.93 0 0 1-.39 1.23 1.18 1.18 0 0 1-1 .5 3.91 3.91 0 0 1-1.63-.45 9.91 9.91 0 0 0-1.12-.43 4.23 4.23 0 0 0-1.14-.14 2.25 2.25 0 0 0-1 .19.63.63 0 0 0-.36.57.74.74 0 0 0 .51.66 10.87 10.87 0 0 0 2 .52 7.72 7.72 0 0 1 3.6 1.35 3.28 3.28 0 0 1 1.05 2.62 3.58 3.58 0 0 1-1.59 3.06 7.15 7.15 0 0 1-4.26 1.14 14.55 14.55 0 0 1-3.03-.26zm22.26-12.33a5.57 5.57 0 0 1 2 2.4 8.29 8.29 0 0 1 .72 3.54 8.06 8.06 0 0 1-.72 3.51 5.27 5.27 0 0 1-5 3.14 5.21 5.21 0 0 1-2.27-.5 4 4 0 0 1-1.61-1.34v4.47a1.86 1.86 0 0 1-.63 1.47 2.43 2.43 0 0 1-1.66.55 2.5 2.5 0 0 1-1.73-.59 2 2 0 0 1-.66-1.51v-13.79a2.06 2.06 0 0 1 .62-1.56 2.29 2.29 0 0 1 1.67-.6 2.4 2.4 0 0 1 1.61.53 2 2 0 0 1 .7 1.39 3.77 3.77 0 0 1 1.61-1.44 5.5 5.5 0 0 1 5.31.33zm-2.52 8.28a3.68 3.68 0 0 0 .64-2.34 4 4 0 0 0-.65-2.45 2.47 2.47 0 0 0-3.74 0 3.89 3.89 0 0 0-.65 2.41 3.79 3.79 0 0 0 .65 2.38 2.29 2.29 0 0 0 1.9.83 2.21 2.21 0 0 0 1.85-.83zm8.09 3.72a2 2 0 0 1-.67-1.62V128.4a2 2 0 0 1 .67-1.63 2.8 2.8 0 0 1 3.33 0 2 2 0 0 1 .67 1.63v14.47a2 2 0 0 1-.67 1.62 2.84 2.84 0 0 1-3.33 0zm17.15-11.43a6 6 0 0 1 1.43 4.35v5.49a2 2 0 0 1-.59 1.56 2.26 2.26 0 0 1-1.64.57 2.19 2.19 0 0 1-1.51-.53 1.92 1.92 0 0 1-.64-1.42 2.89 2.89 0 0 1-1.24 1.47 3.84 3.84 0 0 1-2.07.53 5.32 5.32 0 0 1-2.42-.54 4.27 4.27 0 0 1-1.7-1.5 3.89 3.89 0 0 1-.61-2.16 3.26 3.26 0 0 1 .72-2.22 4.29 4.29 0 0 1 2.3-1.2 19.81 19.81 0 0 1 4.25-.37h.71v-.31a1.8 1.8 0 0 0-.42-1.33 2 2 0 0 0-1.42-.4 10.42 10.42 0 0 0-3.15.73 3.19 3.19 0 0 1-1 .21 1.3 1.3 0 0 1-1.05-.47 1.85 1.85 0 0 1-.4-1.24 1.68 1.68 0 0 1 .24-.94 2.1 2.1 0 0 1 .76-.66 9.19 9.19 0 0 1 2.31-.76 13.63 13.63 0 0 1 2.73-.29 6 6 0 0 1 4.41 1.43zm-3.63 8.22a2.47 2.47 0 0 0 .6-1.72v-.31h-.42a6.76 6.76 0 0 0-2.39.3 1 1 0 0 0-.71 1 1.4 1.4 0 0 0 .38 1 1.34 1.34 0 0 0 1 .39 2 2 0 0 0 1.54-.66zm17.12-9.28a2 2 0 0 1 1.1-.32 2.3 2.3 0 0 1 1.55.58 1.74 1.74 0 0 1 .68 1.39 1.92 1.92 0 0 1-.21.87l-7 13.95a2.27 2.27 0 0 1-.82 1 2.13 2.13 0 0 1-1.12.31 2.36 2.36 0 0 1-1.54-.56 1.77 1.77 0 0 1-.67-1.38 2 2 0 0 1 .24-.92l1.71-3.44-4.47-8.93a2.15 2.15 0 0 1-.21-.84 1.78 1.78 0 0 1 .74-1.43 2.54 2.54 0 0 1 1.65-.6 2.2 2.2 0 0 1 1.25.32 2.15 2.15 0 0 1 .83 1l2.78 6 2.76-6a2.1 2.1 0 0 1 .75-1zm-55.63 95.65a8.9 8.9 0 0 1-3-1.28 2.1 2.1 0 0 1-.64-.71 2 2 0 0 1-.2-.94 2.13 2.13 0 0 1 .47-1.37 1.43 1.43 0 0 1 1.11-.58 2 2 0 0 1 .65.11 4 4 0 0 1 .79.39 8.53 8.53 0 0 0 2.14.87 9.84 9.84 0 0 0 2.41.26 4.79 4.79 0 0 0 2.35-.46 1.46 1.46 0 0 0 .8-1.35 1.24 1.24 0 0 0-.75-1 10.59 10.59 0 0 0-2.85-.85 17.06 17.06 0 0 1-4.07-1.31 4.82 4.82 0 0 1-2.06-1.8 5 5 0 0 1-.59-2.51 5.08 5.08 0 0 1 1-3.05 6.69 6.69 0 0 1 2.75-2.14 9.51 9.51 0 0 1 3.93-.77 12.68 12.68 0 0 1 3.41.42 8.41 8.41 0 0 1 2.73 1.31 2.12 2.12 0 0 1 .67.72 2.06 2.06 0 0 1 .2.93 2.12 2.12 0 0 1-.46 1.37 1.38 1.38 0 0 1-1.09.58 2.08 2.08 0 0 1-.63-.09 5.08 5.08 0 0 1-.82-.41l-.74-.41a6.16 6.16 0 0 0-1.45-.52 7.3 7.3 0 0 0-1.8-.2 4 4 0 0 0-2.15.51 1.53 1.53 0 0 0-.82 1.35 1.17 1.17 0 0 0 .29.82 3 3 0 0 0 1.08.62 16 16 0 0 0 2.34.61 15.53 15.53 0 0 1 4 1.33 5.05 5.05 0 0 1 2 1.8 4.6 4.6 0 0 1 .61 2.42 5.06 5.06 0 0 1-1 3.05 6.21 6.21 0 0 1-2.72 2 10.43 10.43 0 0 1-4.06.73 16 16 0 0 1-3.83-.45zM423 212.23a2.09 2.09 0 0 1-.69-1.64A2 2 0 0 1 423 209a3.19 3.19 0 0 1 3.75 0 2 2 0 0 1 .71 1.63 2.1 2.1 0 0 1-.7 1.64 3.16 3.16 0 0 1-3.76 0zm.21 15.26a2 2 0 0 1-.67-1.62v-9a2 2 0 0 1 .67-1.62 2.85 2.85 0 0 1 3.34 0 2 2 0 0 1 .67 1.62v9a2 2 0 0 1-.67 1.62 2.85 2.85 0 0 1-3.34 0zm18.62-1.35c0 1.15-.7 1.73-2.1 1.73h-8.27a2 2 0 0 1-1.5-.58 1.91 1.91 0 0 1-.58-1.39 2.34 2.34 0 0 1 .66-1.6l5.52-5.91h-4.23c-1.41 0-2.11-.58-2.11-1.74s.7-1.7 2.11-1.7h8a2 2 0 0 1 1.49.57 1.89 1.89 0 0 1 .58 1.4 2.31 2.31 0 0 1-.66 1.57l-5.54 5.94h4.57q2.06 0 2.06 1.71zm13.23-1.95a2 2 0 0 1 .38 1.24 1.74 1.74 0 0 1-1 1.6 10.05 10.05 0 0 1-2.12.75 9.43 9.43 0 0 1-2.25.3 8.22 8.22 0 0 1-3.75-.81 5.88 5.88 0 0 1-2.47-2.34 7.1 7.1 0 0 1-.87-3.57 7.22 7.22 0 0 1 .83-3.48 5.85 5.85 0 0 1 2.31-2.39 6.6 6.6 0 0 1 3.35-.86 6.2 6.2 0 0 1 3.18.79 5.29 5.29 0 0 1 2.11 2.23 7.3 7.3 0 0 1 .75 3.39 1.43 1.43 0 0 1-.27.93 1 1 0 0 1-.8.33h-6.94a2.89 2.89 0 0 0 .81 1.81 2.78 2.78 0 0 0 1.87.56 4.61 4.61 0 0 0 1.21-.15 11 11 0 0 0 1.23-.41c.27-.1.52-.19.78-.27a2.28 2.28 0 0 1 .69-.12 1.23 1.23 0 0 1 .97.47zm-6.95-5.82a2.78 2.78 0 0 0-.65 1.72h4.12c-.11-1.54-.77-2.31-2-2.31a1.94 1.94 0 0 0-1.47.59zm-78.06-34.01a2.3 2.3 0 0 1-.67-1.72v-12.37h-3.7a2.6 2.6 0 0 1-1.72-.49 2.21 2.21 0 0 1 0-3 2.66 2.66 0 0 1 1.72-.47H378a2.66 2.66 0 0 1 1.72.47 2.21 2.21 0 0 1 0 3 2.6 2.6 0 0 1-1.72.49h-3.7v12.37a2.3 2.3 0 0 1-.67 1.72 2.78 2.78 0 0 1-3.55 0zm21.88-11.3a5.91 5.91 0 0 1 1.43 4.35v5.49a2 2 0 0 1-.59 1.56 2.26 2.26 0 0 1-1.64.57 2.19 2.19 0 0 1-1.51-.53 2 2 0 0 1-.64-1.42 2.89 2.89 0 0 1-1.24 1.47 3.82 3.82 0 0 1-2.07.53 5.32 5.32 0 0 1-2.42-.54 4.18 4.18 0 0 1-1.69-1.5 3.82 3.82 0 0 1-.62-2.16 3.26 3.26 0 0 1 .72-2.22 4.29 4.29 0 0 1 2.3-1.2 19.81 19.81 0 0 1 4.25-.37h.71v-.31a1.8 1.8 0 0 0-.42-1.33 2 2 0 0 0-1.41-.4 10.47 10.47 0 0 0-3.16.73 3.19 3.19 0 0 1-1 .21 1.3 1.3 0 0 1-1.05-.47 1.9 1.9 0 0 1-.4-1.24 1.68 1.68 0 0 1 .24-.94 2.1 2.1 0 0 1 .76-.66 9.47 9.47 0 0 1 2.31-.76 13.65 13.65 0 0 1 2.74-.29 6 6 0 0 1 4.4 1.43zm-3.61 8.22a2.47 2.47 0 0 0 .6-1.72v-.31h-.42a6.76 6.76 0 0 0-2.39.3 1 1 0 0 0-.71 1 1.36 1.36 0 0 0 .39 1 1.3 1.3 0 0 0 1 .39 2 2 0 0 0 1.53-.66zm19.2-8.83a5.39 5.39 0 0 1 2 2.32 8.09 8.09 0 0 1 .72 3.51 8.29 8.29 0 0 1-.72 3.54 5.6 5.6 0 0 1-2 2.41 5.26 5.26 0 0 1-3 .85 5.13 5.13 0 0 1-2.35-.53 3.66 3.66 0 0 1-1.61-1.44 2 2 0 0 1-.7 1.41 2.45 2.45 0 0 1-1.61.51 2.31 2.31 0 0 1-1.67-.59 2.09 2.09 0 0 1-.62-1.57v-14.55a2 2 0 0 1 .66-1.51 2.49 2.49 0 0 1 1.73-.59 2.43 2.43 0 0 1 1.66.55 1.86 1.86 0 0 1 .63 1.47v5.23a4 4 0 0 1 1.61-1.34 5.21 5.21 0 0 1 2.27-.5 5.39 5.39 0 0 1 3 .82zm-2.52 8.28a3.93 3.93 0 0 0 .66-2.45 3.68 3.68 0 0 0-.64-2.34 2.24 2.24 0 0 0-1.86-.82 2.28 2.28 0 0 0-1.89.83 3.81 3.81 0 0 0-.65 2.38 3.92 3.92 0 0 0 .65 2.42 2.24 2.24 0 0 0 1.87.84 2.2 2.2 0 0 0 1.86-.86zm8.08 3.76a2 2 0 0 1-.67-1.62V168.4a2 2 0 0 1 .67-1.63 2.8 2.8 0 0 1 3.33 0 2 2 0 0 1 .67 1.63v14.47a2 2 0 0 1-.67 1.62 2.84 2.84 0 0 1-3.33 0zm18.2-3.3a2 2 0 0 1 .38 1.24 1.74 1.74 0 0 1-1 1.6 10.05 10.05 0 0 1-2.12.75 9.42 9.42 0 0 1-2.24.3 8.23 8.23 0 0 1-3.76-.81 5.88 5.88 0 0 1-2.47-2.34 7.1 7.1 0 0 1-.87-3.57 7.22 7.22 0 0 1 .83-3.48 5.85 5.85 0 0 1 2.31-2.39 6.6 6.6 0 0 1 3.35-.86 6.2 6.2 0 0 1 3.18.79 5.29 5.29 0 0 1 2.11 2.23 7.3 7.3 0 0 1 .75 3.39 1.43 1.43 0 0 1-.27.93 1 1 0 0 1-.8.33h-6.96a2.84 2.84 0 0 0 .82 1.81 2.74 2.74 0 0 0 1.86.56 4.61 4.61 0 0 0 1.21-.15 11 11 0 0 0 1.23-.41c.27-.1.52-.19.78-.27a2.28 2.28 0 0 1 .69-.12 1.21 1.21 0 0 1 .99.47zm-6.95-5.82a2.84 2.84 0 0 0-.65 1.72h4.12c-.11-1.54-.77-2.31-2-2.31a1.94 1.94 0 0 0-1.47.59zM74.67 143.36a2.26 2.26 0 0 1-.67-1.72v-12.37h-3.7a2.6 2.6 0 0 1-1.72-.49 2.21 2.21 0 0 1 0-3 2.66 2.66 0 0 1 1.72-.47h12.29a2.67 2.67 0 0 1 1.72.47 2.21 2.21 0 0 1 0 3 2.61 2.61 0 0 1-1.72.49h-3.7v12.37a2.3 2.3 0 0 1-.67 1.72 2.78 2.78 0 0 1-3.55 0zm22.93-3.17a1.89 1.89 0 0 1 .38 1.24 1.74 1.74 0 0 1-1 1.6 10.05 10.05 0 0 1-2.12.75 9.42 9.42 0 0 1-2.24.3 8.23 8.23 0 0 1-3.76-.81 5.88 5.88 0 0 1-2.47-2.34 7.09 7.09 0 0 1-.86-3.57 7.21 7.21 0 0 1 .82-3.48 5.91 5.91 0 0 1 2.31-2.39 6.6 6.6 0 0 1 3.35-.86 6.2 6.2 0 0 1 3.18.79 5.37 5.37 0 0 1 2.12 2.23A7.3 7.3 0 0 1 98 137a1.43 1.43 0 0 1-.28.93 1 1 0 0 1-.8.33H90a2.9 2.9 0 0 0 .82 1.81 2.74 2.74 0 0 0 1.86.56 4.61 4.61 0 0 0 1.21-.15 11.88 11.88 0 0 0 1.24-.41l.77-.27a2.34 2.34 0 0 1 .7-.12 1.21 1.21 0 0 1 1 .51zm-6.95-5.82a2.9 2.9 0 0 0-.65 1.72h4.12c-.1-1.54-.77-2.31-2-2.31a1.94 1.94 0 0 0-1.47.59zm22.07 7.63a2 2 0 0 1-.63 1.44 2 2 0 0 1-1.47.63 2.06 2.06 0 0 1-1.55-.71l-3.08-3.2-3 3.2a2.08 2.08 0 0 1-1.55.71 2 2 0 0 1-1.47-.63 2 2 0 0 1-.67-1.44 2.06 2.06 0 0 1 .65-1.5l3.26-3.26-3-2.94a2.07 2.07 0 0 1-.65-1.49 2 2 0 0 1 .62-1.48 2 2 0 0 1 1.45-.63 2 2 0 0 1 1.55.74l2.81 2.86 2.84-2.86a2.12 2.12 0 0 1 1.55-.71 2 2 0 0 1 1.46.62 2 2 0 0 1 .62 1.43 2.13 2.13 0 0 1-.66 1.52l-3 2.94 3.26 3.26a2.07 2.07 0 0 1 .66 1.5zm11.28.27a1.49 1.49 0 0 1-.71 1.36 3.41 3.41 0 0 1-2 .37l-.74-.05a5.43 5.43 0 0 1-3.59-1.43 4.77 4.77 0 0 1-1.22-3.48v-4.65H115q-2.1 0-2.1-1.74c0-1.13.7-1.7 2.1-1.7h.76v-1.71a2.06 2.06 0 0 1 .63-1.59 2.77 2.77 0 0 1 3.42 0 2.06 2.06 0 0 1 .63 1.59V131h1.44c1.4 0 2.1.57 2.1 1.7s-.7 1.74-2.1 1.74h-1.44v5a1.24 1.24 0 0 0 .3.84 1.08 1.08 0 0 0 .78.37l.76.05c1.12.06 1.72.59 1.72 1.57zm-2.12-60.13a2.11 2.11 0 0 1 1.19-.36 2 2 0 0 1 1.38.51 1.7 1.7 0 0 1 .59 1.36 3 3 0 0 1-.19 1L120 97.67a1.9 1.9 0 0 1-.87 1 2.73 2.73 0 0 1-1.41.38 2.66 2.66 0 0 1-1.39-.38 1.92 1.92 0 0 1-.86-1l-3.12-8.9-3.27 8.9a2 2 0 0 1-.88 1 2.7 2.7 0 0 1-2.76 0 1.9 1.9 0 0 1-.87-1l-4.83-13.06a2.77 2.77 0 0 1-.16-.91 1.71 1.71 0 0 1 .63-1.4 2.35 2.35 0 0 1 2.71-.17 1.9 1.9 0 0 1 .81 1l3.27 9.5 3.48-9.46a2 2 0 0 1 .78-1 2.08 2.08 0 0 1 1.18-.36 2 2 0 0 1 2 1.42l3.26 9.65 3.43-9.68a2 2 0 0 1 .75-1.06zm17.39-.33a2 2 0 0 1 1.43.61 1.91 1.91 0 0 1 .64 1.4 2 2 0 0 1-.53 1.32l-5 5.83v5.86a2.13 2.13 0 0 1-.61 1.62 2.23 2.23 0 0 1-1.58.56 2.27 2.27 0 0 1-1.6-.56 2.07 2.07 0 0 1-.63-1.62V91l-5-5.83a2 2 0 0 1-.55-1.34 1.89 1.89 0 0 1 .62-1.39 2 2 0 0 1 1.42-.6 1.87 1.87 0 0 1 1.46.72l4.25 5 4.25-5a1.87 1.87 0 0 1 1.43-.75zm6.42 16.86A8.21 8.21 0 0 1 143 97.5a2.08 2.08 0 0 1-.59-.65 1.8 1.8 0 0 1-.18-.86 1.91 1.91 0 0 1 .44-1.25 1.26 1.26 0 0 1 1-.53 2 2 0 0 1 .6.1 3 3 0 0 1 .72.36 7.82 7.82 0 0 0 2 .79 9.21 9.21 0 0 0 2.2.24 4.38 4.38 0 0 0 2.14-.42 1.34 1.34 0 0 0 .74-1.23 1.12 1.12 0 0 0-.69-1 9.13 9.13 0 0 0-2.6-.78 15.31 15.31 0 0 1-3.72-1.2 4.4 4.4 0 0 1-1.89-1.65 4.54 4.54 0 0 1-.54-2.29 4.59 4.59 0 0 1 .92-2.78 6 6 0 0 1 2.5-2 8.81 8.81 0 0 1 3.59-.71 11.38 11.38 0 0 1 3.12.39 7.61 7.61 0 0 1 2.5 1.2 2 2 0 0 1 .61.66 1.81 1.81 0 0 1 .18.85 2 2 0 0 1-.42 1.25 1.25 1.25 0 0 1-1 .53 1.75 1.75 0 0 1-.57-.09 3.57 3.57 0 0 1-.75-.37l-.68-.37a5.67 5.67 0 0 0-1.32-.48 7 7 0 0 0-1.64-.18 3.57 3.57 0 0 0-2 .47 1.4 1.4 0 0 0-.75 1.23 1.06 1.06 0 0 0 .27.75 2.57 2.57 0 0 0 1 .56 14.58 14.58 0 0 0 2.14.56 14.18 14.18 0 0 1 3.62 1.22 4.58 4.58 0 0 1 1.87 1.64 4.24 4.24 0 0 1 .55 2.21 4.59 4.59 0 0 1-.88 2.79 5.65 5.65 0 0 1-2.49 1.97 9.62 9.62 0 0 1-3.7.66 14.44 14.44 0 0 1-3.61-.42zm13.73-.24a2.19 2.19 0 0 1-.59-1.6V84a2.12 2.12 0 0 1 .59-1.57 2.15 2.15 0 0 1 1.59-.59 2.26 2.26 0 0 1 1.64.59 2.09 2.09 0 0 1 .6 1.57v12.83a2.16 2.16 0 0 1-.6 1.6A2.25 2.25 0 0 1 161 99a2.15 2.15 0 0 1-1.58-.57zm28.39-16.29a2.11 2.11 0 0 1 1.19-.36 2 2 0 0 1 1.38.51 1.7 1.7 0 0 1 .59 1.36 3.36 3.36 0 0 1-.19 1L186 97.67a1.9 1.9 0 0 1-.87 1 2.76 2.76 0 0 1-1.41.38 2.66 2.66 0 0 1-1.39-.38 1.88 1.88 0 0 1-.86-1l-3.13-8.9-3.34 8.9a2 2 0 0 1-.89 1 2.58 2.58 0 0 1-1.36.38 2.67 2.67 0 0 1-1.4-.38 1.92 1.92 0 0 1-.86-1l-4.85-13.06a2.8 2.8 0 0 1-.17-.91 1.69 1.69 0 0 1 .64-1.4 2.23 2.23 0 0 1 1.48-.52 2.34 2.34 0 0 1 1.23.35 1.9 1.9 0 0 1 .81 1l3.28 9.46 3.48-9.46a2 2 0 0 1 .78-1 2.11 2.11 0 0 1 1.19-.36 2.08 2.08 0 0 1 1.18.36 2 2 0 0 1 .76 1.06l3.27 9.65 3.43-9.67a2 2 0 0 1 .81-1.03zm17.39-.33a2 2 0 0 1 1.43.61 1.9 1.9 0 0 1 .63 1.4 2 2 0 0 1-.53 1.32l-5 5.83v5.86a2.1 2.1 0 0 1-.61 1.62 2.21 2.21 0 0 1-1.57.56 2.29 2.29 0 0 1-1.61-.56 2.1 2.1 0 0 1-.62-1.62V91l-5-5.83a2 2 0 0 1-.56-1.34 1.86 1.86 0 0 1 .63-1.39 2 2 0 0 1 1.41-.6 1.9 1.9 0 0 1 1.47.72l4.25 5 4.24-5a1.9 1.9 0 0 1 1.44-.75zm18.13 7.95a1.57 1.57 0 0 1 .47 1.24v4.18a7.07 7.07 0 0 1-.18 1.83 1.85 1.85 0 0 1-.65 1 4.1 4.1 0 0 1-1.4.62 14.65 14.65 0 0 1-2.08.37 18.21 18.21 0 0 1-2.12.14 10.29 10.29 0 0 1-4.79-1 7.21 7.21 0 0 1-3.11-3 10.42 10.42 0 0 1 0-9.24 7.36 7.36 0 0 1 3.07-3 9.86 9.86 0 0 1 4.66-1.06 10.7 10.7 0 0 1 3 .4 8.28 8.28 0 0 1 2.48 1.21 1.74 1.74 0 0 1 .59.63 1.8 1.8 0 0 1 .18.86 1.91 1.91 0 0 1-.41 1.26 1.23 1.23 0 0 1-1 .52 1.82 1.82 0 0 1-.66-.11 5.55 5.55 0 0 1-.71-.37 7.87 7.87 0 0 0-1.67-.7 6.46 6.46 0 0 0-1.69-.22 4.26 4.26 0 0 0-3.31 1.17 5.76 5.76 0 0 0-1.12 3.91 5.94 5.94 0 0 0 1.16 4 4.56 4.56 0 0 0 3.57 1.31 10.9 10.9 0 0 0 2.28-.24v-3.13h-1.73a1.74 1.74 0 0 1-1.22-.39 1.65 1.65 0 0 1 0-2.24 1.74 1.74 0 0 1 1.22-.39h4a1.77 1.77 0 0 1 1.17.44z"/><path class="cls-3" d="M222.11 282.72s-20.56-26.49-.75-61.34c11.36-20 35.67-27.75 50.14-25.95 14.91 1.84 46.1 1.9 51.34 49.38 6.61 59.82-82.93 60.07-100.73 37.91z"/><path class="cls-4" d="M248.64 223.6s4.63 29.08 13.38 23.49 19.19-25.63 19.19-25.63z"/><path class="cls-3" d="M201.83 218.86c-29-24.92-24.36-65.36 3-91.84 18.48-17.87 38.93-25.19 53-50.75 1.68-5 4.9-1.07 6.9 1 15.27 18.73 33.55 33.47 54.41 47.6C358 155 353.83 207 323.41 221s-92.59 22.78-121.58-2.14z"/><path class="cls-4" d="M274.92 227c-19.8 0-44.06 1.1-59-13.86s-18.68-38.77 3-51c15.76-8.87 27.35-9.33 49.59-6.84s50.49 13.2 48.61 44.06c-1.34 21.97-20.36 27.34-42.2 27.64z"/><path d="M256.41 145.05c-4.56-.15-9.89-.83-11.63-5.43-2.51-6.65 6.57-7.73 9.54-7.42 5.77.6 10.29.4 11.52 5.34 1.49 6-5.22 6.86-9.43 7.51z" fill="#efd252"/><path d="M232 183c-1-4-3.11-15.62 2.57-16.26 6.77-.76 7.67 10.55 7.91 14.75s1.79 10.25-3.48 10.51c-3.38.13-6.1-6-7-9zm39.15.31c-.52-4.24-.68-16.43 5.2-16.13 7 .36 7 12 6.54 16.19s-1.16 10.71-6.35 10.08c-3.38-.4-5.02-7.07-5.39-10.14z" fill="#0ea1b3"/><path d="M255.54 201.83a30.23 30.23 0 0 1-9 8.39c3 5.94 12.32 12.07 17.51 9.39s5.94-5.78 6.16-10.14c-5.08-2.56-9.8-5.02-14.67-7.64z" fill="#fdd9d2"/><path class="cls-3" d="M277.18 211.35a9.1 9.1 0 0 1-4.36 1c-6.5 0-11.49-2.69-16.85-6.41-1.77 4.87-8.16 6.07-11.42 6.48-5 .63-11.61-7.42-12-8-2.06-3.55-1-4.09.83-5.12s3.48.14 5.15 2.22c.1.12 2.8 4.36 5.47 4.05s6.8-3.32 8.21-6.68a2.1 2.1 0 0 1 2.3-1.2c1.16.27 1-.38 3.38 1.83.2.19 9.17 8 14 6.26 2.93-1 9-4.19 10.63-8.94.42-1.23 2.91-1.72 4.22-.74a3.73 3.73 0 0 1 1.19 4.39c-2.76 4.82-5.93 8.61-10.75 10.86z"/><path d="M248.69 209.35c2.7 5.13 2 10.61 8.2 11.24s13.45-6 14.66-10.83" stroke="#498dc9" stroke-miterlimit="10" stroke-width="7" fill="none"/><path d="M351 388c0 12.7-38.95 21-87 21s-87-8.3-87-21 38.95-19 87-19 87 6.3 87 19z" fill="#f5f5f5"/><ellipse cx="264" cy="386" rx="55" ry="12.01" fill="#e0e0e0"/><circle cx="264" cy="316.5" r="76" fill="none"/><circle class="cls-2" cx="264" cy="316.5" r="76"/><path class="cls-4" d="M308 322.13l-.87-2.52a126.5 126.5 0 0 0-7.48-18.28c-4.71-9.28-11.55-17.67-17.48-22.17l-.33-.26-.36-.23c-5-3.3-11.1-4.63-17.45-4.65s-12.47 1.35-17.45 4.65l-.36.23-.33.26c-5.93 4.5-12.77 12.89-17.48 22.17a126.5 126.5 0 0 0-7.48 18.28c-.3.87-.59 1.71-.86 2.52a24.2 24.2 0 0 0 1.11 19.7c3.45 6.34 10.71 9.45 18.08 9.37h3.31v-31.74c.06-6.26 2.91-4.66 9.21-.87a24.41 24.41 0 0 0 24.46 0c6.3-3.79 9.15-5.39 9.21.87v31.72h3.31c7.37.08 14.63-3 18.09-9.37a24.27 24.27 0 0 0 1.15-19.68zm-78.25-90.02s18.05 44.28 5.43 48.1-24.12 5.79-30.79-36 25.36-12.1 25.36-12.1z"/><path class="cls-3" d="M207.18 221.48c3.51-1.88 8.57-.76 15 3.32a63 63 0 0 1 8.39 6.4 1.25 1.25 0 0 1 .31.44c.05.14 5.8 14.32 8.54 27.24a1.25 1.25 0 0 1-1.52 1.47c-9.75-2.39-19.29-.76-26.88 4.57-.4.28-.8.58-1.19.89a1.25 1.25 0 0 1-1.12.2 1.19 1.19 0 0 1-.82-.8 133.41 133.41 0 0 1-4.76-20.84c-2.02-12.87-.71-20.37 4.05-22.89z"/><path class="cls-4" d="M314.07 231.78s-42.3-22.29-47.34-10.1-8.12 23.42 32.85 34.16 14.49-24.06 14.49-24.06z"/><path class="cls-3" d="M294.68 221.72a204.25 204.25 0 0 1 20 9 1.39 1.39 0 0 1 .41.35c1.29 1.69 11.41 16.72 6.38 24.27-3 4.48-9.57 5.05-22.17 1.75a154 154 0 0 1-16.18-5.09 1.24 1.24 0 0 1-.76-.86.84.84 0 0 1 0-.27 1.21 1.21 0 0 1 .31-.85A43.44 43.44 0 0 0 293 222.84a1.25 1.25 0 0 1 .56-1 1.22 1.22 0 0 1 1.12-.12z"/></svg>