<svg viewBox="0 0 528 418" xmlns="http://www.w3.org/2000/svg"><path d="m196 359-109-70 76 6-31-114 80 28 15-108 52 108 86-83-10 118 95-20-90 101 73-16-143.81 75-63.19-5z" fill="#fcf8d7"/><path d="m324.7 387.52c0 9.69-27.16 16.02-60.66 16.02s-60.66-6.33-60.66-16.02 27.16-14.5 60.66-14.5 60.66 4.8 60.66 14.5z" opacity=".1"/><path d="m226.68 378.39s-17.25-20.63-.63-47.78c9.53-15.56 29.92-21.61 42.06-20.22 12.5 1.44 38.66 1.49 43.06 38.47 5.54 46.59-69.57 46.79-84.49 29.53z" fill="#2e8ad1"/><path d="m254.5 332.34s3.61 22.65 10.42 18.3 14.95-19.96 14.95-19.96l-25.37 1.67z" fill="#fff"/><path d="m218.04 329.75c-22.58-19.41-18.97-50.91 2.35-71.54 14.39-13.92 30.32-19.63 41.27-39.53 1.31-3.92 3.81-.83 5.38.79 11.92 14.61 26.13 26.06 42.38 37.07 30.27 23.47 27.02 63.98 3.33 74.88s-72.13 17.74-94.71-1.67z" fill="#2e8ad1"/><path d="m276.08 332.79c-15.43-.01-36.53 1.96-48.13-9.7-11.61-11.65-10.14-31.3 6.76-40.82 12.28-6.91 21.3-7.27 38.63-5.33 17.32 1.94 37.08 10.27 35.61 34.31-1.04 17.11-15.86 21.29-32.86 21.53z" fill="#fff"/><path d="m263.86 270.06c-3.55-.12-7.7-.65-9.05-4.23-1.96-5.19 5.12-6.02 7.43-5.78 4.49.47 8.01.31 8.97 4.16 1.16 4.68-4.07 5.34-7.35 5.85z" fill="#eed12b"/><path d="m248.66 297.66c-3.18.22-12.39.47-12.25-2.63.16-3.69 8.98-3.31 12.24-3.11 3.26.19 8.12-.16 7.72 2.67-.26 1.84-5.32 2.83-7.71 3.07z" fill="#2f97a2"/><path d="m283.36 297.64c-3.29.35-12.78.63-12.68-2.56.12-3.81 9.16-3.97 12.46-3.8 3.29.17 8.36.46 8 3.28-.24 1.84-5.39 2.84-7.78 3.08z" fill="#2f97a2"/><path d="m260.99 309.87c-1.94 2.62-4.3 4.96-7.05 6.53 2.31 4.63 9.59 9.41 13.64 7.31 4.05-2.09 4.62-4.5 4.79-7.9-3.92-1.99-7.59-3.91-11.38-5.95z" fill="#fdd9d2"/><path d="m277.84 315.08c-1.28.6-2.18.8-3.39.79-5.06-.03-8.95-2.1-13.13-5-1.38 3.8-6.36 4.73-8.89 5.05-3.9.49-9.05-5.78-9.32-6.25-1.61-2.77-.75-3.18.65-3.99 1.4-.8 2.71.11 4.01 1.73.07.09 2.18 3.39 4.25 3.15 2.08-.24 5.3-2.58 6.39-5.21.19-.45.9-1.14 1.8-.93s.75-.3 2.63 1.42c.16.15 7.14 6.2 10.88 4.87 2.28-.81 7.02-3.26 8.28-6.96.33-.96 2.26-1.34 3.29-.58 1.02.76 1.49 2.42.92 3.42-2.14 3.77-4.62 6.72-8.36 8.47z" fill="#2e8ad1"/><path d="m255.65 313.52c2.11 4 1.58 8.27 6.39 8.76s10.48-4.68 11.42-8.44" fill="none" stroke="#498dc9" stroke-miterlimit="10" stroke-width="5"/><path d="m238.73 371.74s-3.68-8.82-19.33-6.62c-15.65 2.21-15.65 14.34-6.44 20.95 9.21 6.62 45.11 6.62 51.55 6.62s0-22.06-25.78-20.95z" fill="#2e8ad1"/><path d="m289.94 371.74s3.68-8.82 19.33-6.62c15.65 2.21 15.65 14.34 6.44 20.95-9.21 6.62-45.11 6.62-51.55 6.62s0-22.06 25.78-20.95z" fill="#2e8ad1"/><g fill="#fff"><ellipse cx="256.88" cy="367.88" rx="9.37" ry="6.07"/><ellipse cx="269.01" cy="367.88" rx="9.37" ry="6.07"/><circle cx="115" cy="181" r="73"/></g><path d="m121.88 216.78c-2.62 5.06-5 9.6-7.32 14.16-3.28 6.44-6.61 12.86-9.73 19.39-1.12 2.35-2.46 3.11-5.01 2.53-11.64-2.66-22.26-7.41-31.52-15.03-14.1-11.6-22.85-26.44-25.75-44.39-2.92-18.06.24-35.17 9.98-50.86.22-.35.57-.61.97-1.04 3.47 6.74 6.87 13.3 10.23 19.88 5.94 11.64 11.57 23.44 17.84 34.91 7.34 13.44 18.96 20.45 34.35 20.95.94.03 1.89-.24 2.84-.33.85-.08 1.71-.09 3.11-.17z" fill="#5cad5c"/><path d="m80.13 169.64c-3.78-5.76-7.46-11.34-11.1-16.94-3.38-5.18-6.66-10.43-10.12-15.56-.98-1.45-.83-2.28.28-3.56 12.18-14.03 27.49-22.3 45.87-24.59 23.28-2.9 43.43 3.89 60.42 20.18 5.35 5.13 9.54 11.05 13.27 17.36.25.42.62.87.52 1.1-4.83 0-9.5.12-14.16-.03-5.21-.17-10.42-.64-15.63-.9-8.26-.42-16.54-.56-24.77-1.24-6.76-.56-13.43-.61-19.9 1.45-11.22 3.57-19.49 10.55-24.04 21.61-.13.31-.33.58-.65 1.14z" fill="#db5757"/><path d="m110.8 253.54c5.15-7.91 10.19-15.64 15.21-23.38 6.12-9.43 12.43-18.74 18.29-28.32 8.02-13.11 8.18-30.32-1.53-42.99-.3-.4-.51-.86-.89-1.51 2.17-.24 4.1-.55 6.05-.65 8.35-.42 16.7-.77 25.04-1.16 2.52-.12 5.04-.27 7.55-.5 1.57-.15 2.31.44 2.83 1.95 6.14 18.01 5.54 35.81-1.99 53.25-6.88 15.95-18.32 27.87-33.63 35.94-9.35 4.93-19.4 7.69-30.05 7.82-2.19.03-4.48 1.11-6.89-.43z" fill="#f1e258"/><path d="m139.12 181.55c-.03 13.41-11.26 24.33-24.95 24.26-13.59-.07-24.29-11.18-24.25-25.18.04-13.08 11.27-24.03 24.64-24.01 13.65.01 24.59 11.13 24.55 24.93z" fill="#4b9ad8"/><circle cx="254" cy="95" fill="#4b9ad8" r="58"/><path d="m191.03 96.69c-.21.63-.41 1.26-.62 1.89-.27-5.82 1.03-11.34 2.48-16.83.17-.19.2-.49.09-.63-.19-.24-.37.08-.56.15-.22.2-.5.61-.64.57-.57-.17-.24-.64-.13-.93 1.05-2.76 2.01-5.56 3.23-8.24 1.41-3.11 3.01-6.14 5.28-8.76 1.1-1.28.89-2.95 1.05-4.43.65-6.02 2.91-11.35 6.53-16.14.37-.49.78-1.21 1.4-1.11.83.15.48 1.02.5 1.58.12 4.05 2.5 6.9 5.1 9.63.52.55 1.11.68 1.89.54 3.41-.59 6.86-.57 10.13.57 2.37.83 3.93-.1 5.79-1.34 4.11-2.72 8.61-4.25 14.11-3.41-3.29 2.75-6.2 5.14-8.07 8.54-2.12 3.85-.21 7.75 4.26 8.44 2.45.38 4.93.59 7.37 1.04 2.98.55 3.51 1.62 2.23 4.41-1.02 2.21-2.77 3.71-5.04 4.59-2.4.93-4.66 2.14-6.93 3.33-1.42.74-2.01 1.77-1.86 3.38.11 1.15.16 2.38-.14 3.47-.4 1.46-1.15 2.44-2.98 1.25-2.45-1.6-4.77-.58-5.78 2.2-.76 2.07-.58 4.11.63 5.8 2.33 3.28 5.42 5.78 9.15 7.3 2.99 1.22 5.96.29 8.85-.7 4.56-1.56 9-1.68 13.11 1.3.62.45 1.24.96 1.71 1.56.76.97 1.65 2.01.94 3.36-.73 1.38-2 1.26-3.27.97-1.21-.28-2.3.16-3.36.61-.93.39-1.86.82-2.7 1.37-6.65 4.34-13.75 4.85-21.22 2.56 4.4 8.52 18.16 13.43 30.09 9.66 8.22-2.6 14.19-7.8 17.88-15.6 3.68-7.79 3.23-15.74.5-24.13 4.17 2.43 7.08 5.59 9.89 8.88.26.05.44.51.61.35.16-.15.04-.56-.14-.82-2.32-4.94-6.26-8.44-10.42-11.74-4.27-3.38-8.6-6.69-11.77-11.22-6.31-8.99-7.16-18.61-3.29-28.76 1.81-4.75 4.33-9.1 7.76-13.26 2.21 7.9 8.74 11.97 13.98 17.13.83.82 1.19.67 1.48-.49.38-1.56.54-3.21 1.84-5.08 1.02 9.3 7.69 14.89 12.36 21.66 4.98 7.22 8.35 15.04 9.57 23.76.05.39-.15 1.24.46 1.04 1.78-.6 1.27.76 1.39 1.5 1.39 8.01-.46 15.57-3.21 23.01-.84 2.26-1.84 4.45-3.16 6.49-1.02 1.57-1.3 3.15-1.29 5.15.03 4.71-2.03 8.88-5.18 12.39-3.8 4.23-8.47 7.27-13.57 9.71-.76.36-1.57.62-2.07 1.43-3.35 5.49-8.74 8.24-14.59 9.72-21.22 5.37-40.64 1.53-57.84-12.24-12.07-9.66-19.49-22.18-22.25-37.41-.46-2.51-.76-5.07-.69-7.65-.28-.97-.39-1.97-.28-2.99-.1-.29-.14.04-.12.08.37.64-.12 1.07-.45 1.54z" fill="#e79a27"/><path d="m424.66 244.2c-1.72 2.52-3.16 4.92-3.96 7.64-.32 1.08-.59 2.18-.88 3.26-.23.86.06 1.18.97 1.18 8.57-.02 17.13-.02 25.7 0 .84 0 1.18-.29 1.19-1.15.06-7.22-2.85-12.36-10.57-14.71-5.39-1.64-10.63-.65-15.79.85-9.68 2.82-17.36 8.56-23.42 16.56-.23.3-.46.6-.7.88-.05.06-.15.08-.35.18.14-2.08.62-4.01 1.15-5.93 1.88-6.88 5.04-13.06 10.09-18.16 5.62-5.68 12.44-8.97 20.38-9.9 7.99-.94 15.71-.08 22.84 3.83 9.38 5.15 15.26 13.03 17.58 23.5 1.23 5.55 1.06 11.2 1.11 16.84.01 1.35-.85 1.08-1.61 1.08-15.44 0-30.88 0-46.32 0-2.24 0-2.31.15-1.93 2.43 1.27 7.66 6.32 11.69 13.39 13.31 9.96 2.28 19.51.81 28.47-4.16 1.01-.56 1.28-.59 1.26.69-.06 4.42-.13 8.85.03 13.27.06 1.68-.73 2.33-2 2.92-3.65 1.68-7.45 2.86-11.39 3.6-7.57 1.42-15.11 1.64-22.58-.58-7.43-2.21-12.97-6.81-17.01-13.34-3.23-5.23-4.73-10.94-4.39-17.07.69-12.56 6.94-21.43 18.12-26.96.08-.04.18-.02.61-.06z" fill="#4b9ad8"/><circle cx="387.5" cy="148.5" fill="#fff" r="58.5"/><path d="m387.84 89.88c-33.11.03-58.97 25.9-59 59-.03 33.17 25.93 58.62 59.11 59.26 32.99-.69 58.95-25.91 59-59.15.05-33.11-25.85-59.13-59.1-59.11zm-.11 111.61c-28.56.47-52.8-23.83-52.51-53.14.28-28.24 23.98-52.47 53.47-52.09 28.01.37 52.26 23.92 51.88 53.46-.37 28.05-23.89 52.35-52.83 51.77z" fill="#229bd5"/><path d="m433.16 139.97c-.6.18-1.23.27-1.86.37-.67.11-1.56.5-1.79-.44-.23-.95.68-1.04 1.38-1.18.34-.07.68-.26 1.02-.27 1.56-.03 1.83-.63 1.38-2.14-3.01-10.29-8.72-18.66-17.27-25.14-1.28-.97-1.98-1.28-2.79.47-.45.97-1.17 2.86-2.33 2.17-1.27-.76.41-1.95.8-2.95.05-.13.14-.25.23-.35.85-.98.88-1.57-.47-2.34-9.25-5.27-19.12-7.24-29.68-5.89-1.51.19-3.08-.04-2.37 2.37.3 1.01 1.35 2.7-.22 3.04-1.28.28-1.13-1.72-1.31-2.7-.28-1.55-.74-2.02-2.34-1.56-9.93 2.84-18.15 8.23-24.62 16.27-2.1 2.61-2.07 2.62.63 4.48.35.24.71.46 1.02.74s.64.62.36 1.09c-.33.54-.81.47-1.28.19-.91-.54-1.87-1.01-2.71-1.64-.79-.59-1.14-.39-1.6.39-5.35 8.97-7.28 18.7-6.33 29 .37 3.96.58 3.94 4.49 3.26.14-.02.27-.09.4-.12.56-.1 1.02.08 1.15.65.11.48-.25.81-.67.94-.94.28-1.89.59-2.85.72-1.19.16-1.54.61-1.2 1.83 3.07 10.92 9.23 19.65 18.45 26.26.82.59 1.27.57 1.79-.34.58-1.04 1.3-2 1.98-2.99.32-.47.75-.67 1.25-.31.45.32.26.76.06 1.13-.44.8-.8 1.68-1.39 2.36-1.23 1.42-.74 2.17.74 2.93 7.12 3.68 14.6 5.9 22.69 5.6 1.69 0 3.41.18 5.07-.06 1.43-.21 3.31.16 4.17-1.02.65-.89-.37-2.37-.59-3.6-.01-.07-.05-.13-.07-.2-.13-.63.01-1.16.7-1.32.66-.15.82.37.95.87.22.88.52 1.76.64 2.66.16 1.17.53 1.49 1.79 1.12 10.12-2.99 18.47-8.52 24.83-16.99q1.74-2.32-.64-3.99c-.59-.42-1.66-.76-1.15-1.71.57-1.07 1.33-.09 1.97.15.46.17.9.43 1.28.74.94.76 1.55.63 2.16-.46 5.44-9.77 7.06-20.19 5.41-31.19-.11-.77-.39-1.17-1.25-.91zm-24.73-14.03c-5.17 8.57-10.35 17.12-15.53 25.68-.33.54-.64 1.12-1.08 1.55-9.86 9.47-19.82 18.82-29.95 28-.25.23-.52.42-1.1.42 1.48-2.5 2.94-5.02 4.44-7.51 5.67-9.41 11.3-18.85 17.06-28.22 1.82-2.97 4.67-5.07 7.16-7.45 5.66-5.4 11.43-10.67 17.16-15.99 2.47-2.29 4.96-4.56 7.44-6.85.14.09.27.18.41.27-2 3.37-3.99 6.74-6.01 10.09z" fill="#229bd5"/><path d="m414.44 115.84c-.14-.09-.27-.18-.41-.27-2.48 2.28-4.97 4.55-7.44 6.85-5.73 5.32-11.51 10.59-17.16 15.99-2.1 2-4.44 3.81-6.22 6.1l9.3 7.75c.13-.21.26-.43.39-.64 5.18-8.56 10.36-17.11 15.53-25.68 2.02-3.35 4.01-6.73 6.01-10.09z" fill="#db5757"/></svg>