<svg viewBox="0 0 528 418" xmlns="http://www.w3.org/2000/svg" xmlns:xlink="http://www.w3.org/1999/xlink"><linearGradient id="a" gradientUnits="userSpaceOnUse" x1="218.15" x2="308.53" y1="117.66" y2="117.66"><stop offset="0" stop-color="#0c59a4"/><stop offset="1" stop-color="#114a8b"/></linearGradient><radialGradient id="b" cx="272.69" cy="422.23" gradientTransform="matrix(1 0 0 .95 -4.6 -282.75)" gradientUnits="userSpaceOnUse" r="48.37"><stop offset=".7" stop-opacity="0"/><stop offset=".9" stop-opacity=".5"/><stop offset="1"/></radialGradient><linearGradient id="c" gradientUnits="userSpaceOnUse" x1="265.83" x2="209.4" y1="78.47" y2="139.96"><stop offset="0" stop-color="#1b9de2"/><stop offset=".2" stop-color="#1595df"/><stop offset=".7" stop-color="#0680d7"/><stop offset="1" stop-color="#0078d4"/></linearGradient><radialGradient id="d" cx="-178.44" cy="-1268.66" gradientTransform="matrix(.14988048 -.98870412 .80103345 .12019525 1265.85 104.39)" gradientUnits="userSpaceOnUse" r="72.6"><stop offset=".8" stop-opacity="0"/><stop offset=".9" stop-opacity=".5"/><stop offset="1"/></radialGradient><radialGradient id="e" cx="1964.21" cy="-483.8" gradientTransform="matrix(-.0399574 .99920138 -2.12850817 -.07987741 -750.41 -1950.98)" gradientUnits="userSpaceOnUse" r="102.61"><stop offset="0" stop-color="#35c1f1"/><stop offset=".1" stop-color="#34c1ed"/><stop offset=".2" stop-color="#2fc2df"/><stop offset=".3" stop-color="#2bc3d2"/><stop offset=".7" stop-color="#36c752"/></radialGradient><radialGradient id="f" cx="1883.27" cy="527.18" gradientTransform="matrix(.27999657 .960001 -.77691665 .22914295 193.98 -1862.05)" gradientUnits="userSpaceOnUse" r="49.33"><stop offset="0" stop-color="#66eb6e"/><stop offset="1" stop-color="#66eb6e" stop-opacity="0"/></radialGradient><linearGradient id="g" gradientTransform="matrix(1 0 0 -1 0 -1094)" gradientUnits="userSpaceOnUse" x1="51.34" x2="178.17" y1="-1247.78" y2="-1247.78"><stop offset="0" stop-color="#d93025"/><stop offset="1" stop-color="#ea4335"/></linearGradient><linearGradient id="h" gradientTransform="matrix(1 0 0 -1 0 -1094)" gradientUnits="userSpaceOnUse" x1="104.76" x2="168.17" y1="-1347.5" y2="-1237.67"><stop offset="0" stop-color="#fcc934"/><stop offset="1" stop-color="#fbbc04"/></linearGradient><linearGradient id="i" gradientTransform="matrix(1 0 0 -1 0 -1094)" gradientUnits="userSpaceOnUse" x1="122.68" x2="59.26" y1="-1343.91" y2="-1234.07"><stop offset="0" stop-color="#1e8e3e"/><stop offset="1" stop-color="#34a853"/></linearGradient><linearGradient id="j" gradientTransform="matrix(1 0 0 -1 -314.2 -1152)" gradientUnits="userSpaceOnUse" x1="704.56" x2="704.56" y1="-1364.78" y2="-1246.26"><stop offset="0" stop-color="#bdbdbd"/><stop offset="1" stop-color="#fff"/></linearGradient><radialGradient id="k" cx="761.06" cy="-1229.67" gradientTransform="matrix(1.08 0 0 -1.08 -434.74 -1188.54)" gradientUnits="userSpaceOnUse" r="54.62"><stop offset="0" stop-color="#06c2e7"/><stop offset=".25" stop-color="#0db8ec"/><stop offset=".5" stop-color="#12aef1"/><stop offset=".75" stop-color="#1f86f9"/><stop offset="1" stop-color="#107ddd"/></radialGradient><linearGradient id="l" gradientTransform="matrix(.98 0 0 -.98 17.67 -1088.04)" gradientUnits="userSpaceOnUse" x1="455.61" x2="391.27" y1="-1349.07" y2="-1411.15"><stop offset=".05" stop-color="#fff44f"/><stop offset=".11" stop-color="#ffe847"/><stop offset=".23" stop-color="#ffc830"/><stop offset=".37" stop-color="#ff980e"/><stop offset=".4" stop-color="#ff8b16"/><stop offset=".46" stop-color="#ff672a"/><stop offset=".53" stop-color="#ff3647"/><stop offset=".7" stop-color="#e31587"/></linearGradient><radialGradient id="m" cx="-7522.17" cy="7178.3" gradientTransform="matrix(.98 0 0 -.98 7849.29 7282.4)" gradientUnits="userSpaceOnUse" r="80.8"><stop offset=".13" stop-color="#ffbd4f"/><stop offset=".19" stop-color="#ffac31"/><stop offset=".25" stop-color="#ff9d17"/><stop offset=".28" stop-color="#ff980e"/><stop offset=".4" stop-color="#ff563b"/><stop offset=".47" stop-color="#ff3750"/><stop offset=".71" stop-color="#f5156c"/><stop offset=".78" stop-color="#eb0878"/><stop offset=".86" stop-color="#e50080"/></radialGradient><radialGradient id="n" cx="-7552.17" cy="7145.3" gradientTransform="matrix(.98 0 0 -.98 7849.29 7282.4)" gradientUnits="userSpaceOnUse" r="80.8"><stop offset=".3" stop-color="#960e18"/><stop offset=".35" stop-color="#b11927" stop-opacity=".74"/><stop offset=".43" stop-color="#db293d" stop-opacity=".34"/><stop offset=".5" stop-color="#f5334b" stop-opacity=".09"/><stop offset=".53" stop-color="#ff3750" stop-opacity="0"/></radialGradient><radialGradient id="o" cx="-7542.17" cy="7196.3" gradientTransform="matrix(.98 0 0 -.98 7849.29 7282.4)" gradientUnits="userSpaceOnUse" r="58.53"><stop offset=".13" stop-color="#fff44f"/><stop offset=".25" stop-color="#ffdc3e"/><stop offset=".51" stop-color="#ff9d12"/><stop offset=".53" stop-color="#ff980e"/></radialGradient><radialGradient id="p" cx="-7561.17" cy="7124.3" gradientTransform="matrix(.98 0 0 -.98 7849.29 7282.4)" gradientUnits="userSpaceOnUse" r="38.47"><stop offset=".35" stop-color="#3a8ee6"/><stop offset=".47" stop-color="#5c79f0"/><stop offset=".67" stop-color="#9059ff"/><stop offset="1" stop-color="#c139e6"/></radialGradient><radialGradient id="q" cx="-7779.22" cy="7458.92" gradientTransform="matrix(.95256199 -.23027302 -.27021834 -1.11780233 9876.44 6799.16)" gradientUnits="userSpaceOnUse" r="20.4"><stop offset=".21" stop-color="#9059ff" stop-opacity="0"/><stop offset=".28" stop-color="#8c4ff3" stop-opacity=".06"/><stop offset=".75" stop-color="#7716a8" stop-opacity=".45"/><stop offset=".97" stop-color="#6e008b" stop-opacity=".6"/></radialGradient><radialGradient id="r" cx="-7553.17" cy="7181.3" gradientTransform="matrix(.98 0 0 -.98 7849.29 7282.4)" gradientUnits="userSpaceOnUse" r="27.68"><stop offset="0" stop-color="#ffe226"/><stop offset=".12" stop-color="#ffdb27"/><stop offset=".29" stop-color="#ffc82a"/><stop offset=".5" stop-color="#ffa930"/><stop offset=".73" stop-color="#ff7e37"/><stop offset=".79" stop-color="#ff7139"/></radialGradient><radialGradient id="s" cx="-7531.17" cy="7199.3" gradientTransform="matrix(.98 0 0 -.98 7849.29 7282.4)" gradientUnits="userSpaceOnUse" r="118.1"><stop offset=".11" stop-color="#fff44f"/><stop offset=".46" stop-color="#ff980e"/><stop offset=".62" stop-color="#ff5634"/><stop offset=".72" stop-color="#ff3647"/><stop offset=".9" stop-color="#e31587"/></radialGradient><radialGradient id="t" cx="-5940.61" cy="7113.51" gradientTransform="matrix(.1027781 .97459564 .63647062 -.06712039 -3504.75 6505.63)" gradientUnits="userSpaceOnUse" r="86.5"><stop offset="0" stop-color="#fff44f"/><stop offset=".06" stop-color="#ffe847"/><stop offset=".17" stop-color="#ffc830"/><stop offset=".3" stop-color="#ff980e"/><stop offset=".36" stop-color="#ff8b16"/><stop offset=".46" stop-color="#ff672a"/><stop offset=".57" stop-color="#ff3647"/><stop offset=".74" stop-color="#e31587"/></radialGradient><radialGradient id="u" cx="-7553.17" cy="7171.3" gradientTransform="matrix(.98 0 0 -.98 7849.29 7282.4)" gradientUnits="userSpaceOnUse" r="73.72"><stop offset=".14" stop-color="#fff44f"/><stop offset=".48" stop-color="#ff980e"/><stop offset=".59" stop-color="#ff5634"/><stop offset=".66" stop-color="#ff3647"/><stop offset=".9" stop-color="#e31587"/></radialGradient><radialGradient id="v" cx="-7534.17" cy="7167.3" gradientTransform="matrix(.98 0 0 -.98 7849.29 7282.4)" gradientUnits="userSpaceOnUse" r="80.69"><stop offset=".09" stop-color="#fff44f"/><stop offset=".23" stop-color="#ffe141"/><stop offset=".51" stop-color="#ffaf1e"/><stop offset=".63" stop-color="#ff980e"/></radialGradient><linearGradient id="w" gradientTransform="matrix(.98 0 0 -.98 17.67 -1088.04)" gradientUnits="userSpaceOnUse" x1="454.83" x2="400.09" y1="-1348.75" y2="-1403.5"><stop offset=".17" stop-color="#fff44f" stop-opacity=".8"/><stop offset=".27" stop-color="#fff44f" stop-opacity=".63"/><stop offset=".49" stop-color="#fff44f" stop-opacity=".22"/><stop offset=".6" stop-color="#fff44f" stop-opacity="0"/></linearGradient><path d="m196 359-109-70 76 6-31-114 80 28 15-108 52 108 86-83-10 118 95-20-90 101 73-16-143.81 75-63.19-5z" fill="#fef9c3"/><path d="m324.7 387.52c0 9.69-27.16 16.02-60.66 16.02s-60.66-6.33-60.66-16.02 27.16-14.5 60.66-14.5 60.66 4.8 60.66 14.5z" fill="#171717" opacity=".1"/><path d="m226.68 378.39s-17.25-20.63-.63-47.78c9.53-15.56 29.92-21.61 42.06-20.22 12.5 1.44 38.66 1.49 43.06 38.47 5.54 46.59-69.57 46.79-84.49 29.53z" fill="#0284c7"/><path d="m254.5 332.34s3.61 22.65 10.42 18.3 14.95-19.96 14.95-19.96l-25.37 1.67z" fill="#fff"/><path d="m218.04 329.75c-22.58-19.41-18.97-50.91 2.35-71.54 14.39-13.92 30.32-19.63 41.27-39.53 1.31-3.92 3.81-.83 5.38.79 11.92 14.61 26.13 26.06 42.38 37.07 30.27 23.47 27.02 63.98 3.33 74.88s-72.13 17.74-94.71-1.67z" fill="#0284c7"/><path d="m276.08 332.79c-15.43-.01-36.53 1.96-48.13-9.7-11.61-11.65-10.14-31.3 6.76-40.82 12.28-6.91 21.3-7.27 38.63-5.33 17.32 1.94 37.08 10.27 35.61 34.31-1.04 17.11-15.86 21.29-32.86 21.53z" fill="#fff"/><path d="m263.86 270.06c-3.55-.12-7.7-.65-9.05-4.23-1.96-5.19 5.12-6.02 7.43-5.78 4.49.47 8.01.31 8.97 4.16 1.16 4.68-4.07 5.34-7.35 5.85z" fill="#fef08a"/><path d="m248.66 297.66c-3.18.22-12.39.47-12.25-2.63.16-3.69 8.98-3.31 12.24-3.11 3.26.19 8.12-.16 7.72 2.67-.26 1.84-5.32 2.83-7.71 3.07z" fill="#0284c7"/><path d="m283.36 297.64c-3.29.35-12.78.63-12.68-2.56.12-3.81 9.16-3.97 12.46-3.8 3.29.17 8.36.46 8 3.28-.24 1.84-5.39 2.84-7.78 3.08z" fill="#0284c7"/><path d="m260.99 309.87c-1.94 2.62-4.3 4.96-7.05 6.53 2.31 4.63 9.59 9.41 13.64 7.31 4.05-2.09 4.62-4.5 4.79-7.9-3.92-1.99-7.59-3.91-11.38-5.95z" fill="#fdd9d2"/><path d="m277.84 315.08c-1.28.6-2.18.8-3.39.79-5.06-.03-8.95-2.1-13.13-5-1.38 3.8-6.36 4.73-8.89 5.05-3.9.49-9.05-5.78-9.32-6.25-1.61-2.77-.75-3.18.65-3.99 1.4-.8 2.71.11 4.01 1.73.07.09 2.18 3.39 4.25 3.15 2.08-.24 5.3-2.58 6.39-5.21.19-.45.9-1.14 1.8-.93s.75-.3 2.63 1.42c.16.15 7.14 6.2 10.88 4.87 2.28-.81 7.02-3.26 8.28-6.96.33-.96 2.26-1.34 3.29-.58 1.02.76 1.49 2.42.92 3.42-2.14 3.77-4.62 6.72-8.36 8.47z" fill="#0284c7"/><path d="m255.65 313.52c2.11 4 1.58 8.27 6.39 8.76s10.48-4.68 11.42-8.44" fill="none" stroke="#498dc9" stroke-miterlimit="10" stroke-width="5"/><path d="m238.73 371.74s-3.68-8.82-19.33-6.62c-15.65 2.21-15.65 14.34-6.44 20.95 9.21 6.62 45.11 6.62 51.55 6.62s0-22.06-25.78-20.95z" fill="#0284c7"/><path d="m289.94 371.74s3.68-8.82 19.33-6.62c15.65 2.21 15.65 14.34 6.44 20.95-9.21 6.62-45.11 6.62-51.55 6.62s0-22.06 25.78-20.95z" fill="#0284c7"/><ellipse cx="256.88" cy="367.88" fill="#fff" rx="9.37" ry="6.07"/><ellipse cx="269.01" cy="367.88" fill="#fff" rx="9.37" ry="6.07"/><path d="m305.55 124.53c-1.74.9-3.54 1.7-5.37 2.38-5.82 2.17-11.99 3.27-18.2 3.24-23.98 0-44.87-16.48-44.87-37.67.06-5.78 3.24-11.07 8.31-13.84-21.7.91-27.28 23.52-27.28 36.76 0 37.52 34.53 41.27 41.98 41.27 4.01 0 10.04-1.17 13.69-2.33l.66-.2c13.97-4.83 25.88-14.27 33.77-26.77.58-.96.27-2.21-.69-2.78-.61-.37-1.37-.39-2-.06z" fill="url(#a)"/><path d="m305.55 124.53c-1.74.9-3.54 1.7-5.37 2.38-5.82 2.17-11.99 3.27-18.2 3.24-23.98 0-44.87-16.48-44.87-37.67.06-5.78 3.24-11.07 8.31-13.84-21.7.91-27.28 23.52-27.28 36.76 0 37.52 34.53 41.27 41.98 41.27 4.01 0 10.04-1.17 13.69-2.33l.66-.2c13.97-4.83 25.88-14.27 33.77-26.77.58-.96.27-2.21-.69-2.78-.61-.37-1.37-.39-2-.06z" fill="url(#b)" opacity=".35"/><path d="m241.98 150.28c-4.51-2.8-8.42-6.47-11.51-10.8-13.33-18.25-9.35-43.84 8.9-57.17 1.91-1.39 3.94-2.62 6.06-3.67 1.62-.76 4.31-2.08 7.91-2.03 5.13.04 9.96 2.48 13.03 6.59 2.04 2.74 3.16 6.06 3.19 9.48 0-.1 12.42-40.36-40.56-40.36-22.26 0-40.56 21.09-40.56 39.65-.09 9.8 2.01 19.5 6.13 28.39 13.99 29.79 48.07 44.39 79.29 33.97-10.69 3.38-22.33 1.9-31.84-4.06h-.05z" fill="url(#c)"/><path d="m241.98 150.28c-4.51-2.8-8.42-6.47-11.51-10.8-13.33-18.25-9.35-43.84 8.9-57.17 1.91-1.39 3.94-2.62 6.06-3.67 1.62-.76 4.31-2.08 7.91-2.03 5.13.04 9.96 2.48 13.03 6.59 2.04 2.74 3.16 6.06 3.19 9.48 0-.1 12.42-40.36-40.56-40.36-22.26 0-40.56 21.09-40.56 39.65-.09 9.8 2.01 19.5 6.13 28.39 13.99 29.79 48.07 44.39 79.29 33.97-10.69 3.38-22.33 1.9-31.84-4.06h-.05z" fill="url(#d)" opacity=".41"/><path d="m265.65 103.39c-.46.51-1.72 1.27-1.72 2.84 0 1.32.86 2.64 2.43 3.7 7.25 5.07 20.99 4.36 21.04 4.36 5.4 0 10.71-1.46 15.36-4.21 9.53-5.57 15.39-15.78 15.41-26.82.15-11.36-4.06-18.91-5.73-22.26-10.8-20.99-33.97-33.06-59.17-33.06-35.49 0-64.4 28.5-64.89 63.98.25-18.51 18.66-33.46 40.56-33.46 1.77 0 11.91.15 21.29 5.07 6.59 3.27 12.05 8.45 15.67 14.85 3.09 5.37 3.65 12.22 3.65 14.96s-1.37 6.74-3.95 10.09l.05-.05z" fill="url(#e)"/><path d="m265.65 103.39c-.46.51-1.72 1.27-1.72 2.84 0 1.32.86 2.64 2.43 3.7 7.25 5.07 20.99 4.36 21.04 4.36 5.4 0 10.71-1.46 15.36-4.21 9.53-5.57 15.39-15.78 15.41-26.82.15-11.36-4.06-18.91-5.73-22.26-10.8-20.99-33.97-33.06-59.17-33.06-35.49 0-64.4 28.5-64.89 63.98.25-18.51 18.66-33.46 40.56-33.46 1.77 0 11.91.15 21.29 5.07 6.59 3.27 12.05 8.45 15.67 14.85 3.09 5.37 3.65 12.22 3.65 14.96s-1.37 6.74-3.95 10.09l.05-.05z" fill="url(#f)"/><circle cx="114.76" cy="181.23" fill="#fff" r="36.62"/><path d="m51.33 217.86c20.22 35.03 65.01 47.03 100.04 26.81s47.03-65.01 26.81-100.04-65.01-47.03-100.04-26.81c-35.03 20.22-47.03 65.01-26.8 100.04zm95.13-54.92c10.11 17.51 4.11 39.91-13.4 50.02s-39.91 4.11-50.02-13.4-4.11-39.91 13.4-50.02c17.51-10.11 39.91-4.11 50.02 13.4z" fill="none"/><path d="m114.76 144.63h63.41c-20.21-35.02-64.99-47.03-100.01-26.81-11.14 6.43-20.39 15.68-26.82 26.82l31.71 54.92h.03c-10.13-17.48-4.18-39.86 13.29-49.99 5.59-3.24 11.93-4.94 18.39-4.93z" fill="url(#g)"/><circle cx="114.76" cy="181.24" fill="#1a73e8" r="28.99"/><path d="m146.46 199.56-31.71 54.92c40.44 0 73.22-32.77 73.22-73.2 0-12.86-3.38-25.5-9.82-36.64h-63.41v.03c20.19-.04 36.59 16.3 36.63 36.5.01 6.46-1.69 12.81-4.92 18.4z" fill="url(#h)"/><path d="m83.05 199.56-31.71-54.92c-20.22 35.01-8.23 79.79 26.78 100.02 11.14 6.43 23.77 9.82 36.64 9.81l31.71-54.92-.02-.02c-10.07 17.51-32.42 23.55-49.93 13.48-5.6-3.22-10.25-7.86-13.47-13.46z" fill="url(#i)"/><path d="m444.78 153.77c0 30.25-25.47 54.78-56.89 54.78-31.42 0-56.89-24.53-56.89-54.78s25.47-54.78 56.89-54.78 56.89 24.53 56.89 54.78z" opacity=".53"/><path d="m446.94 148.93c0 32.61-26.44 59.05-59.05 59.05-32.61 0-59.05-26.44-59.05-59.05s26.44-59.05 59.05-59.05c32.61 0 59.05 26.44 59.05 59.05z" fill="url(#j)" stroke="#cdcdcd" stroke-linecap="round" stroke-linejoin="round" stroke-width=".26"/><path d="m442.31 148.93c0 30.06-24.37 54.43-54.43 54.43-30.06 0-54.43-24.37-54.43-54.43 0-30.06 24.37-54.43 54.43-54.43 30.06 0 54.43 24.37 54.43 54.43z" fill="url(#k)"/><path d="m387.89 97.34c-.44 0-.79.35-.79.79v9.15c0 .44.35.79.79.79s.79-.35.79-.79v-9.15c0-.44-.35-.79-.79-.79zm-5.19.33c-.05 0-.11 0-.16 0-.44.05-.75.43-.71.87l.4 3.83c.05.44.43.75.87.71.44-.05.75-.43.71-.87l-.4-3.83c-.04-.38-.34-.67-.71-.71zm10.42 0c-.37.04-.67.32-.71.71l-.4 3.83c-.05.44.27.83.71.87.44.05.83-.27.87-.71l.4-3.83c.05-.44-.27-.83-.71-.87-.05 0-.11 0-.16 0zm-15.75.77c-.05 0-.11 0-.16.02-.43.09-.7.51-.61.94l1.9 8.95c.09.43.51.7.94.61s.7-.51.61-.94l-1.9-8.95c-.08-.38-.41-.63-.78-.63zm21.08 0c-.37 0-.7.25-.78.63l-1.9 8.95c-.09.43.18.85.61.94s.85-.18.94-.61l1.9-8.95c.09-.43-.18-.85-.61-.94-.05-.01-.11-.02-.16-.02zm-26.17 1.43c-.1 0-.21 0-.31.04-.42.14-.65.58-.51 1l1.19 3.66c.14.42.58.65 1 .51s.65-.58.51-1l-1.19-3.66c-.1-.31-.38-.52-.69-.55zm31.23 0c-.31.03-.58.23-.69.55l-1.19 3.66c-.14.42.09.86.51 1s.86-.09 1-.51l1.19-3.66c.14-.42-.09-.86-.51-1-.1-.03-.21-.05-.31-.04zm-36.27 1.84c-.1 0-.21.02-.31.07-.4.18-.58.65-.4 1.05l3.72 8.36c.18.4.65.58 1.05.4s.58-.65.4-1.05l-3.72-8.36c-.13-.3-.43-.48-.74-.47zm41.35.03c-.31 0-.61.17-.74.47l-3.73 8.36c-.18.4 0 .87.4 1.05s.87 0 1.05-.4l3.73-8.36c.18-.4 0-.87-.4-1.05-.1-.04-.2-.07-.31-.07zm-46.03 2.44c-.15-.01-.31.02-.45.11-.38.22-.51.7-.29 1.08l1.93 3.33c.22.38.7.51 1.08.29s.51-.7.29-1.08l-1.93-3.33c-.14-.24-.38-.38-.63-.4zm50.63 0c-.25.02-.49.16-.63.4l-1.93 3.33c-.22.38-.09.86.29 1.08s.86.09 1.08-.29l1.93-3.33c.22-.38.09-.86-.29-1.08-.14-.08-.3-.12-.45-.11zm-55.17 2.83c-.15 0-.31.05-.44.15-.36.26-.43.75-.18 1.11l5.37 7.41c.26.36.75.43 1.11.18.36-.26.43-.75.18-1.11l-5.37-7.41c-.16-.22-.41-.34-.67-.33zm59.76.04c-.25 0-.51.1-.67.33l-5.38 7.4c-.26.36-.18.85.17 1.11.36.26.85.18 1.11-.17l5.38-7.4c.26-.36.18-.85-.17-1.11-.13-.1-.29-.15-.44-.15zm-63.82 3.36c-.2-.01-.41.06-.57.2-.33.29-.35.79-.06 1.12l2.58 2.86c.29.33.79.35 1.12.06s.35-.79.06-1.12l-2.58-2.86c-.15-.16-.35-.25-.55-.26zm67.82 0c-.2.01-.4.1-.55.26l-2.58 2.86c-.29.33-.27.83.06 1.12s.83.27 1.12-.06l2.58-2.86c.29-.33.27-.83-.06-1.12-.16-.15-.37-.21-.57-.2zm-71.71 3.73c-.2.01-.4.1-.55.26-.29.33-.27.83.06 1.12l6.8 6.12c.33.29.83.27 1.12-.06s.27-.83-.06-1.12l-6.8-6.12c-.16-.15-.37-.21-.57-.2zm75.61.03c-.2-.01-.41.06-.57.2l-6.81 6.12c-.33.29-.35.79-.06 1.12s.79.35 1.12.06l6.81-6.12c.33-.29.35-.79.06-1.12-.15-.16-.35-.25-.55-.26zm-78.84 4.13c-.25 0-.51.11-.67.33-.26.36-.18.85.18 1.11l3.11 2.26c.36.26.85.18 1.11-.18s.18-.85-.18-1.11l-3.11-2.26c-.13-.1-.29-.15-.44-.15zm82.07.03c-.15 0-.31.05-.44.15l-3.12 2.26c-.36.26-.43.75-.18 1.11.26.36.75.43 1.11.18l3.12-2.26c.36-.26.43-.75.18-1.11-.16-.22-.41-.34-.67-.33zm-85.09 4.4c-.25.02-.49.16-.63.4-.22.38-.09.86.29 1.08l7.93 4.58c.38.22.86.09 1.08-.29s.09-.86-.29-1.08l-7.93-4.58c-.14-.08-.3-.12-.45-.11zm88.09 0c-.15-.01-.31.02-.45.11l-7.93 4.58c-.38.22-.51.7-.29 1.08s.7.51 1.08.29l7.93-4.58c.38-.22.51-.7.29-1.08-.14-.24-.38-.38-.63-.4zm-90.37 4.72c-.31 0-.61.17-.74.47-.18.4 0 .87.4 1.05l3.52 1.57c.4.18.87 0 1.05-.4s0-.87-.4-1.05l-3.52-1.57c-.1-.04-.2-.07-.31-.07zm92.67.03c-.1 0-.21.02-.31.07l-3.52 1.57c-.4.18-.58.65-.4 1.05s.65.58 1.05.4l3.52-1.57c.4-.18.58-.65.4-1.05-.13-.3-.43-.48-.74-.47zm-94.71 4.91c-.31.03-.58.23-.69.55-.14.42.09.86.51 1l8.7 2.84c.42.14.86-.09 1-.51s-.09-.86-.51-1l-8.7-2.84c-.1-.03-.21-.05-.31-.04zm96.74.03c-.1 0-.21 0-.31.04l-8.7 2.83c-.42.14-.65.58-.51 1s.58.65 1 .51l8.7-2.83c.42-.14.65-.58.51-1-.1-.31-.38-.52-.69-.55zm-98.01 5.15c-.37 0-.7.25-.78.63-.09.43.18.85.61.94l3.77.8c.43.09.85-.18.94-.61s-.18-.85-.61-.94l-3.77-.8c-.05-.01-.11-.02-.16-.02zm99.26 0c-.05 0-.11 0-.16.02l-3.77.8c-.43.09-.7.51-.61.94s.51.7.94.61l3.77-.8c.43-.09.7-.51.61-.94-.08-.38-.41-.63-.78-.63zm-100.22 5.21c-.37.04-.67.32-.71.71-.05.44.27.83.71.87l9.1.96c.44.05.83-.27.87-.71.05-.44-.27-.83-.71-.87l-9.1-.96c-.05 0-.11 0-.16 0zm101.19.07c-.05 0-.11 0-.16 0l-9.1.95c-.44.05-.75.43-.71.87.05.44.43.75.87.71l9.1-.95c.44-.05.75-.43.71-.87-.04-.38-.34-.67-.71-.71zm-101.34 5.27c-.44 0-.79.35-.79.79s.35.79.79.79h3.85c.44 0 .79-.35.79-.79s-.35-.79-.79-.79zm97.64 0c-.44 0-.79.35-.79.79s.35.79.79.79h3.85c.44 0 .79-.35.79-.79s-.35-.79-.79-.79zm-88.23 4.33c-.05 0-.11 0-.16 0l-9.1.95c-.44.05-.75.43-.71.87.05.44.43.75.87.71l9.1-.95c.44-.05.75-.43.71-.87-.04-.38-.34-.67-.71-.71zm82.67.06c-.37.04-.67.32-.71.71-.05.44.27.83.71.87l9.1.96c.44.05.83-.27.87-.71.05-.44-.27-.83-.71-.87l-9.1-.96c-.05 0-.11 0-.16 0zm-87.21 5.36c-.05 0-.11 0-.16.02l-3.77.8c-.43.09-.7.51-.61.94s.51.7.94.61l3.77-.8c.43-.09.7-.51.61-.94-.08-.38-.41-.63-.78-.63zm91.75 0c-.37 0-.7.25-.78.63-.09.43.18.85.61.94l3.77.8c.43.09.85-.18.94-.61s-.18-.85-.61-.94l-3.77-.8c-.05-.01-.11-.02-.16-.02zm-85.41 3.13c-.1 0-.21 0-.31.04l-8.7 2.83c-.42.14-.65.58-.51 1s.58.65 1 .51l8.7-2.83c.42-.14.65-.58.51-1-.1-.31-.38-.52-.69-.55zm79.06.03c-.31.03-.58.23-.69.55-.14.42.09.86.51 1l8.7 2.84c.42.14.86-.09 1-.51s-.09-.86-.51-1l-8.7-2.84c-.1-.03-.21-.05-.31-.04zm-82.38 6.17c-.1 0-.21.02-.31.07l-3.52 1.57c-.4.18-.58.65-.4 1.05s.65.58 1.05.4l3.52-1.57c.4-.18.58-.65.4-1.05-.13-.3-.43-.48-.74-.47zm85.7.03c-.31 0-.61.17-.74.47-.18.4 0 .87.4 1.05l3.52 1.57c.4.18.87 0 1.05-.4s0-.87-.4-1.05l-3.52-1.57c-.1-.04-.2-.07-.31-.07zm-78.85 1.72c-.15-.01-.31.02-.45.11l-7.93 4.58c-.38.22-.51.7-.29 1.08s.7.51 1.08.29l7.93-4.58c.38-.22.51-.7.29-1.08-.14-.24-.38-.38-.63-.4zm72.01 0c-.25.02-.49.16-.63.4-.22.38-.09.86.29 1.08l7.93 4.58c.38.22.86.09 1.08-.29s.09-.86-.29-1.08l-7.93-4.58c-.14-.08-.3-.12-.45-.11zm-73.99 6.72c-.15 0-.31.05-.44.15l-3.12 2.26c-.36.26-.43.75-.18 1.11.26.36.75.43 1.11.18l3.12-2.26c.36-.26.43-.75.18-1.11-.16-.22-.42-.34-.67-.33zm75.95.03c-.25 0-.51.11-.67.33-.26.36-.18.85.18 1.11l3.11 2.26c.36.26.85.18 1.11-.18s.18-.85-.18-1.11l-3.11-2.26c-.13-.1-.29-.15-.44-.15zm-68.89.27c-.2-.01-.41.06-.57.2l-6.81 6.12c-.33.29-.35.79-.06 1.12s.79.35 1.12.06l6.81-6.12c.33-.29.35-.79.06-1.12-.15-.16-.35-.25-.55-.26zm61.83.02c-.2.01-.4.1-.55.26-.29.33-.27.83.06 1.12l6.8 6.12c.33.29.83.27 1.12-.06s.27-.83-.06-1.12l-6.8-6.12c-.16-.15-.37-.21-.57-.2zm-55.38 5.81c-.25 0-.51.1-.67.33l-5.38 7.4c-.26.36-.18.85.17 1.11.36.26.85.18 1.11-.17l5.38-7.4c.26-.36.18-.85-.17-1.11-.13-.1-.29-.15-.44-.15zm48.89.03c-.15 0-.31.05-.44.15-.36.26-.43.75-.18 1.11l5.37 7.41c.26.36.75.43 1.11.18.36-.26.43-.75.18-1.11l-5.37-7.41c-.16-.22-.41-.34-.67-.33zm-55.84 1.14c-.2.01-.4.1-.55.26l-2.58 2.86c-.29.33-.27.83.06 1.12s.83.27 1.12-.06l2.58-2.86c.29-.33.27-.83-.06-1.12-.16-.15-.37-.21-.57-.2zm62.83 0c-.2-.01-.41.06-.57.2-.33.29-.35.79-.06 1.12l2.58 2.86c.29.33.79.35 1.12.06s.35-.79.06-1.12l-2.58-2.86c-.15-.16-.35-.25-.55-.26zm-48.36 3.17c-.31 0-.61.17-.74.47l-3.73 8.36c-.18.4 0 .87.4 1.05s.87 0 1.05-.4l3.73-8.36c.18-.4 0-.87-.4-1.05-.1-.04-.21-.07-.31-.07zm33.85.02c-.1 0-.21.02-.31.07-.4.18-.58.65-.4 1.05l3.72 8.36c.18.4.65.58 1.05.4s.58-.65.4-1.05l-3.72-8.36c-.13-.3-.43-.48-.74-.47zm-40.4 2.56c-.25.02-.49.16-.63.4l-1.93 3.33c-.22.38-.09.86.29 1.08s.86.09 1.08-.29l1.93-3.33c.22-.38.09-.86-.29-1.08-.14-.08-.3-.12-.45-.11zm47.01 0c-.15-.01-.31.02-.45.11-.38.22-.51.7-.29 1.08l1.93 3.33c.22.38.7.51 1.08.29s.51-.7.29-1.08l-1.93-3.33c-.14-.24-.38-.38-.63-.4zm-32.15.12c-.37 0-.7.25-.78.63l-1.9 8.95c-.09.43.18.85.61.94s.85-.18.94-.61l1.9-8.95c.09-.43-.18-.85-.61-.94-.05-.01-.11-.02-.16-.02zm17.27 0c-.05 0-.11 0-.16.02-.43.09-.7.51-.61.94l1.9 8.95c.09.43.51.7.94.61s.7-.51.61-.94l-1.9-8.95c-.08-.38-.41-.63-.78-.63zm-8.62.9c-.44 0-.79.35-.79.79v9.15c0 .44.35.79.79.79s.79-.35.79-.79v-9.15c0-.44-.35-.79-.79-.79zm-14.57 2.96c-.31.03-.58.23-.69.55l-1.19 3.66c-.14.42.09.86.51 1s.86-.09 1-.51l1.19-3.66c.14-.42-.09-.86-.51-1-.1-.03-.21-.05-.31-.04zm29.13 0c-.1 0-.21 0-.31.04-.42.14-.65.58-.51 1l1.19 3.66c.14.42.58.65 1 .51s.65-.58.51-1l-1.19-3.66c-.1-.31-.38-.52-.69-.55zm-19.54 2.04c-.37.04-.67.32-.71.71l-.4 3.83c-.05.44.27.83.71.87s.83-.27.87-.71l.4-3.83c.05-.44-.27-.83-.71-.87-.05 0-.11 0-.16 0zm9.93 0c-.05 0-.11 0-.16 0-.44.05-.75.43-.71.87l.4 3.83c.05.44.43.75.87.71.44-.05.75-.43.71-.87l-.4-3.83c-.04-.38-.34-.67-.71-.71z" fill="#f4f2f3"/><path d="m425.08 117.19-43.41 25.22-27.45 43.21 40.16-29.74 30.71-38.69z" opacity=".41"/><path d="m394.11 155.45-12.44-13.03 44.14-29.7z" fill="#ff5150"/><path d="m394.11 155.45-12.44-13.03-31.7 42.73z" fill="#f1f1f1"/><path d="m349.97 185.14 44.14-29.7 31.7-42.73-75.84 72.42z" opacity=".24"/><path d="m470.12 250.92c-1.65-3.98-5.01-8.28-7.63-9.63 1.87 3.63 3.17 7.52 3.85 11.55v.06c-4.3-10.72-11.59-15.05-17.55-24.47-.3-.48-.6-.95-.9-1.46-.17-.29-.3-.55-.42-.79-.25-.48-.44-.98-.57-1.51 0-.05-.04-.09-.09-.1-.02 0-.05 0-.07 0 0 0-.01 0-.02.01s-.02.01-.03.01v-.03c-9.54 5.6-12.79 15.96-13.08 21.14-3.82.26-7.47 1.67-10.48 4.04-.31-.27-.64-.51-.98-.74-.87-3.04-.9-6.25-.11-9.3-3.51 1.7-6.63 4.11-9.16 7.08h-.02c-1.51-1.91-1.4-8.22-1.32-9.53-.45.18-.87.41-1.27.67-1.33.95-2.58 2.02-3.72 3.19-1.3 1.32-2.49 2.75-3.56 4.27s0 0 0 0c-2.45 3.47-4.18 7.39-5.11 11.53l-.05.25c-.07.33-.33 2.01-.37 2.38v.08c-.33 1.73-.54 3.49-.62 5.25v.2c.04 21.02 17.11 38.03 38.13 37.99 18.49-.03 34.28-13.34 37.43-31.56.06-.49.12-.98.17-1.47.78-6.48-.06-13.05-2.47-19.12zm-43.87 29.79c.18.09.34.18.53.26l.03.02c-.18-.09-.37-.18-.55-.28zm40.09-27.8v-.04.04s0 0 0 0z" fill="url(#l)"/><path d="m470.12 250.92c-1.65-3.98-5.01-8.28-7.63-9.63 1.87 3.63 3.17 7.52 3.85 11.55v.08c2.94 8.4 2.52 17.6-1.18 25.69-4.36 9.36-14.92 18.95-31.44 18.48-17.85-.51-33.58-13.76-36.52-31.11-.54-2.74 0-4.12.27-6.35-.37 1.73-.57 3.49-.61 5.25v.2c.04 21.02 17.11 38.03 38.13 37.99 18.49-.03 34.28-13.34 37.43-31.56.06-.49.12-.98.17-1.47.78-6.48-.06-13.05-2.47-19.12z" fill="url(#m)"/><path d="m470.12 250.92c-1.65-3.98-5.01-8.28-7.63-9.63 1.87 3.63 3.17 7.52 3.85 11.55v.08c2.94 8.4 2.52 17.6-1.18 25.69-4.36 9.36-14.92 18.95-31.44 18.48-17.85-.51-33.58-13.76-36.52-31.11-.54-2.74 0-4.12.27-6.35-.37 1.73-.57 3.49-.61 5.25v.2c.04 21.02 17.11 38.03 38.13 37.99 18.49-.03 34.28-13.34 37.43-31.56.06-.49.12-.98.17-1.47.78-6.48-.06-13.05-2.47-19.12z" fill="url(#n)"/><path d="m451.62 255.39c.08.06.16.12.24.17-.96-1.7-2.15-3.25-3.54-4.61-11.83-11.83-3.1-25.65-1.63-26.36v-.02c-9.54 5.6-12.79 15.96-13.08 21.14.44-.03.88-.07 1.34-.07 6.9.01 13.27 3.73 16.67 9.74z" fill="url(#o)"/><path d="m434.97 257.76c-.06.95-3.41 4.21-4.58 4.21-10.82 0-12.58 6.55-12.58 6.55.48 5.51 4.32 10.06 8.96 12.45.21.11.43.21.64.31.37.16.74.32 1.12.46 1.59.56 3.26.89 4.95.96 18.97.89 22.64-22.68 8.95-29.53 3.23-.42 6.5.37 9.18 2.23-3.4-6.01-9.77-9.72-16.67-9.74-.45 0-.89.04-1.34.07-3.82.26-7.47 1.67-10.48 4.04.58.49 1.24 1.15 2.62 2.51 2.58 2.54 9.21 5.18 9.22 5.49z" fill="url(#p)"/><path d="m434.97 257.76c-.06.95-3.41 4.21-4.58 4.21-10.82 0-12.58 6.55-12.58 6.55.48 5.51 4.32 10.06 8.96 12.45.21.11.43.21.64.31.37.16.74.32 1.12.46 1.59.56 3.26.89 4.95.96 18.97.89 22.64-22.68 8.95-29.53 3.23-.42 6.5.37 9.18 2.23-3.4-6.01-9.77-9.72-16.67-9.74-.45 0-.89.04-1.34.07-3.82.26-7.47 1.67-10.48 4.04.58.49 1.24 1.15 2.62 2.51 2.58 2.54 9.21 5.18 9.22 5.49z" fill="url(#q)"/><path d="m421.36 248.5c.31.2.56.37.79.52-.87-3.04-.9-6.25-.11-9.3-3.51 1.7-6.63 4.11-9.16 7.08.19 0 5.71-.1 8.48 1.7z" fill="url(#r)"/><path d="m397.19 265.98c2.94 17.35 18.67 30.61 36.52 31.11 16.53.47 27.08-9.13 31.44-18.48 3.69-8.09 4.12-17.29 1.18-25.69v-.04s0-.05 0-.04v.06c1.36 8.82-3.13 17.35-10.14 23.14l-.02.05c-13.66 11.13-26.73 6.71-29.37 4.91-.18-.09-.37-.18-.55-.28-7.96-3.81-11.25-11.06-10.55-17.28-3.86.06-7.39-2.17-9.02-5.67 4.25-2.6 9.55-2.82 13.99-.56 4.51 2.05 9.63 2.25 14.29.56-.01-.31-6.64-2.95-9.22-5.49-1.38-1.36-2.03-2.02-2.62-2.51-.31-.27-.64-.51-.98-.74-.23-.15-.48-.32-.79-.52-2.78-1.8-8.3-1.71-8.48-1.7h-.02c-1.51-1.91-1.4-8.22-1.32-9.53-.45.18-.87.41-1.27.67-1.33.95-2.58 2.02-3.72 3.19-1.31 1.32-2.5 2.74-3.57 4.26s0 0 0 0c-2.45 3.47-4.18 7.39-5.11 11.53-.02.08-1.37 5.99-.7 9.05z" fill="url(#s)"/><path d="m448.32 250.95c1.39 1.36 2.58 2.92 3.54 4.62.21.16.4.32.57.47 8.63 7.95 4.11 19.2 3.77 19.99 7.01-5.78 11.49-14.32 10.14-23.14-4.31-10.73-11.61-15.06-17.56-24.48-.3-.48-.6-.95-.9-1.46-.17-.29-.3-.55-.42-.79-.25-.48-.44-.98-.57-1.51 0-.05-.04-.09-.09-.1-.02 0-.05 0-.07 0 0 0-.01 0-.02.01s-.02.01-.03.01c-1.47.7-10.2 14.52 1.63 26.35v.02z" fill="url(#t)"/><path d="m452.43 256.04c-.17-.15-.36-.31-.57-.47-.08-.06-.15-.12-.24-.17-2.68-1.85-5.95-2.65-9.18-2.23 13.69 6.84 10.02 30.41-8.95 29.53-1.69-.07-3.36-.39-4.95-.96-.37-.14-.74-.29-1.12-.46-.22-.1-.43-.2-.64-.31l.03.02c2.65 1.81 15.71 6.22 29.37-4.91l.02-.05c.34-.8 4.86-12.04-3.77-19.99z" fill="url(#u)"/><path d="m417.81 268.51s1.76-6.55 12.58-6.55c1.17 0 4.52-3.27 4.58-4.21-4.65 1.69-9.78 1.48-14.29-.56-4.45-2.25-9.74-2.04-13.99.56 1.62 3.51 5.15 5.73 9.02 5.67-.71 6.22 2.58 13.47 10.55 17.28.18.09.34.18.53.26-4.65-2.4-8.49-6.94-8.96-12.45z" fill="url(#v)"/><path d="m470.12 250.92c-1.65-3.98-5.01-8.28-7.63-9.63 1.87 3.63 3.17 7.52 3.85 11.55v.06c-4.3-10.72-11.59-15.05-17.55-24.47-.3-.48-.6-.95-.9-1.46-.17-.29-.3-.55-.42-.79-.25-.48-.44-.98-.57-1.51 0-.05-.04-.09-.09-.1-.02 0-.05 0-.07 0 0 0-.01 0-.02.01s-.02.01-.03.01v-.03c-9.54 5.6-12.79 15.96-13.08 21.14.44-.03.88-.07 1.34-.07 6.9.01 13.27 3.73 16.67 9.74-2.68-1.85-5.95-2.65-9.18-2.23 13.69 6.84 10.02 30.41-8.95 29.53-1.69-.07-3.36-.39-4.95-.96-.37-.14-.74-.29-1.12-.46-.22-.1-.43-.2-.64-.31l.03.02c-.18-.09-.37-.18-.55-.28.18.09.34.18.53.26-4.65-2.4-8.49-6.94-8.96-12.45 0 0 1.76-6.55 12.58-6.55 1.17 0 4.52-3.27 4.58-4.21-.01-.31-6.64-2.95-9.22-5.49-1.38-1.36-2.03-2.02-2.62-2.51-.31-.27-.64-.51-.98-.74-.87-3.04-.9-6.25-.11-9.3-3.51 1.7-6.63 4.11-9.16 7.08h-.02c-1.51-1.91-1.4-8.22-1.32-9.53-.45.18-.87.41-1.27.67-1.33.95-2.58 2.02-3.72 3.19-1.3 1.32-2.49 2.75-3.56 4.27s0 0 0 0c-2.45 3.47-4.18 7.39-5.11 11.53l-.05.25c-.07.33-.39 2.04-.44 2.4-.29 1.76-.48 3.53-.56 5.31v.2c.04 21.02 17.11 38.03 38.13 37.99 18.49-.03 34.28-13.34 37.43-31.56.06-.49.12-.98.17-1.47.78-6.48-.06-13.05-2.47-19.12zm-3.78 1.96v.04s0-.04 0-.04z" fill="url(#w)"/></svg>