<svg viewBox="0 0 528 418" xmlns="http://www.w3.org/2000/svg"><rect fill="#eef0f2" height="350" rx="12" width="488" x="20"/><path d="m32 0h464c6.62 0 12 5.38 12 12v28h-488v-28c0-6.62 5.38-12 12-12z" fill="#d1d8dc"/><circle cx="40" cy="20" fill="#db5757" r="8"/><circle cx="64" cy="20" fill="#eebd2b" r="8"/><circle cx="88" cy="20" fill="#5cad5c" r="8"/><path d="m144.94 126.76c-11.03 0-20-8.97-20-20s8.97-20 20-20 20 8.97 20 20-8.97 20-20 20zm0-33.33c-7.35 0-13.33 5.98-13.33 13.33s5.98 13.33 13.33 13.33 13.33-5.98 13.33-13.33-5.98-13.33-13.33-13.33z" fill="#eca713"/><path d="m144.94 80.09c-1.84 0-3.33-1.49-3.33-3.33v-6.67c0-1.84 1.49-3.33 3.33-3.33s3.33 1.49 3.33 3.33v6.67c0 1.84-1.49 3.33-3.33 3.33z" fill="#eca713"/><path d="m144.94 146.76c-1.84 0-3.33-1.49-3.33-3.33v-6.67c0-1.84 1.49-3.33 3.33-3.33s3.33 1.49 3.33 3.33v6.67c0 1.84-1.49 3.33-3.33 3.33z" fill="#eca713"/><path d="m123.74 88.89c-.85 0-1.71-.33-2.36-.98l-4.73-4.73c-1.3-1.3-1.3-3.41 0-4.71s3.41-1.3 4.71 0l4.73 4.73c1.3 1.3 1.3 3.41 0 4.71-.65.65-1.5.98-2.36.98z" fill="#eca713"/><path d="m170.87 136.03c-.85 0-1.71-.33-2.36-.98l-4.73-4.73c-1.3-1.3-1.3-3.41 0-4.71s3.41-1.3 4.71 0l4.73 4.73c1.3 1.3 1.3 3.41 0 4.71-.65.65-1.5.98-2.36.98z" fill="#eca713"/><path d="m114.94 110.09h-6.67c-1.84 0-3.33-1.49-3.33-3.33s1.49-3.33 3.33-3.33h6.67c1.84 0 3.33 1.49 3.33 3.33s-1.49 3.33-3.33 3.33z" fill="#eca713"/><path d="m181.61 110.09h-6.67c-1.84 0-3.33-1.49-3.33-3.33s1.49-3.33 3.33-3.33h6.67c1.84 0 3.33 1.49 3.33 3.33s-1.49 3.33-3.33 3.33z" fill="#eca713"/><path d="m119.01 136.03c-.85 0-1.71-.33-2.36-.98-1.3-1.3-1.3-3.41 0-4.71l4.73-4.73c1.3-1.3 3.41-1.3 4.71 0s1.3 3.41 0 4.71l-4.73 4.73c-.65.65-1.5.98-2.36.98z" fill="#eca713"/><path d="m166.14 88.89c-.85 0-1.71-.33-2.36-.98-1.3-1.3-1.3-3.41 0-4.71l4.73-4.73c1.3-1.3 3.41-1.3 4.71 0s1.3 3.41 0 4.71l-4.73 4.73c-.65.65-1.5.98-2.36.98z" fill="#eca713"/><path d="m274 40h234v298c0 6.62-5.38 12-12 12h-222z" fill="#596c75"/><path d="m390.78 138.42c-.97 0-1.95-.04-2.94-.14-17.42-1.61-30.28-17.09-28.67-34.51 1.41-15.21 13.46-27.27 28.67-28.67 1.24-.11 2.44.51 3.06 1.6.61 1.09.53 2.44-.21 3.44-6.24 8.44-4.45 20.38 3.99 26.62 6.77 5 15.86 5 22.63 0 1.01-.74 2.35-.83 3.44-.21 1.09.61 1.72 1.81 1.6 3.06-1.52 16.43-15.38 28.81-31.57 28.81zm-8.66-55.6c-9.07 3.28-15.71 11.56-16.64 21.53-1.29 13.94 9 26.32 22.94 27.61 11.73 1.08 22.36-6.03 26.2-16.62-7.84 2.86-16.71 1.7-23.72-3.48-9.23-6.82-12.5-18.76-8.78-29.05z" fill="#68abde"/><path d="m321.12 176.4h16v16h-16z" fill="#667a85"/><path d="m340.43 176.4h16v16h-16z" fill="#667a85"/><path d="m359.74 176.4h16v16h-16z" fill="#667a85"/><path d="m379.04 176.4h16v16h-16z" fill="#667a85"/><path d="m398.35 176.4h16v16h-16z" fill="#667a85"/><path d="m417.65 176.4h16v16h-16z" fill="#667a85"/><path d="m436.96 176.4h16v16h-16z" fill="#667a85"/><path d="m456.27 176.4h16v16h-16z" fill="#667a85"/><path d="m321.12 213h16v16h-16z" fill="#667a85"/><path d="m340.43 213h16v16h-16z" fill="#667a85"/><path d="m359.74 213h16v16h-16z" fill="#667a85"/><path d="m379.04 213h16v16h-16z" fill="#667a85"/><path d="m398.35 213h16v16h-16z" fill="#667a85"/><path d="m417.65 213h16v16h-16z" fill="#667a85"/><path d="m321.12 249.59h16v16h-16z" fill="#667a85"/><path d="m340.43 249.59h16v16h-16z" fill="#667a85"/><path d="m359.74 249.59h16v16h-16z" fill="#667a85"/><path d="m379.04 249.59h16v16h-16z" fill="#667a85"/><path d="m321.12 286.19h16v16h-16z" fill="#667a85"/><path d="m340.43 286.19h16v16h-16z" fill="#667a85"/><path d="m359.74 286.19h16v16h-16z" fill="#667a85"/><path d="m379.04 286.19h16v16h-16z" fill="#667a85"/><path d="m398.35 286.19h16v16h-16z" fill="#667a85"/><path d="m417.65 286.19h16v16h-16z" fill="#667a85"/><g fill="#d1d8dc"><path d="m75.37 176.4h16v16h-16z"/><path d="m94.67 176.4h16v16h-16z"/><path d="m113.98 176.4h16v16h-16z"/><path d="m133.29 176.4h16v16h-16z"/><path d="m152.59 176.4h16v16h-16z"/><path d="m171.9 176.4h16v16h-16z"/><path d="m191.2 176.4h16v16h-16z"/><path d="m210.51 176.4h16v16h-16z"/><path d="m75.37 213h16v16h-16z"/><path d="m94.67 213h16v16h-16z"/><path d="m113.98 213h16v16h-16z"/><path d="m133.29 213h16v16h-16z"/><path d="m152.59 213h16v16h-16z"/><path d="m171.9 213h16v16h-16z"/><path d="m75.37 249.59h16v16h-16z"/><path d="m94.67 249.59h16v16h-16z"/><path d="m113.98 249.59h16v16h-16z"/><path d="m133.29 249.59h16v16h-16z"/><path d="m75.37 286.19h16v16h-16z"/><path d="m94.67 286.19h16v16h-16z"/><path d="m113.98 286.19h16v16h-16z"/><path d="m133.29 286.19h16v16h-16z"/><path d="m152.59 286.19h16v16h-16z"/><path d="m171.9 286.19h16v16h-16z"/></g><path d="m162 399.5c0 6.35-27.09 10.5-60.5 10.5s-60.5-4.15-60.5-10.5 27.09-9.5 60.5-9.5 60.5 3.15 60.5 9.5z" opacity=".1"/><path d="m121.95 380.19s29.39 5.95 22.55 14.72-19.53 6.06-37.28-4.82 14.73-9.9 14.73-9.9z" fill="#fff"/><path d="m93.15 381.68s14.24 20.91-15.64 21.31-16.64-25.1 15.64-21.31z" fill="#fff"/><path d="m135.17 354.78s29.22-10.8 25.5-18.55-7.83-14.13-30.87 1.06 5.36 17.49 5.36 17.49z" fill="#fff"/><path d="m131.71 377.12s10.72-19.04-5.39-39.61c-9.23-11.79-25.64-14.47-34.8-11.93-9.43 2.62-26.94 5.26-25.78 36.36 1.47 39.18 56.62 31.16 65.97 15.18z" fill="#2e8ad1"/><path d="m58.69 350.28s-18.49 25.07-11.13 29.51 14.3 7.52 25.22-17.83-14.09-11.68-14.09-11.68z" fill="#fff"/><path d="m112.73 340.34s-.2 19.18-6.37 16.42-14.82-14.68-14.82-14.68l21.2-1.74z" fill="#fff"/><path d="m120.13 348.61c.64 2.51 3.41 4.45 8.21 5.77 3.43.94 6.63 1.2 6.76 1.21.12 0 .24 0 .35-.05.09-.03 9.44-3.51 16.85-7.88.24-.14.39-.4.4-.68 0-.28-.13-.54-.36-.7-5.44-3.64-8.86-8.94-9.63-14.93-.04-.32-.07-.64-.1-.96-.02-.26-.17-.5-.4-.63-.16-.09-.34-.13-.52-.11-.08.01-.15.03-.23.06-3.49 1.56-7.45 3.81-12.11 6.88-7.09 4.67-10.11 8.6-9.23 12z" fill="#2e8ad1"/><path d="m50.31 361.79c3.55-6.32 7.68-11.94 7.73-11.99.07-.1.16-.17.26-.23 1.21-.66 11.98-6.36 16.35-2.39 2.6 2.36 2.23 7.3-1.13 15.1-1.65 3.83-3.28 7.17-4.84 9.91-.13.23-.37.38-.63.41-.06 0-.12 0-.18 0-.2-.03-.38-.12-.52-.28-4.04-4.79-9.89-8.1-16.48-9.33-.26-.05-.48-.22-.59-.45s-.1-.51.03-.74z" fill="#2e8ad1"/><path d="m144.82 332.18c5.46-6.47 16.24-35.61-8.27-54.2-16.54-12.55-25.48-9.4-40.07-31.03 0 0-1.12-4.09-4.12 1.26 0 0-10.93 17.97-36.87 34.72-37.14 26.79-10.67 66.83 7.28 68.43 35.49 6.38 76.59-12.72 82.05-19.19z" fill="#2e8ad1"/><path d="m105.37 344s24.81-4.28 31.13-14.72 4.57-26.65-6.44-31.48c-8-3.51-18.54-2.85-32.69.12s-33.86 13.14-27.6 35.67c4.98 17.9 24.39 11.6 35.6 10.4z" fill="#fff"/><path d="m105.98 289.46s7.3-.49 8.09-3.98c1.15-5.05-5.9-4.55-7.72-4.23-3.52.62-7.34.83-7.75 4.02-.5 3.88 4.63 4.19 7.38 4.18z" fill="#eed12b"/><path d="m124.19 312.77s.54-10.43-3.16-10.1c-4.41.39-4.12 6.74-3.73 10.02s1.18 6.61 3.67 6.13c1.63-.32 2.86-3.27 3.22-6.05z" fill="#2f97a2"/><path d="m99.06 317.23s.58-11.37-3.44-11.01c-4.81.43-4.49 7.34-4.07 10.92s1.28 7.21 4 6.68c1.78-.34 3.11-3.56 3.51-6.59z" fill="#2f97a2"/><path d="m98.39 336.47c1.11.14 2.22.13 3.32-.03 4.59-.69 7.86-3.93 9.58-6.12 3.37 2.43 6.4 3.24 9.02 2.4 4.03-1.3 5.16-5.94 5.2-6.13.27-1.15-.45-2.3-1.61-2.57-1.15-.27-2.3.44-2.57 1.58-.02.06-.68 2.53-2.36 3.05-1.52.48-3.92-.6-6.73-3.04-.49-.42-1.14-.6-1.78-.5-.64.11-1.19.5-1.51 1.06-.03.05-3.08 5.33-7.92 6.04-2.96.44-6.14-.93-9.45-4.07-.86-.81-2.22-.78-3.04.07s-.78 2.21.08 3.02c3.23 3.06 6.5 4.81 9.76 5.23z" fill="#2e8ad1"/></svg>