<svg viewBox="0 0 528 418" xmlns="http://www.w3.org/2000/svg"><path d="m479 384c0 12.7-49.7 21-111 21s-111-8.3-111-21 49.7-19 111-19 111 6.3 111 19z" fill="#171717" opacity=".1"/><rect fill="#475569" height="350" rx="12" width="488" x="20"/><path d="m32 0h464c6.62 0 12 5.38 12 12v28h-488v-28c0-6.62 5.38-12 12-12z" fill="#cbd5e1"/><circle cx="40" cy="20" fill="#dc2626" r="8"/><circle cx="64" cy="20" fill="#eab308" r="8"/><circle cx="88" cy="20" fill="#22c55e" r="8"/><rect fill="#fff" height="53" rx="7" width="128" x="77" y="69"/><path d="m198 70c3.31 0 6 2.69 6 6v39c0 3.31-2.69 6-6 6h-114c-3.31 0-6-2.69-6-6v-39c0-3.31 2.69-6 6-6zm0-2h-114c-4.4 0-8 3.6-8 8v39c0 4.4 3.6 8 8 8h114c4.4 0 8-3.6 8-8v-39c0-4.4-3.6-8-8-8z" fill="#06b6d4"/><path d="m97.91 104.03c-.79 0-1.41-.24-1.88-.72s-.7-1.1-.7-1.85.23-1.34.7-1.81c.46-.47 1.09-.71 1.88-.71s1.44.24 1.89.71c.46.47.68 1.08.68 1.81s-.23 1.37-.68 1.85c-.46.48-1.09.72-1.89.72z" fill="#06b6d4"/><path d="m111.36 104.16c-.86 0-1.64-.18-2.35-.55s-1.24-.86-1.59-1.47c-.14 1.31-.89 1.97-2.26 1.97-1.54 0-2.31-.79-2.31-2.36v-14.26c0-1.58.77-2.36 2.31-2.36.75 0 1.33.2 1.75.6.41.4.62.99.62 1.76v5.02c.37-.56.9-1.01 1.59-1.34s1.44-.5 2.25-.5c1.12 0 2.11.27 2.96.81s1.51 1.32 1.98 2.33.71 2.21.71 3.61-.24 2.58-.72 3.6-1.15 1.79-2 2.34c-.85.54-1.83.81-2.93.81zm-1.47-3.44c.7 0 1.28-.26 1.73-.79.46-.53.68-1.37.68-2.52s-.23-2.02-.68-2.53c-.46-.52-1.03-.78-1.73-.78s-1.3.26-1.76.78-.68 1.36-.68 2.53.23 2 .68 2.52 1.04.79 1.76.79z" fill="#06b6d4"/><path d="m123.97 104.16c-1.68 0-2.92-.46-3.72-1.38s-1.2-2.33-1.2-4.22v-5.52c0-1.56.78-2.34 2.34-2.34.75 0 1.33.2 1.73.6s.6.98.6 1.73v5.65c0 1.26.54 1.89 1.63 1.89.63 0 1.15-.23 1.55-.68.4-.46.6-1.06.6-1.81v-5.04c0-1.56.78-2.34 2.34-2.34.75 0 1.33.2 1.73.6s.6.98.6 1.73v8.69c0 1.58-.75 2.36-2.26 2.36-1.35 0-2.11-.63-2.29-1.89-.84 1.3-2.07 1.94-3.68 1.94z" fill="#06b6d4"/><path d="m141.7 104.16c-1.96 0-3.41-.46-4.36-1.37s-1.42-2.29-1.42-4.12v-4.28h-.89c-1.17 0-1.76-.58-1.76-1.73s.59-1.71 1.76-1.71h.89v-1.63c0-.77.2-1.36.6-1.76s.98-.6 1.73-.6c1.56 0 2.34.79 2.34 2.36v1.63h2.15c1.19 0 1.79.57 1.79 1.71s-.6 1.73-1.79 1.73h-2.15v4.12c0 1.26.64 1.89 1.92 1.89.25 0 .48-.03.71-.08s.44-.08.63-.08c.28-.02.51.07.68.25s.26.6.26 1.25c0 .53-.08.97-.24 1.33s-.44.62-.84.77c-.25.09-.58.16-1 .22s-.76.09-1.02.09z" fill="#06b6d4"/><path d="m152.88 104.16c-1.96 0-3.41-.46-4.36-1.37s-1.42-2.29-1.42-4.12v-4.28h-.89c-1.17 0-1.76-.58-1.76-1.73s.59-1.71 1.76-1.71h.89v-1.63c0-.77.2-1.36.6-1.76s.98-.6 1.73-.6c1.56 0 2.34.79 2.34 2.36v1.63h2.15c1.19 0 1.79.57 1.79 1.71s-.6 1.73-1.79 1.73h-2.15v4.12c0 1.26.64 1.89 1.92 1.89.25 0 .48-.03.71-.08s.44-.08.63-.08c.28-.02.51.07.68.25s.26.6.26 1.25c0 .53-.08.97-.24 1.33s-.44.62-.84.77c-.25.09-.58.16-1 .22s-.76.09-1.02.09z" fill="#06b6d4"/><path d="m163.84 104.16c-1.44 0-2.69-.27-3.76-.81s-1.9-1.32-2.5-2.34-.89-2.21-.89-3.6.3-2.6.89-3.61 1.43-1.78 2.5-2.33c1.07-.54 2.32-.81 3.76-.81s2.69.27 3.76.81 1.89 1.32 2.48 2.33.88 2.21.88 3.61-.29 2.58-.88 3.6-1.41 1.79-2.48 2.34c-1.07.54-2.32.81-3.76.81zm0-3.44c.7 0 1.28-.26 1.73-.79.46-.53.68-1.37.68-2.52s-.23-2.02-.68-2.53c-.46-.52-1.03-.78-1.73-.78s-1.3.26-1.76.78-.68 1.36-.68 2.53.23 2 .68 2.52 1.04.79 1.76.79z" fill="#06b6d4"/><path d="m175.42 104.11c-.75 0-1.33-.2-1.72-.6s-.59-.99-.59-1.76v-8.69c0-1.56.76-2.34 2.29-2.34 1.38 0 2.14.67 2.26 2.02.44-.67 1.02-1.18 1.75-1.54s1.54-.54 2.43-.54c1.54 0 2.68.46 3.43 1.37.74.91 1.12 2.31 1.12 4.2v5.52c0 .77-.2 1.36-.6 1.76s-.98.6-1.73.6-1.33-.2-1.73-.6-.6-.99-.6-1.76v-5.33c0-.79-.14-1.35-.41-1.68s-.67-.5-1.2-.5c-.7 0-1.26.22-1.68.67s-.63 1.05-.63 1.8v5.04c0 1.58-.79 2.36-2.36 2.36z" fill="#06b6d4"/><rect fill="#fff" height="53" rx="7" width="138" x="317" y="69"/><path d="m448 70c3.31 0 6 2.69 6 6v39c0 3.31-2.69 6-6 6h-124c-3.31 0-6-2.69-6-6v-39c0-3.31 2.69-6 6-6zm0-2h-124c-4.4 0-8 3.6-8 8v39c0 4.4 3.6 8 8 8h124c4.4 0 8-3.6 8-8v-39c0-4.4-3.6-8-8-8z" fill="#f59e0b"/><path d="m337.57 104.03c-.79 0-1.41-.24-1.88-.72s-.7-1.1-.7-1.85.23-1.34.7-1.81c.46-.47 1.09-.71 1.88-.71s1.44.24 1.89.71c.46.47.68 1.08.68 1.81s-.23 1.37-.68 1.85c-.46.48-1.09.72-1.89.72z" fill="#f59e0b"/><path d="m344.82 88.85c-.82 0-1.46-.19-1.9-.58-.45-.38-.67-.95-.67-1.68s.22-1.27.67-1.65 1.08-.58 1.9-.58c1.73 0 2.6.74 2.6 2.23 0 .74-.22 1.3-.67 1.68s-1.09.58-1.93.58zm0 15.26c-.75 0-1.33-.22-1.72-.66s-.59-1.07-.59-1.89v-8.3c0-.82.2-1.45.59-1.89s.97-.66 1.72-.66 1.33.22 1.75.66.62 1.07.62 1.89v8.3c0 .82-.2 1.45-.6 1.89s-.99.66-1.76.66z" fill="#f59e0b"/><path d="m355.04 104.16c-.79 0-1.58-.06-2.36-.18-.79-.12-1.51-.32-2.15-.6-.54-.21-.9-.52-1.06-.92-.17-.4-.18-.81-.05-1.21s.37-.71.72-.92.77-.23 1.26-.05c.72.26 1.37.45 1.97.56s1.16.17 1.71.17c.65 0 1.11-.09 1.39-.28.28-.18.42-.42.42-.72 0-.26-.09-.46-.28-.59-.18-.13-.44-.23-.77-.3l-2.92-.47c-1.09-.17-1.93-.57-2.52-1.18-.6-.61-.89-1.41-.89-2.39 0-.91.25-1.69.76-2.35s1.22-1.16 2.13-1.52 1.95-.54 3.13-.54c.79 0 1.51.06 2.15.18.65.12 1.28.32 1.89.6.47.19.77.49.91.89.13.4.12.8-.03 1.2-.15.39-.4.69-.76.89s-.79.21-1.3.01c-.58-.23-1.09-.39-1.54-.5s-.86-.16-1.25-.16c-.72 0-1.23.1-1.52.3s-.45.44-.45.72c0 .47.32.76.97.87l2.92.5c1.12.17 1.98.56 2.59 1.14.6.59.91 1.38.91 2.38 0 1.42-.54 2.52-1.63 3.3s-2.53 1.17-4.33 1.17z" fill="#f59e0b"/><path d="m364.81 98.64c-.53 0-.96-.17-1.31-.53s-.53-.79-.53-1.31.18-.96.53-1.3.79-.51 1.31-.51h5.2c.53 0 .96.17 1.31.51s.53.78.53 1.3-.18.96-.53 1.31-.79.53-1.31.53z" fill="#f59e0b"/><path d="m376.92 108.83c-1.54 0-2.31-.79-2.31-2.36v-13.42c0-1.56.76-2.34 2.29-2.34 1.38 0 2.14.65 2.29 1.94.35-.61.88-1.1 1.59-1.46s1.49-.54 2.35-.54c1.1 0 2.08.27 2.93.81s1.51 1.32 2 2.33c.48 1.01.72 2.21.72 3.61s-.24 2.58-.71 3.6-1.13 1.79-1.98 2.34c-.85.54-1.83.81-2.96.81-.81 0-1.55-.17-2.25-.5-.69-.33-1.22-.78-1.59-1.34v4.15c0 .77-.21 1.36-.62 1.76s-.99.6-1.75.6zm4.73-8.12c.7 0 1.28-.26 1.73-.79.46-.53.68-1.37.68-2.52s-.23-2.02-.68-2.53c-.46-.52-1.03-.78-1.73-.78s-1.3.26-1.76.78-.68 1.36-.68 2.53.23 2 .68 2.52 1.04.79 1.76.79z" fill="#f59e0b"/><path d="m395.81 104.16c-1.7 0-2.94-.45-3.73-1.35s-1.18-2.26-1.18-4.08v-11.24c0-1.58.77-2.36 2.31-2.36.75 0 1.33.2 1.75.6.41.4.62.99.62 1.76v11.08c0 .65.13 1.12.38 1.42s.58.45.99.45c.12 0 .25-.01.38-.04s.28-.05.43-.07c.32 0 .54.11.68.34s.21.69.21 1.39c0 .61-.12 1.07-.37 1.38s-.62.5-1.13.59c-.14.04-.34.07-.6.09-.26.03-.51.04-.74.04z" fill="#f59e0b"/><path d="m404.53 104.16c-1 0-1.88-.18-2.64-.55s-1.36-.87-1.79-1.51-.64-1.37-.64-2.19c0-.93.25-1.67.74-2.22s1.28-.95 2.36-1.18c1.08-.24 2.53-.35 4.33-.35h1v-.37c0-.63-.16-1.08-.49-1.34s-.88-.39-1.67-.39c-.44 0-.92.05-1.43.14-.52.1-1.1.27-1.75.51-.58.21-1.06.2-1.45-.03-.38-.23-.63-.56-.75-.99-.11-.43-.07-.86.13-1.29s.59-.75 1.17-.96c.84-.3 1.62-.5 2.33-.62.71-.11 1.36-.17 1.96-.17 2.15 0 3.75.46 4.79 1.39s1.56 2.39 1.56 4.39v5.31c0 1.58-.72 2.36-2.15 2.36s-2.09-.7-2.18-2.1c-.25.67-.67 1.19-1.26 1.58-.6.38-1.32.58-2.18.58zm1.05-3.05c.65 0 1.2-.21 1.64-.63.45-.42.67-.97.67-1.65v-.47h-1c-1.03 0-1.79.11-2.27.33s-.72.56-.72 1.04c0 .4.14.74.43 1s.71.39 1.25.39z" fill="#f59e0b"/><path d="m417.27 88.85c-.82 0-1.46-.19-1.9-.58-.45-.38-.67-.95-.67-1.68s.22-1.27.67-1.65 1.08-.58 1.9-.58c1.73 0 2.6.74 2.6 2.23 0 .74-.22 1.3-.67 1.68s-1.09.58-1.93.58zm0 15.26c-.75 0-1.33-.22-1.72-.66s-.59-1.07-.59-1.89v-8.3c0-.82.2-1.45.59-1.89s.97-.66 1.72-.66 1.33.22 1.75.66.62 1.07.62 1.89v8.3c0 .82-.2 1.45-.6 1.89s-.99.66-1.76.66z" fill="#f59e0b"/><path d="m424.65 104.11c-.75 0-1.33-.2-1.72-.6s-.59-.99-.59-1.76v-8.69c0-1.56.76-2.34 2.29-2.34 1.38 0 2.14.67 2.26 2.02.44-.67 1.02-1.18 1.75-1.54s1.54-.54 2.43-.54c1.54 0 2.68.46 3.43 1.37.74.91 1.12 2.31 1.12 4.2v5.52c0 .77-.2 1.36-.6 1.76s-.98.6-1.73.6-1.33-.2-1.73-.6-.6-.99-.6-1.76v-5.33c0-.79-.14-1.35-.41-1.68s-.67-.5-1.2-.5c-.7 0-1.26.22-1.68.67s-.63 1.05-.63 1.8v5.04c0 1.58-.79 2.36-2.36 2.36z" fill="#f59e0b"/><path d="m206 95.5h110" fill="none" stroke="#f59e0b" stroke-linejoin="round" stroke-width="8"/><rect fill="#fff" height="53" rx="7" width="148" x="317" y="139"/><path d="m458 140c3.31 0 6 2.69 6 6v39c0 3.31-2.69 6-6 6h-134c-3.31 0-6-2.69-6-6v-39c0-3.31 2.69-6 6-6zm0-2h-134c-4.4 0-8 3.6-8 8v39c0 4.4 3.6 8 8 8h134c4.4 0 8-3.6 8-8v-39c0-4.4-3.6-8-8-8z" fill="#f59e0b"/><path d="m337.57 174.03c-.79 0-1.41-.24-1.88-.72s-.7-1.1-.7-1.85.23-1.34.7-1.81c.46-.47 1.09-.71 1.88-.71s1.44.24 1.89.71c.46.47.68 1.08.68 1.81s-.23 1.37-.68 1.85c-.46.48-1.09.72-1.89.72z" fill="#f59e0b"/><path d="m344.82 158.85c-.82 0-1.46-.19-1.9-.58-.45-.38-.67-.95-.67-1.68s.22-1.27.67-1.65 1.08-.58 1.9-.58c1.73 0 2.6.74 2.6 2.23 0 .74-.22 1.3-.67 1.68s-1.09.58-1.93.58zm0 15.26c-.75 0-1.33-.22-1.72-.66s-.59-1.07-.59-1.89v-8.3c0-.82.2-1.45.59-1.89s.97-.66 1.72-.66 1.33.22 1.75.66.62 1.07.62 1.89v8.3c0 .82-.2 1.45-.6 1.89s-.99.66-1.76.66z" fill="#f59e0b"/><path d="m355.04 174.16c-.79 0-1.58-.06-2.36-.18-.79-.12-1.51-.32-2.15-.6-.54-.21-.9-.52-1.06-.92-.17-.4-.18-.81-.05-1.21s.37-.71.72-.92.77-.23 1.26-.05c.72.26 1.37.45 1.97.56s1.16.17 1.71.17c.65 0 1.11-.09 1.39-.28.28-.18.42-.42.42-.72 0-.26-.09-.46-.28-.59-.18-.13-.44-.23-.77-.3l-2.92-.47c-1.09-.17-1.93-.57-2.52-1.18-.6-.61-.89-1.41-.89-2.39 0-.91.25-1.69.76-2.35s1.22-1.16 2.13-1.52 1.95-.54 3.13-.54c.79 0 1.51.06 2.15.18.65.12 1.28.32 1.89.6.47.19.77.49.91.89.13.4.12.8-.03 1.2-.15.39-.4.69-.76.89s-.79.21-1.3.01c-.58-.23-1.09-.39-1.54-.5s-.86-.16-1.25-.16c-.72 0-1.23.1-1.52.3s-.45.44-.45.72c0 .47.32.76.97.87l2.92.5c1.12.17 1.98.56 2.59 1.14.6.59.91 1.38.91 2.38 0 1.42-.54 2.52-1.63 3.3s-2.53 1.17-4.33 1.17z" fill="#f59e0b"/><path d="m364.81 168.64c-.53 0-.96-.17-1.31-.53s-.53-.79-.53-1.31.18-.96.53-1.3.79-.51 1.31-.51h5.2c.53 0 .96.17 1.31.51s.53.78.53 1.3-.18.96-.53 1.31-.79.53-1.31.53z" fill="#f59e0b"/><path d="m377 174.11c-1.59 0-2.39-.79-2.39-2.36v-8.69c0-1.56.76-2.34 2.29-2.34.72 0 1.27.2 1.67.6.39.4.59.98.59 1.73v.08c.3-.75.78-1.35 1.44-1.79.67-.44 1.45-.67 2.36-.68.51-.02.89.11 1.14.38s.39.78.41 1.51c0 .63-.13 1.13-.39 1.5s-.76.59-1.5.66l-.6.05c-.93.09-1.6.35-2.02.77-.42.43-.63 1.06-.63 1.9v4.31c0 1.58-.79 2.36-2.36 2.36z" fill="#f59e0b"/><path d="m392.55 174.16c-1.44 0-2.69-.27-3.76-.81s-1.9-1.32-2.5-2.34-.89-2.21-.89-3.6.3-2.6.89-3.61 1.43-1.78 2.5-2.33c1.07-.54 2.32-.81 3.76-.81s2.69.27 3.76.81 1.89 1.32 2.48 2.33.88 2.21.88 3.61-.29 2.58-.88 3.6-1.41 1.79-2.48 2.34c-1.07.54-2.32.81-3.76.81zm0-3.44c.7 0 1.28-.26 1.73-.79.46-.53.68-1.37.68-2.52s-.23-2.02-.68-2.53c-.46-.52-1.03-.78-1.73-.78s-1.3.26-1.76.78-.68 1.36-.68 2.53.23 2 .68 2.52 1.04.79 1.76.79z" fill="#f59e0b"/><path d="m406.65 174.16c-1.68 0-2.92-.46-3.72-1.38s-1.2-2.33-1.2-4.22v-5.52c0-1.56.78-2.34 2.34-2.34.75 0 1.33.2 1.73.6s.6.98.6 1.73v5.65c0 1.26.54 1.89 1.63 1.89.63 0 1.15-.23 1.55-.68.4-.46.6-1.06.6-1.81v-5.04c0-1.56.78-2.34 2.34-2.34.75 0 1.33.2 1.73.6s.6.98.6 1.73v8.69c0 1.58-.75 2.36-2.26 2.36-1.35 0-2.11-.63-2.29-1.89-.84 1.3-2.07 1.94-3.68 1.94z" fill="#f59e0b"/><path d="m419.92 174.11c-.75 0-1.33-.2-1.72-.6s-.59-.99-.59-1.76v-8.69c0-1.56.76-2.34 2.29-2.34 1.38 0 2.14.67 2.26 2.02.44-.67 1.02-1.18 1.75-1.54s1.54-.54 2.43-.54c1.54 0 2.68.46 3.43 1.37.74.91 1.12 2.31 1.12 4.2v5.52c0 .77-.2 1.36-.6 1.76s-.98.6-1.73.6-1.33-.2-1.73-.6-.6-.99-.6-1.76v-5.33c0-.79-.14-1.35-.41-1.68s-.67-.5-1.2-.5c-.7 0-1.26.22-1.68.67s-.63 1.05-.63 1.8v5.04c0 1.58-.79 2.36-2.36 2.36z" fill="#f59e0b"/><path d="m438.57 174.16c-1.1 0-2.08-.27-2.93-.81s-1.51-1.32-2-2.34c-.48-1.02-.72-2.21-.72-3.6s.24-2.6.72-3.61 1.15-1.78 2-2.33c.85-.54 1.83-.81 2.93-.81.82 0 1.58.17 2.27.51s1.22.78 1.59 1.33v-5.02c0-1.58.78-2.36 2.34-2.36.75 0 1.33.2 1.73.6s.6.99.6 1.76v14.26c0 1.58-.77 2.36-2.31 2.36-1.38 0-2.15-.66-2.29-1.97-.35.61-.88 1.1-1.59 1.47s-1.49.55-2.35.55zm1.5-3.44c.7 0 1.28-.26 1.73-.79.46-.53.68-1.37.68-2.52s-.23-2.02-.68-2.53c-.46-.52-1.03-.78-1.73-.78s-1.3.26-1.76.78-.68 1.36-.68 2.53.23 2 .68 2.52 1.04.79 1.76.79z" fill="#f59e0b"/><rect fill="#fff" height="53" rx="7" width="158" x="317" y="209"/><path d="m468 210c3.31 0 6 2.69 6 6v39c0 3.31-2.69 6-6 6h-144c-3.31 0-6-2.69-6-6v-39c0-3.31 2.69-6 6-6zm0-2h-144c-4.4 0-8 3.6-8 8v39c0 4.4 3.6 8 8 8h144c4.4 0 8-3.6 8-8v-39c0-4.4-3.6-8-8-8z" fill="#f59e0b"/><path d="m337.57 244.03c-.79 0-1.41-.24-1.88-.72s-.7-1.1-.7-1.85.23-1.34.7-1.81c.46-.47 1.09-.71 1.88-.71s1.44.24 1.89.71c.46.47.68 1.08.68 1.81s-.23 1.37-.68 1.85c-.46.48-1.09.72-1.89.72z" fill="#f59e0b"/><path d="m344.82 228.85c-.82 0-1.46-.19-1.9-.58-.45-.38-.67-.95-.67-1.68s.22-1.27.67-1.65 1.08-.58 1.9-.58c1.73 0 2.6.74 2.6 2.23 0 .74-.22 1.3-.67 1.68s-1.09.58-1.93.58zm0 15.26c-.75 0-1.33-.22-1.72-.66s-.59-1.07-.59-1.89v-8.3c0-.82.2-1.45.59-1.89s.97-.66 1.72-.66 1.33.22 1.75.66.62 1.07.62 1.89v8.3c0 .82-.2 1.45-.6 1.89s-.99.66-1.76.66z" fill="#f59e0b"/><path d="m355.04 244.16c-.79 0-1.58-.06-2.36-.18-.79-.12-1.51-.32-2.15-.6-.54-.21-.9-.52-1.06-.92-.17-.4-.18-.81-.05-1.21s.37-.71.72-.92.77-.23 1.26-.05c.72.26 1.37.45 1.97.56s1.16.17 1.71.17c.65 0 1.11-.09 1.39-.28.28-.18.42-.42.42-.72 0-.26-.09-.46-.28-.59-.18-.13-.44-.23-.77-.3l-2.92-.47c-1.09-.17-1.93-.57-2.52-1.18-.6-.61-.89-1.41-.89-2.39 0-.91.25-1.69.76-2.35s1.22-1.16 2.13-1.52 1.95-.54 3.13-.54c.79 0 1.51.06 2.15.18.65.12 1.28.32 1.89.6.47.19.77.49.91.89.13.4.12.8-.03 1.2-.15.39-.4.69-.76.89s-.79.21-1.3.01c-.58-.23-1.09-.39-1.54-.5s-.86-.16-1.25-.16c-.72 0-1.23.1-1.52.3s-.45.44-.45.72c0 .47.32.76.97.87l2.92.5c1.12.17 1.98.56 2.59 1.14.6.59.91 1.38.91 2.38 0 1.42-.54 2.52-1.63 3.3s-2.53 1.17-4.33 1.17z" fill="#f59e0b"/><path d="m364.81 238.64c-.53 0-.96-.17-1.31-.53s-.53-.79-.53-1.31.18-.96.53-1.3.79-.51 1.31-.51h5.2c.53 0 .96.17 1.31.51s.53.78.53 1.3-.18.96-.53 1.31-.79.53-1.31.53z" fill="#f59e0b"/><path d="m379.76 244.16c-.79 0-1.58-.06-2.36-.18-.79-.12-1.51-.32-2.15-.6-.54-.21-.9-.52-1.06-.92-.17-.4-.18-.81-.05-1.21s.37-.71.72-.92.77-.23 1.26-.05c.72.26 1.37.45 1.97.56s1.16.17 1.71.17c.65 0 1.11-.09 1.39-.28.28-.18.42-.42.42-.72 0-.26-.09-.46-.28-.59-.18-.13-.44-.23-.77-.3l-2.92-.47c-1.09-.17-1.93-.57-2.52-1.18-.6-.61-.89-1.41-.89-2.39 0-.91.25-1.69.76-2.35s1.22-1.16 2.13-1.52 1.95-.54 3.13-.54c.79 0 1.51.06 2.15.18.65.12 1.28.32 1.89.6.47.19.77.49.91.89.13.4.12.8-.03 1.2-.15.39-.4.69-.76.89s-.79.21-1.3.01c-.58-.23-1.09-.39-1.54-.5s-.86-.16-1.25-.16c-.72 0-1.23.1-1.52.3s-.45.44-.45.72c0 .47.32.76.97.87l2.92.5c1.12.17 1.98.56 2.59 1.14.6.59.91 1.38.91 2.38 0 1.42-.54 2.52-1.63 3.3s-2.53 1.17-4.33 1.17z" fill="#f59e0b"/><path d="m394.41 244.16c-1.96 0-3.41-.46-4.36-1.37s-1.42-2.29-1.42-4.12v-4.28h-.89c-1.17 0-1.76-.58-1.76-1.73s.59-1.71 1.76-1.71h.89v-1.63c0-.77.2-1.36.6-1.76s.98-.6 1.73-.6c1.56 0 2.34.79 2.34 2.36v1.63h2.15c1.19 0 1.79.57 1.79 1.71s-.6 1.73-1.79 1.73h-2.15v4.12c0 1.26.64 1.89 1.92 1.89.25 0 .48-.03.71-.08s.44-.08.63-.08c.28-.02.51.07.68.25s.26.6.26 1.25c0 .53-.08.97-.24 1.33s-.44.62-.84.77c-.25.09-.58.16-1 .22s-.76.09-1.02.09z" fill="#f59e0b"/><path d="m401.22 244.11c-1.59 0-2.39-.79-2.39-2.36v-8.69c0-1.56.76-2.34 2.29-2.34.72 0 1.27.2 1.67.6.39.4.59.98.59 1.73v.08c.3-.75.78-1.35 1.44-1.79.67-.44 1.45-.67 2.36-.68.51-.02.89.11 1.14.38s.39.78.41 1.51c0 .63-.13 1.13-.39 1.5s-.76.59-1.5.66l-.6.05c-.93.09-1.6.35-2.02.77-.42.43-.63 1.06-.63 1.9v4.31c0 1.58-.79 2.36-2.36 2.36z" fill="#f59e0b"/><path d="m416.77 244.16c-1.44 0-2.69-.27-3.76-.81s-1.9-1.32-2.5-2.34-.89-2.21-.89-3.6.3-2.6.89-3.61 1.43-1.78 2.5-2.33c1.07-.54 2.32-.81 3.76-.81s2.69.27 3.76.81 1.89 1.32 2.48 2.33.88 2.21.88 3.61-.29 2.58-.88 3.6-1.41 1.79-2.48 2.34c-1.07.54-2.32.81-3.76.81zm0-3.44c.7 0 1.28-.26 1.73-.79.46-.53.68-1.37.68-2.52s-.23-2.02-.68-2.53c-.46-.52-1.03-.78-1.73-.78s-1.3.26-1.76.78-.68 1.36-.68 2.53.23 2 .68 2.52 1.04.79 1.76.79z" fill="#f59e0b"/><path d="m428.35 244.11c-.75 0-1.33-.2-1.72-.6s-.59-.99-.59-1.76v-8.69c0-1.56.76-2.34 2.29-2.34 1.38 0 2.14.67 2.26 2.02.44-.67 1.02-1.18 1.75-1.54s1.54-.54 2.43-.54c1.54 0 2.68.46 3.43 1.37.74.91 1.12 2.31 1.12 4.2v5.52c0 .77-.2 1.36-.6 1.76s-.98.6-1.73.6-1.33-.2-1.73-.6-.6-.99-.6-1.76v-5.33c0-.79-.14-1.35-.41-1.68s-.67-.5-1.2-.5c-.7 0-1.26.22-1.68.67s-.63 1.05-.63 1.8v5.04c0 1.58-.79 2.36-2.36 2.36z" fill="#f59e0b"/><path d="m448.37 248.89c-1.98 0-3.61-.25-4.89-.76-.63-.23-1.04-.56-1.22-1s-.21-.88-.07-1.33.39-.79.75-1.02c.36-.24.78-.27 1.27-.09.77.32 1.47.52 2.09.62s1.16.14 1.62.14c1.07 0 1.87-.22 2.4-.67s.8-1.14.8-2.09v-1.21c-.37.63-.92 1.13-1.66 1.5s-1.52.55-2.36.55c-1.16 0-2.16-.27-3.02-.8s-1.53-1.28-2.01-2.25c-.48-.96-.72-2.09-.72-3.39s.24-2.42.72-3.39c.48-.96 1.15-1.71 2.01-2.25.86-.53 1.87-.8 3.02-.8.86 0 1.65.18 2.38.54s1.26.84 1.59 1.46c.16-1.3.93-1.94 2.31-1.94 1.52 0 2.29.78 2.29 2.34v9.09c0 2.26-.63 3.95-1.89 5.07s-3.07 1.68-5.41 1.68zm.18-8.8c.77 0 1.38-.26 1.84-.79s.68-1.26.68-2.21-.23-1.68-.68-2.21c-.46-.53-1.07-.79-1.84-.79s-1.36.26-1.81.79-.68 1.26-.68 2.21.23 1.68.68 2.21 1.06.79 1.81.79z" fill="#f59e0b"/><path d="m316 165.5h-55v-70" fill="none" stroke="#f59e0b" stroke-linejoin="round" stroke-width="8"/><path d="m316 235.5h-55v-70" fill="none" stroke="#f59e0b" stroke-linejoin="round" stroke-width="8"/><path d="m264.21 350.62s-17.21-3.62-11.21-49.62-46-26.44-47 8" fill="none" stroke="#f59e0b" stroke-linecap="round" stroke-miterlimit="10" stroke-width="8"/><path d="m319 317.07s-10-33.07-33-35.07-47 0-80 26" fill="none" stroke="#f59e0b" stroke-linecap="round" stroke-miterlimit="10" stroke-width="8"/><path d="m466.46 383.75c-.66 0-1.31-.09-1.94-.28l-147.86-43.05c-3.71-1.08-5.84-4.97-4.76-8.68l10.9-37.45c.86-2.97 3.63-5.04 6.73-5.04.66 0 1.31.09 1.94.28l147.86 43.05c3.71 1.08 5.84 4.97 4.76 8.68l-10.9 37.45c-.86 2.97-3.63 5.04-6.73 5.04z" fill="#fff"/><g fill="#f59e0b"><path d="m329.54 290.25c.56 0 1.12.08 1.66.24l147.86 43.05c3.18.92 5.01 4.26 4.08 7.44l-10.9 37.45c-.74 2.54-3.12 4.32-5.78 4.32-.56 0-1.12-.08-1.66-.24l-147.86-43.05c-3.18-.92-5.01-4.26-4.08-7.44l10.9-37.45c.74-2.54 3.12-4.32 5.78-4.32m0-2c-3.47 0-6.68 2.28-7.7 5.76l-10.9 37.44c-1.23 4.22 1.22 8.69 5.44 9.92l147.86 43.05c.74.22 1.49.32 2.22.32 3.47 0 6.68-2.28 7.7-5.76l10.9-37.44c1.23-4.22-1.22-8.69-5.44-9.92l-147.86-43.05c-.74-.22-1.49-.32-2.22-.32z"/><path d="m334.75 326.96c-.76-.22-1.29-.63-1.6-1.22s-.36-1.25-.15-1.97c.21-.71.6-1.22 1.18-1.55s1.24-.38 2-.16c.77.23 1.31.63 1.62 1.21s.35 1.22.15 1.93c-.21.72-.6 1.25-1.17 1.59-.57.33-1.24.39-2.02.16z"/><path d="m341.69 329.06c-.72-.21-1.21-.58-1.47-1.11s-.27-1.19-.04-1.98l2.32-7.97c.23-.79.59-1.34 1.09-1.65s1.11-.36 1.84-.15 1.22.58 1.49 1.12.29 1.2.06 1.99l-2.32 7.97c-.23.79-.6 1.34-1.11 1.65s-1.13.35-1.87.14zm4.27-14.65c-.79-.23-1.35-.59-1.67-1.09-.32-.49-.38-1.1-.17-1.8.2-.69.57-1.16 1.11-1.4.54-.25 1.2-.25 1.99-.02 1.66.48 2.29 1.44 1.87 2.87-.21.71-.58 1.18-1.11 1.43-.54.25-1.21.25-2.02.02z"/><path d="m351.48 331.97c-.76-.22-1.5-.5-2.22-.84s-1.36-.73-1.9-1.18c-.46-.35-.72-.75-.76-1.18-.05-.43.05-.83.29-1.18s.55-.58.95-.68c.39-.1.8 0 1.22.3.62.45 1.19.82 1.73 1.09.54.28 1.07.49 1.59.64.62.18 1.09.22 1.41.12s.52-.29.61-.58c.07-.25.04-.47-.1-.64-.14-.18-.36-.35-.66-.51l-2.67-1.27c-.99-.47-1.69-1.08-2.09-1.84-.4-.75-.46-1.6-.19-2.55.26-.87.72-1.56 1.39-2.04.67-.49 1.49-.78 2.47-.87.97-.09 2.03.03 3.15.36.76.22 1.43.48 2.02.78s1.14.67 1.65 1.11c.4.32.61.69.62 1.11s-.11.8-.36 1.14-.58.55-.98.64-.82-.02-1.25-.35c-.49-.38-.94-.68-1.34-.91s-.78-.39-1.15-.5c-.69-.2-1.21-.25-1.55-.14s-.55.3-.63.57c-.13.45.1.82.69 1.1l2.66 1.29c1.03.48 1.75 1.09 2.16 1.82s.48 1.58.21 2.54c-.4 1.36-1.23 2.27-2.49 2.71-1.26.45-2.76.42-4.49-.09z"/><path d="m362.41 329.4c-.5-.15-.88-.44-1.11-.87-.24-.43-.29-.9-.14-1.41.15-.5.44-.87.87-1.1s.9-.27 1.4-.12l4.99 1.45c.5.15.88.43 1.12.86s.29.89.14 1.4c-.15.5-.44.88-.87 1.11-.44.24-.9.28-1.41.14l-4.99-1.45z"/><path d="m373.59 338.35c-.72-.21-1.22-.56-1.5-1.06s-.3-1.12-.09-1.86l2.05-7.06-.65-.19c-1.13-.33-1.53-1.05-1.21-2.16.32-1.09 1.04-1.48 2.17-1.15l.65.19c.58-1.67 1.46-2.8 2.63-3.39s2.68-.71 4.52-.38l.75.14c.56.09.97.28 1.23.56.26.29.41.61.43.96.03.35-.04.69-.19 1s-.37.55-.64.73-.58.23-.92.17l-.36-.08c-.87-.2-1.52-.19-1.95.02s-.73.61-.9 1.2l-.11.38 1.44.42c1.12.33 1.53 1.04 1.21 2.13-.32 1.11-1.05 1.5-2.17 1.17l-1.44-.42-2.06 7.06c-.44 1.51-1.41 2.05-2.9 1.62zm11.54 3.41c-1.63-.47-2.7-1.26-3.2-2.34-.5-1.09-.5-2.5 0-4.25l3.14-10.79c.44-1.51 1.4-2.05 2.88-1.62.72.21 1.22.57 1.51 1.07s.32 1.12.1 1.86l-3.1 10.64c-.18.62-.19 1.11-.03 1.47s.43.59.82.7c.12.03.24.06.38.07.13.01.28.03.44.06.3.09.49.26.56.52s0 .72-.19 1.4c-.17.59-.42 1-.74 1.22-.32.23-.74.31-1.25.25-.14 0-.35-.03-.61-.08s-.5-.1-.72-.17z"/><path d="m395.44 344.77c-1.38-.4-2.5-1.01-3.38-1.83-.87-.82-1.45-1.8-1.74-2.94s-.24-2.38.15-3.7c.39-1.34 1.01-2.42 1.87-3.22.85-.8 1.87-1.31 3.04-1.54 1.18-.22 2.46-.13 3.83.27 1.38.4 2.5 1.01 3.38 1.83.87.82 1.45 1.79 1.73 2.93s.23 2.37-.16 3.71c-.39 1.33-1 2.4-1.85 3.21s-1.86 1.33-3.04 1.55-2.46.13-3.84-.27zm.96-3.3c.67.2 1.3.1 1.88-.27s1.04-1.12 1.36-2.23c.33-1.13.35-2 .05-2.62-.29-.62-.78-1.03-1.45-1.23-.69-.2-1.32-.12-1.91.25-.58.37-1.04 1.12-1.36 2.24-.32 1.11-.34 1.98-.05 2.61s.78 1.05 1.47 1.25z"/><path d="m408.66 348.62c-.96-.28-1.75-.7-2.38-1.27s-1.06-1.22-1.29-1.95-.23-1.49 0-2.29c.26-.89.7-1.53 1.33-1.92.62-.39 1.49-.55 2.6-.47s2.53.37 4.26.87l.96.28.1-.35c.18-.61.14-1.08-.09-1.42-.24-.34-.73-.62-1.49-.84-.42-.12-.89-.21-1.41-.26-.53-.05-1.13-.05-1.82 0-.61.04-1.07-.1-1.38-.43s-.46-.71-.44-1.16c0-.44.17-.84.49-1.2.31-.36.78-.55 1.39-.59.89-.05 1.69-.03 2.4.06s1.35.22 1.93.38c2.07.6 3.47 1.5 4.21 2.68s.83 2.73.28 4.65l-1.48 5.09c-.44 1.51-1.35 2.07-2.73 1.67-1.31-.38-1.81-1.26-1.5-2.63-.42.57-.97.96-1.65 1.16s-1.43.19-2.26-.05zm1.86-2.63c.62.18 1.21.13 1.75-.15.55-.28.92-.75 1.11-1.4l.13-.46-.96-.28c-.99-.29-1.75-.39-2.27-.32-.52.08-.85.34-.98.79-.11.39-.07.75.14 1.08.2.33.57.58 1.09.73z"/><path d="m425.18 353.43c-1.88-.55-3.15-1.39-3.8-2.53s-.72-2.59-.21-4.36l1.2-4.11-.86-.25c-1.13-.33-1.53-1.05-1.21-2.16.32-1.09 1.04-1.48 2.17-1.15l.86.25.46-1.56c.21-.74.57-1.25 1.07-1.52s1.11-.31 1.83-.1c1.5.44 2.03 1.41 1.59 2.92l-.46 1.56 2.07.6c1.14.33 1.56 1.05 1.24 2.14-.32 1.11-1.06 1.5-2.2 1.16l-2.07-.6-1.15 3.96c-.35 1.21.08 2 1.31 2.35.23.07.47.11.7.12s.44.05.63.1c.27.06.47.21.58.43.12.23.08.65-.1 1.27-.15.5-.35.91-.6 1.21s-.59.47-1.03.51c-.26.02-.6 0-1.02-.06s-.76-.12-1.01-.2z"/><path d="m431.65 355.26c-.72-.21-1.21-.58-1.47-1.11s-.27-1.19-.04-1.98l2.32-7.97c.23-.79.59-1.34 1.1-1.65.5-.31 1.11-.36 1.84-.15.72.21 1.22.58 1.49 1.12s.29 1.2.06 1.99l-2.32 7.97c-.23.79-.6 1.34-1.11 1.65s-1.13.35-1.87.14zm4.27-14.65c-.79-.23-1.35-.59-1.67-1.09-.32-.49-.38-1.1-.17-1.8.2-.69.57-1.16 1.11-1.4.54-.25 1.2-.25 1.99-.02 1.66.49 2.29 1.44 1.87 2.87-.21.71-.58 1.18-1.12 1.43s-1.21.25-2.01.02z"/><path d="m438.73 357.32c-.72-.21-1.22-.56-1.48-1.06s-.29-1.11-.07-1.86l2.43-8.35c.44-1.5 1.38-2.03 2.85-1.61 1.33.39 1.86 1.25 1.6 2.57.61-.52 1.31-.84 2.11-.99.8-.14 1.62-.09 2.48.16 1.48.43 2.45 1.19 2.91 2.27s.43 2.53-.1 4.35l-1.54 5.3c-.22.74-.57 1.25-1.07 1.52s-1.11.31-1.83.1-1.22-.57-1.5-1.06c-.28-.5-.3-1.12-.09-1.86l1.49-5.12c.22-.76.25-1.33.08-1.73s-.51-.67-1.01-.81c-.67-.2-1.27-.14-1.8.17s-.9.83-1.11 1.55l-1.41 4.84c-.44 1.51-1.42 2.05-2.93 1.61z"/><path d="m456.62 367.5c-1.9-.55-3.39-1.25-4.48-2.1-.54-.39-.84-.83-.89-1.3s.05-.9.31-1.29.6-.65 1-.78c.41-.13.83-.04 1.25.27.65.52 1.26.91 1.83 1.18s1.07.46 1.51.59c1.03.3 1.86.31 2.49.03.64-.28 1.09-.87 1.35-1.78l.34-1.16c-.53.5-1.2.83-2.01.97-.81.15-1.62.1-2.42-.13-1.11-.32-2-.86-2.68-1.61-.67-.75-1.11-1.66-1.3-2.72s-.11-2.21.25-3.46c.36-1.24.91-2.26 1.64-3.05s1.58-1.32 2.56-1.59c.97-.27 2.02-.25 3.12.08.82.24 1.54.63 2.13 1.18.6.55.97 1.16 1.12 1.84.52-1.2 1.43-1.61 2.76-1.22 1.46.43 1.97 1.39 1.54 2.88l-2.54 8.73c-.63 2.17-1.71 3.62-3.23 4.34-1.53.72-3.41.76-5.67.1zm2.64-8.4c.74.22 1.4.13 1.98-.24s1.01-1.02 1.27-1.93.25-1.68-.04-2.31-.8-1.06-1.54-1.27c-.72-.21-1.38-.13-1.96.25s-1.01 1.02-1.27 1.93c-.27.91-.25 1.68.04 2.31s.8 1.05 1.52 1.26z"/></g><path d="m365.23 393.62c-.37 0-.75-.03-1.12-.09l-96.73-15.74c-3.81-.62-6.4-4.22-5.78-8.03l6.26-38.49c.54-3.35 3.52-5.88 6.91-5.88.37 0 .75.03 1.12.09l96.73 15.74c3.81.62 6.4 4.22 5.78 8.03l-6.26 38.49c-.54 3.35-3.52 5.88-6.91 5.88z" fill="#fff"/><path d="m274.77 326.38c.32 0 .64.03.96.08l96.73 15.74c3.27.53 5.49 3.62 4.96 6.89l-6.26 38.49c-.47 2.87-3.01 5.04-5.93 5.04-.32 0-.64-.03-.96-.08l-96.73-15.74c-3.27-.53-5.49-3.62-4.96-6.89l6.26-38.49c.47-2.87 3.01-5.04 5.93-5.04m0-2c-3.85 0-7.26 2.8-7.9 6.72l-6.26 38.49c-.71 4.34 2.27 8.47 6.61 9.18l96.73 15.74c.43.07.86.1 1.28.1 3.85 0 7.26-2.8 7.9-6.72l6.26-38.49c.71-4.34-2.27-8.47-6.61-9.18l-96.73-15.74c-.43-.07-.86-.1-1.28-.1z" fill="#f59e0b"/><path d="m283.59 362.24c-.78-.13-1.36-.46-1.74-1.01s-.51-1.2-.39-1.94c.12-.73.44-1.28.98-1.68.53-.39 1.19-.52 1.97-.4.8.13 1.38.46 1.75 1s.5 1.17.38 1.9c-.12.74-.44 1.32-.97 1.72s-1.19.54-1.98.41z" fill="#f59e0b"/><path d="m290.73 363.48c-.74-.12-1.27-.43-1.59-.92-.32-.5-.41-1.15-.28-1.96l1.33-8.19c.13-.81.43-1.4.89-1.77s1.06-.49 1.8-.37 1.28.43 1.62.93c.33.5.44 1.15.31 1.97l-1.33 8.19c-.13.81-.43 1.4-.9 1.77s-1.08.49-1.84.37zm2.45-15.06c-.81-.13-1.41-.43-1.79-.88s-.51-1.04-.39-1.77c.12-.71.42-1.22.93-1.53.5-.31 1.16-.4 1.97-.27 1.71.28 2.45 1.15 2.21 2.62-.12.73-.43 1.24-.93 1.55s-1.17.4-2 .26z" fill="#f59e0b"/><path d="m300.81 365.18c-.78-.13-1.55-.31-2.3-.56-.76-.25-1.44-.56-2.03-.94-.5-.29-.8-.65-.9-1.08s-.05-.82.14-1.2.48-.64.86-.79.8-.1 1.25.15c.67.37 1.28.67 1.85.87.57.21 1.12.36 1.66.44.64.1 1.11.09 1.42-.05s.48-.35.53-.65c.04-.26-.02-.47-.18-.63s-.4-.3-.72-.42l-2.8-.94c-1.04-.35-1.81-.87-2.3-1.57s-.66-1.53-.5-2.5c.15-.9.52-1.63 1.13-2.2s1.39-.95 2.35-1.16 2.01-.22 3.17-.03c.78.13 1.48.3 2.1.53s1.21.53 1.77.9c.44.27.69.61.75 1.03s0 .81-.22 1.18c-.21.36-.51.62-.89.76-.39.14-.82.08-1.29-.2-.53-.32-1.01-.56-1.44-.74-.42-.18-.82-.29-1.21-.36-.71-.12-1.23-.1-1.55.05s-.51.37-.56.64c-.08.47.2.8.82 1.01l2.8.96c1.08.35 1.87.87 2.37 1.54.5.68.67 1.51.51 2.49-.23 1.4-.94 2.4-2.14 2.99s-2.69.75-4.47.46z" fill="#f59e0b"/><path d="m311.34 361.3c-.52-.08-.92-.33-1.21-.73s-.39-.86-.31-1.38.33-.92.73-1.2.86-.38 1.38-.29l5.13.83c.52.08.92.32 1.21.72.29.39.39.85.31 1.37s-.33.92-.73 1.21-.86.39-1.38.31l-5.13-.83z" fill="#f59e0b"/><path d="m321.93 368.53c-.59-.1-1.03-.33-1.31-.69-.29-.37-.4-.79-.32-1.28.07-.49.34-.95.82-1.38l3.6-3.17-2.16-3.71c-.33-.57-.45-1.09-.36-1.58.1-.48.34-.85.73-1.11s.88-.34 1.46-.24c.55.09.99.25 1.32.49.32.24.62.59.88 1.06l1.27 2.33 1.94-1.81c.4-.36.79-.6 1.18-.73.39-.12.86-.14 1.39-.05.57.09 1 .32 1.3.69.29.37.41.79.34 1.28-.07.48-.35.94-.85 1.38l-3.23 2.83 2.44 4.15c.33.57.45 1.09.36 1.58-.1.48-.35.85-.75 1.1-.41.25-.89.33-1.46.24-.54-.09-.97-.25-1.3-.49s-.63-.6-.89-1.06l-1.52-2.75-2.32 2.12c-.39.34-.78.58-1.15.72-.38.13-.84.16-1.39.07z" fill="#f59e0b"/><path d="m336.76 370.95c-.59-.1-1.02-.33-1.31-.69-.29-.37-.4-.79-.32-1.28.07-.49.34-.95.82-1.38l3.6-3.17-2.17-3.71c-.33-.57-.45-1.09-.36-1.57.1-.48.34-.85.73-1.11s.88-.34 1.46-.24c.55.09.99.25 1.32.49s.62.59.88 1.06l1.27 2.33 1.94-1.81c.4-.36.79-.6 1.18-.73.39-.12.86-.14 1.39-.05.57.09 1 .32 1.3.69.29.37.41.79.34 1.28s-.35.94-.85 1.38l-3.23 2.83 2.44 4.15c.33.57.45 1.09.36 1.58-.1.48-.35.85-.75 1.1-.41.25-.89.33-1.46.24-.54-.09-.97-.25-1.3-.49s-.63-.6-.89-1.06l-1.52-2.75-2.32 2.12c-.39.34-.78.58-1.16.72s-.84.16-1.39.07z" fill="#f59e0b"/><path d="m354.63 373.93c-1.68-.27-2.83-.92-3.46-1.93s-.8-2.42-.51-4.22l1.81-11.1c.25-1.56 1.14-2.21 2.66-1.96.74.12 1.29.41 1.63.88.34.46.45 1.08.33 1.84l-1.78 10.94c-.1.64-.05 1.13.15 1.46s.5.53.9.6c.12.02.25.03.38.02h.44c.31.05.52.2.62.45s.1.72-.02 1.41c-.1.61-.29 1.04-.58 1.3s-.7.4-1.21.4c-.14.01-.35.01-.61 0-.26-.02-.51-.04-.73-.08z" fill="#f59e0b"/><path d="m211 384c0 12.7-35.59 21-79.5 21s-79.5-8.3-79.5-21 35.59-19 79.5-19 79.5 6.3 79.5 19z" fill="#171717" opacity=".1"/><path d="m163.12 363.45s38.07 7.7 29.21 19.07-25.3 7.85-48.3-6.24c-22.99-14.09 19.08-12.82 19.08-12.82z" fill="#fff"/><path d="m125.81 365.39s18.45 27.08-20.26 27.61c-38.71.52-21.55-32.52 20.26-27.61z" fill="#fff"/><path d="m177.54 333.2s37.85-14 33.04-24.03c-4.81-10.04-10.14-18.31-39.98 1.37s6.95 22.66 6.95 22.66z" fill="#fff"/><path d="m175.76 359.48s13.88-24.66-6.98-51.3c-11.96-15.27-33.21-18.74-45.08-15.45-12.21 3.39-34.9 6.81-33.39 47.1 1.9 50.76 73.34 40.36 85.45 19.66z" fill="#0284c7"/><path d="m81.18 324.71s-23.95 32.47-14.42 38.22 18.52 9.74 32.67-23.09c14.14-32.83-18.25-15.13-18.25-15.13z" fill="#fff"/><path d="m158.05 325.2c.83 3.25 4.41 5.77 10.64 7.47 4.44 1.21 8.59 1.56 8.76 1.57.15.01.31 0 .45-.06.12-.04 12.22-4.54 21.83-10.2.31-.18.51-.51.52-.88.01-.36-.17-.7-.47-.9-7.04-4.71-11.47-11.58-12.47-19.34-.05-.42-.09-.83-.12-1.25-.03-.34-.22-.64-.51-.82-.2-.12-.44-.17-.67-.14-.1.01-.2.04-.29.08-4.52 2.02-9.65 4.93-15.69 8.92-9.18 6.05-13.09 11.14-11.96 15.54z" fill="#0284c7"/><path d="m70.32 339.62c4.6-8.18 9.95-15.46 10.01-15.53.09-.12.21-.23.34-.3 1.57-.86 15.52-8.24 21.18-3.09 3.36 3.06 2.88 9.46-1.47 19.56-2.14 4.96-4.25 9.28-6.27 12.83-.17.3-.48.5-.82.53-.08 0-.15 0-.23 0-.26-.03-.5-.16-.67-.36-5.23-6.2-12.81-10.49-21.35-12.08-.33-.06-.62-.28-.76-.59s-.13-.66.04-.96z" fill="#0284c7"/><path d="m180.74 309.26c7.07-8.39 29.03-44.12-2.71-68.21-21.42-16.25-33-12.17-51.9-40.19 0 0-1.45-5.3-5.34 1.63 0 0-14.15 23.28-47.76 44.98-48.11 34.7-7.82 79.57 15.43 81.64 45.98 8.27 85.21-11.47 92.28-19.86z" fill="#3a7ec0"/><path d="m188.74 301.26c7.07-8.39 21.03-46.12-10.71-70.21-21.42-16.25-33-12.17-51.9-40.19 0 0-1.45-5.3-5.34 1.63 0 0-14.15 23.28-47.76 44.98-48.11 34.7-13.82 86.57 9.43 88.64 45.98 8.27 99.21-16.47 106.28-24.86z" fill="#0284c7"/><path d="m168.97 199.66-2.84-30.54 14.53 3.45z" fill="#f1e258"/><path d="m184.34 211.03 16.18-27.94 11.85 10.48z" fill="#f1e258"/><path d="m197.79 226.23 26.72-13.58 3.31 12.81z" fill="#f1e258"/></svg>