<svg viewBox="0 0 528 418" xmlns="http://www.w3.org/2000/svg"><path d="m476 112h-61v-35c0-4.4-3.6-8-8-8h-62.5v-35c0-4.4-3.6-8-8-8h-154c-4.4 0-8 3.6-8 8v31h-89c-4.4 0-8 3.6-8 8v36h-23.5c-4.4 0-8 3.6-8 8v39c0 4.4 3.6 8 8 8h32v32h-21.93c-4.4 0-8 3.6-8 8v39c0 4.4 3.6 8 8 8h51.93v31c0 4.4 3.6 8 8 8h84c4.4 0 8-3.6 8-8v-39c0-4.4-3.6-8-8-8h-51.93v-28h21.93c4.4 0 8-3.6 8-8v-39c0-4.4-3.6-8-8-8h-32v-32h93.5c4.4 0 8-3.6 8-8v-31h47.5v35c0 4.4 3.6 8 8 8h51v28h-10c-4.4 0-8 3.6-8 8v39c0 4.4 3.6 8 8 8h35v29h-59c-4.4 0-8 3.6-8 8v39c0 4.4 3.6 8 8 8h114c4.4 0 8-3.6 8-8v-33h29c4.4 0 8-3.6 8-8v-39c0-4.4-3.6-8-8-8h-15v-28h20c4.4 0 8-3.6 8-8v-39c0-4.4-3.6-8-8-8z" fill="#fff" stroke="#e2e8f0" stroke-linejoin="round" stroke-width="10"/><g fill="#06b6d4"><path d="m377.4 148.87c-1.68 0-2.52-.83-2.52-2.5v-13.53c0-1.66.84-2.5 2.52-2.5h5.15c3.2 0 5.69.81 7.46 2.42s2.65 3.89 2.65 6.83-.88 5.22-2.65 6.84-4.25 2.43-7.46 2.43h-5.15zm2.31-3.91h2.52c1.84 0 3.2-.44 4.08-1.33.88-.88 1.33-2.23 1.33-4.03s-.45-3.14-1.34-4.02-2.25-1.31-4.07-1.31h-2.52z"/><path d="m397.52 133.85c-.82 0-1.46-.19-1.9-.58-.45-.38-.67-.95-.67-1.68s.22-1.27.67-1.65 1.08-.58 1.9-.58c1.73 0 2.6.74 2.6 2.23 0 .74-.22 1.3-.67 1.68s-1.09.58-1.93.58zm0 15.26c-.75 0-1.33-.22-1.72-.66s-.59-1.07-.59-1.89v-8.3c0-.82.2-1.45.59-1.89s.97-.66 1.72-.66 1.33.22 1.75.66.62 1.07.62 1.89v8.3c0 .82-.2 1.45-.6 1.89s-.99.66-1.76.66z"/><path d="m407.74 149.16c-.79 0-1.58-.06-2.36-.18-.79-.12-1.51-.32-2.15-.6-.54-.21-.9-.52-1.06-.92-.17-.4-.18-.81-.05-1.21s.37-.71.72-.92.77-.23 1.26-.05c.72.26 1.37.45 1.97.56s1.16.17 1.71.17c.65 0 1.11-.09 1.39-.28.28-.18.42-.42.42-.72 0-.26-.09-.46-.28-.59-.18-.13-.44-.23-.77-.3l-2.92-.47c-1.09-.17-1.93-.57-2.52-1.18-.6-.61-.89-1.41-.89-2.39 0-.91.25-1.69.76-2.35s1.22-1.16 2.13-1.52 1.95-.54 3.13-.54c.79 0 1.51.06 2.15.18.65.12 1.28.32 1.89.6.47.19.77.49.91.89.13.4.12.8-.03 1.2-.15.39-.4.69-.76.89s-.79.21-1.3.01c-.58-.23-1.09-.39-1.54-.5s-.86-.16-1.25-.16c-.72 0-1.23.1-1.52.3s-.45.44-.45.72c0 .47.32.76.97.87l2.92.5c1.12.17 1.98.56 2.59 1.14.6.59.91 1.38.91 2.38 0 1.42-.54 2.52-1.63 3.3s-2.53 1.17-4.33 1.17z"/><path d="m417.93 153.83c-1.54 0-2.31-.79-2.31-2.36v-13.42c0-1.56.76-2.34 2.29-2.34 1.38 0 2.14.65 2.29 1.94.35-.61.88-1.1 1.59-1.46s1.49-.54 2.35-.54c1.1 0 2.08.27 2.93.81s1.51 1.32 2 2.33c.48 1.01.72 2.21.72 3.61s-.24 2.58-.71 3.6-1.13 1.79-1.98 2.34c-.85.54-1.83.81-2.96.81-.81 0-1.55-.17-2.25-.5-.69-.33-1.22-.78-1.59-1.34v4.15c0 .77-.21 1.36-.62 1.76s-.99.6-1.75.6zm4.73-8.12c.7 0 1.28-.26 1.73-.79.46-.53.68-1.37.68-2.52s-.23-2.02-.68-2.53c-.46-.52-1.03-.78-1.73-.78s-1.3.26-1.76.78-.68 1.36-.68 2.53.23 2 .68 2.52 1.04.79 1.76.79z"/><path d="m436.81 149.16c-1.7 0-2.94-.45-3.73-1.35s-1.18-2.26-1.18-4.08v-11.24c0-1.58.77-2.36 2.31-2.36.75 0 1.33.2 1.75.6.41.4.62.99.62 1.76v11.08c0 .65.13 1.12.38 1.42s.58.45.99.45c.12 0 .25-.01.38-.04s.28-.05.43-.07c.32 0 .54.11.68.34s.21.69.21 1.39c0 .61-.12 1.07-.37 1.38s-.62.5-1.13.59c-.14.04-.34.07-.6.09-.26.03-.51.04-.74.04z"/><path d="m445.53 149.16c-1 0-1.88-.18-2.64-.55s-1.36-.87-1.79-1.51-.64-1.37-.64-2.19c0-.93.25-1.67.74-2.22s1.28-.95 2.36-1.18c1.08-.24 2.53-.35 4.33-.35h1v-.37c0-.63-.16-1.08-.49-1.34s-.88-.39-1.67-.39c-.44 0-.92.05-1.43.14-.52.1-1.1.27-1.75.51-.58.21-1.06.2-1.45-.03-.38-.23-.63-.56-.75-.99-.11-.43-.07-.86.13-1.29s.59-.75 1.17-.96c.84-.3 1.62-.5 2.33-.62.71-.11 1.36-.17 1.96-.17 2.15 0 3.75.46 4.79 1.39s1.56 2.39 1.56 4.39v5.31c0 1.58-.72 2.36-2.15 2.36s-2.09-.7-2.18-2.1c-.25.67-.67 1.19-1.26 1.58-.6.38-1.32.58-2.18.58zm1.05-3.05c.65 0 1.2-.21 1.64-.63.45-.42.67-.97.67-1.65v-.47h-1c-1.03 0-1.79.11-2.27.33s-.72.56-.72 1.04c0 .4.14.74.43 1s.71.39 1.25.39z"/><path d="m459.72 153.83c-.54 0-.99-.14-1.33-.42s-.55-.64-.62-1.09 0-.93.24-1.46l1.34-2.89-4.07-9.3c-.35-.79-.35-1.48 0-2.08s1.03-.89 2.05-.89c.54 0 .99.13 1.34.38s.67.75.95 1.48l2.21 5.7 2.31-5.73c.28-.72.6-1.2.96-1.46.36-.25.84-.38 1.46-.38.77 0 1.32.3 1.64.89.32.6.31 1.29-.04 2.08l-5.96 13.4c-.31.68-.66 1.15-1.04 1.39-.38.25-.85.37-1.43.37z"/><path d="m342.87 272.87c-1.68 0-2.52-.83-2.52-2.5v-13.53c0-1.66.84-2.5 2.52-2.5h6.41c2 0 3.54.43 4.64 1.3 1.09.87 1.64 2.03 1.64 3.48 0 .96-.24 1.8-.72 2.52s-1.15 1.25-2.01 1.6c1.03.32 1.83.85 2.39 1.59s.84 1.67.84 2.77c0 1.63-.58 2.91-1.75 3.85s-2.75 1.41-4.77 1.41h-6.67zm2.1-11.16h3.44c.88 0 1.52-.16 1.93-.47s.62-.8.62-1.44-.21-1.12-.62-1.43-1.06-.46-1.93-.46h-3.44v3.81zm0 7.62h3.91c.89 0 1.55-.17 1.96-.51s.62-.85.62-1.54-.21-1.19-.62-1.52-1.06-.5-1.96-.5h-3.91z"/><path d="m362.96 273.16c-1 0-1.88-.18-2.64-.55s-1.36-.87-1.79-1.51-.64-1.37-.64-2.19c0-.93.25-1.67.74-2.22s1.28-.95 2.36-1.18c1.08-.24 2.53-.35 4.33-.35h1v-.37c0-.63-.16-1.08-.49-1.34s-.88-.39-1.67-.39c-.44 0-.92.05-1.43.14-.52.1-1.1.27-1.75.51-.58.21-1.06.2-1.45-.03-.38-.23-.63-.56-.75-.99-.11-.43-.07-.86.13-1.29s.59-.75 1.17-.96c.84-.3 1.62-.5 2.33-.62.71-.11 1.36-.17 1.96-.17 2.15 0 3.75.46 4.79 1.39s1.56 2.39 1.56 4.39v5.31c0 1.58-.72 2.36-2.15 2.36s-2.09-.7-2.18-2.1c-.25.67-.67 1.19-1.26 1.58-.6.38-1.32.58-2.18.58zm1.05-3.05c.65 0 1.2-.21 1.64-.63.45-.42.67-.97.67-1.65v-.47h-1c-1.03 0-1.79.11-2.27.33s-.72.56-.72 1.04c0 .4.14.74.43 1s.71.39 1.25.39z"/><path d="m378.44 273.16c-1.1 0-2.08-.27-2.93-.81s-1.51-1.32-2-2.34c-.48-1.02-.72-2.21-.72-3.6s.24-2.6.72-3.61 1.15-1.78 2-2.33c.85-.54 1.83-.81 2.93-.81.82 0 1.58.17 2.27.51s1.22.78 1.59 1.33v-5.02c0-1.58.78-2.36 2.34-2.36.75 0 1.33.2 1.73.6s.6.99.6 1.76v14.26c0 1.58-.77 2.36-2.31 2.36-1.38 0-2.15-.66-2.29-1.97-.35.61-.88 1.1-1.59 1.47s-1.49.55-2.35.55zm1.5-3.44c.7 0 1.28-.26 1.73-.79.46-.53.68-1.37.68-2.52s-.23-2.02-.68-2.53c-.46-.52-1.03-.78-1.73-.78s-1.3.26-1.76.78-.68 1.36-.68 2.53.23 2 .68 2.52 1.04.79 1.76.79z"/><path d="m396.09 277.89c-1.98 0-3.61-.25-4.89-.76-.63-.23-1.04-.56-1.22-1s-.21-.88-.07-1.33.39-.79.75-1.02c.36-.24.78-.27 1.27-.09.77.32 1.47.52 2.09.62s1.16.14 1.62.14c1.07 0 1.87-.22 2.4-.67s.8-1.14.8-2.09v-1.21c-.37.63-.92 1.13-1.66 1.5s-1.52.55-2.36.55c-1.16 0-2.16-.27-3.02-.8s-1.53-1.28-2.01-2.25c-.48-.96-.72-2.09-.72-3.39s.24-2.42.72-3.39c.48-.96 1.15-1.71 2.01-2.25.86-.53 1.87-.8 3.02-.8.86 0 1.65.18 2.38.54s1.26.84 1.59 1.46c.16-1.3.93-1.94 2.31-1.94 1.52 0 2.29.78 2.29 2.34v9.09c0 2.26-.63 3.95-1.89 5.07s-3.07 1.68-5.41 1.68zm.18-8.8c.77 0 1.38-.26 1.84-.79s.68-1.26.68-2.21-.23-1.68-.68-2.21c-.46-.53-1.07-.79-1.84-.79s-1.36.26-1.81.79-.68 1.26-.68 2.21.23 1.68.68 2.21 1.06.79 1.81.79z"/><path d="m413.16 273.16c-1.58 0-2.94-.28-4.08-.83-1.15-.55-2.03-1.34-2.64-2.35-.61-1.02-.92-2.21-.92-3.6s.29-2.48.88-3.49 1.39-1.81 2.42-2.38 2.19-.85 3.51-.85 2.42.27 3.38.81c.95.54 1.69 1.32 2.21 2.33s.78 2.18.78 3.53c0 .68-.4 1.02-1.21 1.02h-7.49c.16.84.51 1.45 1.05 1.81.54.37 1.29.55 2.26.55.37 0 .8-.04 1.31-.13s.99-.23 1.44-.42c.56-.21 1.03-.21 1.42-.01s.64.51.78.92c.13.41.11.83-.05 1.26-.17.43-.5.76-.99.99-.61.3-1.26.51-1.96.64-.69.13-1.39.2-2.09.2zm-.63-10.48c-.7 0-1.27.21-1.72.63s-.73 1.03-.85 1.84h4.89c-.05-.82-.28-1.44-.67-1.85s-.94-.62-1.64-.62z"/><path d="m197.75 63.11c-.77 0-1.37-.21-1.79-.63s-.63-1.02-.63-1.81v-13.87c0-.79.21-1.39.63-1.81s1.02-.63 1.81-.63h6.46c2.1 0 3.73.51 4.87 1.54 1.15 1.02 1.72 2.45 1.72 4.27 0 1.38-.35 2.54-1.04 3.48s-1.69 1.59-3.01 1.96c.98.26 1.77.94 2.36 2.02l1.31 2.36c.28.53.41 1.02.38 1.5-.03.47-.21.86-.57 1.17-.35.31-.87.46-1.55.46s-1.24-.14-1.67-.41-.81-.71-1.14-1.33l-2.39-4.39c-.21-.38-.48-.65-.8-.8s-.7-.22-1.12-.22h-1.44v4.7c0 .79-.21 1.39-.62 1.81s-1.01.63-1.8.63zm2.42-10.56h3.2c1.91 0 2.86-.75 2.86-2.26s-.96-2.23-2.86-2.23h-3.2z"/><path d="m220.6 63.16c-1.58 0-2.94-.28-4.08-.83-1.15-.55-2.03-1.34-2.64-2.35-.61-1.02-.92-2.21-.92-3.6s.29-2.48.88-3.49 1.39-1.81 2.42-2.38 2.19-.85 3.51-.85 2.42.27 3.38.81c.95.54 1.69 1.32 2.21 2.33s.78 2.18.78 3.53c0 .68-.4 1.02-1.21 1.02h-7.49c.16.84.51 1.45 1.05 1.81.54.37 1.29.55 2.26.55.37 0 .8-.04 1.31-.13s.99-.23 1.44-.42c.56-.21 1.03-.21 1.42-.01s.64.51.78.92c.13.41.11.83-.05 1.26-.17.43-.5.76-.99.99-.61.3-1.26.51-1.96.64-.69.13-1.39.2-2.09.2zm-.63-10.48c-.7 0-1.27.21-1.72.63s-.73 1.03-.85 1.84h4.89c-.05-.82-.28-1.44-.67-1.85s-.94-.62-1.64-.62z"/><path d="m233.29 63.16c-.79 0-1.58-.06-2.36-.18-.79-.12-1.51-.32-2.15-.6-.54-.21-.9-.52-1.06-.92-.17-.4-.18-.81-.05-1.21s.37-.71.72-.92.77-.23 1.26-.05c.72.26 1.37.45 1.97.56s1.16.17 1.71.17c.65 0 1.11-.09 1.39-.28.28-.18.42-.42.42-.72 0-.26-.09-.46-.28-.59-.18-.13-.44-.23-.77-.3l-2.92-.47c-1.09-.17-1.93-.57-2.52-1.18-.6-.61-.89-1.41-.89-2.39 0-.91.25-1.69.76-2.35s1.22-1.16 2.13-1.52 1.95-.54 3.13-.54c.79 0 1.51.06 2.15.18.65.12 1.28.32 1.89.6.47.19.77.49.91.89.13.4.12.8-.03 1.2-.15.39-.4.69-.76.89s-.79.21-1.3.01c-.58-.23-1.09-.39-1.54-.5s-.86-.16-1.25-.16c-.72 0-1.23.1-1.52.3s-.45.44-.45.72c0 .47.32.76.97.87l2.92.5c1.12.17 1.98.56 2.59 1.14.6.59.91 1.38.91 2.38 0 1.42-.54 2.52-1.63 3.3s-2.53 1.17-4.33 1.17z"/><path d="m248.21 63.16c-1.58 0-2.94-.28-4.08-.83-1.15-.55-2.03-1.34-2.64-2.35-.61-1.02-.92-2.21-.92-3.6s.29-2.48.88-3.49 1.39-1.81 2.42-2.38 2.19-.85 3.51-.85 2.42.27 3.38.81c.95.54 1.69 1.32 2.21 2.33s.78 2.18.78 3.53c0 .68-.4 1.02-1.21 1.02h-7.49c.16.84.51 1.45 1.05 1.81.54.37 1.29.55 2.26.55.37 0 .8-.04 1.31-.13s.99-.23 1.44-.42c.56-.21 1.03-.21 1.42-.01s.64.51.78.92c.13.41.11.83-.05 1.26-.17.43-.5.76-.99.99-.61.3-1.26.51-1.96.64-.69.13-1.39.2-2.09.2zm-.63-10.48c-.7 0-1.27.21-1.72.63s-.73 1.03-.85 1.84h4.89c-.05-.82-.28-1.44-.67-1.85s-.94-.62-1.64-.62z"/><path d="m262.52 63.16c-1.96 0-3.41-.46-4.36-1.37s-1.42-2.29-1.42-4.12v-4.28h-.89c-1.17 0-1.76-.58-1.76-1.73s.59-1.71 1.76-1.71h.89v-1.63c0-.77.2-1.36.6-1.76s.98-.6 1.73-.6c1.56 0 2.34.79 2.34 2.36v1.63h2.15c1.19 0 1.79.57 1.79 1.71s-.6 1.73-1.79 1.73h-2.15v4.12c0 1.26.64 1.89 1.92 1.89.25 0 .48-.03.71-.08s.44-.08.63-.08c.28-.02.51.07.68.25s.26.6.26 1.25c0 .53-.08.97-.24 1.33s-.44.62-.84.77c-.25.09-.58.16-1 .22s-.76.09-1.02.09z"/><path d="m284.11 63.16c-2.05 0-3.81-.39-5.28-1.18s-2.6-1.9-3.38-3.34-1.17-3.12-1.17-5.04.39-3.6 1.17-5.03 1.9-2.53 3.38-3.32c1.47-.79 3.23-1.18 5.28-1.18.81 0 1.64.09 2.51.28.87.18 1.63.46 2.3.83.49.26.83.6 1.02 1s.26.81.21 1.23-.21.8-.46 1.13-.57.56-.96.67-.81.06-1.26-.17c-1.03-.51-2.09-.76-3.18-.76-1.63 0-2.85.46-3.68 1.38-.82.92-1.24 2.24-1.24 3.95s.41 3.06 1.24 3.98c.82.92 2.05 1.38 3.68 1.38.46 0 .95-.06 1.47-.17.53-.11 1.04-.29 1.55-.54.52-.23.99-.29 1.41-.18.41.1.75.32 1.01.63.26.32.42.68.49 1.09.06.41 0 .82-.17 1.22-.18.4-.5.73-.97.97-.61.37-1.37.66-2.27.87s-1.8.32-2.69.32z"/><path d="m299.72 63.16c-1.07 0-2.17-.11-3.3-.33s-2.1-.53-2.9-.93c-.47-.23-.81-.53-1-.92-.19-.38-.26-.78-.21-1.19s.2-.78.45-1.1.57-.54.97-.66c.4-.11.86-.06 1.37.17.67.33 1.42.58 2.26.75s1.63.25 2.36.25c1.16 0 1.96-.15 2.43-.46.46-.31.7-.69.7-1.14 0-.4-.16-.73-.49-.97-.32-.25-.9-.46-1.72-.63l-3.07-.66c-3.33-.72-4.99-2.46-4.99-5.23 0-1.21.33-2.27.99-3.18s1.57-1.62 2.75-2.11c1.17-.5 2.54-.75 4.1-.75.91 0 1.83.1 2.77.3s1.75.5 2.43.91c.53.28.86.66 1 1.14s.12.95-.05 1.41-.49.79-.93 1-1.01.17-1.69-.11c-.53-.23-1.1-.4-1.73-.51s-1.24-.17-1.84-.17c-.98 0-1.73.17-2.26.51s-.79.78-.79 1.33c0 .38.16.7.47.95s.88.46 1.68.63l3.05.66c3.38.72 5.07 2.42 5.07 5.1 0 1.21-.32 2.26-.97 3.15s-1.56 1.58-2.73 2.08c-1.17.49-2.56.74-4.15.74z"/><path d="m316.81 63.16c-1.07 0-2.17-.11-3.3-.33s-2.1-.53-2.9-.93c-.47-.23-.81-.53-1-.92-.19-.38-.26-.78-.21-1.19s.2-.78.45-1.1.57-.54.97-.66c.4-.11.86-.06 1.37.17.67.33 1.42.58 2.26.75s1.63.25 2.36.25c1.16 0 1.96-.15 2.43-.46.46-.31.7-.69.7-1.14 0-.4-.16-.73-.49-.97-.32-.25-.9-.46-1.72-.63l-3.07-.66c-3.33-.72-4.99-2.46-4.99-5.23 0-1.21.33-2.27.99-3.18s1.57-1.62 2.75-2.11c1.17-.5 2.54-.75 4.1-.75.91 0 1.83.1 2.77.3s1.75.5 2.43.91c.53.28.86.66 1 1.14s.12.95-.05 1.41-.49.79-.93 1-1.01.17-1.69-.11c-.53-.23-1.1-.4-1.73-.51s-1.24-.17-1.84-.17c-.98 0-1.73.17-2.26.51s-.79.78-.79 1.33c0 .38.16.7.47.95s.88.46 1.68.63l3.05.66c3.38.72 5.07 2.42 5.07 5.1 0 1.21-.32 2.26-.97 3.15s-1.56 1.58-2.73 2.08c-1.17.49-2.56.74-4.15.74z"/><path d="m315.04 104.87c-1.68 0-2.52-.83-2.52-2.5v-13.53c0-1.66.84-2.5 2.52-2.5h6.41c2 0 3.54.43 4.64 1.3 1.09.87 1.64 2.03 1.64 3.48 0 .96-.24 1.8-.72 2.52s-1.15 1.25-2.01 1.6c1.03.32 1.83.85 2.39 1.59s.84 1.67.84 2.77c0 1.63-.58 2.91-1.75 3.85s-2.75 1.41-4.77 1.41h-6.67zm2.1-11.16h3.44c.88 0 1.52-.16 1.93-.47s.62-.8.62-1.44-.21-1.12-.62-1.43-1.06-.46-1.93-.46h-3.44v3.81zm0 7.62h3.91c.89 0 1.55-.17 1.96-.51s.62-.85.62-1.54-.21-1.19-.62-1.52-1.06-.5-1.96-.5h-3.91z"/><path d="m335.47 105.16c-1.68 0-2.92-.46-3.72-1.38s-1.2-2.33-1.2-4.22v-5.52c0-1.56.78-2.34 2.34-2.34.75 0 1.33.2 1.73.6s.6.98.6 1.73v5.65c0 1.26.54 1.89 1.63 1.89.63 0 1.15-.23 1.55-.68.4-.46.6-1.06.6-1.81v-5.04c0-1.56.78-2.34 2.34-2.34.75 0 1.33.2 1.73.6s.6.98.6 1.73v8.69c0 1.58-.75 2.36-2.26 2.36-1.35 0-2.11-.63-2.29-1.89-.84 1.3-2.07 1.94-3.68 1.94z"/><path d="m353.2 105.16c-1.96 0-3.41-.46-4.36-1.37s-1.42-2.29-1.42-4.12v-4.28h-.89c-1.17 0-1.76-.58-1.76-1.73s.59-1.71 1.76-1.71h.89v-1.63c0-.77.2-1.36.6-1.76s.98-.6 1.73-.6c1.56 0 2.34.79 2.34 2.36v1.63h2.15c1.19 0 1.79.57 1.79 1.71s-.6 1.73-1.79 1.73h-2.15v4.12c0 1.26.64 1.89 1.92 1.89.25 0 .48-.03.71-.08s.44-.08.63-.08c.28-.02.51.07.68.25s.26.6.26 1.25c0 .53-.08.97-.24 1.33s-.44.62-.84.77c-.25.09-.58.16-1 .22s-.76.09-1.02.09z"/><path d="m364.39 105.16c-1.96 0-3.41-.46-4.36-1.37s-1.42-2.29-1.42-4.12v-4.28h-.89c-1.17 0-1.76-.58-1.76-1.73s.59-1.71 1.76-1.71h.89v-1.63c0-.77.2-1.36.6-1.76s.98-.6 1.73-.6c1.56 0 2.34.79 2.34 2.36v1.63h2.15c1.19 0 1.79.57 1.79 1.71s-.6 1.73-1.79 1.73h-2.15v4.12c0 1.26.64 1.89 1.92 1.89.25 0 .48-.03.71-.08s.44-.08.63-.08c.28-.02.51.07.68.25s.26.6.26 1.25c0 .53-.08.97-.24 1.33s-.44.62-.84.77c-.25.09-.58.16-1 .22s-.76.09-1.02.09z"/><path d="m375.34 105.16c-1.44 0-2.69-.27-3.76-.81s-1.9-1.32-2.5-2.34-.89-2.21-.89-3.6.3-2.6.89-3.61 1.43-1.78 2.5-2.33c1.07-.54 2.32-.81 3.76-.81s2.69.27 3.76.81 1.89 1.32 2.48 2.33.88 2.21.88 3.61-.29 2.58-.88 3.6-1.41 1.79-2.48 2.34c-1.07.54-2.32.81-3.76.81zm0-3.44c.7 0 1.28-.26 1.73-.79.46-.53.68-1.37.68-2.52s-.23-2.02-.68-2.53c-.46-.52-1.03-.78-1.73-.78s-1.3.26-1.76.78-.68 1.36-.68 2.53.23 2 .68 2.52 1.04.79 1.76.79z"/><path d="m386.93 105.11c-.75 0-1.33-.2-1.72-.6s-.59-.99-.59-1.76v-8.69c0-1.56.76-2.34 2.29-2.34 1.38 0 2.14.67 2.26 2.02.44-.67 1.02-1.18 1.75-1.54s1.54-.54 2.43-.54c1.54 0 2.68.46 3.43 1.37.74.91 1.12 2.31 1.12 4.2v5.52c0 .77-.2 1.36-.6 1.76s-.98.6-1.73.6-1.33-.2-1.73-.6-.6-.99-.6-1.76v-5.33c0-.79-.14-1.35-.41-1.68s-.67-.5-1.2-.5c-.7 0-1.26.22-1.68.67s-.63 1.05-.63 1.8v5.04c0 1.58-.79 2.36-2.36 2.36z"/><path d="m107.07 189.11c-.77 0-1.37-.21-1.8-.64s-.64-1.05-.64-1.85v-13.76c0-1.66.84-2.5 2.52-2.5h8.75c1.26 0 1.89.61 1.89 1.84s-.63 1.89-1.89 1.89h-6.44v3.73h5.86c1.26 0 1.89.61 1.89 1.84s-.63 1.87-1.89 1.87h-5.86v5.1c0 1.66-.8 2.5-2.39 2.5z"/><path d="m126.06 189.16c-1.44 0-2.69-.27-3.76-.81s-1.9-1.32-2.5-2.34-.89-2.21-.89-3.6.3-2.6.89-3.61 1.43-1.78 2.5-2.33c1.07-.54 2.32-.81 3.76-.81s2.69.27 3.76.81 1.89 1.32 2.48 2.33.88 2.21.88 3.61-.29 2.58-.88 3.6-1.41 1.79-2.48 2.34c-1.07.54-2.32.81-3.76.81zm0-3.44c.7 0 1.28-.26 1.73-.79.46-.53.68-1.37.68-2.52s-.23-2.02-.68-2.53c-.46-.52-1.03-.78-1.73-.78s-1.3.26-1.76.78-.68 1.36-.68 2.53.23 2 .68 2.52 1.04.79 1.76.79z"/><path d="m137.72 189.11c-1.59 0-2.39-.79-2.39-2.36v-8.69c0-1.56.76-2.34 2.29-2.34.72 0 1.27.2 1.67.6.39.4.59.98.59 1.73v.08c.3-.75.78-1.35 1.44-1.79.67-.44 1.45-.67 2.36-.68.51-.02.89.11 1.14.38s.39.78.41 1.51c0 .63-.13 1.13-.39 1.5s-.76.59-1.5.66l-.6.05c-.93.09-1.6.35-2.02.77-.42.43-.63 1.06-.63 1.9v4.31c0 1.58-.79 2.36-2.36 2.36z"/><path d="m149.09 189.11c-.75 0-1.33-.2-1.72-.6s-.59-.99-.59-1.76v-8.69c0-1.56.76-2.34 2.29-2.34 1.38 0 2.14.67 2.26 2 .38-.63.92-1.13 1.59-1.5s1.46-.55 2.35-.55 1.63.19 2.27.58 1.12.98 1.46 1.79c.44-.75 1.03-1.33 1.79-1.75.75-.41 1.58-.62 2.5-.62 1.51 0 2.62.45 3.35 1.35s1.09 2.31 1.09 4.22v5.52c0 .77-.21 1.36-.62 1.76s-.99.6-1.75.6-1.3-.2-1.71-.6c-.4-.4-.6-.99-.6-1.76v-5.38c0-.75-.11-1.3-.34-1.63s-.6-.5-1.13-.5c-.65 0-1.14.23-1.48.68s-.51 1.1-.51 1.94v4.89c0 .77-.2 1.36-.6 1.76s-.98.6-1.73.6-1.33-.2-1.73-.6-.6-.99-.6-1.76v-5.38c0-.75-.11-1.3-.34-1.63s-.6-.5-1.13-.5c-.63 0-1.12.23-1.46.68-.34.46-.51 1.1-.51 1.94v4.89c0 1.58-.79 2.36-2.36 2.36z"/><path d="m85.64 231.87c-.79 0-1.39-.21-1.81-.64s-.63-1.03-.63-1.8v-13.66c0-.79.21-1.39.63-1.81s1.02-.63 1.79-.63 1.37.21 1.79.63.63 1.02.63 1.81v12.08h6.41c.67 0 1.18.17 1.54.53.36.35.54.84.54 1.47s-.18 1.15-.54 1.5-.87.53-1.54.53h-8.8z"/><path d="m100.56 216.85c-.82 0-1.46-.19-1.9-.58-.45-.38-.67-.95-.67-1.68s.22-1.27.67-1.65 1.08-.58 1.9-.58c1.73 0 2.6.74 2.6 2.23 0 .74-.22 1.3-.67 1.68s-1.09.58-1.93.58zm0 15.26c-.75 0-1.33-.22-1.72-.66s-.59-1.07-.59-1.89v-8.3c0-.82.2-1.45.59-1.89s.97-.66 1.72-.66 1.33.22 1.75.66.62 1.07.62 1.89v8.3c0 .82-.2 1.45-.6 1.89s-.99.66-1.76.66z"/><path d="m110.78 232.16c-.79 0-1.58-.06-2.36-.18-.79-.12-1.51-.32-2.15-.6-.54-.21-.9-.52-1.06-.92-.17-.4-.18-.81-.05-1.21s.37-.71.72-.92.77-.23 1.26-.05c.72.26 1.37.45 1.97.56s1.16.17 1.71.17c.65 0 1.11-.09 1.39-.28.28-.18.42-.42.42-.72 0-.26-.09-.46-.28-.59-.18-.13-.44-.23-.77-.3l-2.92-.47c-1.09-.17-1.93-.57-2.52-1.18-.6-.61-.89-1.41-.89-2.39 0-.91.25-1.69.76-2.35s1.22-1.16 2.13-1.52 1.95-.54 3.13-.54c.79 0 1.51.06 2.15.18.65.12 1.28.32 1.89.6.47.19.77.49.91.89.13.4.12.8-.03 1.2-.15.39-.4.69-.76.89s-.79.21-1.3.01c-.58-.23-1.09-.39-1.54-.5s-.86-.16-1.25-.16c-.72 0-1.23.1-1.52.3s-.45.44-.45.72c0 .47.32.76.97.87l2.92.5c1.12.17 1.98.56 2.59 1.14.6.59.91 1.38.91 2.38 0 1.42-.54 2.52-1.63 3.3s-2.53 1.17-4.33 1.17z"/><path d="m125.44 232.16c-1.96 0-3.41-.46-4.36-1.37s-1.42-2.29-1.42-4.12v-4.28h-.89c-1.17 0-1.76-.58-1.76-1.73s.59-1.71 1.76-1.71h.89v-1.63c0-.77.2-1.36.6-1.76s.98-.6 1.73-.6c1.56 0 2.34.79 2.34 2.36v1.63h2.15c1.19 0 1.79.57 1.79 1.71s-.6 1.73-1.79 1.73h-2.15v4.12c0 1.26.64 1.89 1.92 1.89.25 0 .48-.03.71-.08s.44-.08.63-.08c.28-.02.51.07.68.25s.26.6.26 1.25c0 .53-.08.97-.24 1.33s-.44.62-.84.77c-.25.09-.58.16-1 .22s-.76.09-1.02.09z"/><path d="m148.79 272.16c-2.12 0-3.92-.39-5.4-1.18s-2.6-1.89-3.38-3.31c-.77-1.42-1.16-3.07-1.16-4.96s.41-3.67 1.22-5.11 1.98-2.56 3.51-3.35 3.36-1.18 5.52-1.18c.88 0 1.77.08 2.68.25s1.8.48 2.68.93c.46.21.77.5.93.88.17.38.22.77.16 1.2-.06.42-.21.79-.46 1.12s-.56.55-.96.67c-.39.12-.84.07-1.35-.16-1.09-.51-2.3-.76-3.65-.76-1.77 0-3.09.47-3.95 1.42-.87.95-1.3 2.31-1.3 4.1s.44 3.13 1.31 4.04c.88.91 2.17 1.37 3.89 1.37.81 0 1.71-.12 2.71-.37v-2.92h-1.84c-1.24 0-1.87-.57-1.87-1.71s.62-1.68 1.87-1.68h3.89c1.26 0 1.89.63 1.89 1.89v5.81c0 .53-.11.97-.33 1.34s-.56.63-1.04.79c-.84.28-1.74.5-2.69.66-.96.16-1.91.24-2.88.24z"/><path d="m161.03 272.11c-1.59 0-2.39-.79-2.39-2.36v-8.69c0-1.56.76-2.34 2.29-2.34.72 0 1.27.2 1.67.6.39.4.59.98.59 1.73v.08c.3-.75.78-1.35 1.44-1.79.67-.44 1.45-.67 2.36-.68.51-.02.89.11 1.14.38s.39.78.41 1.51c0 .63-.13 1.13-.39 1.5s-.76.59-1.5.66l-.6.05c-.93.09-1.6.35-2.02.77-.42.43-.63 1.06-.63 1.9v4.31c0 1.58-.79 2.36-2.36 2.36z"/><path d="m172.35 256.85c-.82 0-1.46-.19-1.9-.58-.45-.38-.67-.95-.67-1.68s.22-1.27.67-1.65 1.08-.58 1.9-.58c1.73 0 2.6.74 2.6 2.23 0 .74-.22 1.3-.67 1.68s-1.09.58-1.93.58zm0 15.26c-.75 0-1.33-.22-1.72-.66s-.59-1.07-.59-1.89v-8.3c0-.82.2-1.45.59-1.89s.97-.66 1.72-.66 1.33.22 1.75.66.62 1.07.62 1.89v8.3c0 .82-.2 1.45-.6 1.89s-.99.66-1.76.66z"/><path d="m182.47 272.16c-1.1 0-2.08-.27-2.93-.81s-1.51-1.32-2-2.34c-.48-1.02-.72-2.21-.72-3.6s.24-2.6.72-3.61 1.15-1.78 2-2.33c.85-.54 1.83-.81 2.93-.81.82 0 1.58.17 2.27.51s1.22.78 1.59 1.33v-5.02c0-1.58.78-2.36 2.34-2.36.75 0 1.33.2 1.73.6s.6.99.6 1.76v14.26c0 1.58-.77 2.36-2.31 2.36-1.38 0-2.15-.66-2.29-1.97-.35.61-.88 1.1-1.59 1.47s-1.49.55-2.35.55zm1.5-3.44c.7 0 1.28-.26 1.73-.79.46-.53.68-1.37.68-2.52s-.23-2.02-.68-2.53c-.46-.52-1.03-.78-1.73-.78s-1.3.26-1.76.78-.68 1.36-.68 2.53.23 2 .68 2.52 1.04.79 1.76.79z"/><path d="m412.64 232.16c-1.07 0-2.17-.11-3.3-.33s-2.1-.53-2.9-.93c-.47-.23-.81-.53-1-.92-.19-.38-.26-.78-.21-1.19s.2-.78.45-1.1.57-.54.97-.66c.4-.11.86-.06 1.37.17.67.33 1.42.58 2.26.75s1.63.25 2.36.25c1.16 0 1.96-.15 2.43-.46.46-.31.7-.69.7-1.14 0-.4-.16-.73-.49-.97-.32-.25-.9-.46-1.72-.63l-3.07-.66c-3.33-.72-4.99-2.46-4.99-5.23 0-1.21.33-2.27.99-3.18s1.57-1.62 2.75-2.11c1.17-.5 2.54-.75 4.1-.75.91 0 1.83.1 2.77.3s1.75.5 2.43.91c.53.28.86.66 1 1.14s.12.95-.05 1.41-.49.79-.93 1-1.01.17-1.69-.11c-.53-.23-1.1-.4-1.73-.51s-1.24-.17-1.84-.17c-.98 0-1.73.17-2.26.51s-.79.78-.79 1.33c0 .38.16.7.47.95s.88.46 1.68.63l3.05.66c3.38.72 5.07 2.42 5.07 5.1 0 1.21-.32 2.26-.97 3.15s-1.56 1.58-2.73 2.08c-1.17.49-2.56.74-4.15.74z"/><path d="m424.85 216.85c-.82 0-1.46-.19-1.9-.58-.45-.38-.67-.95-.67-1.68s.22-1.27.67-1.65 1.08-.58 1.9-.58c1.73 0 2.6.74 2.6 2.23 0 .74-.22 1.3-.67 1.68s-1.09.58-1.93.58zm0 15.26c-.75 0-1.33-.22-1.72-.66s-.59-1.07-.59-1.89v-8.3c0-.82.2-1.45.59-1.89s.97-.66 1.72-.66 1.33.22 1.75.66.62 1.07.62 1.89v8.3c0 .82-.2 1.45-.6 1.89s-.99.66-1.76.66z"/><path d="m431.34 231.87c-.63 0-1.1-.2-1.42-.6s-.45-.89-.41-1.46.29-1.1.75-1.59l5.15-5.83h-4.25c-1.16 0-1.73-.58-1.73-1.73s.58-1.71 1.73-1.71h7.43c.7 0 1.23.2 1.58.6s.51.88.47 1.44-.28 1.09-.74 1.58l-5.17 5.86h4.52c1.17 0 1.76.57 1.76 1.71s-.59 1.73-1.76 1.73z"/><path d="m449.75 232.16c-1.58 0-2.94-.28-4.08-.83-1.15-.55-2.03-1.34-2.64-2.35-.61-1.02-.92-2.21-.92-3.6s.29-2.48.88-3.49 1.39-1.81 2.42-2.38 2.19-.85 3.51-.85 2.42.27 3.38.81c.95.54 1.69 1.32 2.21 2.33s.78 2.18.78 3.53c0 .68-.4 1.02-1.21 1.02h-7.49c.16.84.51 1.45 1.05 1.81.54.37 1.29.55 2.26.55.37 0 .8-.04 1.31-.13s.99-.23 1.44-.42c.56-.21 1.03-.21 1.42-.01s.64.51.78.92c.13.41.11.83-.05 1.26-.17.43-.5.76-.99.99-.61.3-1.26.51-1.96.64-.69.13-1.39.2-2.09.2zm-.63-10.48c-.7 0-1.27.21-1.72.63s-.73 1.03-.85 1.84h4.89c-.05-.82-.28-1.44-.67-1.85s-.94-.62-1.64-.62z"/><path d="m370.54 189.11c-.77 0-1.37-.21-1.79-.63s-.63-1.02-.63-1.81v-12.37h-4.12c-1.33 0-2-.66-2-1.97s.67-1.97 2-1.97h13.08c1.33 0 2 .66 2 1.97s-.67 1.97-2 1.97h-4.12v12.37c0 .79-.21 1.39-.62 1.81s-1.01.63-1.8.63z"/><path d="m384.85 189.16c-1 0-1.88-.18-2.64-.55s-1.36-.87-1.79-1.51-.64-1.37-.64-2.19c0-.93.25-1.67.74-2.22s1.28-.95 2.36-1.18c1.08-.24 2.53-.35 4.33-.35h1v-.37c0-.63-.16-1.08-.49-1.34s-.88-.39-1.67-.39c-.44 0-.92.05-1.43.14-.52.1-1.1.27-1.75.51-.58.21-1.06.2-1.45-.03-.38-.23-.63-.56-.75-.99-.11-.43-.07-.86.13-1.29s.59-.75 1.17-.96c.84-.3 1.62-.5 2.33-.62.71-.11 1.36-.17 1.96-.17 2.15 0 3.75.46 4.79 1.39s1.56 2.39 1.56 4.39v5.31c0 1.58-.72 2.36-2.15 2.36s-2.09-.7-2.18-2.1c-.25.67-.67 1.19-1.26 1.58-.6.38-1.32.58-2.18.58zm1.05-3.05c.65 0 1.2-.21 1.64-.63.45-.42.67-.97.67-1.65v-.47h-1c-1.03 0-1.79.11-2.27.33s-.72.56-.72 1.04c0 .4.14.74.43 1s.71.39 1.25.39z"/><path d="m403.79 189.16c-.86 0-1.64-.18-2.35-.55s-1.24-.86-1.59-1.47c-.14 1.31-.89 1.97-2.26 1.97-1.54 0-2.31-.79-2.31-2.36v-14.26c0-1.58.77-2.36 2.31-2.36.75 0 1.33.2 1.75.6.41.4.62.99.62 1.76v5.02c.37-.56.9-1.01 1.59-1.34s1.44-.5 2.25-.5c1.12 0 2.11.27 2.96.81s1.51 1.32 1.98 2.33.71 2.21.71 3.61-.24 2.58-.72 3.6-1.15 1.79-2 2.34c-.85.54-1.83.81-2.93.81zm-1.47-3.44c.7 0 1.28-.26 1.73-.79.46-.53.68-1.37.68-2.52s-.23-2.02-.68-2.53c-.46-.52-1.03-.78-1.73-.78s-1.3.26-1.76.78-.68 1.36-.68 2.53.23 2 .68 2.52 1.04.79 1.76.79z"/><path d="m416.48 189.16c-1.7 0-2.94-.45-3.73-1.35s-1.18-2.26-1.18-4.08v-11.24c0-1.58.77-2.36 2.31-2.36.75 0 1.33.2 1.75.6.41.4.62.99.62 1.76v11.08c0 .65.13 1.12.38 1.42s.58.45.99.45c.12 0 .25-.01.38-.04s.28-.05.43-.07c.32 0 .54.11.68.34s.21.69.21 1.39c0 .61-.12 1.07-.37 1.38s-.62.5-1.13.59c-.14.04-.34.07-.6.09-.26.03-.51.04-.74.04z"/><path d="m427.75 189.16c-1.58 0-2.94-.28-4.08-.83-1.15-.55-2.03-1.34-2.64-2.35-.61-1.02-.92-2.21-.92-3.6s.29-2.48.88-3.49 1.39-1.81 2.42-2.38 2.19-.85 3.51-.85 2.42.27 3.38.81c.95.54 1.69 1.32 2.21 2.33s.78 2.18.78 3.53c0 .68-.4 1.02-1.21 1.02h-7.49c.16.84.51 1.45 1.05 1.81.54.37 1.29.55 2.26.55.37 0 .8-.04 1.31-.13s.99-.23 1.44-.42c.56-.21 1.03-.21 1.42-.01s.64.51.78.92c.13.41.11.83-.05 1.26-.17.43-.5.76-.99.99-.61.3-1.26.51-1.96.64-.69.13-1.39.2-2.09.2zm-.63-10.48c-.7 0-1.27.21-1.72.63s-.73 1.03-.85 1.84h4.89c-.05-.82-.28-1.44-.67-1.85s-.94-.62-1.64-.62z"/><path d="m75.6 148.11c-.77 0-1.37-.21-1.79-.63s-.63-1.02-.63-1.81v-12.37h-4.12c-1.33 0-2-.66-2-1.97s.67-1.97 2-1.97h13.08c1.33 0 2 .66 2 1.97s-.67 1.97-2 1.97h-4.12v12.37c0 .79-.21 1.39-.62 1.81s-1.01.63-1.8.63z"/><path d="m92.47 148.16c-1.58 0-2.94-.28-4.08-.83-1.15-.55-2.03-1.34-2.64-2.35-.61-1.02-.92-2.21-.92-3.6s.29-2.48.88-3.49 1.39-1.81 2.42-2.38 2.19-.85 3.51-.85 2.42.27 3.38.81c.95.54 1.69 1.32 2.21 2.33s.78 2.18.78 3.53c0 .68-.4 1.02-1.21 1.02h-7.49c.16.84.51 1.45 1.05 1.81.54.37 1.29.55 2.26.55.37 0 .8-.04 1.31-.13s.99-.23 1.44-.42c.56-.21 1.03-.21 1.42-.01s.64.51.78.92c.13.41.11.83-.05 1.26-.17.43-.5.76-.99.99-.61.3-1.26.51-1.96.64-.69.13-1.39.2-2.09.2zm-.63-10.48c-.7 0-1.27.21-1.72.63s-.73 1.03-.85 1.84h4.89c-.05-.82-.28-1.44-.67-1.85s-.94-.62-1.64-.62z"/><path d="m101.82 148.08c-.6 0-1.06-.16-1.41-.47-.34-.32-.52-.72-.53-1.21 0-.49.19-.99.59-1.5l3.05-3.7-2.73-3.31c-.42-.51-.62-1.01-.6-1.5s.2-.89.54-1.21c.34-.31.81-.47 1.41-.47.56 0 1.02.09 1.38.28.36.18.7.49 1.04.91l1.63 2.1 1.63-2.1c.33-.42.68-.72 1.05-.91.37-.18.82-.28 1.37-.28.58 0 1.04.16 1.39.47.35.32.53.72.54 1.21s-.2.99-.62 1.5l-2.73 3.31 3.07 3.7c.42.51.62 1.01.6 1.5s-.21.89-.56 1.21c-.36.32-.83.47-1.41.47-.54 0-1-.09-1.37-.28-.37-.18-.72-.49-1.05-.91l-1.94-2.47-1.94 2.47c-.33.4-.67.7-1.02.89s-.81.29-1.37.29z"/><path d="m121.81 148.16c-1.96 0-3.41-.46-4.36-1.37s-1.42-2.29-1.42-4.12v-4.28h-.89c-1.17 0-1.76-.58-1.76-1.73s.59-1.71 1.76-1.71h.89v-1.63c0-.77.2-1.36.6-1.76s.98-.6 1.73-.6c1.56 0 2.34.79 2.34 2.36v1.63h2.15c1.19 0 1.79.57 1.79 1.71s-.6 1.73-1.79 1.73h-2.15v4.12c0 1.26.64 1.89 1.92 1.89.25 0 .48-.03.71-.08s.44-.08.63-.08c.28-.02.51.07.68.25s.26.6.26 1.25c0 .53-.08.97-.24 1.33s-.44.62-.84.77c-.25.09-.58.16-1 .22s-.76.09-1.02.09z"/><path d="m107.04 103.09c-.59 0-1.07-.14-1.44-.42s-.66-.72-.86-1.31l-4.68-13.03c-.27-.72-.23-1.33.12-1.84.35-.5.97-.76 1.85-.76.61 0 1.08.14 1.4.42s.59.72.78 1.31l3.02 9.12 3.26-9.12c.22-.59.5-1.03.83-1.31s.76-.42 1.31-.42.95.14 1.27.42.58.72.79 1.33l3.12 9.29 3.19-9.31c.19-.59.45-1.03.78-1.31s.79-.42 1.38-.42c.74 0 1.27.25 1.61.76s.38 1.12.12 1.84l-4.73 13.06c-.21.58-.49 1-.85 1.28s-.84.42-1.43.42-1.07-.14-1.44-.42-.66-.72-.86-1.31l-3.1-8.66-3.14 8.69c-.22.58-.51 1-.86 1.28s-.83.42-1.44.42z"/><path d="m133.73 103.09c-.7 0-1.25-.2-1.63-.59s-.58-.96-.58-1.69v-5.42l-4.61-6.67c-.27-.38-.39-.81-.35-1.27s.23-.86.58-1.2.84-.5 1.48-.5c.45 0 .86.11 1.22.34s.71.58 1.03 1.08l2.93 4.3 2.93-4.32c.34-.5.68-.85 1.03-1.07s.77-.32 1.25-.32c.61 0 1.08.15 1.42.46s.52.69.54 1.15-.12.94-.44 1.42l-4.58 6.62v5.42c0 1.52-.74 2.28-2.21 2.28z"/><path d="m149.3 103.13c-.98 0-1.98-.1-3.01-.3s-1.92-.48-2.65-.85c-.43-.21-.74-.49-.91-.84-.18-.35-.24-.72-.19-1.09.05-.38.18-.71.41-1.01s.52-.5.89-.6.78-.05 1.25.16c.61.3 1.3.53 2.06.68s1.49.23 2.16.23c1.06 0 1.8-.14 2.22-.42s.64-.63.64-1.04c0-.37-.15-.66-.44-.89-.3-.22-.82-.42-1.57-.58l-2.81-.6c-3.04-.66-4.56-2.25-4.56-4.78 0-1.1.3-2.07.9-2.9s1.44-1.48 2.51-1.93c1.07-.46 2.32-.68 3.74-.68.83 0 1.68.09 2.53.28.86.18 1.6.46 2.22.83.48.26.78.6.91 1.04s.11.87-.05 1.28c-.16.42-.44.72-.85.91s-.92.16-1.55-.1c-.48-.21-1.01-.36-1.58-.47-.58-.1-1.14-.16-1.68-.16-.9 0-1.58.16-2.06.47s-.72.72-.72 1.21c0 .35.14.64.43.86s.8.42 1.54.58l2.78.6c3.09.66 4.63 2.21 4.63 4.66 0 1.1-.3 2.06-.89 2.88s-1.42 1.45-2.5 1.9c-1.07.45-2.34.67-3.79.67z"/><path d="m160.85 103.09c-.7 0-1.25-.19-1.63-.58-.38-.38-.58-.94-.58-1.68v-12.84c0-.74.19-1.3.58-1.68.38-.38.93-.58 1.63-.58s1.25.19 1.63.58c.38.38.58.94.58 1.68v12.84c0 .74-.19 1.3-.56 1.68-.38.38-.92.58-1.64.58z"/><path d="m172.7 103.09c-.59 0-1.07-.14-1.44-.42s-.66-.72-.86-1.31l-4.68-13.03c-.27-.72-.23-1.33.12-1.84.35-.5.97-.76 1.85-.76.61 0 1.08.14 1.4.42s.59.72.78 1.31l3.02 9.12 3.26-9.12c.22-.59.5-1.03.83-1.31s.76-.42 1.31-.42.95.14 1.27.42.58.72.79 1.33l3.12 9.29 3.19-9.31c.19-.59.45-1.03.78-1.31s.79-.42 1.38-.42c.74 0 1.27.25 1.61.76s.38 1.12.12 1.84l-4.73 13.06c-.21.58-.49 1-.85 1.28s-.84.42-1.43.42-1.07-.14-1.44-.42-.66-.72-.86-1.31l-3.1-8.66-3.14 8.69c-.22.58-.51 1-.86 1.28s-.83.42-1.44.42z"/><path d="m199.39 103.09c-.7 0-1.25-.2-1.63-.59s-.58-.96-.58-1.69v-5.42l-4.61-6.67c-.27-.38-.39-.81-.35-1.27s.23-.86.58-1.2.84-.5 1.48-.5c.45 0 .86.11 1.22.34s.71.58 1.03 1.08l2.93 4.3 2.93-4.32c.34-.5.68-.85 1.03-1.07s.77-.32 1.25-.32c.61 0 1.08.15 1.42.46s.52.69.54 1.15-.12.94-.44 1.42l-4.58 6.62v5.42c0 1.52-.74 2.28-2.21 2.28z"/><path d="m217.32 103.13c-1.94 0-3.58-.36-4.93-1.08s-2.38-1.73-3.08-3.02-1.06-2.81-1.06-4.54.37-3.35 1.12-4.67 1.81-2.34 3.2-3.06 3.07-1.08 5.04-1.08c.8 0 1.62.08 2.45.23s1.65.44 2.45.85c.42.19.7.46.85.8s.2.71.14 1.09-.2.72-.42 1.02-.52.5-.88.61-.77.06-1.24-.14c-.99-.46-2.1-.7-3.34-.7-1.62 0-2.82.43-3.61 1.3s-1.19 2.11-1.19 3.74.4 2.86 1.2 3.7 1.98 1.25 3.55 1.25c.74 0 1.56-.11 2.47-.34v-2.66h-1.68c-1.14 0-1.7-.52-1.7-1.56s.57-1.54 1.7-1.54h3.55c1.15 0 1.73.58 1.73 1.73v5.3c0 .48-.1.89-.3 1.22-.2.34-.52.58-.95.72-.77.26-1.59.46-2.46.6s-1.75.22-2.63.22z"/></g><path d="m222.11 286.72s-20.56-26.49-.75-61.35c11.36-19.98 35.67-27.75 50.14-25.95 14.9 1.85 46.09 1.91 51.33 49.39 6.61 59.82-82.93 60.07-100.73 37.91z" fill="#0284c7"/><path d="m248.64 227.6s4.63 29.07 13.38 23.49 19.2-25.63 19.2-25.63l-32.57 2.14z" fill="#fff"/><path d="m201.83 222.86c-28.99-24.92-24.36-65.36 3.02-91.84 18.48-17.87 38.92-25.2 52.98-50.75 1.68-5.04 4.89-1.07 6.9 1.02 15.3 18.75 33.55 33.46 54.41 47.59 38.86 30.13 34.69 82.13 4.27 96.13-30.41 14-92.6 22.78-121.58-2.14z" fill="#0284c7"/><path d="m274.92 231c-19.81-.02-44.06 1.1-58.96-13.87s-18.68-38.77 3.02-50.98c15.76-8.87 27.35-9.34 49.59-6.84 22.24 2.49 50.43 13.19 48.55 44.05-1.34 21.97-20.35 27.34-42.19 27.65z" fill="#fff"/><path d="m256.41 149.05c-4.55-.15-9.89-.83-11.62-5.43-2.51-6.66 6.57-7.73 9.54-7.42 5.77.6 10.29.4 11.52 5.34 1.49 6-5.22 6.86-9.43 7.52z" fill="#fef08a"/><path d="m232.01 186.98c-.99-3.98-3.11-15.62 2.56-16.26 6.77-.76 7.68 10.55 7.91 14.75.24 4.2 1.78 10.27-3.46 10.51-3.41.15-6.13-6.02-7.02-9z" fill="#0284c7"/><path d="m271.15 187.31c-.52-4.24-.68-16.43 5.2-16.13 7.01.36 6.98 11.97 6.55 16.19-.44 4.22-1.16 10.71-6.35 10.09-3.38-.41-5.03-7.08-5.39-10.14z" fill="#0284c7"/><path d="m255.54 205.83c-2.49 3.37-5.52 6.37-9.05 8.39 2.97 5.95 12.31 12.08 17.51 9.39s5.94-5.77 6.16-10.14c-5.03-2.56-9.75-5.02-14.61-7.64z" fill="#fdd9d2"/><path d="m277.18 215.35c-1.64.77-2.79 1.02-4.36 1.01-6.5-.04-11.49-2.69-16.85-6.42-1.77 4.87-8.16 6.07-11.42 6.49-5.01.63-11.62-7.42-11.97-8.03-2.07-3.55-.96-4.09.83-5.12s3.48.14 5.15 2.22c.09.11 2.8 4.35 5.46 4.05s6.8-3.32 8.21-6.68c.24-.58 1.15-1.46 2.31-1.2 1.16.27.97-.38 3.38 1.83.21.19 9.17 7.96 13.96 6.26 2.93-1.04 9.01-4.19 10.63-8.93.42-1.23 2.91-1.72 4.22-.74s1.91 3.11 1.18 4.39c-2.74 4.84-5.94 8.63-10.74 10.88z" fill="#0284c7"/><path d="m248.69 213.35c2.7 5.13 2.02 10.61 8.2 11.24s13.46-6 14.66-10.83" fill="none" stroke="#498dc9" stroke-miterlimit="10" stroke-width="7"/><ellipse cx="264" cy="392" fill="#171717" opacity=".1" rx="65" ry="13"/><circle cx="264" cy="320.5" fill="none" r="76"/><circle cx="264" cy="320.5" fill="#06b6d4" r="76"/><path d="m307.97 326.13c-.28-.81-.57-1.65-.86-2.52-1.78-5.17-3.86-11.32-7.48-18.28-4.71-9.29-11.55-17.67-17.48-22.17-.11-.09-.22-.17-.33-.26-.12-.08-.24-.16-.35-.24-4.98-3.3-11.1-4.63-17.45-4.65-6.35.02-12.47 1.36-17.45 4.65-.12.08-.24.16-.35.24-.11.09-.22.17-.33.26-5.94 4.5-12.77 12.88-17.48 22.17-3.62 6.96-5.7 13.11-7.48 18.28-.3.87-.58 1.71-.86 2.52-2.2 5.96-2.31 13.43 1.11 19.7 3.46 6.34 10.71 9.45 18.09 9.37.34 0 .68 0 1.02-.02h2.31v-31.73c.06-6.26 2.91-4.66 9.21-.87 7.48 4.38 16.98 4.38 24.46 0 6.3-3.79 9.15-5.39 9.21.87v31.73h2.31c.34.01.68.02 1.02.02 7.38.08 14.63-3.03 18.09-9.37 3.42-6.27 3.31-13.74 1.11-19.7z" fill="#fff"/><path d="m229.75 236.11s18.05 44.28 5.42 48.1c-12.62 3.82-24.11 5.78-30.79-36.04-6.67-41.83 25.36-12.06 25.36-12.06z" fill="#fff"/><path d="m207.18 225.48c3.51-1.87 8.57-.76 15.04 3.32 4.61 2.91 8.23 6.26 8.39 6.4.13.12.24.27.31.44.06.14 5.81 14.32 8.54 27.24.09.42-.04.85-.35 1.15s-.75.42-1.16.32c-9.75-2.39-19.3-.76-26.88 4.57-.41.29-.8.59-1.19.89-.32.25-.74.32-1.13.21-.27-.08-.5-.25-.66-.48-.07-.1-.12-.21-.16-.32-1.85-5.56-3.41-12.38-4.76-20.85-2.05-12.87-.74-20.35 4.02-22.89z" fill="#0284c7"/><path d="m314.07 235.78s-42.3-22.3-47.34-10.11-8.12 23.43 32.85 34.17 14.49-24.06 14.49-24.06z" fill="#fff"/><path d="m294.68 225.72c10.4 3.94 19.88 8.92 19.97 8.97.16.08.3.2.41.35 1.29 1.69 11.41 16.72 6.38 24.26-2.99 4.48-9.57 5.06-22.17 1.75-6.2-1.62-11.63-3.33-16.15-5.07-.38-.15-.66-.47-.76-.86-.02-.09-.03-.18-.04-.27 0-.31.1-.61.31-.85 6.33-7.23 10.01-16.87 10.36-27.16.01-.4.22-.77.55-.99s.76-.27 1.13-.13z" fill="#0284c7"/></svg>