<svg viewBox="0 0 528 418" xmlns="http://www.w3.org/2000/svg"><path d="m422 402.25c0 9.53-67.16 15.75-150 15.75s-150-6.22-150-15.75 67.16-14.25 150-14.25 150 4.72 150 14.25z" fill="#171717" opacity=".1"/><rect fill="#f8fafc" height="336" rx="12" width="528"/><path d="m294 40h234v284c0 6.62-5.38 12-12 12h-222z" fill="#475569"/><path d="m12 0h504c6.62 0 12 5.38 12 12v28h-528v-28c0-6.62 5.38-12 12-12z" fill="#cbd5e1"/><circle cx="20" cy="20" fill="#dc2626" r="8"/><circle cx="44" cy="20" fill="#eab308" r="8"/><circle cx="68" cy="20" fill="#22c55e" r="8"/><path d="m20 60h74v30h-74z" fill="#cbd5e1"/><path d="m20 100h254v108h-254z" fill="#cbd5e1"/><path d="m158 220h116v68h-116z" fill="#cbd5e1"/><path d="m20 220h116v10h-116z" fill="#cbd5e1"/><path d="m20 240h116v10h-116z" fill="#cbd5e1"/><path d="m20 260h116v10h-116z" fill="#cbd5e1"/><path d="m20 280h116v10h-116z" fill="#cbd5e1"/><path d="m20 300h100v10h-100z" fill="#cbd5e1"/><path d="m200 60h74v30h-74z" fill="#cbd5e1"/><g fill="#64748b"><path d="m323 66.4h16v16h-16z"/><path d="m342.31 66.4h16v16h-16z"/><path d="m361.61 66.4h16v16h-16z"/><path d="m380.92 66.4h16v16h-16z"/><path d="m343 103h16v16h-16z"/><path d="m362.31 103h16v16h-16z"/><path d="m381.61 103h16v16h-16z"/><path d="m400.92 103h16v16h-16z"/><path d="m420.22 103h16v16h-16z"/><path d="m439.53 103h16v16h-16z"/><path d="m323 139.59h16v16h-16z"/><path d="m342.31 139.59h16v16h-16z"/><path d="m361.61 139.59h16v16h-16z"/><path d="m380.92 139.59h16v16h-16z"/><path d="m400.22 139.59h16v16h-16z"/><path d="m419.53 139.59h16v16h-16z"/><path d="m438.84 139.59h16v16h-16z"/><path d="m458.14 139.59h16v16h-16z"/><path d="m477.45 139.59h16v16h-16z"/><path d="m323 176.19h16v16h-16z"/><path d="m342.31 176.19h16v16h-16z"/><path d="m361.61 176.19h16v16h-16z"/><path d="m380.92 176.19h16v16h-16z"/><path d="m400.22 176.19h16v16h-16z"/><path d="m419.53 176.19h16v16h-16z"/><path d="m438.84 176.19h16v16h-16z"/><path d="m458.14 176.19h16v16h-16z"/><path d="m343 212.79h16v16h-16z"/><path d="m362.31 212.79h16v16h-16z"/><path d="m381.61 212.79h16v16h-16z"/><path d="m400.92 212.79h16v16h-16z"/><path d="m420.22 212.79h16v16h-16z"/><path d="m439.53 212.79h16v16h-16z"/><path d="m363 249.39h16v16h-16z"/><path d="m382.31 249.39h16v16h-16z"/><path d="m401.61 249.39h16v16h-16z"/><path d="m420.92 249.39h16v16h-16z"/><path d="m440.22 249.39h16v16h-16z"/><path d="m459.53 249.39h16v16h-16z"/><path d="m323 285.99h16v16h-16z"/><path d="m342.31 285.99h16v16h-16z"/><path d="m361.61 285.99h16v16h-16z"/><path d="m380.92 285.99h16v16h-16z"/><path d="m400.22 285.99h16v16h-16z"/><path d="m419.53 285.99h16v16h-16z"/><path d="m504.62 77.3c-.07-.2-.14-.4-.21-.61-.43-1.25-.93-2.74-1.81-4.42-1.14-2.24-2.79-4.27-4.22-5.36-.03-.02-.05-.04-.08-.06s-.06-.04-.09-.06c-1.2-.8-2.68-1.12-4.22-1.12-1.53 0-3.01.33-4.22 1.12-.03.02-.06.04-.09.06s-.05.04-.08.06c-1.43 1.09-3.09 3.11-4.22 5.36-.87 1.68-1.38 3.17-1.81 4.42-.07.21-.14.41-.21.61-.53 1.44-.56 3.25.27 4.76.83 1.53 2.59 2.28 4.37 2.26h.25.56v-7.66c.01-1.51.7-1.13 2.23-.21 1.81 1.06 4.1 1.06 5.91 0 1.52-.92 2.21-1.3 2.23.21v7.66h.56.25c1.78.02 3.53-.73 4.37-2.26.83-1.51.8-3.32.27-4.76z"/></g><path d="m171.14 159.23c-.15-.44-.31-.9-.47-1.38-.98-2.84-2.12-6.22-4.11-10.04-2.59-5.1-6.34-9.7-9.6-12.17-.06-.05-.12-.09-.18-.14-.06-.04-.13-.09-.19-.13-2.74-1.81-6.1-2.54-9.58-2.56-3.49.01-6.85.75-9.58 2.56-.06.04-.13.09-.19.13-.06.05-.12.09-.18.14-3.26 2.47-7.01 7.07-9.6 12.17-1.99 3.82-3.13 7.2-4.11 10.04-.16.48-.32.94-.47 1.38-1.21 3.27-1.27 7.38.61 10.82 1.9 3.48 5.88 5.19 9.93 5.14h.56 1.27v-17.42c.03-3.44 1.6-2.56 5.06-.48 4.11 2.4 9.32 2.4 13.43 0 3.46-2.08 5.03-2.96 5.06.48v17.42h1.27.56c4.05.05 8.03-1.66 9.93-5.14 1.88-3.44 1.82-7.54.61-10.82z" fill="#f8fafc"/><path d="m67.62 77.3c-.07-.2-.14-.4-.21-.61-.43-1.25-.93-2.74-1.81-4.42-1.14-2.24-2.79-4.27-4.22-5.36-.03-.02-.05-.04-.08-.06s-.06-.04-.09-.06c-1.2-.8-2.68-1.12-4.22-1.12-1.53 0-3.01.33-4.22 1.12-.03.02-.06.04-.09.06s-.05.04-.08.06c-1.43 1.09-3.09 3.11-4.22 5.36-.87 1.68-1.38 3.17-1.81 4.42-.07.21-.14.41-.21.61-.53 1.44-.56 3.25.27 4.76.83 1.53 2.59 2.28 4.37 2.26h.25.56v-7.66c.01-1.51.7-1.13 2.23-.21 1.81 1.06 4.1 1.06 5.91 0 1.52-.92 2.21-1.3 2.23.21v7.66h.56.25c1.78.02 3.53-.73 4.37-2.26.83-1.51.8-3.32.27-4.76z" fill="#f8fafc"/><path d="m247.62 77.3c-.07-.2-.14-.4-.21-.61-.43-1.25-.93-2.74-1.81-4.42-1.14-2.24-2.79-4.27-4.22-5.36-.03-.02-.05-.04-.08-.06s-.06-.04-.09-.06c-1.2-.8-2.68-1.12-4.22-1.12-1.53 0-3.01.33-4.22 1.12-.03.02-.06.04-.09.06s-.05.04-.08.06c-1.43 1.09-3.09 3.11-4.22 5.36-.87 1.68-1.38 3.17-1.81 4.42-.07.21-.14.41-.21.61-.53 1.44-.56 3.25.27 4.76.83 1.53 2.59 2.28 4.37 2.26h.25.56v-7.66c.01-1.51.7-1.13 2.23-.21 1.81 1.06 4.1 1.06 5.91 0 1.52-.92 2.21-1.3 2.23.21v7.66h.56.25c1.78.02 3.53-.73 4.37-2.26.83-1.51.8-3.32.27-4.76z" fill="#f8fafc"/><path d="m226.62 256.3c-.07-.2-.14-.4-.21-.61-.43-1.25-.93-2.74-1.81-4.42-1.14-2.24-2.79-4.27-4.22-5.36-.03-.02-.05-.04-.08-.06s-.06-.04-.09-.06c-1.2-.8-2.68-1.12-4.22-1.12-1.53 0-3.01.33-4.22 1.12-.03.02-.06.04-.09.06s-.05.04-.08.06c-1.43 1.09-3.09 3.11-4.22 5.36-.87 1.68-1.38 3.17-1.81 4.42-.07.21-.14.41-.21.61-.53 1.44-.56 3.25.27 4.76.83 1.53 2.59 2.28 4.37 2.26h.25.56v-7.66c.01-1.51.7-1.13 2.23-.21 1.81 1.06 4.1 1.06 5.91 0 1.52-.92 2.21-1.3 2.23.21v7.66h.56.25c1.78.02 3.53-.73 4.37-2.26.83-1.51.8-3.32.27-4.76z" fill="#f8fafc"/><path d="m304.4 371.16s-47.46 9.6-36.42 23.77 31.54 9.79 60.2-7.78-23.78-15.99-23.78-15.99z" fill="#fff"/><path d="m350.91 373.58s-23 33.76 25.25 34.41 26.87-40.54-25.25-34.41z" fill="#fff"/><path d="m281.44 302.81s-47.18 17.45-41.18 29.96 12.64 22.82 49.84-1.71-8.66-28.25-8.66-28.25z" fill="#fff"/><path d="m288.65 366.22s-17.31-30.74 8.7-63.95c14.91-19.03 41.4-23.36 56.19-19.26 15.22 4.22 43.51 8.49 41.63 58.71-2.37 63.27-91.42 50.31-106.51 24.51z" fill="#0284c7"/><path d="m406.55 322.87s29.86 40.48 17.98 47.65-23.09 12.14-40.72-28.79c-17.63-40.92 22.74-18.86 22.74-18.86z" fill="#fff"/><path d="m319.29 306.83s.33 30.97 10.29 26.51c9.97-4.46 23.94-23.71 23.94-23.71l-34.23-2.81z" fill="#fff"/><path d="m305.73 312.78c-1.04-4.06-5.5-7.19-13.26-9.31-5.53-1.51-10.71-1.94-10.92-1.96-.19-.02-.38.01-.56.08-.15.06-15.24 5.67-27.21 12.72-.39.23-.63.64-.64 1.09s.21.88.58 1.13c8.78 5.87 14.3 14.43 15.55 24.1.07.52.11 1.04.15 1.55.03.42.27.8.64 1.02.25.15.55.21.84.17.12-.02.25-.05.37-.1 5.63-2.51 12.03-6.15 19.56-11.12 11.44-7.54 16.32-13.88 14.91-19.37z" fill="#0284c7"/><path d="m420.08 341.46c-5.74-10.2-12.41-19.27-12.48-19.36-.11-.15-.26-.28-.43-.37-1.96-1.07-19.35-10.28-26.4-3.85-4.19 3.82-3.59 11.79 1.83 24.38 2.67 6.19 5.3 11.57 7.82 16 .21.37.59.62 1.02.66h.29c.32-.04.62-.2.83-.45 6.52-7.73 15.97-13.08 26.62-15.06.41-.08.77-.35.95-.73s.16-.83-.05-1.2z" fill="#0284c7"/><path d="m267.48 293.64c-8.81-10.45-26.22-57.49 13.35-87.51 26.7-20.26 41.14-15.17 64.7-50.1 0 0 1.81-6.61 6.66 2.04 0 0 17.64 29.02 59.53 56.07 59.97 43.26 17.23 107.91-11.76 110.49-57.31 10.31-123.67-20.53-132.48-30.99z" fill="#0284c7"/><path d="m331.18 312.73s-40.06-6.91-50.26-23.76c-10.21-16.86-7.38-43.03 10.41-50.83 12.93-5.67 29.93-4.6 52.78.2s54.68 21.22 44.56 57.6c-8.04 28.91-39.38 18.74-57.49 16.8z" fill="#fff"/><path d="m330.19 224.67s-11.78-.8-13.07-6.43c-1.86-8.16 9.53-7.35 12.47-6.83 5.69 1 11.85 1.33 12.52 6.5.81 6.27-7.47 6.76-11.92 6.76z" fill="#fef08a"/><path d="m300.78 262.31s-.87-16.85 5.1-16.31c7.12.64 6.65 10.88 6.03 16.18-.63 5.3-1.9 10.68-5.93 9.9-2.63-.51-4.62-5.27-5.2-9.76z" fill="#0284c7"/><path d="m341.37 269.51s-.94-18.36 5.56-17.77c7.76.69 7.25 11.86 6.57 17.63s-2.07 11.64-6.46 10.79c-2.87-.56-5.03-5.75-5.66-10.64z" fill="#0284c7"/><path d="m342.45 300.58c-1.79.23-3.58.21-5.36-.05-7.41-1.12-12.68-6.35-15.47-9.89-5.44 3.93-10.33 5.23-14.57 3.87-6.52-2.09-8.33-9.59-8.4-9.91-.43-1.86.73-3.71 2.6-4.14 1.86-.44 3.71.71 4.16 2.56.03.1 1.1 4.08 3.81 4.93 2.46.77 6.32-.97 10.87-4.91.79-.68 1.85-.98 2.87-.8 1.03.18 1.92.81 2.43 1.72.04.08 4.97 8.61 12.78 9.76 4.78.7 9.91-1.51 15.26-6.57 1.39-1.32 3.58-1.26 4.9.12s1.26 3.56-.13 4.88c-5.22 4.94-10.5 7.76-15.76 8.44z" fill="#0284c7"/><circle cx="187" cy="332" fill="none" r="76"/><circle cx="187" cy="332" fill="#06b6d4" r="72"/><path d="m187 264c37.5 0 68 30.5 68 68s-30.5 68-68 68-68-30.5-68-68 30.5-68 68-68m0-8c-41.97 0-76 34.03-76 76s34.03 76 76 76 76-34.03 76-76-34.03-76-76-76z" fill="#fff"/><path d="m230.97 337.63c-.28-.81-.57-1.65-.86-2.52-1.78-5.17-3.86-11.32-7.48-18.28-4.71-9.29-11.55-17.67-17.48-22.17-.11-.09-.22-.17-.33-.26-.12-.08-.24-.16-.35-.24-4.98-3.3-11.1-4.63-17.45-4.65-6.35.02-12.47 1.36-17.45 4.65-.12.08-.24.16-.35.24-.11.09-.22.17-.33.26-5.94 4.5-12.77 12.88-17.48 22.17-3.62 6.96-5.7 13.11-7.48 18.28-.3.87-.58 1.71-.86 2.52-2.2 5.96-2.31 13.43 1.11 19.7 3.46 6.34 10.71 9.45 18.09 9.37.34 0 .68 0 1.02-.02h2.31v-31.73c.06-6.26 2.91-4.66 9.21-.87 7.48 4.38 16.98 4.38 24.46 0 6.3-3.79 9.15-5.39 9.21.87v31.73h2.31c.34.01.68.02 1.02.02 7.38.08 14.63-3.03 18.09-9.37 3.42-6.27 3.31-13.74 1.11-19.7z" fill="#fff"/></svg>