<svg viewBox="0 0 660 94" xmlns="http://www.w3.org/2000/svg"><g fill="#06b6d4"><path d="m108.51 58.42c-.33-.97-.68-1.98-1.03-3.02-2.14-6.2-4.64-13.59-8.98-21.93-5.66-11.14-13.86-21.2-20.98-26.6-.13-.1-.27-.21-.4-.31-.14-.09-.28-.19-.42-.28-5.98-3.96-13.32-5.56-20.94-5.58-7.62.02-14.96 1.63-20.94 5.58-.14.09-.28.19-.42.28-.13.1-.27.21-.4.31-7.12 5.4-15.32 15.46-20.98 26.6-4.34 8.35-6.84 15.73-8.98 21.93-.36 1.04-.7 2.05-1.03 3.02-2.63 7.15-2.78 16.12 1.33 23.64 4.15 7.61 12.85 11.34 21.7 11.24.4 0 .82 0 1.22-.02h2.77v-38.07c.07-7.51 3.49-5.59 11.05-1.04 8.98 5.25 20.37 5.25 29.35 0 7.56-4.55 10.98-6.47 11.05 1.04v38.07h2.77c.41.01.82.02 1.22.02 8.85.1 17.55-3.63 21.7-11.24 4.11-7.52 3.97-16.48 1.33-23.64z"/><path d="m240.87 16.48c.54 1 .85 1.91.95 2.71s.15 1.98.15 3.52v55.74c0 4.62-1.27 7.33-3.82 8.13-1.27.4-2.88.6-4.82.6s-3.48-.17-4.62-.5-2.01-.74-2.61-1.21-1.07-1.14-1.41-2.01c-.34-1.14-.5-2.88-.5-5.22v-33.65c-1.67 2.08-4.12 5.37-7.33 9.89s-5.26 7.35-6.13 8.49-1.47 1.93-1.81 2.36c-.33.44-1.15 1.04-2.46 1.81s-2.71 1.15-4.22 1.15-2.88-.35-4.12-1.05-2.13-1.39-2.66-2.06l-.8-1.1c-1.34-1.67-3.98-5.24-7.93-10.7s-6.09-8.39-6.43-8.79v33.85c0 1.54-.05 2.7-.15 3.46-.1.77-.42 1.62-.95 2.56-1 1.81-3.62 2.71-7.83 2.71s-6.63-.9-7.63-2.71c-.54-.94-.85-1.81-.95-2.61s-.15-2.01-.15-3.62v-55.73c0-1.54.05-2.69.15-3.46s.42-1.66.95-2.66c1-1.74 3.62-2.61 7.83-2.61 1.81 0 3.36.22 4.67.65 1.31.44 2.16.89 2.56 1.36l.6.6 22.8 29.93c11.38-15.07 18.98-25.01 22.8-29.83 1.14-1.81 3.83-2.71 8.08-2.71s6.84.9 7.78 2.71z"/><path d="m316.2 16.38c.67-1.07 1.64-1.81 2.91-2.21s2.86-.6 4.77-.6 3.43.17 4.57.5c1.14.34 2.01.74 2.61 1.21s1.04 1.17 1.31 2.11c.4 1.14.6 2.88.6 5.22v30.33c0 8.84-2.75 16.87-8.24 24.1-2.68 3.42-6.13 6.18-10.35 8.29s-8.89 3.16-14.01 3.16-9.78-1.07-13.96-3.21c-4.19-2.14-7.58-4.95-10.19-8.44-5.42-7.1-8.13-15.13-8.13-24.1v-30.23c0-1.61.05-2.79.15-3.57.1-.77.42-1.66.95-2.66.54-1 1.44-1.71 2.71-2.11s2.98-.6 5.12-.6 3.85.2 5.12.6 2.14 1.1 2.61 2.11c.8 1.54 1.21 3.65 1.21 6.33v30.13c0 4.08 1 7.97 3.01 11.65 1 1.88 2.51 3.38 4.52 4.52s4.38 1.71 7.13 1.71c4.89 0 8.54-1.81 10.95-5.42s3.62-7.8 3.62-12.55v-30.73c0-2.61.33-4.45 1-5.52z"/><path d="m358.18 76.94c-1.74-2.14-2.61-4.07-2.61-5.78s1.44-3.97 4.32-6.78c1.67-1.61 3.45-2.41 5.32-2.41s4.49 1.67 7.83 5.02c.94 1.14 2.28 2.23 4.02 3.26 1.74 1.04 3.35 1.56 4.82 1.56 6.23 0 9.34-2.54 9.34-7.63 0-1.54-.85-2.83-2.56-3.87s-3.83-1.79-6.38-2.26-5.29-1.22-8.24-2.26-5.69-2.26-8.24-3.67c-2.54-1.41-4.67-3.63-6.38-6.68s-2.56-6.71-2.56-11c0-5.89 2.19-11.03 6.58-15.42s10.36-6.58 17.93-6.58c4.02 0 7.68.52 11 1.56 3.31 1.04 5.61 2.09 6.88 3.16l2.51 1.91c2.07 1.94 3.11 3.58 3.11 4.92s-.8 3.18-2.41 5.52c-2.28 3.35-4.62 5.02-7.03 5.02-1.41 0-3.15-.67-5.22-2.01-.2-.13-.59-.47-1.16-1-.57-.54-1.09-.97-1.56-1.31-1.41-.87-3.2-1.31-5.37-1.31s-3.98.52-5.42 1.56-2.16 2.48-2.16 4.32.85 3.33 2.56 4.47 3.83 1.91 6.38 2.31c2.54.4 5.32 1.02 8.34 1.86 3.01.84 5.79 1.86 8.34 3.06 2.54 1.21 4.67 3.3 6.38 6.28s2.56 6.65 2.56 11-.87 8.19-2.61 11.5-4.02 5.88-6.83 7.68c-5.42 3.55-11.22 5.32-17.38 5.32-3.15 0-6.13-.39-8.94-1.15-2.81-.77-5.09-1.72-6.83-2.86-3.55-2.14-6.03-4.22-7.43-6.23l-.9-1.1z"/><path d="m479.8 16.38c.67-1.07 1.64-1.81 2.91-2.21s2.86-.6 4.77-.6 3.43.17 4.57.5c1.14.34 2.01.74 2.61 1.21s1.04 1.17 1.31 2.11c.4 1.14.6 2.88.6 5.22v30.33c0 8.84-2.75 16.87-8.24 24.1-2.68 3.42-6.13 6.18-10.35 8.29s-8.89 3.16-14.01 3.16-9.78-1.07-13.96-3.21c-4.19-2.14-7.58-4.95-10.19-8.44-5.42-7.1-8.13-15.13-8.13-24.1v-30.23c0-1.61.05-2.79.15-3.57.1-.77.42-1.66.95-2.66.54-1 1.44-1.71 2.71-2.11s2.98-.6 5.12-.6 3.85.2 5.12.6 2.14 1.1 2.61 2.11c.8 1.54 1.21 3.65 1.21 6.33v30.13c0 4.08 1 7.97 3.01 11.65 1 1.88 2.51 3.38 4.52 4.52s4.38 1.71 7.13 1.71c4.89 0 8.54-1.81 10.95-5.42s3.62-7.8 3.62-12.55v-30.73c0-2.61.33-4.45 1-5.52z"/><path d="m575.12 47.81c3.95 4.69 5.93 9.94 5.93 15.77-.13 6.7-2.43 12.3-6.88 16.82s-9.86 6.78-16.22 6.78h-26.41c-4.69 0-7.43-1.27-8.24-3.82-.4-1.14-.6-2.88-.6-5.22v-55.74c0-1.61.05-2.78.15-3.52s.42-1.61.95-2.61c.94-1.81 3.55-2.71 7.83-2.71h25.31c6.16 0 11.31 2.14 15.47 6.43 4.35 4.35 6.53 9.58 6.53 15.67 0 4.42-1.27 8.47-3.82 12.15zm-11.85 14.76c0-1.61-.18-2.88-.55-3.82s-.99-1.61-1.86-2.01c-1.34-.54-3.21-.8-5.62-.8s-4.22-.47-5.42-1.41c-1.21-.94-1.81-2.86-1.81-5.77s.62-4.84 1.86-5.78 3.3-1.41 6.18-1.41c2.68 0 4.28-.7 4.82-2.11.2-.74.3-1.94.3-3.62s-.55-2.84-1.66-3.51-2.76-1-4.97-1h-14.06v38.07h16.47c4.22 0 6.33-2.28 6.33-6.83z"/><path d="m620.16 24.56c-.5.97-1.39 1.66-2.66 2.06s-2.96.6-5.07.6-3.8-.2-5.07-.6-2.16-1.1-2.66-2.11c-.5-1-.8-1.89-.9-2.66s-.15-1.92-.15-3.46.05-2.69.15-3.46.38-1.62.85-2.56c.94-1.81 3.55-2.71 7.83-2.71s6.76.9 7.63 2.71c.54 1 .85 1.89.95 2.66s.15 1.93.15 3.46-.05 2.7-.15 3.46c-.1.77-.4 1.64-.9 2.61zm-16.52 18.63c0-1.54.05-2.69.15-3.46s.38-1.66.85-2.66c.94-1.74 3.55-2.61 7.83-2.61 3.21 0 5.49.57 6.83 1.71 1.14.94 1.74 2.38 1.81 4.32.07.67.1 1.64.1 2.91v35.15c0 1.54-.05 2.7-.15 3.47s-.42 1.66-.95 2.66c-.87 1.74-3.45 2.61-7.73 2.61s-6.8-.9-7.73-2.71c-.47-1-.75-1.87-.85-2.61s-.15-1.91-.15-3.51v-35.25z"/><path d="m657.82 24.56c-.5.97-1.39 1.66-2.66 2.06s-2.96.6-5.07.6-3.8-.2-5.07-.6-2.16-1.1-2.66-2.11c-.5-1-.8-1.89-.9-2.66s-.15-1.92-.15-3.46.05-2.69.15-3.46.38-1.62.85-2.56c.94-1.81 3.55-2.71 7.83-2.71s6.76.9 7.63 2.71c.54 1 .85 1.89.95 2.66s.15 1.93.15 3.46-.05 2.7-.15 3.46c-.1.77-.4 1.64-.9 2.61zm-16.52 18.63c0-1.54.05-2.69.15-3.46s.38-1.66.85-2.66c.94-1.74 3.55-2.61 7.83-2.61 3.21 0 5.49.57 6.83 1.71 1.14.94 1.74 2.38 1.81 4.32.07.67.1 1.64.1 2.91v35.15c0 1.54-.05 2.7-.15 3.47s-.42 1.66-.95 2.66c-.87 1.74-3.45 2.61-7.73 2.61s-6.8-.9-7.73-2.71c-.47-1-.75-1.87-.85-2.61s-.15-1.91-.15-3.51v-35.25z"/></g></svg>