<svg id="レイヤー_1" data-name="レイヤー 1" xmlns="http://www.w3.org/2000/svg" viewBox="0 0 528 418"><defs><style>.cls-1,.cls-5{fill:#fff;}.cls-1{stroke:#edeff0;stroke-linejoin:round;stroke-width:10px;}.cls-2{font-size:26.27px;}.cls-13,.cls-2,.cls-3{fill:#1cb4c7;}.cls-2,.cls-3{font-family:Nunito-Black, Nunito;}.cls-3{font-size:24px;}.cls-4{fill:#498dc9;}.cls-6{fill:#efd252;}.cls-7{fill:#0ea1b3;}.cls-8{fill:#fdd9d2;}.cls-12,.cls-9{fill:none;}.cls-9{stroke:#498dc9;stroke-miterlimit:10;stroke-width:7px;}.cls-10{fill:#f5f5f5;}.cls-11{fill:#e0e0e0;}</style></defs><title>illust-about-1</title><path class="cls-1" d="M476,108H415V73a8,8,0,0,0-8-8H344.5V30a8,8,0,0,0-8-8h-154a8,8,0,0,0-8,8V61h-89a8,8,0,0,0-8,8v36H54a8,8,0,0,0-8,8v39a8,8,0,0,0,8,8H86v32H64.07a8,8,0,0,0-8,8v39a8,8,0,0,0,8,8H116v31a8,8,0,0,0,8,8h84a8,8,0,0,0,8-8V239a8,8,0,0,0-8-8H156.07V203H178a8,8,0,0,0,8-8V156a8,8,0,0,0-8-8H146V116h93.5a8,8,0,0,0,8-8V77H295v35a8,8,0,0,0,8,8h51v28H344a8,8,0,0,0-8,8v39a8,8,0,0,0,8,8h35v29H320a8,8,0,0,0-8,8v39a8,8,0,0,0,8,8H434a8,8,0,0,0,8-8V246h29a8,8,0,0,0,8-8V199a8,8,0,0,0-8-8H456V163h20a8,8,0,0,0,8-8V116A8,8,0,0,0,476,108Z"/><text class="cls-2" transform="translate(326.43 268.87)">Heading</text><text class="cls-2" transform="translate(194.31 58.87)">Reset CSS</text><text class="cls-2" transform="translate(311.53 100.87)">Button</text><text class="cls-2" transform="translate(103.25 184.87)">Form</text><text class="cls-2" transform="translate(82.04 227.87)">List</text><text class="cls-2" transform="translate(137.83 267.87)">Grid</text><text class="cls-2" transform="translate(374.47 144.87)">Display</text><text class="cls-2" transform="translate(403.75 227.87)">Size</text><text class="cls-2" transform="translate(363.52 184.87)">Table</text><text class="cls-2" transform="translate(68.14 143.87)">Text</text><text class="cls-3" transform="translate(98.86 98.87)">WYSIWYG</text><path class="cls-4" d="M222.11,282.72s-20.56-26.49-.75-61.34c11.36-20,35.67-27.75,50.14-25.95,14.91,1.84,46.1,1.9,51.34,49.38C329.45,304.63,239.91,304.88,222.11,282.72Z"/><path class="cls-5" d="M248.64,223.6s4.63,29.08,13.38,23.49,19.19-25.63,19.19-25.63Z"/><path class="cls-4" d="M201.83,218.86c-29-24.92-24.36-65.36,3-91.84,18.48-17.87,38.93-25.19,53-50.75,1.68-5,4.9-1.07,6.9,1C280,96,298.28,110.74,319.14,124.87,358,155,353.83,207,323.41,221S230.82,243.78,201.83,218.86Z"/><path class="cls-5" d="M274.92,227c-19.8,0-44.06,1.1-59-13.86s-18.68-38.77,3-51c15.76-8.87,27.35-9.33,49.59-6.84S319,168.5,317.12,199.36C315.78,221.33,296.76,226.7,274.92,227Z"/><path class="cls-6" d="M256.41,145.05c-4.56-.15-9.89-.83-11.63-5.43-2.51-6.65,6.57-7.73,9.54-7.42,5.77.6,10.29.4,11.52,5.34C267.33,143.54,260.62,144.4,256.41,145.05Z"/><path class="cls-7" d="M232,183c-1-4-3.11-15.62,2.57-16.26,6.77-.76,7.67,10.55,7.91,14.75S244.27,191.74,239,192C235.62,192.13,232.9,186,232,183Z"/><path class="cls-7" d="M271.15,183.31c-.52-4.24-.68-16.43,5.2-16.13,7,.36,7,12,6.54,16.19s-1.16,10.71-6.35,10.08C273.16,193.05,271.52,186.38,271.15,183.31Z"/><path class="cls-8" d="M255.54,201.83a30.23,30.23,0,0,1-9,8.39c3,5.94,12.32,12.07,17.51,9.39s5.94-5.78,6.16-10.14C265.13,206.91,260.41,204.45,255.54,201.83Z"/><path class="cls-4" d="M277.18,211.35a9.1,9.1,0,0,1-4.36,1c-6.5,0-11.49-2.69-16.85-6.41-1.77,4.87-8.16,6.07-11.42,6.48-5,.63-11.61-7.42-12-8-2.06-3.55-1-4.09.83-5.12s3.48.14,5.15,2.22c.1.12,2.8,4.36,5.47,4.05s6.8-3.32,8.21-6.68a2.1,2.1,0,0,1,2.3-1.2c1.16.27,1-.38,3.38,1.83.2.19,9.17,8,14,6.26,2.93-1,9-4.19,10.63-8.94.42-1.23,2.91-1.72,4.22-.74a3.73,3.73,0,0,1,1.19,4.39C285.17,205.31,282,209.1,277.18,211.35Z"/><path class="cls-9" d="M248.69,209.35c2.7,5.13,2,10.61,8.2,11.24s13.45-6,14.66-10.83"/><path class="cls-10" d="M351,388c0,12.7-38.95,21-87,21s-87-8.3-87-21,38.95-19,87-19S351,375.3,351,388Z"/><ellipse class="cls-11" cx="264" cy="386" rx="55" ry="12.01"/><circle class="cls-12" cx="264" cy="316.5" r="76"/><circle class="cls-13" cx="264" cy="316.5" r="76"/><path class="cls-5" d="M308,322.13l-.87-2.52a126.5,126.5,0,0,0-7.48-18.28c-4.71-9.28-11.55-17.67-17.48-22.17l-.33-.26-.36-.23c-5-3.3-11.1-4.63-17.45-4.65s-12.47,1.35-17.45,4.65l-.36.23-.33.26c-5.93,4.5-12.77,12.89-17.48,22.17a126.5,126.5,0,0,0-7.48,18.28c-.3.87-.59,1.71-.86,2.52a24.2,24.2,0,0,0,1.11,19.7c3.45,6.34,10.71,9.45,18.08,9.37.34,0,.68,0,1,0h2.31V319.46c.06-6.26,2.91-4.66,9.21-.87a24.41,24.41,0,0,0,24.46,0c6.3-3.79,9.15-5.39,9.21.87v31.72h2.31c.34,0,.68,0,1,0,7.37.08,14.63-3,18.09-9.37A24.27,24.27,0,0,0,308,322.13Z"/><path class="cls-5" d="M229.75,232.11s18.05,44.28,5.43,48.1-24.12,5.79-30.79-36S229.75,232.11,229.75,232.11Z"/><path class="cls-4" d="M207.18,221.48c3.51-1.88,8.57-.76,15,3.32a63,63,0,0,1,8.39,6.4,1.25,1.25,0,0,1,.31.44c.05.14,5.8,14.32,8.54,27.24a1.25,1.25,0,0,1-1.52,1.47c-9.75-2.39-19.29-.76-26.88,4.57-.4.28-.8.58-1.19.89a1.25,1.25,0,0,1-1.12.2,1.19,1.19,0,0,1-.82-.8,133.41,133.41,0,0,1-4.76-20.84C201.11,231.5,202.42,224,207.18,221.48Z"/><path class="cls-5" d="M314.07,231.78s-42.3-22.29-47.34-10.1-8.12,23.42,32.85,34.16S314.07,231.78,314.07,231.78Z"/><path class="cls-4" d="M294.68,221.72a204.25,204.25,0,0,1,20,9,1.39,1.39,0,0,1,.41.35c1.29,1.69,11.41,16.72,6.38,24.27-3,4.48-9.57,5.05-22.17,1.75A154,154,0,0,1,283.12,252a1.24,1.24,0,0,1-.76-.86.84.84,0,0,1,0-.27,1.21,1.21,0,0,1,.31-.85A43.44,43.44,0,0,0,293,222.84a1.25,1.25,0,0,1,.56-1A1.22,1.22,0,0,1,294.68,221.72Z"/></svg>