<svg id="レイヤー_1" data-name="レイヤー 1" xmlns="http://www.w3.org/2000/svg" viewBox="0 0 528 418"><defs><style>.cls-1{fill:#eee;}.cls-2{fill:#596c75;}.cls-3{fill:#d1d7da;}.cls-4{fill:#e65d53;}.cls-5{fill:#e8b92e;}.cls-6{fill:#5ead61;}.cls-7{fill:#fff;}.cls-8,.cls-9{fill:#1cb4c7;}.cls-11,.cls-9{font-size:26.27px;font-family:Nunito-Black, Nunito;}.cls-10,.cls-11{fill:#e79a27;}.cls-12,.cls-13{fill:none;stroke:#e79a27;stroke-width:8px;}.cls-12{stroke-linejoin:round;}.cls-13{stroke-linecap:round;stroke-miterlimit:10;}.cls-14{fill:#e0e0e0;}.cls-15{fill:#498dc9;}.cls-16{fill:#3a7ec0;}.cls-17{fill:#f1e258;}</style></defs><title>illust-about-2</title><path class="cls-1" d="M479,384c0,12.7-49.7,21-111,21s-111-8.3-111-21,49.7-19,111-19S479,371.3,479,384Z"/><rect class="cls-2" x="20" width="488" height="350" rx="12" ry="12"/><path class="cls-3" d="M32,0H496a12,12,0,0,1,12,12V40a0,0,0,0,1,0,0H20a0,0,0,0,1,0,0V12A12,12,0,0,1,32,0Z"/><circle class="cls-4" cx="40" cy="20" r="8"/><circle class="cls-5" cx="64" cy="20" r="8"/><circle class="cls-6" cx="88" cy="20" r="8"/><rect class="cls-7" x="58" y="69" width="98" height="53" rx="7" ry="7"/><path class="cls-8" d="M149,70a6,6,0,0,1,6,6v39a6,6,0,0,1-6,6H65a6,6,0,0,1-6-6V76a6,6,0,0,1,6-6h84m0-2H65a8,8,0,0,0-8,8v39a8,8,0,0,0,8,8h84a8,8,0,0,0,8-8V76a8,8,0,0,0-8-8Z"/><text class="cls-9" transform="translate(75.52 103.87)">.btns</text><rect class="cls-7" x="197" y="69" width="88" height="53" rx="7" ry="7"/><path class="cls-8" d="M278,70a6,6,0,0,1,6,6v39a6,6,0,0,1-6,6H204a6,6,0,0,1-6-6V76a6,6,0,0,1,6-6h74m0-2H204a8,8,0,0,0-8,8v39a8,8,0,0,0,8,8h74a8,8,0,0,0,8-8V76a8,8,0,0,0-8-8Z"/><text class="cls-9" transform="translate(215.95 103.87)">.btn</text><rect class="cls-7" x="317" y="69" width="138" height="53" rx="7" ry="7"/><path class="cls-10" d="M448,70a6,6,0,0,1,6,6v39a6,6,0,0,1-6,6H324a6,6,0,0,1-6-6V76a6,6,0,0,1,6-6H448m0-2H324a8,8,0,0,0-8,8v39a8,8,0,0,0,8,8H448a8,8,0,0,0,8-8V76a8,8,0,0,0-8-8Z"/><text class="cls-11" transform="translate(334 103.87)">.is-plain</text><path class="cls-8" d="M185.73,94.09l-1.42-1.42-9.9-9.9a2,2,0,0,0-2.82,0l-1.42,1.42a2,2,0,0,0,0,2.82l8.49,8.49L170.17,104a2,2,0,0,0,0,2.82l1.42,1.42a2,2,0,0,0,2.82,0l9.9-9.9,1.42-1.42A2,2,0,0,0,185.73,94.09Z"/><line class="cls-12" x1="286" y1="95.5" x2="316" y2="95.5"/><rect class="cls-7" x="317" y="139" width="148" height="53" rx="7" ry="7"/><path class="cls-10" d="M458,140a6,6,0,0,1,6,6v39a6,6,0,0,1-6,6H324a6,6,0,0,1-6-6V146a6,6,0,0,1,6-6H458m0-2H324a8,8,0,0,0-8,8v39a8,8,0,0,0,8,8H458a8,8,0,0,0,8-8V146a8,8,0,0,0-8-8Z"/><text class="cls-11" transform="translate(334 173.87)">.is-round</text><rect class="cls-7" x="317" y="209" width="158" height="53" rx="7" ry="7"/><path class="cls-10" d="M468,210a6,6,0,0,1,6,6v39a6,6,0,0,1-6,6H324a6,6,0,0,1-6-6V216a6,6,0,0,1,6-6H468m0-2H324a8,8,0,0,0-8,8v39a8,8,0,0,0,8,8H468a8,8,0,0,0,8-8V216a8,8,0,0,0-8-8Z"/><text class="cls-11" transform="translate(334 243.87)">.is-strong</text><polyline class="cls-12" points="316 165.5 301 165.5 301 95.5"/><polyline class="cls-12" points="316 235.5 301 235.5 301 165.5"/><path class="cls-13" d="M264.21,350.62S247,347,253,301s-46-26.44-47,8"/><path class="cls-13" d="M319,317.07S309,284,286,282s-47,0-80,26"/><path class="cls-7" d="M466.46,383.75a7.16,7.16,0,0,1-1.94-.28L316.66,340.42a7,7,0,0,1-4.76-8.68l10.9-37.45a7.06,7.06,0,0,1,6.74-5,7.16,7.16,0,0,1,1.94.28l147.86,43.05a7,7,0,0,1,4.76,8.68l-10.9,37.45A7.06,7.06,0,0,1,466.46,383.75Z"/><path class="cls-10" d="M329.54,290.25h0a5.85,5.85,0,0,1,1.66.24l147.86,43.05a6,6,0,0,1,4.08,7.44l-10.9,37.45a6,6,0,0,1-5.78,4.32,5.85,5.85,0,0,1-1.66-.24L316.94,339.46a6,6,0,0,1-4.08-7.44l10.9-37.45a6,6,0,0,1,5.78-4.32m0-2a8,8,0,0,0-7.7,5.76l-10.9,37.45a8,8,0,0,0,5.44,9.92l147.86,43.05a7.79,7.79,0,0,0,2.22.32,8,8,0,0,0,7.7-5.76l10.9-37.45a8,8,0,0,0-5.44-9.92L331.76,288.57a7.79,7.79,0,0,0-2.22-.32Z"/><text class="cls-11" transform="translate(331.33 325.81) rotate(16.23)">.is-floating</text><path class="cls-7" d="M365.23,393.62a7.06,7.06,0,0,1-1.12-.1l-96.73-15.73a7,7,0,0,1-5.78-8l6.26-38.49a6.94,6.94,0,0,1,8-5.78l96.73,15.73a7,7,0,0,1,5.78,8l-6.26,38.49A7.06,7.06,0,0,1,365.23,393.62Z"/><path class="cls-10" d="M274.77,326.38h0a6.22,6.22,0,0,1,1,.08l96.73,15.74a6,6,0,0,1,5,6.88l-6.27,38.5a6,6,0,0,1-5.92,5,6.22,6.22,0,0,1-1-.08L267.54,376.8a6,6,0,0,1-5-6.88l6.27-38.5a6,6,0,0,1,5.92-5m0-2a8,8,0,0,0-7.9,6.72l-6.26,38.49a8,8,0,0,0,6.61,9.18L364,394.51a8,8,0,0,0,9.18-6.61l6.26-38.49a8,8,0,0,0-6.61-9.18l-96.73-15.74a8,8,0,0,0-1.28-.11Z"/><text class="cls-11" transform="matrix(0.99, 0.16, -0.16, 0.99, 280.16, 361.5)">.is-xxl</text><path class="cls-14" d="M211,384c0,12.7-35.59,21-79.5,21S52,396.7,52,384s35.59-19,79.5-19S211,371.3,211,384Z"/><path class="cls-7" d="M163.12,363.45s38.07,7.7,29.21,19.07S167,390.37,144,376.27,163.12,363.45,163.12,363.45Z"/><path class="cls-7" d="M125.81,365.39s18.45,27.08-20.26,27.6S84,360.47,125.81,365.39Z"/><path class="cls-7" d="M177.54,333.2s37.85-14,33-24-10.14-18.31-40,1.37S177.54,333.2,177.54,333.2Z"/><path class="cls-15" d="M175.76,359.48s13.89-24.66-7-51.3c-12-15.27-33.21-18.74-45.07-15.45-12.22,3.38-34.91,6.81-33.4,47.09C92.21,390.58,163.65,380.19,175.76,359.48Z"/><path class="cls-7" d="M81.18,324.71s-24,32.47-14.43,38.22,18.53,9.74,32.67-23.09S81.18,324.71,81.18,324.71Z"/><path class="cls-15" d="M158.05,325.2c.84,3.26,4.42,5.77,10.64,7.47a53.74,53.74,0,0,0,8.77,1.58,1.17,1.17,0,0,0,.45-.06A161,161,0,0,0,199.73,324a1,1,0,0,0,.52-.87,1.06,1.06,0,0,0-.47-.91c-7-4.71-11.47-11.58-12.47-19.34-.06-.41-.09-.83-.13-1.24a1,1,0,0,0-.51-.82,1,1,0,0,0-.67-.14,1,1,0,0,0-.29.08A113.13,113.13,0,0,0,170,309.66C160.84,315.71,156.92,320.8,158.05,325.2Z"/><path class="cls-15" d="M70.32,339.62a172.46,172.46,0,0,1,10-15.53,1,1,0,0,1,.34-.3c1.57-.86,15.52-8.25,21.18-3.1,3.37,3.07,2.89,9.47-1.46,19.56a129.17,129.17,0,0,1-6.28,12.84,1,1,0,0,1-.81.52h-.23a1,1,0,0,1-.67-.36A36.62,36.62,0,0,0,71,341.17a1.06,1.06,0,0,1-.72-1.55Z"/><path class="cls-16" d="M180.74,309.26c7.07-8.39,29-44.12-2.71-68.21-21.42-16.25-33-12.17-51.9-40.19,0,0-1.45-5.3-5.34,1.63,0,0-14.16,23.29-47.76,45C24.92,282.18,65.21,327,88.46,329.12,134.44,337.39,173.67,317.64,180.74,309.26Z"/><path class="cls-15" d="M188.74,301.26c7.07-8.39,21-46.12-10.71-70.21-21.42-16.25-33-12.17-51.9-40.19,0,0-1.45-5.3-5.34,1.63,0,0-14.16,23.29-47.76,45C24.92,272.18,59.21,324,82.46,326.12,128.44,334.39,181.67,309.64,188.74,301.26Z"/><polygon class="cls-17" points="168.97 199.66 166.13 169.12 180.66 172.57 168.97 199.66"/><polygon class="cls-17" points="184.34 211.03 200.52 183.09 212.37 193.57 184.34 211.03"/><polygon class="cls-17" points="197.79 226.23 224.51 212.65 227.82 225.46 197.79 226.23"/></svg>