<svg id="レイヤー_1" data-name="レイヤー 1" xmlns="http://www.w3.org/2000/svg" xmlns:xlink="http://www.w3.org/1999/xlink" viewBox="0 0 528 408"><defs><style>.cls-1{fill:none;}.cls-2{fill:#edeff0;}.cls-3{fill:#d1d7da;}.cls-4{fill:#596c75;}.cls-5{fill:#e65d53;}.cls-6{fill:#e8b92e;}.cls-7{fill:#5ead61;}.cls-8{font-size:20px;fill:#667b85;font-family:KozGoPr6N-Regular-83pv-RKSJ-H, Kozuka Gothic Pr6N;}.cls-9{letter-spacing:-0.03em;}.cls-10{fill:#fff;}.cls-11{fill:#498dc9;}.cls-12{fill:#efd252;}.cls-13{fill:#0ea1b3;}.cls-14{fill:#1cb4c7;}.cls-15{fill:#f4e673;}.cls-16{clip-path:url(#clip-path);}.cls-17{opacity:0.2;}</style><clipPath id="clip-path"><rect class="cls-1" x="-1650" width="1600" height="900"/></clipPath></defs><title>illust-topcover</title><rect class="cls-2" width="528" height="336" rx="12" ry="12"/><path class="cls-3" d="M12,0H516a12,12,0,0,1,12,12V40a0,0,0,0,1,0,0H0a0,0,0,0,1,0,0V12A12,12,0,0,1,12,0Z"/><path class="cls-4" d="M294,40H528a0,0,0,0,1,0,0V324a12,12,0,0,1-12,12H294a0,0,0,0,1,0,0V40A0,0,0,0,1,294,40Z"/><circle class="cls-5" cx="20" cy="20" r="8"/><circle class="cls-6" cx="44" cy="20" r="8"/><circle class="cls-7" cx="68" cy="20" r="8"/><rect class="cls-3" x="20" y="60" width="74" height="30"/><rect class="cls-3" x="20" y="100" width="254" height="108"/><rect class="cls-3" x="158" y="220" width="116" height="68"/><rect class="cls-3" x="20" y="220" width="116" height="10"/><rect class="cls-3" x="20" y="240" width="116" height="10"/><rect class="cls-3" x="20" y="260" width="116" height="10"/><rect class="cls-3" x="20" y="280" width="116" height="10"/><rect class="cls-3" x="20" y="300" width="100" height="10"/><rect class="cls-3" x="200" y="60" width="74" height="30"/><text class="cls-8" transform="translate(321 82)"><tspan class="cls-9">■■■</tspan><tspan x="57.92" y="0">■</tspan><tspan x="0" y="36.6">　</tspan><tspan class="cls-9" x="20" y="36.6">■■■■■</tspan><tspan x="116.53" y="36.6">■</tspan><tspan class="cls-9" x="0" y="73.2">■■■■■■■■</tspan><tspan x="154.45" y="73.2">■</tspan><tspan class="cls-9" x="0" y="109.8">■■■■■■■</tspan><tspan x="135.14" y="109.8">■</tspan><tspan x="0" y="146.4">　</tspan><tspan class="cls-9" x="20" y="146.4">■■■■■</tspan><tspan x="116.53" y="146.4">■</tspan><tspan x="0" y="183">　　</tspan><tspan class="cls-9" x="40" y="183">■■■■■</tspan><tspan x="136.53" y="183">■</tspan><tspan class="cls-9" x="0" y="219.59">■■■■■</tspan><tspan x="96.53" y="219.59">■</tspan></text><path class="cls-10" d="M314.4,371.16s-47.46,9.6-36.41,23.77,31.54,9.79,60.2-7.78S314.4,371.16,314.4,371.16Z"/><path class="cls-10" d="M360.91,373.58s-23,33.76,25.25,34.41S413,367.46,360.91,373.58Z"/><path class="cls-10" d="M291.44,302.81s-47.18,17.45-41.18,30,12.64,22.82,49.84-1.71S291.44,302.81,291.44,302.81Z"/><path class="cls-11" d="M298.65,366.22s-17.31-30.75,8.7-64c14.9-19,41.4-23.36,56.18-19.26,15.23,4.22,43.51,8.49,41.63,58.7C402.79,405,313.74,392,298.65,366.22Z"/><path class="cls-10" d="M416.55,322.87s29.86,40.48,18,47.65-23.09,12.14-40.71-28.79S416.55,322.87,416.55,322.87Z"/><path class="cls-10" d="M329.29,306.83s.33,31,10.3,26.51,23.93-23.71,23.93-23.71Z"/><path class="cls-11" d="M315.73,312.78c-1-4.06-5.5-7.19-13.26-9.31a65.85,65.85,0,0,0-10.92-2,1.33,1.33,0,0,0-.56.07c-.15.06-15.24,5.67-27.21,12.72a1.3,1.3,0,0,0-.64,1.09,1.33,1.33,0,0,0,.58,1.13c8.78,5.87,14.3,14.43,15.55,24.1.07.52.11,1,.15,1.56a1.33,1.33,0,0,0,.64,1,1.3,1.3,0,0,0,.84.17,1.21,1.21,0,0,0,.36-.1,140.64,140.64,0,0,0,19.56-11.12C312.26,324.61,317.14,318.27,315.73,312.78Z"/><path class="cls-11" d="M430.08,341.46A213.3,213.3,0,0,0,417.6,322.1a1.24,1.24,0,0,0-.42-.37c-2-1.08-19.35-10.28-26.4-3.86-4.2,3.82-3.6,11.79,1.82,24.38a165,165,0,0,0,7.82,16,1.31,1.31,0,0,0,1,.66h.29a1.3,1.3,0,0,0,.83-.45,45.61,45.61,0,0,1,26.62-15.06,1.32,1.32,0,0,0,.94-.73A1.3,1.3,0,0,0,430.08,341.46Z"/><path class="cls-11" d="M277.48,293.64c-8.82-10.45-26.22-57.49,13.35-87.51C317.53,185.87,332,191,355.53,156c0,0,1.81-6.61,6.66,2,0,0,17.64,29,59.53,56.07C481.69,257.39,439,322,410,324.63,352.65,334.94,286.29,304.1,277.48,293.64Z"/><path class="cls-10" d="M341.18,312.73s-40.06-6.91-50.27-23.77-7.38-43,10.41-50.83c12.92-5.67,29.93-4.6,52.78.2s54.68,21.22,44.56,57.6C390.62,324.83,359.28,314.66,341.18,312.73Z"/><path class="cls-12" d="M340.19,224.67s-11.78-.79-13.07-6.42c-1.86-8.16,9.53-7.35,12.47-6.83,5.69,1,11.85,1.33,12.52,6.5C352.92,224.19,344.64,224.68,340.19,224.67Z"/><path class="cls-13" d="M310.78,262.31s-.86-16.85,5.11-16.31c7.12.63,6.65,10.88,6,16.18s-1.9,10.68-5.93,9.89C313.35,271.56,311.36,266.8,310.78,262.31Z"/><path class="cls-13" d="M351.37,269.51s-.94-18.35,5.56-17.77c7.76.69,7.25,11.85,6.57,17.62S361.43,281,357,280.15C354.17,279.59,352,274.4,351.37,269.51Z"/><path class="cls-11" d="M352.45,300.58a19.25,19.25,0,0,1-5.36-.06c-7.41-1.11-12.69-6.35-15.48-9.89-5.44,3.93-10.33,5.24-14.57,3.87-6.51-2.09-8.32-9.58-8.4-9.9a3.47,3.47,0,0,1,6.75-1.59c0,.1,1.1,4.08,3.82,4.94,2.46.77,6.32-1,10.87-4.92a3.48,3.48,0,0,1,5.31.92c0,.08,5,8.61,12.78,9.76,4.77.7,9.91-1.51,15.26-6.57a3.46,3.46,0,1,1,4.78,5C363,297.07,357.71,299.9,352.45,300.58Z"/><circle class="cls-1" cx="197" cy="332" r="76"/><circle class="cls-14" cx="197" cy="332" r="72"/><path class="cls-10" d="M197,264a68,68,0,1,1-68,68,68.07,68.07,0,0,1,68-68m0-8a76,76,0,1,0,76,76,76,76,0,0,0-76-76Z"/><path class="cls-10" d="M241,337.63l-.87-2.52a126.5,126.5,0,0,0-7.48-18.28c-4.71-9.28-11.55-17.67-17.48-22.17l-.33-.26-.36-.23c-5-3.3-11.1-4.63-17.45-4.65s-12.47,1.35-17.45,4.65l-.36.23-.33.26c-5.93,4.5-12.77,12.89-17.48,22.17a126.5,126.5,0,0,0-7.48,18.28c-.3.87-.59,1.71-.86,2.52a24.2,24.2,0,0,0,1.11,19.7c3.45,6.34,10.71,9.45,18.08,9.37.34,0,.68,0,1,0h2.31V335c.06-6.26,2.91-4.66,9.21-.87a24.41,24.41,0,0,0,24.46,0c6.3-3.79,9.15-5.39,9.21.87v31.72h2.31c.34,0,.68,0,1,0,7.37.08,14.63-3,18.09-9.37A24.27,24.27,0,0,0,241,337.63Z"/><polygon class="cls-15" points="48.78 72.1 138.63 175.59 93.14 175.59 150 262.02 34 151.71 84.04 151.71 48.78 72.1"/><polygon class="cls-15" points="264 116 220 187 254 187 228 253 289.01 169 254 169 264 116"/><g class="cls-16"><g class="cls-17"><path class="cls-10" d="M304,70H-596a24,24,0,0,0-24,24V694a24,24,0,0,0,24,24h348.86L-266,850H-26L-44.86,718H304a24,24,0,0,0,24-24V94A24,24,0,0,0,304,70ZM292,598H-584V106H292Z"/></g></g></svg>