<svg id="レイヤー_1" data-name="レイヤー 1" xmlns="http://www.w3.org/2000/svg" viewBox="0 0 528 418"><defs><style>.cls-1{fill:#eee;}.cls-2{fill:#e0e0e0;}.cls-3{fill:#edeff0;}.cls-4{fill:#d1d7da;}.cls-5{fill:#e65d53;}.cls-6{fill:#e8b92e;}.cls-7{fill:#5ead61;}.cls-8{fill:#92bf5d;}.cls-9{fill:#fff;}.cls-10{fill:#498dc9;}.cls-11{fill:#efd252;}.cls-12{fill:#0ea1b3;}.cls-13,.cls-14{fill:none;stroke-linecap:round;stroke-miterlimit:10;stroke-width:8px;}.cls-13{stroke:#e8b92e;}.cls-14{stroke:#92bf5d;}.cls-15,.cls-16{fill:#e7ae27;}.cls-16,.cls-18{font-size:26.27px;font-family:Nunito-Black, Nunito;}.cls-17,.cls-18{fill:#83b351;}</style></defs><title>illust-about-3</title><path class="cls-1" d="M479,399.5c0,6.35-63.13,10.5-141,10.5s-141-4.15-141-10.5,63.13-9.5,141-9.5S479,393.15,479,399.5Z"/><path class="cls-2" d="M457,398.17c0,4.13-49.25,6.83-110,6.83s-110-2.7-110-6.83S286.25,392,347,392,457,394.05,457,398.17Z"/><path class="cls-2" d="M162,399.5c0,6.35-27.09,10.5-60.5,10.5S41,405.85,41,399.5s27.09-9.5,60.5-9.5S162,393.15,162,399.5Z"/><rect class="cls-3" x="20" y="10" width="294" height="336" rx="12" ry="12"/><path class="cls-4" d="M32,10H302a12,12,0,0,1,12,12V50a0,0,0,0,1,0,0H20a0,0,0,0,1,0,0V22A12,12,0,0,1,32,10Z"/><circle class="cls-5" cx="40" cy="30" r="8"/><circle class="cls-6" cx="64" cy="30" r="8"/><circle class="cls-7" cx="88" cy="30" r="8"/><rect class="cls-6" x="40" y="70" width="74" height="30"/><rect class="cls-8" x="40" y="110" width="254" height="108"/><rect class="cls-4" x="178" y="230" width="116" height="68"/><rect class="cls-4" x="40" y="230" width="116" height="10"/><rect class="cls-4" x="40" y="250" width="116" height="10"/><rect class="cls-4" x="40" y="270" width="116" height="10"/><rect class="cls-4" x="40" y="290" width="116" height="10"/><rect class="cls-4" x="40" y="310" width="100" height="10"/><rect class="cls-4" x="220" y="70" width="74" height="30"/><path class="cls-3" d="M191.14,169.23l-.47-1.38a70.34,70.34,0,0,0-4.11-10,37.34,37.34,0,0,0-9.6-12.17l-.18-.15-.2-.12a19.21,19.21,0,0,0-19.16,0l-.2.12-.18.15a37.34,37.34,0,0,0-9.6,12.17,70.34,70.34,0,0,0-4.11,10l-.47,1.38a13.32,13.32,0,0,0,.61,10.81c1.9,3.49,5.88,5.19,9.93,5.15h1.83V167.76c0-3.44,1.6-2.56,5.06-.48a13.36,13.36,0,0,0,13.42,0c3.46-2.08,5-3,5.06.48v17.42h1.83c4.05,0,8-1.66,9.93-5.15A13.32,13.32,0,0,0,191.14,169.23Z"/><path class="cls-3" d="M87.62,87.3l-.21-.61a30.69,30.69,0,0,0-1.8-4.41,16.37,16.37,0,0,0-4.23-5.36l-.08-.06-.08-.06a8.51,8.51,0,0,0-8.44,0l-.08.06-.08.06a16.37,16.37,0,0,0-4.23,5.36,30.69,30.69,0,0,0-1.8,4.41l-.21.61a5.85,5.85,0,0,0,.27,4.76A4.79,4.79,0,0,0,71,94.32h.8V86.65c0-1.51.7-1.12,2.23-.21a5.87,5.87,0,0,0,5.9,0c1.53-.91,2.22-1.3,2.23.21v7.67H83a4.78,4.78,0,0,0,4.37-2.26A5.85,5.85,0,0,0,87.62,87.3Z"/><path class="cls-3" d="M267.62,87.3l-.21-.61a30.69,30.69,0,0,0-1.8-4.41,16.37,16.37,0,0,0-4.23-5.36l-.08-.06-.08-.06a8.51,8.51,0,0,0-8.44,0l-.08.06-.08.06a16.37,16.37,0,0,0-4.23,5.36,30.69,30.69,0,0,0-1.8,4.41l-.21.61a5.85,5.85,0,0,0,.27,4.76A4.79,4.79,0,0,0,251,94.32h.8V86.65c0-1.51.7-1.12,2.23-.21a5.87,5.87,0,0,0,5.9,0c1.53-.91,2.22-1.3,2.23.21v7.67h.8a4.78,4.78,0,0,0,4.37-2.26A5.85,5.85,0,0,0,267.62,87.3Z"/><path class="cls-3" d="M246.62,266.3l-.21-.61a30.69,30.69,0,0,0-1.8-4.41,16.37,16.37,0,0,0-4.23-5.36l-.08-.06-.08-.06a8.51,8.51,0,0,0-8.44,0l-.08.06-.08.06a16.37,16.37,0,0,0-4.23,5.36,30.69,30.69,0,0,0-1.8,4.41l-.21.61a5.85,5.85,0,0,0,.27,4.76,4.79,4.79,0,0,0,4.37,2.26h.8v-7.67c0-1.51.7-1.12,2.23-.21a5.87,5.87,0,0,0,5.9,0c1.53-.91,2.22-1.3,2.23.21v7.67h.8a4.78,4.78,0,0,0,4.37-2.26A5.85,5.85,0,0,0,246.62,266.3Z"/><rect class="cls-3" x="330" y="10" width="174" height="336" rx="12" ry="12"/><path class="cls-4" d="M342,10H492a12,12,0,0,1,12,12V50a0,0,0,0,1,0,0H330a0,0,0,0,1,0,0V22a12,12,0,0,1,12-12Z"/><rect class="cls-6" x="348" y="70" width="138" height="30"/><rect class="cls-8" x="348" y="110" width="138" height="108"/><rect class="cls-4" x="348" y="230" width="138" height="10"/><rect class="cls-4" x="348" y="250" width="138" height="10"/><rect class="cls-4" x="348" y="270" width="138" height="10"/><rect class="cls-4" x="348" y="290" width="138" height="10"/><rect class="cls-4" x="348" y="310" width="118.97" height="10"/><path class="cls-3" d="M427.62,166.3l-.21-.61a30.69,30.69,0,0,0-1.8-4.41,16.37,16.37,0,0,0-4.23-5.36l-.08-.06-.08-.06a8.51,8.51,0,0,0-8.44,0l-.08.06-.08.06a16.37,16.37,0,0,0-4.23,5.36,30.69,30.69,0,0,0-1.8,4.41l-.21.61a5.85,5.85,0,0,0,.27,4.76,4.79,4.79,0,0,0,4.37,2.26h.8v-7.67c0-1.51.7-1.12,2.23-.21a5.87,5.87,0,0,0,5.9,0c1.53-.91,2.22-1.3,2.23.21v7.67h.8a4.78,4.78,0,0,0,4.37-2.26A5.85,5.85,0,0,0,427.62,166.3Z"/><path class="cls-3" d="M427.62,87.3l-.21-.61a30.69,30.69,0,0,0-1.8-4.41,16.37,16.37,0,0,0-4.23-5.36l-.08-.06-.08-.06a8.51,8.51,0,0,0-8.44,0l-.08.06-.08.06a16.37,16.37,0,0,0-4.23,5.36,30.69,30.69,0,0,0-1.8,4.41l-.21.61a5.85,5.85,0,0,0,.27,4.76A4.79,4.79,0,0,0,411,94.32h.8V86.65c0-1.51.7-1.12,2.23-.21a5.87,5.87,0,0,0,5.9,0c1.53-.91,2.22-1.3,2.23.21v7.67h.8a4.78,4.78,0,0,0,4.37-2.26A5.85,5.85,0,0,0,427.62,87.3Z"/><rect class="cls-3" x="343" y="22" width="148" height="16" rx="2" ry="2"/><path class="cls-9" d="M122,380.19s29.39,5.94,22.55,14.72S125,401,107.22,390.09,122,380.19,122,380.19Z"/><path class="cls-9" d="M93.15,381.68S107.39,402.59,77.51,403,60.87,377.89,93.15,381.68Z"/><path class="cls-9" d="M135.17,354.78s29.22-10.8,25.5-18.55-7.82-14.13-30.86,1.06S135.17,354.78,135.17,354.78Z"/><path class="cls-10" d="M131.71,377.12s10.72-19-5.39-39.6c-9.23-11.79-25.64-14.47-34.8-11.93-9.43,2.62-26.94,5.26-25.78,36.36C67.21,401.13,122.36,393.11,131.71,377.12Z"/><path class="cls-9" d="M58.69,350.28S40.2,375.35,47.56,379.79,61.86,387.3,72.78,362,58.69,350.28,58.69,350.28Z"/><path class="cls-9" d="M112.73,340.34s-.2,19.18-6.38,16.42-14.82-14.68-14.82-14.68Z"/><path class="cls-10" d="M120.13,348.61c.64,2.51,3.4,4.45,8.21,5.77a41.85,41.85,0,0,0,6.76,1.21.7.7,0,0,0,.35,0,121.64,121.64,0,0,0,16.85-7.87.83.83,0,0,0,.4-.68.82.82,0,0,0-.36-.7,21.17,21.17,0,0,1-9.63-14.92c0-.33-.07-.65-.1-1a.8.8,0,0,0-.39-.63.86.86,0,0,0-.52-.11.81.81,0,0,0-.22.07,87.94,87.94,0,0,0-12.12,6.88C122.28,341.28,119.26,345.21,120.13,348.61Z"/><path class="cls-10" d="M50.31,361.79a132.64,132.64,0,0,1,7.73-12,.82.82,0,0,1,.26-.23c1.22-.66,12-6.37,16.35-2.39,2.6,2.37,2.23,7.31-1.13,15.1a101.59,101.59,0,0,1-4.84,9.91.83.83,0,0,1-.63.41h-.18a.79.79,0,0,1-.52-.28A28.17,28.17,0,0,0,50.87,363a.82.82,0,0,1-.59-.46A.81.81,0,0,1,50.31,361.79Z"/><path class="cls-10" d="M144.82,332.18c5.46-6.48,16.23-35.61-8.27-54.2-16.54-12.55-25.48-9.4-40.07-31,0,0-1.12-4.09-4.12,1.26,0,0-10.93,18-36.87,34.73-37.14,26.79-10.67,66.83,7.28,68.43C98.26,357.75,139.36,338.65,144.82,332.18Z"/><path class="cls-9" d="M105.37,344s24.81-4.28,31.13-14.72,4.57-26.65-6.45-31.48c-8-3.51-18.53-2.85-32.69.12S63.5,311.06,69.77,333.59C74.75,351.49,94.16,345.2,105.37,344Z"/><path class="cls-11" d="M106,289.46s7.3-.49,8.09-4c1.15-5.05-5.9-4.55-7.72-4.22-3.52.62-7.34.82-7.75,4C98.1,289.16,103.22,289.47,106,289.46Z"/><path class="cls-12" d="M124.19,312.77s.54-10.43-3.16-10.1c-4.41.39-4.12,6.74-3.73,10s1.18,6.61,3.67,6.13C122.6,318.5,123.83,315.55,124.19,312.77Z"/><path class="cls-12" d="M99.06,317.23s.58-11.37-3.45-11c-4.8.43-4.49,7.35-4.06,10.92s1.28,7.21,4,6.68C97.33,323.48,98.66,320.26,99.06,317.23Z"/><path class="cls-10" d="M98.39,336.47a11.54,11.54,0,0,0,3.32,0c4.59-.69,7.86-3.93,9.58-6.13,3.37,2.44,6.4,3.24,9,2.4,4-1.3,5.16-5.94,5.21-6.13a2.15,2.15,0,0,0-4.18-1c0,.07-.68,2.53-2.36,3.06s-3.92-.6-6.74-3a2.14,2.14,0,0,0-3.28.56c0,.05-3.08,5.33-7.92,6.05-3,.43-6.14-.94-9.45-4.07a2.17,2.17,0,0,0-3,.07,2.13,2.13,0,0,0,.08,3C91.86,334.3,95.13,336.05,98.39,336.47Z"/><path class="cls-13" d="M407,290.66S504,238,457,91"/><path class="cls-14" d="M237,356.82S158,356,167,203"/><rect class="cls-9" x="200" y="266" width="278" height="53" rx="7" ry="7"/><path class="cls-15" d="M471,267a6,6,0,0,1,6,6v39a6,6,0,0,1-6,6H207a6,6,0,0,1-6-6V273a6,6,0,0,1,6-6H471m0-2H207a8,8,0,0,0-8,8v39a8,8,0,0,0,8,8H471a8,8,0,0,0,8-8V273a8,8,0,0,0-8-8Z"/><text class="cls-16" transform="translate(217 300.87)">.is-mobile-only-full</text><rect class="cls-9" x="238" y="330" width="218" height="53" rx="7" ry="7"/><path class="cls-17" d="M449,331a6,6,0,0,1,6,6v39a6,6,0,0,1-6,6H245a6,6,0,0,1-6-6V337a6,6,0,0,1,6-6H449m0-2H245a8,8,0,0,0-8,8v39a8,8,0,0,0,8,8H449a8,8,0,0,0,8-8V337a8,8,0,0,0-8-8Z"/><text class="cls-18" transform="translate(255 364.87)">.is-desktop-xxl</text></svg>