<svg id="レイヤー_1" data-name="レイヤー 1" xmlns="http://www.w3.org/2000/svg" viewBox="0 0 1600 900"><defs><style>.cls-1{fill:none}.cls-3{opacity:.2}.cls-4{fill:#fff}</style><clipPath id="clip-path"><path class="cls-1" d="M-1650 0H-50v900h-1600z"/></clipPath><clipPath id="clip-path-2"><path class="cls-1" d="M0 0h1600v900H0z"/></clipPath></defs><g class="cls-3" clip-path="url(#clip-path)"><path class="cls-4" d="M304 70h-900a24 24 0 0 0-24 24v600a24 24 0 0 0 24 24h348.86L-266 850h240l-18.86-132H304a24 24 0 0 0 24-24V94a24 24 0 0 0-24-24zm-12 528h-876V106h876z"/></g><g class="cls-3" clip-path="url(#clip-path-2)"><path class="cls-4" d="M452 802V370a24 24 0 0 0-24-24h-648a24 24 0 0 0-24 24v432h-102v24a24 24 0 0 0 24 24h852a24 24 0 0 0 24-24v-24zm-30-30h-636V376h636zM1954 70h-900a24 24 0 0 0-24 24v600a24 24 0 0 0 24 24h348.86L1384 850h240l-18.86-132H1954a24 24 0 0 0 24-24V94a24 24 0 0 0-24-24zm-12 528h-876V106h876zM878 406H710a24 24 0 0 0-24 24v396a24 24 0 0 0 24 24h168a24 24 0 0 0 24-24V430a24 24 0 0 0-24-24zm0 408a12 12 0 0 1-12 12H722a12 12 0 0 1-12-12V442a12 12 0 0 1 12-12h18v12a12 12 0 0 0 12 12h84a12 12 0 0 0 12-12v-12h18a12 12 0 0 1 12 12z"/><path class="cls-4" d="M836 778h-84a12 12 0 0 0 0 24h84a12 12 0 0 0 0-24z"/></g></svg>