<svg xmlns="http://www.w3.org/2000/svg" viewBox="0 0 512 512"><path fill="#FFF" d="M404.095 285.074c-.938-2.723-1.909-5.549-2.905-8.477-6.003-17.407-13.017-38.142-25.206-61.58-15.879-31.285-38.901-59.525-58.888-74.682-.371-.289-.745-.578-1.117-.866l-1.185-.793c-16.783-11.108-37.4-15.606-58.793-15.675-21.396.07-42.008 4.572-58.792 15.675-.396.263-.792.528-1.187.793-.373.288-.744.576-1.116.866-19.992 15.154-43.017 43.396-58.89 74.684-12.19 23.438-19.21 44.168-25.204 61.575-.998 2.927-1.964 5.754-2.905 8.478-7.395 20.083-7.796 45.255 3.741 66.364 11.642 21.363 36.083 31.837 60.926 31.558a96.462 96.462 0 0 0 3.438-.058h7.767V276.065c.196-21.076 9.803-15.701 31.025-2.918 25.204 14.752 57.187 14.752 82.391 0 21.223-12.782 30.835-18.158 31.025 2.918v106.871h7.769c1.141.037 2.294.058 3.433.058 24.852.278 49.279-10.198 60.932-31.561 11.53-21.108 11.136-46.28 3.741-66.359z"/></svg>