<svg id="レイヤー_1" data-name="レイヤー 1" xmlns="http://www.w3.org/2000/svg" viewBox="0 0 528 418"><defs><style>.cls-3{fill:#edeff0}.cls-4{fill:#d1d7da}.cls-6{fill:#e8b92e}.cls-8{fill:#92bf5d}.cls-9{fill:#fff}.cls-10{fill:#498dc9}</style></defs><path d="M479 399.5c0 6.35-63.13 10.5-141 10.5s-141-4.15-141-10.5 63.13-9.5 141-9.5 141 3.15 141 9.5z" fill="#eee"/><path d="M457 398.17c0 4.13-49.25 6.83-110 6.83s-110-2.7-110-6.83S286.25 392 347 392s110 2.05 110 6.17zm-295 1.33c0 6.35-27.09 10.5-60.5 10.5S41 405.85 41 399.5s27.09-9.5 60.5-9.5 60.5 3.15 60.5 9.5z" fill="#e0e0e0"/><rect class="cls-3" x="20" y="10" width="294" height="336" rx="12" ry="12"/><path class="cls-4" d="M32 10h270a12 12 0 0 1 12 12v28H20V22a12 12 0 0 1 12-12z"/><circle cx="40" cy="30" r="8" fill="#e65d53"/><circle class="cls-6" cx="64" cy="30" r="8"/><circle cx="88" cy="30" r="8" fill="#5ead61"/><path class="cls-6" d="M40 70h74v30H40z"/><path class="cls-8" d="M40 110h254v108H40z"/><path class="cls-4" d="M178 230h116v68H178zm-138 0h116v10H40zm0 20h116v10H40zm0 20h116v10H40zm0 20h116v10H40zm0 20h100v10H40zM220 70h74v30h-74z"/><path class="cls-3" d="M191.14 169.23l-.47-1.38a70.34 70.34 0 0 0-4.11-10 37.34 37.34 0 0 0-9.6-12.17l-.18-.15-.2-.12a19.21 19.21 0 0 0-19.16 0l-.2.12-.18.15a37.34 37.34 0 0 0-9.6 12.17 70.34 70.34 0 0 0-4.11 10l-.47 1.38a13.32 13.32 0 0 0 .61 10.81c1.9 3.49 5.88 5.19 9.93 5.15h1.83v-17.43c0-3.44 1.6-2.56 5.06-.48a13.36 13.36 0 0 0 13.42 0c3.46-2.08 5-3 5.06.48v17.42h1.83c4.05 0 8-1.66 9.93-5.15a13.32 13.32 0 0 0 .61-10.8zM87.62 87.3l-.21-.61a30.69 30.69 0 0 0-1.8-4.41 16.37 16.37 0 0 0-4.23-5.36l-.08-.06-.08-.06a8.51 8.51 0 0 0-8.44 0l-.08.06-.08.06a16.37 16.37 0 0 0-4.23 5.36 30.69 30.69 0 0 0-1.8 4.41l-.21.61a5.85 5.85 0 0 0 .27 4.76A4.79 4.79 0 0 0 71 94.32h.8v-7.67c0-1.51.7-1.12 2.23-.21a5.87 5.87 0 0 0 5.9 0c1.53-.91 2.22-1.3 2.23.21v7.67H83a4.78 4.78 0 0 0 4.37-2.26 5.85 5.85 0 0 0 .25-4.76zm180 0l-.21-.61a30.69 30.69 0 0 0-1.8-4.41 16.37 16.37 0 0 0-4.23-5.36l-.08-.06-.08-.06a8.51 8.51 0 0 0-8.44 0l-.08.06-.08.06a16.37 16.37 0 0 0-4.23 5.36 30.69 30.69 0 0 0-1.8 4.41l-.21.61a5.85 5.85 0 0 0 .27 4.76 4.79 4.79 0 0 0 4.35 2.26h.8v-7.67c0-1.51.7-1.12 2.23-.21a5.87 5.87 0 0 0 5.9 0c1.53-.91 2.22-1.3 2.23.21v7.67h.8a4.78 4.78 0 0 0 4.37-2.26 5.85 5.85 0 0 0 .29-4.76zm-21 179l-.21-.61a30.69 30.69 0 0 0-1.8-4.41 16.37 16.37 0 0 0-4.23-5.36l-.08-.06-.08-.06a8.51 8.51 0 0 0-8.44 0l-.08.06-.08.06a16.37 16.37 0 0 0-4.23 5.36 30.69 30.69 0 0 0-1.8 4.41l-.21.61a5.85 5.85 0 0 0 .27 4.76 4.79 4.79 0 0 0 4.37 2.26h.8v-7.67c0-1.51.7-1.12 2.23-.21a5.87 5.87 0 0 0 5.9 0c1.53-.91 2.22-1.3 2.23.21v7.67h.8a4.78 4.78 0 0 0 4.37-2.26 5.85 5.85 0 0 0 .27-4.76z"/><rect class="cls-3" x="330" y="10" width="174" height="336" rx="12" ry="12"/><path class="cls-4" d="M342 10h150a12 12 0 0 1 12 12v28H330V22a12 12 0 0 1 12-12z"/><path class="cls-6" d="M348 70h138v30H348z"/><path class="cls-8" d="M348 110h138v108H348z"/><path class="cls-4" d="M348 230h138v10H348zm0 20h138v10H348zm0 20h138v10H348zm0 20h138v10H348zm0 20h118.97v10H348z"/><path class="cls-3" d="M427.62 166.3l-.21-.61a30.69 30.69 0 0 0-1.8-4.41 16.37 16.37 0 0 0-4.23-5.36l-.08-.06-.08-.06a8.51 8.51 0 0 0-8.44 0l-.08.06-.08.06a16.37 16.37 0 0 0-4.23 5.36 30.69 30.69 0 0 0-1.8 4.41l-.21.61a5.85 5.85 0 0 0 .27 4.76 4.79 4.79 0 0 0 4.37 2.26h.8v-7.67c0-1.51.7-1.12 2.23-.21a5.87 5.87 0 0 0 5.9 0c1.53-.91 2.22-1.3 2.23.21v7.67h.8a4.78 4.78 0 0 0 4.37-2.26 5.85 5.85 0 0 0 .27-4.76zm0-79l-.21-.61a30.69 30.69 0 0 0-1.8-4.41 16.37 16.37 0 0 0-4.23-5.36l-.08-.06-.08-.06a8.51 8.51 0 0 0-8.44 0l-.08.06-.08.06a16.37 16.37 0 0 0-4.23 5.36 30.69 30.69 0 0 0-1.8 4.41l-.21.61a5.85 5.85 0 0 0 .27 4.76 4.79 4.79 0 0 0 4.35 2.26h.8v-7.67c0-1.51.7-1.12 2.23-.21a5.87 5.87 0 0 0 5.9 0c1.53-.91 2.22-1.3 2.23.21v7.67h.8a4.78 4.78 0 0 0 4.37-2.26 5.85 5.85 0 0 0 .29-4.76z"/><rect class="cls-3" x="343" y="22" width="148" height="16" rx="2" ry="2"/><path class="cls-9" d="M122 380.19s29.39 5.94 22.55 14.72-19.55 6.09-37.33-4.82 14.78-9.9 14.78-9.9zm-28.85 1.49s14.24 20.91-15.64 21.32-16.64-25.11 15.64-21.32zm42.02-26.9s29.22-10.8 25.5-18.55-7.82-14.13-30.86 1.06 5.36 17.49 5.36 17.49z"/><path class="cls-10" d="M131.71 377.12s10.72-19-5.39-39.6c-9.23-11.79-25.64-14.47-34.8-11.93-9.43 2.62-26.94 5.26-25.78 36.36 1.47 39.18 56.62 31.16 65.97 15.17z"/><path class="cls-9" d="M58.69 350.28s-18.49 25.07-11.13 29.51 14.3 7.51 25.22-17.79-14.09-11.72-14.09-11.72zm54.04-9.94s-.2 19.18-6.38 16.42-14.82-14.68-14.82-14.68z"/><path class="cls-10" d="M120.13 348.61c.64 2.51 3.4 4.45 8.21 5.77a41.85 41.85 0 0 0 6.76 1.21.7.7 0 0 0 .35 0 121.64 121.64 0 0 0 16.85-7.87.83.83 0 0 0 .4-.68.82.82 0 0 0-.36-.7 21.17 21.17 0 0 1-9.63-14.92c0-.33-.07-.65-.1-1a.8.8 0 0 0-.39-.63.86.86 0 0 0-.52-.11.81.81 0 0 0-.22.07 87.94 87.94 0 0 0-12.12 6.88c-7.08 4.65-10.1 8.58-9.23 11.98zm-69.82 13.18a132.64 132.64 0 0 1 7.73-12 .82.82 0 0 1 .26-.23c1.22-.66 12-6.37 16.35-2.39 2.6 2.37 2.23 7.31-1.13 15.1a101.59 101.59 0 0 1-4.84 9.91.83.83 0 0 1-.63.41h-.18a.79.79 0 0 1-.52-.28A28.17 28.17 0 0 0 50.87 363a.82.82 0 0 1-.59-.46.81.81 0 0 1 .03-.75z"/><path class="cls-10" d="M144.82 332.18c5.46-6.48 16.23-35.61-8.27-54.2-16.54-12.55-25.48-9.4-40.07-31 0 0-1.12-4.09-4.12 1.26 0 0-10.93 18-36.87 34.73-37.14 26.79-10.67 66.83 7.28 68.43 35.49 6.35 76.59-12.75 82.05-19.22z"/><path class="cls-9" d="M105.37 344s24.81-4.28 31.13-14.72 4.57-26.65-6.45-31.48c-8-3.51-18.53-2.85-32.69.12s-33.86 13.14-27.59 35.67c4.98 17.9 24.39 11.61 35.6 10.41z"/><path d="M106 289.46s7.3-.49 8.09-4c1.15-5.05-5.9-4.55-7.72-4.22-3.52.62-7.34.82-7.75 4-.52 3.92 4.6 4.23 7.38 4.22z" fill="#efd252"/><path d="M124.19 312.77s.54-10.43-3.16-10.1c-4.41.39-4.12 6.74-3.73 10s1.18 6.61 3.67 6.13c1.63-.3 2.86-3.25 3.22-6.03zm-25.13 4.46s.58-11.37-3.45-11c-4.8.43-4.49 7.35-4.06 10.92s1.28 7.21 4 6.68c1.78-.35 3.11-3.57 3.51-6.6z" fill="#0ea1b3"/><path class="cls-10" d="M98.39 336.47a11.54 11.54 0 0 0 3.32 0c4.59-.69 7.86-3.93 9.58-6.13 3.37 2.44 6.4 3.24 9 2.4 4-1.3 5.16-5.94 5.21-6.13a2.15 2.15 0 0 0-4.18-1c0 .07-.68 2.53-2.36 3.06s-3.92-.6-6.74-3a2.14 2.14 0 0 0-3.28.56c0 .05-3.08 5.33-7.92 6.05-3 .43-6.14-.94-9.45-4.07a2.17 2.17 0 0 0-3 .07 2.13 2.13 0 0 0 .08 3c3.21 3.02 6.48 4.77 9.74 5.19z"/><path d="M407 290.66S504 238 457 91" stroke="#e8b92e" fill="none" stroke-linecap="round" stroke-miterlimit="10" stroke-width="8"/><path d="M237 356.82S158 356 167 203" stroke="#92bf5d" fill="none" stroke-linecap="round" stroke-miterlimit="10" stroke-width="8"/><rect class="cls-9" x="200" y="266" width="278" height="53" rx="7" ry="7"/><path d="M471 267a6 6 0 0 1 6 6v39a6 6 0 0 1-6 6H207a6 6 0 0 1-6-6v-39a6 6 0 0 1 6-6h264m0-2H207a8 8 0 0 0-8 8v39a8 8 0 0 0 8 8h264a8 8 0 0 0 8-8v-39a8 8 0 0 0-8-8z" fill="#e7ae27"/><text transform="translate(217 300.87)" font-size="26.27" font-family="Nunito-Black,Nunito" fill="#e7ae27">.is-mobile-only-full</text><rect class="cls-9" x="238" y="330" width="218" height="53" rx="7" ry="7"/><path d="M449 331a6 6 0 0 1 6 6v39a6 6 0 0 1-6 6H245a6 6 0 0 1-6-6v-39a6 6 0 0 1 6-6h204m0-2H245a8 8 0 0 0-8 8v39a8 8 0 0 0 8 8h204a8 8 0 0 0 8-8v-39a8 8 0 0 0-8-8z" fill="#83b351"/><text transform="translate(255 364.87)" fill="#83b351" font-size="26.27" font-family="Nunito-Black,Nunito">.is-desktop-xxl</text></svg>